<?xml version="1.0" encoding="UTF-8" standalone="no"?>
<svg
   xmlns:dc="http://purl.org/dc/elements/1.1/"
   xmlns:cc="http://creativecommons.org/ns#"
   xmlns:rdf="http://www.w3.org/1999/02/22-rdf-syntax-ns#"
   xmlns:svg="http://www.w3.org/2000/svg"
   xmlns="http://www.w3.org/2000/svg"
   xmlns:sodipodi="http://sodipodi.sourceforge.net/DTD/sodipodi-0.dtd"
   xmlns:inkscape="http://www.inkscape.org/namespaces/inkscape"
   height="3.4218in"
   version="1.1"
   viewBox="1.7037 -9.4559 13.7956 3.4218"
   width="13.7956in"
   id="svg4825"
   sodipodi:docname="LeftOven_drill.svg"
   inkscape:version="0.92.0 r15299">
  <metadata
     id="metadata4831">
    <rdf:RDF>
      <cc:Work
         rdf:about="">
        <dc:format>image/svg+xml</dc:format>
        <dc:type
           rdf:resource="http://purl.org/dc/dcmitype/StillImage" />
        <dc:title></dc:title>
      </cc:Work>
    </rdf:RDF>
  </metadata>
  <defs
     id="defs4829" />
  <sodipodi:namedview
     pagecolor="#ffffff"
     bordercolor="#666666"
     borderopacity="1"
     objecttolerance="10"
     gridtolerance="10"
     guidetolerance="10"
     inkscape:pageopacity="0"
     inkscape:pageshadow="2"
     inkscape:window-width="1366"
     inkscape:window-height="745"
     id="namedview4827"
     showgrid="false"
     inkscape:zoom="2.3940807"
     inkscape:cx="682.39254"
     inkscape:cy="89.96481"
     inkscape:window-x="-8"
     inkscape:window-y="-8"
     inkscape:window-maximized="1"
     inkscape:current-layer="svg4825" />
  <path
     d="m 5.7295565,-6.089705 -3.85e-5,7.841e-4 -1.152e-4,7.766e-4 -1.908e-4,7.616e-4 -2.645e-4,7.392e-4 -3.356e-4,7.097e-4 -4.036e-4,6.734e-4 -4.677e-4,6.305e-4 -5.272e-4,5.818e-4 -5.818e-4,5.272e-4 -6.305e-4,4.677e-4 -6.734e-4,4.036e-4 -7.097e-4,3.356e-4 -7.392e-4,2.645e-4 -7.616e-4,1.908e-4 -7.766e-4,1.152e-4 -7.841e-4,3.85e-5 -7.841e-4,-3.85e-5 -7.766e-4,-1.152e-4 -7.616e-4,-1.908e-4 -7.392e-4,-2.645e-4 -7.097e-4,-3.356e-4 -6.734e-4,-4.036e-4 -6.305e-4,-4.677e-4 -5.818e-4,-5.272e-4 -5.272e-4,-5.818e-4 -4.677e-4,-6.305e-4 -4.036e-4,-6.734e-4 -3.356e-4,-7.097e-4 -2.645e-4,-7.392e-4 -1.908e-4,-7.616e-4 -1.152e-4,-7.766e-4 -3.85e-5,-7.841e-4 3.85e-5,-7.841e-4 1.152e-4,-7.766e-4 1.908e-4,-7.616e-4 2.645e-4,-7.392e-4 3.356e-4,-7.097e-4 4.036e-4,-6.734e-4 4.677e-4,-6.305e-4 5.272e-4,-5.818e-4 5.818e-4,-5.272e-4 6.305e-4,-4.677e-4 6.734e-4,-4.036e-4 7.097e-4,-3.356e-4 7.392e-4,-2.645e-4 7.616e-4,-1.908e-4 7.766e-4,-1.152e-4 7.841e-4,-3.85e-5 7.841e-4,3.85e-5 7.766e-4,1.152e-4 7.616e-4,1.908e-4 7.392e-4,2.645e-4 7.097e-4,3.356e-4 6.734e-4,4.036e-4 6.305e-4,4.677e-4 5.818e-4,5.272e-4 5.272e-4,5.818e-4 4.677e-4,6.305e-4 4.036e-4,6.734e-4 3.356e-4,7.097e-4 2.645e-4,7.392e-4 1.908e-4,7.616e-4 1.152e-4,7.766e-4 z"
     id="path4487"
     inkscape:connector-curvature="0"
     style="opacity:0.6;fill:#66cc99;fill-rule:evenodd;stroke:#555555;stroke-width:0.1" />
  <path
     d="m 9.4995565,-6.079705 -3.85e-5,7.841e-4 -1.152e-4,7.766e-4 -1.908e-4,7.616e-4 -2.645e-4,7.392e-4 -3.356e-4,7.097e-4 -4.036e-4,6.734e-4 -4.677e-4,6.305e-4 -5.272e-4,5.818e-4 -5.818e-4,5.272e-4 -6.305e-4,4.677e-4 -6.734e-4,4.036e-4 -7.097e-4,3.356e-4 -7.392e-4,2.645e-4 -7.616e-4,1.908e-4 -7.766e-4,1.152e-4 -7.841e-4,3.85e-5 -7.841e-4,-3.85e-5 -7.766e-4,-1.152e-4 -7.616e-4,-1.908e-4 -7.392e-4,-2.645e-4 -7.097e-4,-3.356e-4 -6.734e-4,-4.036e-4 -6.305e-4,-4.677e-4 -5.818e-4,-5.272e-4 -5.272e-4,-5.818e-4 -4.677e-4,-6.305e-4 -4.036e-4,-6.734e-4 -3.356e-4,-7.097e-4 -2.645e-4,-7.392e-4 -1.908e-4,-7.616e-4 -1.152e-4,-7.766e-4 -3.85e-5,-7.841e-4 3.85e-5,-7.841e-4 1.152e-4,-7.766e-4 1.908e-4,-7.616e-4 2.645e-4,-7.392e-4 3.356e-4,-7.097e-4 4.036e-4,-6.734e-4 4.677e-4,-6.305e-4 5.272e-4,-5.818e-4 5.818e-4,-5.272e-4 6.305e-4,-4.677e-4 6.734e-4,-4.036e-4 7.097e-4,-3.356e-4 7.392e-4,-2.645e-4 7.616e-4,-1.908e-4 7.766e-4,-1.152e-4 7.841e-4,-3.85e-5 7.841e-4,3.85e-5 7.766e-4,1.152e-4 7.616e-4,1.908e-4 7.392e-4,2.645e-4 7.097e-4,3.356e-4 6.734e-4,4.036e-4 6.305e-4,4.677e-4 5.818e-4,5.272e-4 5.272e-4,5.818e-4 4.677e-4,6.305e-4 4.036e-4,6.734e-4 3.356e-4,7.097e-4 2.645e-4,7.392e-4 1.908e-4,7.616e-4 1.152e-4,7.766e-4 z"
     id="path4491"
     inkscape:connector-curvature="0"
     style="opacity:0.6;fill:#66cc99;fill-rule:evenodd;stroke:#555555;stroke-width:0.1" />
  <path
     d="m 4.6807565,-6.237205 -3.85e-5,7.841e-4 -1.152e-4,7.766e-4 -1.908e-4,7.616e-4 -2.645e-4,7.392e-4 -3.356e-4,7.097e-4 -4.036e-4,6.734e-4 -4.677e-4,6.305e-4 -5.272e-4,5.818e-4 -5.818e-4,5.272e-4 -6.305e-4,4.677e-4 -6.734e-4,4.036e-4 -7.097e-4,3.356e-4 -7.392e-4,2.645e-4 -7.616e-4,1.908e-4 -7.766e-4,1.152e-4 -7.841e-4,3.85e-5 -7.841e-4,-3.85e-5 -7.766e-4,-1.152e-4 -7.616e-4,-1.908e-4 -7.392e-4,-2.645e-4 -7.097e-4,-3.356e-4 -6.734e-4,-4.036e-4 -6.305e-4,-4.677e-4 -5.818e-4,-5.272e-4 -5.272e-4,-5.818e-4 -4.677e-4,-6.305e-4 -4.036e-4,-6.734e-4 -3.356e-4,-7.097e-4 -2.645e-4,-7.392e-4 -1.908e-4,-7.616e-4 -1.152e-4,-7.766e-4 -3.85e-5,-7.841e-4 3.85e-5,-7.841e-4 1.152e-4,-7.766e-4 1.908e-4,-7.616e-4 2.645e-4,-7.392e-4 3.356e-4,-7.097e-4 4.036e-4,-6.734e-4 4.677e-4,-6.305e-4 5.272e-4,-5.818e-4 5.818e-4,-5.272e-4 6.305e-4,-4.677e-4 6.734e-4,-4.036e-4 7.097e-4,-3.356e-4 7.392e-4,-2.645e-4 7.616e-4,-1.908e-4 7.766e-4,-1.152e-4 7.841e-4,-3.85e-5 7.841e-4,3.85e-5 7.766e-4,1.152e-4 7.616e-4,1.908e-4 7.392e-4,2.645e-4 7.097e-4,3.356e-4 6.734e-4,4.036e-4 6.305e-4,4.677e-4 5.818e-4,5.272e-4 5.272e-4,5.818e-4 4.677e-4,6.305e-4 4.036e-4,6.734e-4 3.356e-4,7.097e-4 2.645e-4,7.392e-4 1.908e-4,7.616e-4 1.152e-4,7.766e-4 z"
     id="path4493"
     inkscape:connector-curvature="0"
     style="opacity:0.6;fill:#66cc99;fill-rule:evenodd;stroke:#555555;stroke-width:0.1" />
  <path
     d="m 4.7573565,-6.231905 -3.85e-5,7.841e-4 -1.152e-4,7.766e-4 -1.908e-4,7.616e-4 -2.645e-4,7.392e-4 -3.356e-4,7.097e-4 -4.036e-4,6.734e-4 -4.677e-4,6.305e-4 -5.272e-4,5.818e-4 -5.818e-4,5.272e-4 -6.305e-4,4.677e-4 -6.734e-4,4.036e-4 -7.097e-4,3.356e-4 -7.392e-4,2.645e-4 -7.616e-4,1.908e-4 -7.766e-4,1.152e-4 -7.841e-4,3.85e-5 -7.841e-4,-3.85e-5 -7.766e-4,-1.152e-4 -7.616e-4,-1.908e-4 -7.392e-4,-2.645e-4 -7.097e-4,-3.356e-4 -6.734e-4,-4.036e-4 -6.305e-4,-4.677e-4 -5.818e-4,-5.272e-4 -5.272e-4,-5.818e-4 -4.677e-4,-6.305e-4 -4.036e-4,-6.734e-4 -3.356e-4,-7.097e-4 -2.645e-4,-7.392e-4 -1.908e-4,-7.616e-4 -1.152e-4,-7.766e-4 -3.85e-5,-7.841e-4 3.85e-5,-7.841e-4 1.152e-4,-7.766e-4 1.908e-4,-7.616e-4 2.645e-4,-7.392e-4 3.356e-4,-7.097e-4 4.036e-4,-6.734e-4 4.677e-4,-6.305e-4 5.272e-4,-5.818e-4 5.818e-4,-5.272e-4 6.305e-4,-4.677e-4 6.734e-4,-4.036e-4 7.097e-4,-3.356e-4 7.392e-4,-2.645e-4 7.616e-4,-1.908e-4 7.766e-4,-1.152e-4 7.841e-4,-3.85e-5 7.841e-4,3.85e-5 7.766e-4,1.152e-4 7.616e-4,1.908e-4 7.392e-4,2.645e-4 7.097e-4,3.356e-4 6.734e-4,4.036e-4 6.305e-4,4.677e-4 5.818e-4,5.272e-4 5.272e-4,5.818e-4 4.677e-4,6.305e-4 4.036e-4,6.734e-4 3.356e-4,7.097e-4 2.645e-4,7.392e-4 1.908e-4,7.616e-4 1.152e-4,7.766e-4 z"
     id="path4495"
     inkscape:connector-curvature="0"
     style="opacity:0.6;fill:#66cc99;fill-rule:evenodd;stroke:#555555;stroke-width:0.1" />
  <path
     d="m 9.4895565,-6.179705 -3.85e-5,7.841e-4 -1.152e-4,7.766e-4 -1.908e-4,7.616e-4 -2.645e-4,7.392e-4 -3.356e-4,7.097e-4 -4.036e-4,6.734e-4 -4.677e-4,6.305e-4 -5.272e-4,5.818e-4 -5.818e-4,5.272e-4 -6.305e-4,4.677e-4 -6.734e-4,4.036e-4 -7.097e-4,3.356e-4 -7.392e-4,2.645e-4 -7.616e-4,1.908e-4 -7.766e-4,1.152e-4 -7.841e-4,3.85e-5 -7.841e-4,-3.85e-5 -7.766e-4,-1.152e-4 -7.616e-4,-1.908e-4 -7.392e-4,-2.645e-4 -7.097e-4,-3.356e-4 -6.734e-4,-4.036e-4 -6.305e-4,-4.677e-4 -5.818e-4,-5.272e-4 -5.272e-4,-5.818e-4 -4.677e-4,-6.305e-4 -4.036e-4,-6.734e-4 -3.356e-4,-7.097e-4 -2.645e-4,-7.392e-4 -1.908e-4,-7.616e-4 -1.152e-4,-7.766e-4 -3.85e-5,-7.841e-4 3.85e-5,-7.841e-4 1.152e-4,-7.766e-4 1.908e-4,-7.616e-4 2.645e-4,-7.392e-4 3.356e-4,-7.097e-4 4.036e-4,-6.734e-4 4.677e-4,-6.305e-4 5.272e-4,-5.818e-4 5.818e-4,-5.272e-4 6.305e-4,-4.677e-4 6.734e-4,-4.036e-4 7.097e-4,-3.356e-4 7.392e-4,-2.645e-4 7.616e-4,-1.908e-4 7.766e-4,-1.152e-4 7.841e-4,-3.85e-5 7.841e-4,3.85e-5 7.766e-4,1.152e-4 7.616e-4,1.908e-4 7.392e-4,2.645e-4 7.097e-4,3.356e-4 6.734e-4,4.036e-4 6.305e-4,4.677e-4 5.818e-4,5.272e-4 5.272e-4,5.818e-4 4.677e-4,6.305e-4 4.036e-4,6.734e-4 3.356e-4,7.097e-4 2.645e-4,7.392e-4 1.908e-4,7.616e-4 1.152e-4,7.766e-4 z"
     id="path4497"
     inkscape:connector-curvature="0"
     style="opacity:0.6;fill:#66cc99;fill-rule:evenodd;stroke:#555555;stroke-width:0.1" />
  <path
     d="m 3.1473565,-6.501905 -3.85e-5,7.841e-4 -1.152e-4,7.766e-4 -1.908e-4,7.616e-4 -2.645e-4,7.392e-4 -3.356e-4,7.097e-4 -4.036e-4,6.734e-4 -4.677e-4,6.305e-4 -5.272e-4,5.818e-4 -5.818e-4,5.272e-4 -6.305e-4,4.677e-4 -6.734e-4,4.036e-4 -7.097e-4,3.356e-4 -7.392e-4,2.645e-4 -7.616e-4,1.908e-4 -7.766e-4,1.152e-4 -7.841e-4,3.85e-5 -7.841e-4,-3.85e-5 -7.766e-4,-1.152e-4 -7.616e-4,-1.908e-4 -7.392e-4,-2.645e-4 -7.097e-4,-3.356e-4 -6.734e-4,-4.036e-4 -6.305e-4,-4.677e-4 -5.818e-4,-5.272e-4 -5.272e-4,-5.818e-4 -4.677e-4,-6.305e-4 -4.036e-4,-6.734e-4 -3.356e-4,-7.097e-4 -2.645e-4,-7.392e-4 -1.908e-4,-7.616e-4 -1.152e-4,-7.766e-4 -3.85e-5,-7.841e-4 3.85e-5,-7.841e-4 1.152e-4,-7.766e-4 1.908e-4,-7.616e-4 2.645e-4,-7.392e-4 3.356e-4,-7.097e-4 4.036e-4,-6.734e-4 4.677e-4,-6.305e-4 5.272e-4,-5.818e-4 5.818e-4,-5.272e-4 6.305e-4,-4.677e-4 6.734e-4,-4.036e-4 7.097e-4,-3.356e-4 7.392e-4,-2.645e-4 7.616e-4,-1.908e-4 7.766e-4,-1.152e-4 7.841e-4,-3.85e-5 7.841e-4,3.85e-5 7.766e-4,1.152e-4 7.616e-4,1.908e-4 7.392e-4,2.645e-4 7.097e-4,3.356e-4 6.734e-4,4.036e-4 6.305e-4,4.677e-4 5.818e-4,5.272e-4 5.272e-4,5.818e-4 4.677e-4,6.305e-4 4.036e-4,6.734e-4 3.356e-4,7.097e-4 2.645e-4,7.392e-4 1.908e-4,7.616e-4 1.152e-4,7.766e-4 z"
     id="path4503"
     inkscape:connector-curvature="0"
     style="opacity:0.6;fill:#66cc99;fill-rule:evenodd;stroke:#555555;stroke-width:0.1" />
  <path
     d="m 3.1673565,-6.331905 -3.85e-5,7.841e-4 -1.152e-4,7.766e-4 -1.908e-4,7.616e-4 -2.645e-4,7.392e-4 -3.356e-4,7.097e-4 -4.036e-4,6.734e-4 -4.677e-4,6.305e-4 -5.272e-4,5.818e-4 -5.818e-4,5.272e-4 -6.305e-4,4.677e-4 -6.734e-4,4.036e-4 -7.097e-4,3.356e-4 -7.392e-4,2.645e-4 -7.616e-4,1.908e-4 -7.766e-4,1.152e-4 -7.841e-4,3.85e-5 -7.841e-4,-3.85e-5 -7.766e-4,-1.152e-4 -7.616e-4,-1.908e-4 -7.392e-4,-2.645e-4 -7.097e-4,-3.356e-4 -6.734e-4,-4.036e-4 -6.305e-4,-4.677e-4 -5.818e-4,-5.272e-4 -5.272e-4,-5.818e-4 -4.677e-4,-6.305e-4 -4.036e-4,-6.734e-4 -3.356e-4,-7.097e-4 -2.645e-4,-7.392e-4 -1.908e-4,-7.616e-4 -1.152e-4,-7.766e-4 -3.85e-5,-7.841e-4 3.85e-5,-7.841e-4 1.152e-4,-7.766e-4 1.908e-4,-7.616e-4 2.645e-4,-7.392e-4 3.356e-4,-7.097e-4 4.036e-4,-6.734e-4 4.677e-4,-6.305e-4 5.272e-4,-5.818e-4 5.818e-4,-5.272e-4 6.305e-4,-4.677e-4 6.734e-4,-4.036e-4 7.097e-4,-3.356e-4 7.392e-4,-2.645e-4 7.616e-4,-1.908e-4 7.766e-4,-1.152e-4 7.841e-4,-3.85e-5 7.841e-4,3.85e-5 7.766e-4,1.152e-4 7.616e-4,1.908e-4 7.392e-4,2.645e-4 7.097e-4,3.356e-4 6.734e-4,4.036e-4 6.305e-4,4.677e-4 5.818e-4,5.272e-4 5.272e-4,5.818e-4 4.677e-4,6.305e-4 4.036e-4,6.734e-4 3.356e-4,7.097e-4 2.645e-4,7.392e-4 1.908e-4,7.616e-4 1.152e-4,7.766e-4 z"
     id="path4505"
     inkscape:connector-curvature="0"
     style="opacity:0.6;fill:#66cc99;fill-rule:evenodd;stroke:#555555;stroke-width:0.1" />
  <path
     d="m 9.4795565,-6.339705 -3.85e-5,7.841e-4 -1.152e-4,7.766e-4 -1.908e-4,7.616e-4 -2.645e-4,7.392e-4 -3.356e-4,7.097e-4 -4.036e-4,6.734e-4 -4.677e-4,6.305e-4 -5.272e-4,5.818e-4 -5.818e-4,5.272e-4 -6.305e-4,4.677e-4 -6.734e-4,4.036e-4 -7.097e-4,3.356e-4 -7.392e-4,2.645e-4 -7.616e-4,1.908e-4 -7.766e-4,1.152e-4 -7.841e-4,3.85e-5 -7.841e-4,-3.85e-5 -7.766e-4,-1.152e-4 -7.616e-4,-1.908e-4 -7.392e-4,-2.645e-4 -7.097e-4,-3.356e-4 -6.734e-4,-4.036e-4 -6.305e-4,-4.677e-4 -5.818e-4,-5.272e-4 -5.272e-4,-5.818e-4 -4.677e-4,-6.305e-4 -4.036e-4,-6.734e-4 -3.356e-4,-7.097e-4 -2.645e-4,-7.392e-4 -1.908e-4,-7.616e-4 -1.152e-4,-7.766e-4 -3.85e-5,-7.841e-4 3.85e-5,-7.841e-4 1.152e-4,-7.766e-4 1.908e-4,-7.616e-4 2.645e-4,-7.392e-4 3.356e-4,-7.097e-4 4.036e-4,-6.734e-4 4.677e-4,-6.305e-4 5.272e-4,-5.818e-4 5.818e-4,-5.272e-4 6.305e-4,-4.677e-4 6.734e-4,-4.036e-4 7.097e-4,-3.356e-4 7.392e-4,-2.645e-4 7.616e-4,-1.908e-4 7.766e-4,-1.152e-4 7.841e-4,-3.85e-5 7.841e-4,3.85e-5 7.766e-4,1.152e-4 7.616e-4,1.908e-4 7.392e-4,2.645e-4 7.097e-4,3.356e-4 6.734e-4,4.036e-4 6.305e-4,4.677e-4 5.818e-4,5.272e-4 5.272e-4,5.818e-4 4.677e-4,6.305e-4 4.036e-4,6.734e-4 3.356e-4,7.097e-4 2.645e-4,7.392e-4 1.908e-4,7.616e-4 1.152e-4,7.766e-4 z"
     id="path4507"
     inkscape:connector-curvature="0"
     style="opacity:0.6;fill:#66cc99;fill-rule:evenodd;stroke:#555555;stroke-width:0.1" />
  <path
     d="m 4.7594565,-6.355305 -3.85e-5,7.841e-4 -1.152e-4,7.766e-4 -1.908e-4,7.616e-4 -2.645e-4,7.392e-4 -3.356e-4,7.097e-4 -4.036e-4,6.734e-4 -4.677e-4,6.305e-4 -5.272e-4,5.818e-4 -5.818e-4,5.272e-4 -6.305e-4,4.677e-4 -6.734e-4,4.036e-4 -7.097e-4,3.356e-4 -7.392e-4,2.645e-4 -7.616e-4,1.908e-4 -7.766e-4,1.152e-4 -7.841e-4,3.85e-5 -7.841e-4,-3.85e-5 -7.766e-4,-1.152e-4 -7.616e-4,-1.908e-4 -7.392e-4,-2.645e-4 -7.097e-4,-3.356e-4 -6.734e-4,-4.036e-4 -6.305e-4,-4.677e-4 -5.818e-4,-5.272e-4 -5.272e-4,-5.818e-4 -4.677e-4,-6.305e-4 -4.036e-4,-6.734e-4 -3.356e-4,-7.097e-4 -2.645e-4,-7.392e-4 -1.908e-4,-7.616e-4 -1.152e-4,-7.766e-4 -3.85e-5,-7.841e-4 3.85e-5,-7.841e-4 1.152e-4,-7.766e-4 1.908e-4,-7.616e-4 2.645e-4,-7.392e-4 3.356e-4,-7.097e-4 4.036e-4,-6.734e-4 4.677e-4,-6.305e-4 5.272e-4,-5.818e-4 5.818e-4,-5.272e-4 6.305e-4,-4.677e-4 6.734e-4,-4.036e-4 7.097e-4,-3.356e-4 7.392e-4,-2.645e-4 7.616e-4,-1.908e-4 7.766e-4,-1.152e-4 7.841e-4,-3.85e-5 7.841e-4,3.85e-5 7.766e-4,1.152e-4 7.616e-4,1.908e-4 7.392e-4,2.645e-4 7.097e-4,3.356e-4 6.734e-4,4.036e-4 6.305e-4,4.677e-4 5.818e-4,5.272e-4 5.272e-4,5.818e-4 4.677e-4,6.305e-4 4.036e-4,6.734e-4 3.356e-4,7.097e-4 2.645e-4,7.392e-4 1.908e-4,7.616e-4 1.152e-4,7.766e-4 z"
     id="path4511"
     inkscape:connector-curvature="0"
     style="opacity:0.6;fill:#66cc99;fill-rule:evenodd;stroke:#555555;stroke-width:0.1" />
  <path
     d="m 9.4895565,-6.279705 -3.85e-5,7.841e-4 -1.152e-4,7.766e-4 -1.908e-4,7.616e-4 -2.645e-4,7.392e-4 -3.356e-4,7.097e-4 -4.036e-4,6.734e-4 -4.677e-4,6.305e-4 -5.272e-4,5.818e-4 -5.818e-4,5.272e-4 -6.305e-4,4.677e-4 -6.734e-4,4.036e-4 -7.097e-4,3.356e-4 -7.392e-4,2.645e-4 -7.616e-4,1.908e-4 -7.766e-4,1.152e-4 -7.841e-4,3.85e-5 -7.841e-4,-3.85e-5 -7.766e-4,-1.152e-4 -7.616e-4,-1.908e-4 -7.392e-4,-2.645e-4 -7.097e-4,-3.356e-4 -6.734e-4,-4.036e-4 -6.305e-4,-4.677e-4 -5.818e-4,-5.272e-4 -5.272e-4,-5.818e-4 -4.677e-4,-6.305e-4 -4.036e-4,-6.734e-4 -3.356e-4,-7.097e-4 -2.645e-4,-7.392e-4 -1.908e-4,-7.616e-4 -1.152e-4,-7.766e-4 -3.85e-5,-7.841e-4 3.85e-5,-7.841e-4 1.152e-4,-7.766e-4 1.908e-4,-7.616e-4 2.645e-4,-7.392e-4 3.356e-4,-7.097e-4 4.036e-4,-6.734e-4 4.677e-4,-6.305e-4 5.272e-4,-5.818e-4 5.818e-4,-5.272e-4 6.305e-4,-4.677e-4 6.734e-4,-4.036e-4 7.097e-4,-3.356e-4 7.392e-4,-2.645e-4 7.616e-4,-1.908e-4 7.766e-4,-1.152e-4 7.841e-4,-3.85e-5 7.841e-4,3.85e-5 7.766e-4,1.152e-4 7.616e-4,1.908e-4 7.392e-4,2.645e-4 7.097e-4,3.356e-4 6.734e-4,4.036e-4 6.305e-4,4.677e-4 5.818e-4,5.272e-4 5.272e-4,5.818e-4 4.677e-4,6.305e-4 4.036e-4,6.734e-4 3.356e-4,7.097e-4 2.645e-4,7.392e-4 1.908e-4,7.616e-4 1.152e-4,7.766e-4 z"
     id="path4515"
     inkscape:connector-curvature="0"
     style="opacity:0.6;fill:#66cc99;fill-rule:evenodd;stroke:#555555;stroke-width:0.1" />
  <path
     d="m 5.8373565,-6.551905 -3.85e-5,7.841e-4 -1.152e-4,7.766e-4 -1.908e-4,7.616e-4 -2.645e-4,7.392e-4 -3.356e-4,7.097e-4 -4.036e-4,6.734e-4 -4.677e-4,6.305e-4 -5.272e-4,5.818e-4 -5.818e-4,5.272e-4 -6.305e-4,4.677e-4 -6.734e-4,4.036e-4 -7.097e-4,3.356e-4 -7.392e-4,2.645e-4 -7.616e-4,1.908e-4 -7.766e-4,1.152e-4 -7.841e-4,3.85e-5 -7.841e-4,-3.85e-5 -7.766e-4,-1.152e-4 -7.616e-4,-1.908e-4 -7.392e-4,-2.645e-4 -7.097e-4,-3.356e-4 -6.734e-4,-4.036e-4 -6.305e-4,-4.677e-4 -5.818e-4,-5.272e-4 -5.272e-4,-5.818e-4 -4.677e-4,-6.305e-4 -4.036e-4,-6.734e-4 -3.356e-4,-7.097e-4 -2.645e-4,-7.392e-4 -1.908e-4,-7.616e-4 -1.152e-4,-7.766e-4 -3.85e-5,-7.841e-4 3.85e-5,-7.841e-4 1.152e-4,-7.766e-4 1.908e-4,-7.616e-4 2.645e-4,-7.392e-4 3.356e-4,-7.097e-4 4.036e-4,-6.734e-4 4.677e-4,-6.305e-4 5.272e-4,-5.818e-4 5.818e-4,-5.272e-4 6.305e-4,-4.677e-4 6.734e-4,-4.036e-4 7.097e-4,-3.356e-4 7.392e-4,-2.645e-4 7.616e-4,-1.908e-4 7.766e-4,-1.152e-4 7.841e-4,-3.85e-5 7.841e-4,3.85e-5 7.766e-4,1.152e-4 7.616e-4,1.908e-4 7.392e-4,2.645e-4 7.097e-4,3.356e-4 6.734e-4,4.036e-4 6.305e-4,4.677e-4 5.818e-4,5.272e-4 5.272e-4,5.818e-4 4.677e-4,6.305e-4 4.036e-4,6.734e-4 3.356e-4,7.097e-4 2.645e-4,7.392e-4 1.908e-4,7.616e-4 1.152e-4,7.766e-4 z"
     id="path4517"
     inkscape:connector-curvature="0"
     style="opacity:0.6;fill:#66cc99;fill-rule:evenodd;stroke:#555555;stroke-width:0.1" />
  <path
     d="m 5.9173565,-6.551905 -3.85e-5,7.841e-4 -1.152e-4,7.766e-4 -1.908e-4,7.616e-4 -2.645e-4,7.392e-4 -3.356e-4,7.097e-4 -4.036e-4,6.734e-4 -4.677e-4,6.305e-4 -5.272e-4,5.818e-4 -5.818e-4,5.272e-4 -6.305e-4,4.677e-4 -6.734e-4,4.036e-4 -7.097e-4,3.356e-4 -7.392e-4,2.645e-4 -7.616e-4,1.908e-4 -7.766e-4,1.152e-4 -7.841e-4,3.85e-5 -7.841e-4,-3.85e-5 -7.766e-4,-1.152e-4 -7.616e-4,-1.908e-4 -7.392e-4,-2.645e-4 -7.097e-4,-3.356e-4 -6.734e-4,-4.036e-4 -6.305e-4,-4.677e-4 -5.818e-4,-5.272e-4 -5.272e-4,-5.818e-4 -4.677e-4,-6.305e-4 -4.036e-4,-6.734e-4 -3.356e-4,-7.097e-4 -2.645e-4,-7.392e-4 -1.908e-4,-7.616e-4 -1.152e-4,-7.766e-4 -3.85e-5,-7.841e-4 3.85e-5,-7.841e-4 1.152e-4,-7.766e-4 1.908e-4,-7.616e-4 2.645e-4,-7.392e-4 3.356e-4,-7.097e-4 4.036e-4,-6.734e-4 4.677e-4,-6.305e-4 5.272e-4,-5.818e-4 5.818e-4,-5.272e-4 6.305e-4,-4.677e-4 6.734e-4,-4.036e-4 7.097e-4,-3.356e-4 7.392e-4,-2.645e-4 7.616e-4,-1.908e-4 7.766e-4,-1.152e-4 7.841e-4,-3.85e-5 7.841e-4,3.85e-5 7.766e-4,1.152e-4 7.616e-4,1.908e-4 7.392e-4,2.645e-4 7.097e-4,3.356e-4 6.734e-4,4.036e-4 6.305e-4,4.677e-4 5.818e-4,5.272e-4 5.272e-4,5.818e-4 4.677e-4,6.305e-4 4.036e-4,6.734e-4 3.356e-4,7.097e-4 2.645e-4,7.392e-4 1.908e-4,7.616e-4 1.152e-4,7.766e-4 z"
     id="path4519"
     inkscape:connector-curvature="0"
     style="opacity:0.6;fill:#66cc99;fill-rule:evenodd;stroke:#555555;stroke-width:0.1" />
  <path
     d="m 4.7003565,-6.581705 -3.85e-5,7.841e-4 -1.152e-4,7.766e-4 -1.908e-4,7.616e-4 -2.645e-4,7.392e-4 -3.356e-4,7.097e-4 -4.036e-4,6.734e-4 -4.677e-4,6.305e-4 -5.272e-4,5.818e-4 -5.818e-4,5.272e-4 -6.305e-4,4.677e-4 -6.734e-4,4.036e-4 -7.097e-4,3.356e-4 -7.392e-4,2.645e-4 -7.616e-4,1.908e-4 -7.766e-4,1.152e-4 -7.841e-4,3.85e-5 -7.841e-4,-3.85e-5 -7.766e-4,-1.152e-4 -7.616e-4,-1.908e-4 -7.392e-4,-2.645e-4 -7.097e-4,-3.356e-4 -6.734e-4,-4.036e-4 -6.305e-4,-4.677e-4 -5.818e-4,-5.272e-4 -5.272e-4,-5.818e-4 -4.677e-4,-6.305e-4 -4.036e-4,-6.734e-4 -3.356e-4,-7.097e-4 -2.645e-4,-7.392e-4 -1.908e-4,-7.616e-4 -1.152e-4,-7.766e-4 -3.85e-5,-7.841e-4 3.85e-5,-7.841e-4 1.152e-4,-7.766e-4 1.908e-4,-7.616e-4 2.645e-4,-7.392e-4 3.356e-4,-7.097e-4 4.036e-4,-6.734e-4 4.677e-4,-6.305e-4 5.272e-4,-5.818e-4 5.818e-4,-5.272e-4 6.305e-4,-4.677e-4 6.734e-4,-4.036e-4 7.097e-4,-3.356e-4 7.392e-4,-2.645e-4 7.616e-4,-1.908e-4 7.766e-4,-1.152e-4 7.841e-4,-3.85e-5 7.841e-4,3.85e-5 7.766e-4,1.152e-4 7.616e-4,1.908e-4 7.392e-4,2.645e-4 7.097e-4,3.356e-4 6.734e-4,4.036e-4 6.305e-4,4.677e-4 5.818e-4,5.272e-4 5.272e-4,5.818e-4 4.677e-4,6.305e-4 4.036e-4,6.734e-4 3.356e-4,7.097e-4 2.645e-4,7.392e-4 1.908e-4,7.616e-4 1.152e-4,7.766e-4 z"
     id="path4521"
     inkscape:connector-curvature="0"
     style="opacity:0.6;fill:#66cc99;fill-rule:evenodd;stroke:#555555;stroke-width:0.1" />
  <path
     d="m 8.5073565,-6.581905 -3.85e-5,7.841e-4 -1.152e-4,7.766e-4 -1.908e-4,7.616e-4 -2.645e-4,7.392e-4 -3.356e-4,7.097e-4 -4.036e-4,6.734e-4 -4.677e-4,6.305e-4 -5.272e-4,5.818e-4 -5.818e-4,5.272e-4 -6.305e-4,4.677e-4 -6.734e-4,4.036e-4 -7.097e-4,3.356e-4 -7.392e-4,2.645e-4 -7.616e-4,1.908e-4 -7.766e-4,1.152e-4 -7.841e-4,3.85e-5 -7.841e-4,-3.85e-5 -7.766e-4,-1.152e-4 -7.616e-4,-1.908e-4 -7.392e-4,-2.645e-4 -7.097e-4,-3.356e-4 -6.734e-4,-4.036e-4 -6.305e-4,-4.677e-4 -5.818e-4,-5.272e-4 -5.272e-4,-5.818e-4 -4.677e-4,-6.305e-4 -4.036e-4,-6.734e-4 -3.356e-4,-7.097e-4 -2.645e-4,-7.392e-4 -1.908e-4,-7.616e-4 -1.152e-4,-7.766e-4 -3.85e-5,-7.841e-4 3.85e-5,-7.841e-4 1.152e-4,-7.766e-4 1.908e-4,-7.616e-4 2.645e-4,-7.392e-4 3.356e-4,-7.097e-4 4.036e-4,-6.734e-4 4.677e-4,-6.305e-4 5.272e-4,-5.818e-4 5.818e-4,-5.272e-4 6.305e-4,-4.677e-4 6.734e-4,-4.036e-4 7.097e-4,-3.356e-4 7.392e-4,-2.645e-4 7.616e-4,-1.908e-4 7.766e-4,-1.152e-4 7.841e-4,-3.85e-5 7.841e-4,3.85e-5 7.766e-4,1.152e-4 7.616e-4,1.908e-4 7.392e-4,2.645e-4 7.097e-4,3.356e-4 6.734e-4,4.036e-4 6.305e-4,4.677e-4 5.818e-4,5.272e-4 5.272e-4,5.818e-4 4.677e-4,6.305e-4 4.036e-4,6.734e-4 3.356e-4,7.097e-4 2.645e-4,7.392e-4 1.908e-4,7.616e-4 1.152e-4,7.766e-4 z"
     id="path4523"
     inkscape:connector-curvature="0"
     style="opacity:0.6;fill:#66cc99;fill-rule:evenodd;stroke:#555555;stroke-width:0.1" />
  <path
     d="m 5.7473565,-6.671905 -3.85e-5,7.841e-4 -1.152e-4,7.766e-4 -1.908e-4,7.616e-4 -2.645e-4,7.392e-4 -3.356e-4,7.097e-4 -4.036e-4,6.734e-4 -4.677e-4,6.305e-4 -5.272e-4,5.818e-4 -5.818e-4,5.272e-4 -6.305e-4,4.677e-4 -6.734e-4,4.036e-4 -7.097e-4,3.356e-4 -7.392e-4,2.645e-4 -7.616e-4,1.908e-4 -7.766e-4,1.152e-4 -7.841e-4,3.85e-5 -7.841e-4,-3.85e-5 -7.766e-4,-1.152e-4 -7.616e-4,-1.908e-4 -7.392e-4,-2.645e-4 -7.097e-4,-3.356e-4 -6.734e-4,-4.036e-4 -6.305e-4,-4.677e-4 -5.818e-4,-5.272e-4 -5.272e-4,-5.818e-4 -4.677e-4,-6.305e-4 -4.036e-4,-6.734e-4 -3.356e-4,-7.097e-4 -2.645e-4,-7.392e-4 -1.908e-4,-7.616e-4 -1.152e-4,-7.766e-4 -3.85e-5,-7.841e-4 3.85e-5,-7.841e-4 1.152e-4,-7.766e-4 1.908e-4,-7.616e-4 2.645e-4,-7.392e-4 3.356e-4,-7.097e-4 4.036e-4,-6.734e-4 4.677e-4,-6.305e-4 5.272e-4,-5.818e-4 5.818e-4,-5.272e-4 6.305e-4,-4.677e-4 6.734e-4,-4.036e-4 7.097e-4,-3.356e-4 7.392e-4,-2.645e-4 7.616e-4,-1.908e-4 7.766e-4,-1.152e-4 7.841e-4,-3.85e-5 7.841e-4,3.85e-5 7.766e-4,1.152e-4 7.616e-4,1.908e-4 7.392e-4,2.645e-4 7.097e-4,3.356e-4 6.734e-4,4.036e-4 6.305e-4,4.677e-4 5.818e-4,5.272e-4 5.272e-4,5.818e-4 4.677e-4,6.305e-4 4.036e-4,6.734e-4 3.356e-4,7.097e-4 2.645e-4,7.392e-4 1.908e-4,7.616e-4 1.152e-4,7.766e-4 z"
     id="path4531"
     inkscape:connector-curvature="0"
     style="opacity:0.6;fill:#66cc99;fill-rule:evenodd;stroke:#555555;stroke-width:0.1" />
  <path
     d="m 5.8473565,-6.671905 -3.85e-5,7.841e-4 -1.152e-4,7.766e-4 -1.908e-4,7.616e-4 -2.645e-4,7.392e-4 -3.356e-4,7.097e-4 -4.036e-4,6.734e-4 -4.677e-4,6.305e-4 -5.272e-4,5.818e-4 -5.818e-4,5.272e-4 -6.305e-4,4.677e-4 -6.734e-4,4.036e-4 -7.097e-4,3.356e-4 -7.392e-4,2.645e-4 -7.616e-4,1.908e-4 -7.766e-4,1.152e-4 -7.841e-4,3.85e-5 -7.841e-4,-3.85e-5 -7.766e-4,-1.152e-4 -7.616e-4,-1.908e-4 -7.392e-4,-2.645e-4 -7.097e-4,-3.356e-4 -6.734e-4,-4.036e-4 -6.305e-4,-4.677e-4 -5.818e-4,-5.272e-4 -5.272e-4,-5.818e-4 -4.677e-4,-6.305e-4 -4.036e-4,-6.734e-4 -3.356e-4,-7.097e-4 -2.645e-4,-7.392e-4 -1.908e-4,-7.616e-4 -1.152e-4,-7.766e-4 -3.85e-5,-7.841e-4 3.85e-5,-7.841e-4 1.152e-4,-7.766e-4 1.908e-4,-7.616e-4 2.645e-4,-7.392e-4 3.356e-4,-7.097e-4 4.036e-4,-6.734e-4 4.677e-4,-6.305e-4 5.272e-4,-5.818e-4 5.818e-4,-5.272e-4 6.305e-4,-4.677e-4 6.734e-4,-4.036e-4 7.097e-4,-3.356e-4 7.392e-4,-2.645e-4 7.616e-4,-1.908e-4 7.766e-4,-1.152e-4 7.841e-4,-3.85e-5 7.841e-4,3.85e-5 7.766e-4,1.152e-4 7.616e-4,1.908e-4 7.392e-4,2.645e-4 7.097e-4,3.356e-4 6.734e-4,4.036e-4 6.305e-4,4.677e-4 5.818e-4,5.272e-4 5.272e-4,5.818e-4 4.677e-4,6.305e-4 4.036e-4,6.734e-4 3.356e-4,7.097e-4 2.645e-4,7.392e-4 1.908e-4,7.616e-4 1.152e-4,7.766e-4 z"
     id="path4533"
     inkscape:connector-curvature="0"
     style="opacity:0.6;fill:#66cc99;fill-rule:evenodd;stroke:#555555;stroke-width:0.1" />
  <path
     d="m 5.9073565,-6.671905 -3.85e-5,7.841e-4 -1.152e-4,7.766e-4 -1.908e-4,7.616e-4 -2.645e-4,7.392e-4 -3.356e-4,7.097e-4 -4.036e-4,6.734e-4 -4.677e-4,6.305e-4 -5.272e-4,5.818e-4 -5.818e-4,5.272e-4 -6.305e-4,4.677e-4 -6.734e-4,4.036e-4 -7.097e-4,3.356e-4 -7.392e-4,2.645e-4 -7.616e-4,1.908e-4 -7.766e-4,1.152e-4 -7.841e-4,3.85e-5 -7.841e-4,-3.85e-5 -7.766e-4,-1.152e-4 -7.616e-4,-1.908e-4 -7.392e-4,-2.645e-4 -7.097e-4,-3.356e-4 -6.734e-4,-4.036e-4 -6.305e-4,-4.677e-4 -5.818e-4,-5.272e-4 -5.272e-4,-5.818e-4 -4.677e-4,-6.305e-4 -4.036e-4,-6.734e-4 -3.356e-4,-7.097e-4 -2.645e-4,-7.392e-4 -1.908e-4,-7.616e-4 -1.152e-4,-7.766e-4 -3.85e-5,-7.841e-4 3.85e-5,-7.841e-4 1.152e-4,-7.766e-4 1.908e-4,-7.616e-4 2.645e-4,-7.392e-4 3.356e-4,-7.097e-4 4.036e-4,-6.734e-4 4.677e-4,-6.305e-4 5.272e-4,-5.818e-4 5.818e-4,-5.272e-4 6.305e-4,-4.677e-4 6.734e-4,-4.036e-4 7.097e-4,-3.356e-4 7.392e-4,-2.645e-4 7.616e-4,-1.908e-4 7.766e-4,-1.152e-4 7.841e-4,-3.85e-5 7.841e-4,3.85e-5 7.766e-4,1.152e-4 7.616e-4,1.908e-4 7.392e-4,2.645e-4 7.097e-4,3.356e-4 6.734e-4,4.036e-4 6.305e-4,4.677e-4 5.818e-4,5.272e-4 5.272e-4,5.818e-4 4.677e-4,6.305e-4 4.036e-4,6.734e-4 3.356e-4,7.097e-4 2.645e-4,7.392e-4 1.908e-4,7.616e-4 1.152e-4,7.766e-4 z"
     id="path4535"
     inkscape:connector-curvature="0"
     style="opacity:0.6;fill:#66cc99;fill-rule:evenodd;stroke:#555555;stroke-width:0.1" />
  <path
     d="m 8.6187565,-6.690405 -3.85e-5,7.841e-4 -1.152e-4,7.766e-4 -1.908e-4,7.616e-4 -2.645e-4,7.392e-4 -3.356e-4,7.097e-4 -4.036e-4,6.734e-4 -4.677e-4,6.305e-4 -5.272e-4,5.818e-4 -5.818e-4,5.272e-4 -6.305e-4,4.677e-4 -6.734e-4,4.036e-4 -7.097e-4,3.356e-4 -7.392e-4,2.645e-4 -7.616e-4,1.908e-4 -7.766e-4,1.152e-4 -7.841e-4,3.85e-5 -7.841e-4,-3.85e-5 -7.766e-4,-1.152e-4 -7.616e-4,-1.908e-4 -7.392e-4,-2.645e-4 -7.097e-4,-3.356e-4 -6.734e-4,-4.036e-4 -6.305e-4,-4.677e-4 -5.818e-4,-5.272e-4 -5.272e-4,-5.818e-4 -4.677e-4,-6.305e-4 -4.036e-4,-6.734e-4 -3.356e-4,-7.097e-4 -2.645e-4,-7.392e-4 -1.908e-4,-7.616e-4 -1.152e-4,-7.766e-4 -3.85e-5,-7.841e-4 3.85e-5,-7.841e-4 1.152e-4,-7.766e-4 1.908e-4,-7.616e-4 2.645e-4,-7.392e-4 3.356e-4,-7.097e-4 4.036e-4,-6.734e-4 4.677e-4,-6.305e-4 5.272e-4,-5.818e-4 5.818e-4,-5.272e-4 6.305e-4,-4.677e-4 6.734e-4,-4.036e-4 7.097e-4,-3.356e-4 7.392e-4,-2.645e-4 7.616e-4,-1.908e-4 7.766e-4,-1.152e-4 7.841e-4,-3.85e-5 7.841e-4,3.85e-5 7.766e-4,1.152e-4 7.616e-4,1.908e-4 7.392e-4,2.645e-4 7.097e-4,3.356e-4 6.734e-4,4.036e-4 6.305e-4,4.677e-4 5.818e-4,5.272e-4 5.272e-4,5.818e-4 4.677e-4,6.305e-4 4.036e-4,6.734e-4 3.356e-4,7.097e-4 2.645e-4,7.392e-4 1.908e-4,7.616e-4 1.152e-4,7.766e-4 z"
     id="path4539"
     inkscape:connector-curvature="0"
     style="opacity:0.6;fill:#66cc99;fill-rule:evenodd;stroke:#555555;stroke-width:0.1" />
  <path
     d="m 5.6551565,-6.955705 -3.85e-5,7.841e-4 -1.152e-4,7.766e-4 -1.908e-4,7.616e-4 -2.645e-4,7.392e-4 -3.356e-4,7.097e-4 -4.036e-4,6.734e-4 -4.677e-4,6.305e-4 -5.272e-4,5.818e-4 -5.818e-4,5.272e-4 -6.305e-4,4.677e-4 -6.734e-4,4.036e-4 -7.097e-4,3.356e-4 -7.392e-4,2.645e-4 -7.616e-4,1.908e-4 -7.766e-4,1.152e-4 -7.841e-4,3.85e-5 -7.841e-4,-3.85e-5 -7.766e-4,-1.152e-4 -7.616e-4,-1.908e-4 -7.392e-4,-2.645e-4 -7.097e-4,-3.356e-4 -6.734e-4,-4.036e-4 -6.305e-4,-4.677e-4 -5.818e-4,-5.272e-4 -5.272e-4,-5.818e-4 -4.677e-4,-6.305e-4 -4.036e-4,-6.734e-4 -3.356e-4,-7.097e-4 -2.645e-4,-7.392e-4 -1.908e-4,-7.616e-4 -1.152e-4,-7.766e-4 -3.85e-5,-7.841e-4 3.85e-5,-7.841e-4 1.152e-4,-7.766e-4 1.908e-4,-7.616e-4 2.645e-4,-7.392e-4 3.356e-4,-7.097e-4 4.036e-4,-6.734e-4 4.677e-4,-6.305e-4 5.272e-4,-5.818e-4 5.818e-4,-5.272e-4 6.305e-4,-4.677e-4 6.734e-4,-4.036e-4 7.097e-4,-3.356e-4 7.392e-4,-2.645e-4 7.616e-4,-1.908e-4 7.766e-4,-1.152e-4 7.841e-4,-3.85e-5 7.841e-4,3.85e-5 7.766e-4,1.152e-4 7.616e-4,1.908e-4 7.392e-4,2.645e-4 7.097e-4,3.356e-4 6.734e-4,4.036e-4 6.305e-4,4.677e-4 5.818e-4,5.272e-4 5.272e-4,5.818e-4 4.677e-4,6.305e-4 4.036e-4,6.734e-4 3.356e-4,7.097e-4 2.645e-4,7.392e-4 1.908e-4,7.616e-4 1.152e-4,7.766e-4 z"
     id="path4555"
     inkscape:connector-curvature="0"
     style="opacity:0.6;fill:#66cc99;fill-rule:evenodd;stroke:#555555;stroke-width:0.1" />
  <path
     d="m 7.5073565,-6.971905 -3.85e-5,7.841e-4 -1.152e-4,7.766e-4 -1.908e-4,7.616e-4 -2.645e-4,7.392e-4 -3.356e-4,7.097e-4 -4.036e-4,6.734e-4 -4.677e-4,6.305e-4 -5.272e-4,5.818e-4 -5.818e-4,5.272e-4 -6.305e-4,4.677e-4 -6.734e-4,4.036e-4 -7.097e-4,3.356e-4 -7.392e-4,2.645e-4 -7.616e-4,1.908e-4 -7.766e-4,1.152e-4 -7.841e-4,3.85e-5 -7.841e-4,-3.85e-5 -7.766e-4,-1.152e-4 -7.616e-4,-1.908e-4 -7.392e-4,-2.645e-4 -7.097e-4,-3.356e-4 -6.734e-4,-4.036e-4 -6.305e-4,-4.677e-4 -5.818e-4,-5.272e-4 -5.272e-4,-5.818e-4 -4.677e-4,-6.305e-4 -4.036e-4,-6.734e-4 -3.356e-4,-7.097e-4 -2.645e-4,-7.392e-4 -1.908e-4,-7.616e-4 -1.152e-4,-7.766e-4 -3.85e-5,-7.841e-4 3.85e-5,-7.841e-4 1.152e-4,-7.766e-4 1.908e-4,-7.616e-4 2.645e-4,-7.392e-4 3.356e-4,-7.097e-4 4.036e-4,-6.734e-4 4.677e-4,-6.305e-4 5.272e-4,-5.818e-4 5.818e-4,-5.272e-4 6.305e-4,-4.677e-4 6.734e-4,-4.036e-4 7.097e-4,-3.356e-4 7.392e-4,-2.645e-4 7.616e-4,-1.908e-4 7.766e-4,-1.152e-4 7.841e-4,-3.85e-5 7.841e-4,3.85e-5 7.766e-4,1.152e-4 7.616e-4,1.908e-4 7.392e-4,2.645e-4 7.097e-4,3.356e-4 6.734e-4,4.036e-4 6.305e-4,4.677e-4 5.818e-4,5.272e-4 5.272e-4,5.818e-4 4.677e-4,6.305e-4 4.036e-4,6.734e-4 3.356e-4,7.097e-4 2.645e-4,7.392e-4 1.908e-4,7.616e-4 1.152e-4,7.766e-4 z"
     id="path4557"
     inkscape:connector-curvature="0"
     style="opacity:0.6;fill:#66cc99;fill-rule:evenodd;stroke:#555555;stroke-width:0.1" />
  <path
     d="m 7.5055565,-7.083705 -3.85e-5,7.841e-4 -1.152e-4,7.766e-4 -1.908e-4,7.616e-4 -2.645e-4,7.392e-4 -3.356e-4,7.097e-4 -4.036e-4,6.734e-4 -4.677e-4,6.305e-4 -5.272e-4,5.818e-4 -5.818e-4,5.272e-4 -6.305e-4,4.677e-4 -6.734e-4,4.036e-4 -7.097e-4,3.356e-4 -7.392e-4,2.645e-4 -7.616e-4,1.908e-4 -7.766e-4,1.152e-4 -7.841e-4,3.85e-5 -7.841e-4,-3.85e-5 -7.766e-4,-1.152e-4 -7.616e-4,-1.908e-4 -7.392e-4,-2.645e-4 -7.097e-4,-3.356e-4 -6.734e-4,-4.036e-4 -6.305e-4,-4.677e-4 -5.818e-4,-5.272e-4 -5.272e-4,-5.818e-4 -4.677e-4,-6.305e-4 -4.036e-4,-6.734e-4 -3.356e-4,-7.097e-4 -2.645e-4,-7.392e-4 -1.908e-4,-7.616e-4 -1.152e-4,-7.766e-4 -3.85e-5,-7.841e-4 3.85e-5,-7.841e-4 1.152e-4,-7.766e-4 1.908e-4,-7.616e-4 2.645e-4,-7.392e-4 3.356e-4,-7.097e-4 4.036e-4,-6.734e-4 4.677e-4,-6.305e-4 5.272e-4,-5.818e-4 5.818e-4,-5.272e-4 6.305e-4,-4.677e-4 6.734e-4,-4.036e-4 7.097e-4,-3.356e-4 7.392e-4,-2.645e-4 7.616e-4,-1.908e-4 7.766e-4,-1.152e-4 7.841e-4,-3.85e-5 7.841e-4,3.85e-5 7.766e-4,1.152e-4 7.616e-4,1.908e-4 7.392e-4,2.645e-4 7.097e-4,3.356e-4 6.734e-4,4.036e-4 6.305e-4,4.677e-4 5.818e-4,5.272e-4 5.272e-4,5.818e-4 4.677e-4,6.305e-4 4.036e-4,6.734e-4 3.356e-4,7.097e-4 2.645e-4,7.392e-4 1.908e-4,7.616e-4 1.152e-4,7.766e-4 z"
     id="path4559"
     inkscape:connector-curvature="0"
     style="opacity:0.6;fill:#66cc99;fill-rule:evenodd;stroke:#555555;stroke-width:0.1" />
  <path
     d="m 5.6649565,-7.113205 -3.85e-5,7.841e-4 -1.152e-4,7.766e-4 -1.908e-4,7.616e-4 -2.645e-4,7.392e-4 -3.356e-4,7.097e-4 -4.036e-4,6.734e-4 -4.677e-4,6.305e-4 -5.272e-4,5.818e-4 -5.818e-4,5.272e-4 -6.305e-4,4.677e-4 -6.734e-4,4.036e-4 -7.097e-4,3.356e-4 -7.392e-4,2.645e-4 -7.616e-4,1.908e-4 -7.766e-4,1.152e-4 -7.841e-4,3.85e-5 -7.841e-4,-3.85e-5 -7.766e-4,-1.152e-4 -7.616e-4,-1.908e-4 -7.392e-4,-2.645e-4 -7.097e-4,-3.356e-4 -6.734e-4,-4.036e-4 -6.305e-4,-4.677e-4 -5.818e-4,-5.272e-4 -5.272e-4,-5.818e-4 -4.677e-4,-6.305e-4 -4.036e-4,-6.734e-4 -3.356e-4,-7.097e-4 -2.645e-4,-7.392e-4 -1.908e-4,-7.616e-4 -1.152e-4,-7.766e-4 -3.85e-5,-7.841e-4 3.85e-5,-7.841e-4 1.152e-4,-7.766e-4 1.908e-4,-7.616e-4 2.645e-4,-7.392e-4 3.356e-4,-7.097e-4 4.036e-4,-6.734e-4 4.677e-4,-6.305e-4 5.272e-4,-5.818e-4 5.818e-4,-5.272e-4 6.305e-4,-4.677e-4 6.734e-4,-4.036e-4 7.097e-4,-3.356e-4 7.392e-4,-2.645e-4 7.616e-4,-1.908e-4 7.766e-4,-1.152e-4 7.841e-4,-3.85e-5 7.841e-4,3.85e-5 7.766e-4,1.152e-4 7.616e-4,1.908e-4 7.392e-4,2.645e-4 7.097e-4,3.356e-4 6.734e-4,4.036e-4 6.305e-4,4.677e-4 5.818e-4,5.272e-4 5.272e-4,5.818e-4 4.677e-4,6.305e-4 4.036e-4,6.734e-4 3.356e-4,7.097e-4 2.645e-4,7.392e-4 1.908e-4,7.616e-4 1.152e-4,7.766e-4 z"
     id="path4561"
     inkscape:connector-curvature="0"
     style="opacity:0.6;fill:#66cc99;fill-rule:evenodd;stroke:#555555;stroke-width:0.1" />
  <path
     d="m 9.4895565,-7.319705 -3.85e-5,7.841e-4 -1.152e-4,7.766e-4 -1.908e-4,7.616e-4 -2.645e-4,7.392e-4 -3.356e-4,7.097e-4 -4.036e-4,6.734e-4 -4.677e-4,6.305e-4 -5.272e-4,5.818e-4 -5.818e-4,5.272e-4 -6.305e-4,4.677e-4 -6.734e-4,4.036e-4 -7.097e-4,3.356e-4 -7.392e-4,2.645e-4 -7.616e-4,1.908e-4 -7.766e-4,1.152e-4 -7.841e-4,3.85e-5 -7.841e-4,-3.85e-5 -7.766e-4,-1.152e-4 -7.616e-4,-1.908e-4 -7.392e-4,-2.645e-4 -7.097e-4,-3.356e-4 -6.734e-4,-4.036e-4 -6.305e-4,-4.677e-4 -5.818e-4,-5.272e-4 -5.272e-4,-5.818e-4 -4.677e-4,-6.305e-4 -4.036e-4,-6.734e-4 -3.356e-4,-7.097e-4 -2.645e-4,-7.392e-4 -1.908e-4,-7.616e-4 -1.152e-4,-7.766e-4 -3.85e-5,-7.841e-4 3.85e-5,-7.841e-4 1.152e-4,-7.766e-4 1.908e-4,-7.616e-4 2.645e-4,-7.392e-4 3.356e-4,-7.097e-4 4.036e-4,-6.734e-4 4.677e-4,-6.305e-4 5.272e-4,-5.818e-4 5.818e-4,-5.272e-4 6.305e-4,-4.677e-4 6.734e-4,-4.036e-4 7.097e-4,-3.356e-4 7.392e-4,-2.645e-4 7.616e-4,-1.908e-4 7.766e-4,-1.152e-4 7.841e-4,-3.85e-5 7.841e-4,3.85e-5 7.766e-4,1.152e-4 7.616e-4,1.908e-4 7.392e-4,2.645e-4 7.097e-4,3.356e-4 6.734e-4,4.036e-4 6.305e-4,4.677e-4 5.818e-4,5.272e-4 5.272e-4,5.818e-4 4.677e-4,6.305e-4 4.036e-4,6.734e-4 3.356e-4,7.097e-4 2.645e-4,7.392e-4 1.908e-4,7.616e-4 1.152e-4,7.766e-4 z"
     id="path4611"
     inkscape:connector-curvature="0"
     style="opacity:0.6;fill:#66cc99;fill-rule:evenodd;stroke:#555555;stroke-width:0.1" />
  <path
     d="m 2.5744565,-7.516705 -3.85e-5,7.841e-4 -1.152e-4,7.766e-4 -1.908e-4,7.616e-4 -2.645e-4,7.392e-4 -3.356e-4,7.097e-4 -4.036e-4,6.734e-4 -4.677e-4,6.305e-4 -5.272e-4,5.818e-4 -5.818e-4,5.272e-4 -6.305e-4,4.677e-4 -6.734e-4,4.036e-4 -7.097e-4,3.356e-4 -7.392e-4,2.645e-4 -7.616e-4,1.908e-4 -7.766e-4,1.152e-4 -7.841e-4,3.85e-5 -7.841e-4,-3.85e-5 -7.766e-4,-1.152e-4 -7.616e-4,-1.908e-4 -7.392e-4,-2.645e-4 -7.097e-4,-3.356e-4 -6.734e-4,-4.036e-4 -6.305e-4,-4.677e-4 -5.818e-4,-5.272e-4 -5.272e-4,-5.818e-4 -4.677e-4,-6.305e-4 -4.036e-4,-6.734e-4 -3.356e-4,-7.097e-4 -2.645e-4,-7.392e-4 -1.908e-4,-7.616e-4 -1.152e-4,-7.766e-4 -3.85e-5,-7.841e-4 3.85e-5,-7.841e-4 1.152e-4,-7.766e-4 1.908e-4,-7.616e-4 2.645e-4,-7.392e-4 3.356e-4,-7.097e-4 4.036e-4,-6.734e-4 4.677e-4,-6.305e-4 5.272e-4,-5.818e-4 5.818e-4,-5.272e-4 6.305e-4,-4.677e-4 6.734e-4,-4.036e-4 7.097e-4,-3.356e-4 7.392e-4,-2.645e-4 7.616e-4,-1.908e-4 7.766e-4,-1.152e-4 7.841e-4,-3.85e-5 7.841e-4,3.85e-5 7.766e-4,1.152e-4 7.616e-4,1.908e-4 7.392e-4,2.645e-4 7.097e-4,3.356e-4 6.734e-4,4.036e-4 6.305e-4,4.677e-4 5.818e-4,5.272e-4 5.272e-4,5.818e-4 4.677e-4,6.305e-4 4.036e-4,6.734e-4 3.356e-4,7.097e-4 2.645e-4,7.392e-4 1.908e-4,7.616e-4 1.152e-4,7.766e-4 z"
     id="path4629"
     inkscape:connector-curvature="0"
     style="opacity:0.6;fill:#66cc99;fill-rule:evenodd;stroke:#555555;stroke-width:0.1" />
  <path
     d="m 6.8066565,-7.408505 -3.85e-5,7.841e-4 -1.152e-4,7.766e-4 -1.908e-4,7.616e-4 -2.645e-4,7.392e-4 -3.356e-4,7.097e-4 -4.036e-4,6.734e-4 -4.677e-4,6.305e-4 -5.272e-4,5.818e-4 -5.818e-4,5.272e-4 -6.305e-4,4.677e-4 -6.734e-4,4.036e-4 -7.097e-4,3.356e-4 -7.392e-4,2.645e-4 -7.616e-4,1.908e-4 -7.766e-4,1.152e-4 -7.841e-4,3.85e-5 -7.841e-4,-3.85e-5 -7.766e-4,-1.152e-4 -7.616e-4,-1.908e-4 -7.392e-4,-2.645e-4 -7.097e-4,-3.356e-4 -6.734e-4,-4.036e-4 -6.305e-4,-4.677e-4 -5.818e-4,-5.272e-4 -5.272e-4,-5.818e-4 -4.677e-4,-6.305e-4 -4.036e-4,-6.734e-4 -3.356e-4,-7.097e-4 -2.645e-4,-7.392e-4 -1.908e-4,-7.616e-4 -1.152e-4,-7.766e-4 -3.85e-5,-7.841e-4 3.85e-5,-7.841e-4 1.152e-4,-7.766e-4 1.908e-4,-7.616e-4 2.645e-4,-7.392e-4 3.356e-4,-7.097e-4 4.036e-4,-6.734e-4 4.677e-4,-6.305e-4 5.272e-4,-5.818e-4 5.818e-4,-5.272e-4 6.305e-4,-4.677e-4 6.734e-4,-4.036e-4 7.097e-4,-3.356e-4 7.392e-4,-2.645e-4 7.616e-4,-1.908e-4 7.766e-4,-1.152e-4 7.841e-4,-3.85e-5 7.841e-4,3.85e-5 7.766e-4,1.152e-4 7.616e-4,1.908e-4 7.392e-4,2.645e-4 7.097e-4,3.356e-4 6.734e-4,4.036e-4 6.305e-4,4.677e-4 5.818e-4,5.272e-4 5.272e-4,5.818e-4 4.677e-4,6.305e-4 4.036e-4,6.734e-4 3.356e-4,7.097e-4 2.645e-4,7.392e-4 1.908e-4,7.616e-4 1.152e-4,7.766e-4 z"
     id="path4645"
     inkscape:connector-curvature="0"
     style="opacity:0.6;fill:#66cc99;fill-rule:evenodd;stroke:#555555;stroke-width:0.1" />
  <path
     d="m 6.9573565,-7.411905 -3.85e-5,7.841e-4 -1.152e-4,7.766e-4 -1.908e-4,7.616e-4 -2.645e-4,7.392e-4 -3.356e-4,7.097e-4 -4.036e-4,6.734e-4 -4.677e-4,6.305e-4 -5.272e-4,5.818e-4 -5.818e-4,5.272e-4 -6.305e-4,4.677e-4 -6.734e-4,4.036e-4 -7.097e-4,3.356e-4 -7.392e-4,2.645e-4 -7.616e-4,1.908e-4 -7.766e-4,1.152e-4 -7.841e-4,3.85e-5 -7.841e-4,-3.85e-5 -7.766e-4,-1.152e-4 -7.616e-4,-1.908e-4 -7.392e-4,-2.645e-4 -7.097e-4,-3.356e-4 -6.734e-4,-4.036e-4 -6.305e-4,-4.677e-4 -5.818e-4,-5.272e-4 -5.272e-4,-5.818e-4 -4.677e-4,-6.305e-4 -4.036e-4,-6.734e-4 -3.356e-4,-7.097e-4 -2.645e-4,-7.392e-4 -1.908e-4,-7.616e-4 -1.152e-4,-7.766e-4 -3.85e-5,-7.841e-4 3.85e-5,-7.841e-4 1.152e-4,-7.766e-4 1.908e-4,-7.616e-4 2.645e-4,-7.392e-4 3.356e-4,-7.097e-4 4.036e-4,-6.734e-4 4.677e-4,-6.305e-4 5.272e-4,-5.818e-4 5.818e-4,-5.272e-4 6.305e-4,-4.677e-4 6.734e-4,-4.036e-4 7.097e-4,-3.356e-4 7.392e-4,-2.645e-4 7.616e-4,-1.908e-4 7.766e-4,-1.152e-4 7.841e-4,-3.85e-5 7.841e-4,3.85e-5 7.766e-4,1.152e-4 7.616e-4,1.908e-4 7.392e-4,2.645e-4 7.097e-4,3.356e-4 6.734e-4,4.036e-4 6.305e-4,4.677e-4 5.818e-4,5.272e-4 5.272e-4,5.818e-4 4.677e-4,6.305e-4 4.036e-4,6.734e-4 3.356e-4,7.097e-4 2.645e-4,7.392e-4 1.908e-4,7.616e-4 1.152e-4,7.766e-4 z"
     id="path4649"
     inkscape:connector-curvature="0"
     style="opacity:0.6;fill:#66cc99;fill-rule:evenodd;stroke:#555555;stroke-width:0.1" />
  <path
     d="m 9.5795565,-7.599705 -3.85e-5,7.841e-4 -1.152e-4,7.766e-4 -1.908e-4,7.616e-4 -2.645e-4,7.392e-4 -3.356e-4,7.097e-4 -4.036e-4,6.734e-4 -4.677e-4,6.305e-4 -5.272e-4,5.818e-4 -5.818e-4,5.272e-4 -6.305e-4,4.677e-4 -6.734e-4,4.036e-4 -7.097e-4,3.356e-4 -7.392e-4,2.645e-4 -7.616e-4,1.908e-4 -7.766e-4,1.152e-4 -7.841e-4,3.85e-5 -7.841e-4,-3.85e-5 -7.766e-4,-1.152e-4 -7.616e-4,-1.908e-4 -7.392e-4,-2.645e-4 -7.097e-4,-3.356e-4 -6.734e-4,-4.036e-4 -6.305e-4,-4.677e-4 -5.818e-4,-5.272e-4 -5.272e-4,-5.818e-4 -4.677e-4,-6.305e-4 -4.036e-4,-6.734e-4 -3.356e-4,-7.097e-4 -2.645e-4,-7.392e-4 -1.908e-4,-7.616e-4 -1.152e-4,-7.766e-4 -3.85e-5,-7.841e-4 3.85e-5,-7.841e-4 1.152e-4,-7.766e-4 1.908e-4,-7.616e-4 2.645e-4,-7.392e-4 3.356e-4,-7.097e-4 4.036e-4,-6.734e-4 4.677e-4,-6.305e-4 5.272e-4,-5.818e-4 5.818e-4,-5.272e-4 6.305e-4,-4.677e-4 6.734e-4,-4.036e-4 7.097e-4,-3.356e-4 7.392e-4,-2.645e-4 7.616e-4,-1.908e-4 7.766e-4,-1.152e-4 7.841e-4,-3.85e-5 7.841e-4,3.85e-5 7.766e-4,1.152e-4 7.616e-4,1.908e-4 7.392e-4,2.645e-4 7.097e-4,3.356e-4 6.734e-4,4.036e-4 6.305e-4,4.677e-4 5.818e-4,5.272e-4 5.272e-4,5.818e-4 4.677e-4,6.305e-4 4.036e-4,6.734e-4 3.356e-4,7.097e-4 2.645e-4,7.392e-4 1.908e-4,7.616e-4 1.152e-4,7.766e-4 z"
     id="path4659"
     inkscape:connector-curvature="0"
     style="opacity:0.6;fill:#66cc99;fill-rule:evenodd;stroke:#555555;stroke-width:0.1" />
  <path
     d="m 9.3695565,-7.653405 -3.85e-5,7.841e-4 -1.152e-4,7.766e-4 -1.908e-4,7.616e-4 -2.645e-4,7.392e-4 -3.356e-4,7.097e-4 -4.036e-4,6.734e-4 -4.677e-4,6.305e-4 -5.272e-4,5.818e-4 -5.818e-4,5.272e-4 -6.305e-4,4.677e-4 -6.734e-4,4.036e-4 -7.097e-4,3.356e-4 -7.392e-4,2.645e-4 -7.616e-4,1.908e-4 -7.766e-4,1.152e-4 -7.841e-4,3.85e-5 -7.841e-4,-3.85e-5 -7.766e-4,-1.152e-4 -7.616e-4,-1.908e-4 -7.392e-4,-2.645e-4 -7.097e-4,-3.356e-4 -6.734e-4,-4.036e-4 -6.305e-4,-4.677e-4 -5.818e-4,-5.272e-4 -5.272e-4,-5.818e-4 -4.677e-4,-6.305e-4 -4.036e-4,-6.734e-4 -3.356e-4,-7.097e-4 -2.645e-4,-7.392e-4 -1.908e-4,-7.616e-4 -1.152e-4,-7.766e-4 -3.85e-5,-7.841e-4 3.85e-5,-7.841e-4 1.152e-4,-7.766e-4 1.908e-4,-7.616e-4 2.645e-4,-7.392e-4 3.356e-4,-7.097e-4 4.036e-4,-6.734e-4 4.677e-4,-6.305e-4 5.272e-4,-5.818e-4 5.818e-4,-5.272e-4 6.305e-4,-4.677e-4 6.734e-4,-4.036e-4 7.097e-4,-3.356e-4 7.392e-4,-2.645e-4 7.616e-4,-1.908e-4 7.766e-4,-1.152e-4 7.841e-4,-3.85e-5 7.841e-4,3.85e-5 7.766e-4,1.152e-4 7.616e-4,1.908e-4 7.392e-4,2.645e-4 7.097e-4,3.356e-4 6.734e-4,4.036e-4 6.305e-4,4.677e-4 5.818e-4,5.272e-4 5.272e-4,5.818e-4 4.677e-4,6.305e-4 4.036e-4,6.734e-4 3.356e-4,7.097e-4 2.645e-4,7.392e-4 1.908e-4,7.616e-4 1.152e-4,7.766e-4 z"
     id="path4661"
     inkscape:connector-curvature="0"
     style="opacity:0.6;fill:#66cc99;fill-rule:evenodd;stroke:#555555;stroke-width:0.1" />
  <path
     d="m 2.5744565,-7.684105 -3.85e-5,7.841e-4 -1.152e-4,7.766e-4 -1.908e-4,7.616e-4 -2.645e-4,7.392e-4 -3.356e-4,7.097e-4 -4.036e-4,6.734e-4 -4.677e-4,6.305e-4 -5.272e-4,5.818e-4 -5.818e-4,5.272e-4 -6.305e-4,4.677e-4 -6.734e-4,4.036e-4 -7.097e-4,3.356e-4 -7.392e-4,2.645e-4 -7.616e-4,1.908e-4 -7.766e-4,1.152e-4 -7.841e-4,3.85e-5 -7.841e-4,-3.85e-5 -7.766e-4,-1.152e-4 -7.616e-4,-1.908e-4 -7.392e-4,-2.645e-4 -7.097e-4,-3.356e-4 -6.734e-4,-4.036e-4 -6.305e-4,-4.677e-4 -5.818e-4,-5.272e-4 -5.272e-4,-5.818e-4 -4.677e-4,-6.305e-4 -4.036e-4,-6.734e-4 -3.356e-4,-7.097e-4 -2.645e-4,-7.392e-4 -1.908e-4,-7.616e-4 -1.152e-4,-7.766e-4 -3.85e-5,-7.841e-4 3.85e-5,-7.841e-4 1.152e-4,-7.766e-4 1.908e-4,-7.616e-4 2.645e-4,-7.392e-4 3.356e-4,-7.097e-4 4.036e-4,-6.734e-4 4.677e-4,-6.305e-4 5.272e-4,-5.818e-4 5.818e-4,-5.272e-4 6.305e-4,-4.677e-4 6.734e-4,-4.036e-4 7.097e-4,-3.356e-4 7.392e-4,-2.645e-4 7.616e-4,-1.908e-4 7.766e-4,-1.152e-4 7.841e-4,-3.85e-5 7.841e-4,3.85e-5 7.766e-4,1.152e-4 7.616e-4,1.908e-4 7.392e-4,2.645e-4 7.097e-4,3.356e-4 6.734e-4,4.036e-4 6.305e-4,4.677e-4 5.818e-4,5.272e-4 5.272e-4,5.818e-4 4.677e-4,6.305e-4 4.036e-4,6.734e-4 3.356e-4,7.097e-4 2.645e-4,7.392e-4 1.908e-4,7.616e-4 1.152e-4,7.766e-4 z"
     id="path4665"
     inkscape:connector-curvature="0"
     style="opacity:0.6;fill:#66cc99;fill-rule:evenodd;stroke:#555555;stroke-width:0.1" />
  <path
     d="m 9.6295565,-7.729705 -3.85e-5,7.841e-4 -1.152e-4,7.766e-4 -1.908e-4,7.616e-4 -2.645e-4,7.392e-4 -3.356e-4,7.097e-4 -4.036e-4,6.734e-4 -4.677e-4,6.305e-4 -5.272e-4,5.818e-4 -5.818e-4,5.272e-4 -6.305e-4,4.677e-4 -6.734e-4,4.036e-4 -7.097e-4,3.356e-4 -7.392e-4,2.645e-4 -7.616e-4,1.908e-4 -7.766e-4,1.152e-4 -7.841e-4,3.85e-5 -7.841e-4,-3.85e-5 -7.766e-4,-1.152e-4 -7.616e-4,-1.908e-4 -7.392e-4,-2.645e-4 -7.097e-4,-3.356e-4 -6.734e-4,-4.036e-4 -6.305e-4,-4.677e-4 -5.818e-4,-5.272e-4 -5.272e-4,-5.818e-4 -4.677e-4,-6.305e-4 -4.036e-4,-6.734e-4 -3.356e-4,-7.097e-4 -2.645e-4,-7.392e-4 -1.908e-4,-7.616e-4 -1.152e-4,-7.766e-4 -3.85e-5,-7.841e-4 3.85e-5,-7.841e-4 1.152e-4,-7.766e-4 1.908e-4,-7.616e-4 2.645e-4,-7.392e-4 3.356e-4,-7.097e-4 4.036e-4,-6.734e-4 4.677e-4,-6.305e-4 5.272e-4,-5.818e-4 5.818e-4,-5.272e-4 6.305e-4,-4.677e-4 6.734e-4,-4.036e-4 7.097e-4,-3.356e-4 7.392e-4,-2.645e-4 7.616e-4,-1.908e-4 7.766e-4,-1.152e-4 7.841e-4,-3.85e-5 7.841e-4,3.85e-5 7.766e-4,1.152e-4 7.616e-4,1.908e-4 7.392e-4,2.645e-4 7.097e-4,3.356e-4 6.734e-4,4.036e-4 6.305e-4,4.677e-4 5.818e-4,5.272e-4 5.272e-4,5.818e-4 4.677e-4,6.305e-4 4.036e-4,6.734e-4 3.356e-4,7.097e-4 2.645e-4,7.392e-4 1.908e-4,7.616e-4 1.152e-4,7.766e-4 z"
     id="path4669"
     inkscape:connector-curvature="0"
     style="opacity:0.6;fill:#66cc99;fill-rule:evenodd;stroke:#555555;stroke-width:0.1" />
  <path
     d="m 5.6747565,-7.743105 -3.85e-5,7.841e-4 -1.152e-4,7.766e-4 -1.908e-4,7.616e-4 -2.645e-4,7.392e-4 -3.356e-4,7.097e-4 -4.036e-4,6.734e-4 -4.677e-4,6.305e-4 -5.272e-4,5.818e-4 -5.818e-4,5.272e-4 -6.305e-4,4.677e-4 -6.734e-4,4.036e-4 -7.097e-4,3.356e-4 -7.392e-4,2.645e-4 -7.616e-4,1.908e-4 -7.766e-4,1.152e-4 -7.841e-4,3.85e-5 -7.841e-4,-3.85e-5 -7.766e-4,-1.152e-4 -7.616e-4,-1.908e-4 -7.392e-4,-2.645e-4 -7.097e-4,-3.356e-4 -6.734e-4,-4.036e-4 -6.305e-4,-4.677e-4 -5.818e-4,-5.272e-4 -5.272e-4,-5.818e-4 -4.677e-4,-6.305e-4 -4.036e-4,-6.734e-4 -3.356e-4,-7.097e-4 -2.645e-4,-7.392e-4 -1.908e-4,-7.616e-4 -1.152e-4,-7.766e-4 -3.85e-5,-7.841e-4 3.85e-5,-7.841e-4 1.152e-4,-7.766e-4 1.908e-4,-7.616e-4 2.645e-4,-7.392e-4 3.356e-4,-7.097e-4 4.036e-4,-6.734e-4 4.677e-4,-6.305e-4 5.272e-4,-5.818e-4 5.818e-4,-5.272e-4 6.305e-4,-4.677e-4 6.734e-4,-4.036e-4 7.097e-4,-3.356e-4 7.392e-4,-2.645e-4 7.616e-4,-1.908e-4 7.766e-4,-1.152e-4 7.841e-4,-3.85e-5 7.841e-4,3.85e-5 7.766e-4,1.152e-4 7.616e-4,1.908e-4 7.392e-4,2.645e-4 7.097e-4,3.356e-4 6.734e-4,4.036e-4 6.305e-4,4.677e-4 5.818e-4,5.272e-4 5.272e-4,5.818e-4 4.677e-4,6.305e-4 4.036e-4,6.734e-4 3.356e-4,7.097e-4 2.645e-4,7.392e-4 1.908e-4,7.616e-4 1.152e-4,7.766e-4 z"
     id="path4671"
     inkscape:connector-curvature="0"
     style="opacity:0.6;fill:#66cc99;fill-rule:evenodd;stroke:#555555;stroke-width:0.1" />
  <path
     d="m 9.4895565,-7.729705 -3.85e-5,7.841e-4 -1.152e-4,7.766e-4 -1.908e-4,7.616e-4 -2.645e-4,7.392e-4 -3.356e-4,7.097e-4 -4.036e-4,6.734e-4 -4.677e-4,6.305e-4 -5.272e-4,5.818e-4 -5.818e-4,5.272e-4 -6.305e-4,4.677e-4 -6.734e-4,4.036e-4 -7.097e-4,3.356e-4 -7.392e-4,2.645e-4 -7.616e-4,1.908e-4 -7.766e-4,1.152e-4 -7.841e-4,3.85e-5 -7.841e-4,-3.85e-5 -7.766e-4,-1.152e-4 -7.616e-4,-1.908e-4 -7.392e-4,-2.645e-4 -7.097e-4,-3.356e-4 -6.734e-4,-4.036e-4 -6.305e-4,-4.677e-4 -5.818e-4,-5.272e-4 -5.272e-4,-5.818e-4 -4.677e-4,-6.305e-4 -4.036e-4,-6.734e-4 -3.356e-4,-7.097e-4 -2.645e-4,-7.392e-4 -1.908e-4,-7.616e-4 -1.152e-4,-7.766e-4 -3.85e-5,-7.841e-4 3.85e-5,-7.841e-4 1.152e-4,-7.766e-4 1.908e-4,-7.616e-4 2.645e-4,-7.392e-4 3.356e-4,-7.097e-4 4.036e-4,-6.734e-4 4.677e-4,-6.305e-4 5.272e-4,-5.818e-4 5.818e-4,-5.272e-4 6.305e-4,-4.677e-4 6.734e-4,-4.036e-4 7.097e-4,-3.356e-4 7.392e-4,-2.645e-4 7.616e-4,-1.908e-4 7.766e-4,-1.152e-4 7.841e-4,-3.85e-5 7.841e-4,3.85e-5 7.766e-4,1.152e-4 7.616e-4,1.908e-4 7.392e-4,2.645e-4 7.097e-4,3.356e-4 6.734e-4,4.036e-4 6.305e-4,4.677e-4 5.818e-4,5.272e-4 5.272e-4,5.818e-4 4.677e-4,6.305e-4 4.036e-4,6.734e-4 3.356e-4,7.097e-4 2.645e-4,7.392e-4 1.908e-4,7.616e-4 1.152e-4,7.766e-4 z"
     id="path4673"
     inkscape:connector-curvature="0"
     style="opacity:0.6;fill:#66cc99;fill-rule:evenodd;stroke:#555555;stroke-width:0.1" />
  <path
     d="m 9.6807565,-7.733305 -3.85e-5,7.841e-4 -1.152e-4,7.766e-4 -1.908e-4,7.616e-4 -2.645e-4,7.392e-4 -3.356e-4,7.097e-4 -4.036e-4,6.734e-4 -4.677e-4,6.305e-4 -5.272e-4,5.818e-4 -5.818e-4,5.272e-4 -6.305e-4,4.677e-4 -6.734e-4,4.036e-4 -7.097e-4,3.356e-4 -7.392e-4,2.645e-4 -7.616e-4,1.908e-4 -7.766e-4,1.152e-4 -7.841e-4,3.85e-5 -7.841e-4,-3.85e-5 -7.766e-4,-1.152e-4 -7.616e-4,-1.908e-4 -7.392e-4,-2.645e-4 -7.097e-4,-3.356e-4 -6.734e-4,-4.036e-4 -6.305e-4,-4.677e-4 -5.818e-4,-5.272e-4 -5.272e-4,-5.818e-4 -4.677e-4,-6.305e-4 -4.036e-4,-6.734e-4 -3.356e-4,-7.097e-4 -2.645e-4,-7.392e-4 -1.908e-4,-7.616e-4 -1.152e-4,-7.766e-4 -3.85e-5,-7.841e-4 3.85e-5,-7.841e-4 1.152e-4,-7.766e-4 1.908e-4,-7.616e-4 2.645e-4,-7.392e-4 3.356e-4,-7.097e-4 4.036e-4,-6.734e-4 4.677e-4,-6.305e-4 5.272e-4,-5.818e-4 5.818e-4,-5.272e-4 6.305e-4,-4.677e-4 6.734e-4,-4.036e-4 7.097e-4,-3.356e-4 7.392e-4,-2.645e-4 7.616e-4,-1.908e-4 7.766e-4,-1.152e-4 7.841e-4,-3.85e-5 7.841e-4,3.85e-5 7.766e-4,1.152e-4 7.616e-4,1.908e-4 7.392e-4,2.645e-4 7.097e-4,3.356e-4 6.734e-4,4.036e-4 6.305e-4,4.677e-4 5.818e-4,5.272e-4 5.272e-4,5.818e-4 4.677e-4,6.305e-4 4.036e-4,6.734e-4 3.356e-4,7.097e-4 2.645e-4,7.392e-4 1.908e-4,7.616e-4 1.152e-4,7.766e-4 z"
     id="path4675"
     inkscape:connector-curvature="0"
     style="opacity:0.6;fill:#66cc99;fill-rule:evenodd;stroke:#555555;stroke-width:0.1" />
  <path
     d="m 6.7496565,-7.684105 -3.85e-5,7.841e-4 -1.152e-4,7.766e-4 -1.908e-4,7.616e-4 -2.645e-4,7.392e-4 -3.356e-4,7.097e-4 -4.036e-4,6.734e-4 -4.677e-4,6.305e-4 -5.272e-4,5.818e-4 -5.818e-4,5.272e-4 -6.305e-4,4.677e-4 -6.734e-4,4.036e-4 -7.097e-4,3.356e-4 -7.392e-4,2.645e-4 -7.616e-4,1.908e-4 -7.766e-4,1.152e-4 -7.841e-4,3.85e-5 -7.841e-4,-3.85e-5 -7.766e-4,-1.152e-4 -7.616e-4,-1.908e-4 -7.392e-4,-2.645e-4 -7.097e-4,-3.356e-4 -6.734e-4,-4.036e-4 -6.305e-4,-4.677e-4 -5.818e-4,-5.272e-4 -5.272e-4,-5.818e-4 -4.677e-4,-6.305e-4 -4.036e-4,-6.734e-4 -3.356e-4,-7.097e-4 -2.645e-4,-7.392e-4 -1.908e-4,-7.616e-4 -1.152e-4,-7.766e-4 -3.85e-5,-7.841e-4 3.85e-5,-7.841e-4 1.152e-4,-7.766e-4 1.908e-4,-7.616e-4 2.645e-4,-7.392e-4 3.356e-4,-7.097e-4 4.036e-4,-6.734e-4 4.677e-4,-6.305e-4 5.272e-4,-5.818e-4 5.818e-4,-5.272e-4 6.305e-4,-4.677e-4 6.734e-4,-4.036e-4 7.097e-4,-3.356e-4 7.392e-4,-2.645e-4 7.616e-4,-1.908e-4 7.766e-4,-1.152e-4 7.841e-4,-3.85e-5 7.841e-4,3.85e-5 7.766e-4,1.152e-4 7.616e-4,1.908e-4 7.392e-4,2.645e-4 7.097e-4,3.356e-4 6.734e-4,4.036e-4 6.305e-4,4.677e-4 5.818e-4,5.272e-4 5.272e-4,5.818e-4 4.677e-4,6.305e-4 4.036e-4,6.734e-4 3.356e-4,7.097e-4 2.645e-4,7.392e-4 1.908e-4,7.616e-4 1.152e-4,7.766e-4 z"
     id="path4677"
     inkscape:connector-curvature="0"
     style="opacity:0.6;fill:#66cc99;fill-rule:evenodd;stroke:#555555;stroke-width:0.1" />
  <path
     d="m 5.6747565,-7.556105 -3.85e-5,7.841e-4 -1.152e-4,7.766e-4 -1.908e-4,7.616e-4 -2.645e-4,7.392e-4 -3.356e-4,7.097e-4 -4.036e-4,6.734e-4 -4.677e-4,6.305e-4 -5.272e-4,5.818e-4 -5.818e-4,5.272e-4 -6.305e-4,4.677e-4 -6.734e-4,4.036e-4 -7.097e-4,3.356e-4 -7.392e-4,2.645e-4 -7.616e-4,1.908e-4 -7.766e-4,1.152e-4 -7.841e-4,3.85e-5 -7.841e-4,-3.85e-5 -7.766e-4,-1.152e-4 -7.616e-4,-1.908e-4 -7.392e-4,-2.645e-4 -7.097e-4,-3.356e-4 -6.734e-4,-4.036e-4 -6.305e-4,-4.677e-4 -5.818e-4,-5.272e-4 -5.272e-4,-5.818e-4 -4.677e-4,-6.305e-4 -4.036e-4,-6.734e-4 -3.356e-4,-7.097e-4 -2.645e-4,-7.392e-4 -1.908e-4,-7.616e-4 -1.152e-4,-7.766e-4 -3.85e-5,-7.841e-4 3.85e-5,-7.841e-4 1.152e-4,-7.766e-4 1.908e-4,-7.616e-4 2.645e-4,-7.392e-4 3.356e-4,-7.097e-4 4.036e-4,-6.734e-4 4.677e-4,-6.305e-4 5.272e-4,-5.818e-4 5.818e-4,-5.272e-4 6.305e-4,-4.677e-4 6.734e-4,-4.036e-4 7.097e-4,-3.356e-4 7.392e-4,-2.645e-4 7.616e-4,-1.908e-4 7.766e-4,-1.152e-4 7.841e-4,-3.85e-5 7.841e-4,3.85e-5 7.766e-4,1.152e-4 7.616e-4,1.908e-4 7.392e-4,2.645e-4 7.097e-4,3.356e-4 6.734e-4,4.036e-4 6.305e-4,4.677e-4 5.818e-4,5.272e-4 5.272e-4,5.818e-4 4.677e-4,6.305e-4 4.036e-4,6.734e-4 3.356e-4,7.097e-4 2.645e-4,7.392e-4 1.908e-4,7.616e-4 1.152e-4,7.766e-4 z"
     id="path4813"
     inkscape:connector-curvature="0"
     style="opacity:0.6;fill:#66cc99;fill-rule:evenodd;stroke:#555555;stroke-width:0.1" />
  <path
     d="m 6.9473565,-7.559705 -3.85e-5,7.841e-4 -1.152e-4,7.766e-4 -1.908e-4,7.616e-4 -2.645e-4,7.392e-4 -3.356e-4,7.097e-4 -4.036e-4,6.734e-4 -4.677e-4,6.305e-4 -5.272e-4,5.818e-4 -5.818e-4,5.272e-4 -6.305e-4,4.677e-4 -6.734e-4,4.036e-4 -7.097e-4,3.356e-4 -7.392e-4,2.645e-4 -7.616e-4,1.908e-4 -7.766e-4,1.152e-4 -7.841e-4,3.85e-5 -7.841e-4,-3.85e-5 -7.766e-4,-1.152e-4 -7.616e-4,-1.908e-4 -7.392e-4,-2.645e-4 -7.097e-4,-3.356e-4 -6.734e-4,-4.036e-4 -6.305e-4,-4.677e-4 -5.818e-4,-5.272e-4 -5.272e-4,-5.818e-4 -4.677e-4,-6.305e-4 -4.036e-4,-6.734e-4 -3.356e-4,-7.097e-4 -2.645e-4,-7.392e-4 -1.908e-4,-7.616e-4 -1.152e-4,-7.766e-4 -3.85e-5,-7.841e-4 3.85e-5,-7.841e-4 1.152e-4,-7.766e-4 1.908e-4,-7.616e-4 2.645e-4,-7.392e-4 3.356e-4,-7.097e-4 4.036e-4,-6.734e-4 4.677e-4,-6.305e-4 5.272e-4,-5.818e-4 5.818e-4,-5.272e-4 6.305e-4,-4.677e-4 6.734e-4,-4.036e-4 7.097e-4,-3.356e-4 7.392e-4,-2.645e-4 7.616e-4,-1.908e-4 7.766e-4,-1.152e-4 7.841e-4,-3.85e-5 7.841e-4,3.85e-5 7.766e-4,1.152e-4 7.616e-4,1.908e-4 7.392e-4,2.645e-4 7.097e-4,3.356e-4 6.734e-4,4.036e-4 6.305e-4,4.677e-4 5.818e-4,5.272e-4 5.272e-4,5.818e-4 4.677e-4,6.305e-4 4.036e-4,6.734e-4 3.356e-4,7.097e-4 2.645e-4,7.392e-4 1.908e-4,7.616e-4 1.152e-4,7.766e-4 z"
     id="path4819"
     inkscape:connector-curvature="0"
     style="opacity:0.6;fill:#66cc99;fill-rule:evenodd;stroke:#555555;stroke-width:0.1" />
</svg>
