G04 #@! TF.FileFunction,Copper,L2,Bot,Signal*
%FSLAX46Y46*%
G04 Gerber Fmt 4.6, Leading zero omitted, Abs format (unit mm)*
G04 Created by KiCad (PCBNEW 4.0.6) date 04/10/17 12:01:18*
%MOMM*%
%LPD*%
G01*
G04 APERTURE LIST*
%ADD10C,0.500000*%
%ADD11C,0.150000*%
%ADD12C,0.300000*%
%ADD13C,0.400000*%
%ADD14C,0.100000*%
%ADD15R,1.700000X1.700000*%
%ADD16O,1.700000X1.700000*%
%ADD17C,1.524000*%
%ADD18C,0.600000*%
%ADD19C,1.000000*%
G04 APERTURE END LIST*
D10*
D11*
X311800000Y-235400000D02*
X311800000Y-267400000D01*
X419800000Y-267400000D01*
X419800000Y-235400000D01*
X311800000Y-235400000D01*
D10*
D11*
X10000000Y-10000000D02*
X10000000Y-269400000D01*
X421800000Y-269400000D01*
X421800000Y-10000000D01*
X10000000Y-10000000D01*
D10*
D11*
X12000000Y-12000000D02*
X12000000Y-267400000D01*
X419800000Y-267400000D01*
X419800000Y-12000000D01*
X12000000Y-12000000D01*
D10*
D11*
X60000000Y-12000000D02*
X60000000Y-10000000D01*
D10*
D11*
X110000000Y-12000000D02*
X110000000Y-10000000D01*
D10*
D11*
X160000000Y-12000000D02*
X160000000Y-10000000D01*
D10*
D11*
X210000000Y-12000000D02*
X210000000Y-10000000D01*
D10*
D11*
X260000000Y-12000000D02*
X260000000Y-10000000D01*
D10*
D11*
X310000000Y-12000000D02*
X310000000Y-10000000D01*
D10*
D11*
X360000000Y-12000000D02*
X360000000Y-10000000D01*
D10*
D11*
X410000000Y-12000000D02*
X410000000Y-10000000D01*
D10*
D11*
X35990476Y-11588095D02*
X35247619Y-11588095D01*
X35619048Y-11588095D02*
X35619048Y-10288095D01*
X35495238Y-10473810D01*
X35371429Y-10597619D01*
X35247619Y-10659524D01*
D10*
D11*
X85247619Y-10411905D02*
X85309524Y-10350000D01*
X85433333Y-10288095D01*
X85742857Y-10288095D01*
X85866667Y-10350000D01*
X85928571Y-10411905D01*
X85990476Y-10535714D01*
X85990476Y-10659524D01*
X85928571Y-10845238D01*
X85185714Y-11588095D01*
X85990476Y-11588095D01*
D10*
D11*
X135185714Y-10288095D02*
X135990476Y-10288095D01*
X135557143Y-10783333D01*
X135742857Y-10783333D01*
X135866667Y-10845238D01*
X135928571Y-10907143D01*
X135990476Y-11030952D01*
X135990476Y-11340476D01*
X135928571Y-11464286D01*
X135866667Y-11526190D01*
X135742857Y-11588095D01*
X135371429Y-11588095D01*
X135247619Y-11526190D01*
X135185714Y-11464286D01*
D10*
D11*
X185866667Y-10721429D02*
X185866667Y-11588095D01*
X185557143Y-10226190D02*
X185247619Y-11154762D01*
X186052381Y-11154762D01*
D10*
D11*
X235928571Y-10288095D02*
X235309524Y-10288095D01*
X235247619Y-10907143D01*
X235309524Y-10845238D01*
X235433333Y-10783333D01*
X235742857Y-10783333D01*
X235866667Y-10845238D01*
X235928571Y-10907143D01*
X235990476Y-11030952D01*
X235990476Y-11340476D01*
X235928571Y-11464286D01*
X235866667Y-11526190D01*
X235742857Y-11588095D01*
X235433333Y-11588095D01*
X235309524Y-11526190D01*
X235247619Y-11464286D01*
D10*
D11*
X285866667Y-10288095D02*
X285619048Y-10288095D01*
X285495238Y-10350000D01*
X285433333Y-10411905D01*
X285309524Y-10597619D01*
X285247619Y-10845238D01*
X285247619Y-11340476D01*
X285309524Y-11464286D01*
X285371429Y-11526190D01*
X285495238Y-11588095D01*
X285742857Y-11588095D01*
X285866667Y-11526190D01*
X285928571Y-11464286D01*
X285990476Y-11340476D01*
X285990476Y-11030952D01*
X285928571Y-10907143D01*
X285866667Y-10845238D01*
X285742857Y-10783333D01*
X285495238Y-10783333D01*
X285371429Y-10845238D01*
X285309524Y-10907143D01*
X285247619Y-11030952D01*
D10*
D11*
X335185714Y-10288095D02*
X336052381Y-10288095D01*
X335495238Y-11588095D01*
D10*
D11*
X385495238Y-10845238D02*
X385371429Y-10783333D01*
X385309524Y-10721429D01*
X385247619Y-10597619D01*
X385247619Y-10535714D01*
X385309524Y-10411905D01*
X385371429Y-10350000D01*
X385495238Y-10288095D01*
X385742857Y-10288095D01*
X385866667Y-10350000D01*
X385928571Y-10411905D01*
X385990476Y-10535714D01*
X385990476Y-10597619D01*
X385928571Y-10721429D01*
X385866667Y-10783333D01*
X385742857Y-10845238D01*
X385495238Y-10845238D01*
X385371429Y-10907143D01*
X385309524Y-10969048D01*
X385247619Y-11092857D01*
X385247619Y-11340476D01*
X385309524Y-11464286D01*
X385371429Y-11526190D01*
X385495238Y-11588095D01*
X385742857Y-11588095D01*
X385866667Y-11526190D01*
X385928571Y-11464286D01*
X385990476Y-11340476D01*
X385990476Y-11092857D01*
X385928571Y-10969048D01*
X385866667Y-10907143D01*
X385742857Y-10845238D01*
D10*
D11*
X60000000Y-267400000D02*
X60000000Y-269400000D01*
D10*
D11*
X110000000Y-267400000D02*
X110000000Y-269400000D01*
D10*
D11*
X160000000Y-267400000D02*
X160000000Y-269400000D01*
D10*
D11*
X210000000Y-267400000D02*
X210000000Y-269400000D01*
D10*
D11*
X260000000Y-267400000D02*
X260000000Y-269400000D01*
D10*
D11*
X310000000Y-267400000D02*
X310000000Y-269400000D01*
D10*
D11*
X360000000Y-267400000D02*
X360000000Y-269400000D01*
D10*
D11*
X410000000Y-267400000D02*
X410000000Y-269400000D01*
D10*
D11*
X35990476Y-268988095D02*
X35247619Y-268988095D01*
X35619048Y-268988095D02*
X35619048Y-267688095D01*
X35495238Y-267873810D01*
X35371429Y-267997619D01*
X35247619Y-268059524D01*
D10*
D11*
X85247619Y-267811905D02*
X85309524Y-267750000D01*
X85433333Y-267688095D01*
X85742857Y-267688095D01*
X85866667Y-267750000D01*
X85928571Y-267811905D01*
X85990476Y-267935714D01*
X85990476Y-268059524D01*
X85928571Y-268245238D01*
X85185714Y-268988095D01*
X85990476Y-268988095D01*
D10*
D11*
X135185714Y-267688095D02*
X135990476Y-267688095D01*
X135557143Y-268183333D01*
X135742857Y-268183333D01*
X135866667Y-268245238D01*
X135928571Y-268307143D01*
X135990476Y-268430952D01*
X135990476Y-268740476D01*
X135928571Y-268864286D01*
X135866667Y-268926190D01*
X135742857Y-268988095D01*
X135371429Y-268988095D01*
X135247619Y-268926190D01*
X135185714Y-268864286D01*
D10*
D11*
X185866667Y-268121429D02*
X185866667Y-268988095D01*
X185557143Y-267626190D02*
X185247619Y-268554762D01*
X186052381Y-268554762D01*
D10*
D11*
X235928571Y-267688095D02*
X235309524Y-267688095D01*
X235247619Y-268307143D01*
X235309524Y-268245238D01*
X235433333Y-268183333D01*
X235742857Y-268183333D01*
X235866667Y-268245238D01*
X235928571Y-268307143D01*
X235990476Y-268430952D01*
X235990476Y-268740476D01*
X235928571Y-268864286D01*
X235866667Y-268926190D01*
X235742857Y-268988095D01*
X235433333Y-268988095D01*
X235309524Y-268926190D01*
X235247619Y-268864286D01*
D10*
D11*
X285866667Y-267688095D02*
X285619048Y-267688095D01*
X285495238Y-267750000D01*
X285433333Y-267811905D01*
X285309524Y-267997619D01*
X285247619Y-268245238D01*
X285247619Y-268740476D01*
X285309524Y-268864286D01*
X285371429Y-268926190D01*
X285495238Y-268988095D01*
X285742857Y-268988095D01*
X285866667Y-268926190D01*
X285928571Y-268864286D01*
X285990476Y-268740476D01*
X285990476Y-268430952D01*
X285928571Y-268307143D01*
X285866667Y-268245238D01*
X285742857Y-268183333D01*
X285495238Y-268183333D01*
X285371429Y-268245238D01*
X285309524Y-268307143D01*
X285247619Y-268430952D01*
D10*
D11*
X335185714Y-267688095D02*
X336052381Y-267688095D01*
X335495238Y-268988095D01*
D10*
D11*
X385495238Y-268245238D02*
X385371429Y-268183333D01*
X385309524Y-268121429D01*
X385247619Y-267997619D01*
X385247619Y-267935714D01*
X385309524Y-267811905D01*
X385371429Y-267750000D01*
X385495238Y-267688095D01*
X385742857Y-267688095D01*
X385866667Y-267750000D01*
X385928571Y-267811905D01*
X385990476Y-267935714D01*
X385990476Y-267997619D01*
X385928571Y-268121429D01*
X385866667Y-268183333D01*
X385742857Y-268245238D01*
X385495238Y-268245238D01*
X385371429Y-268307143D01*
X385309524Y-268369048D01*
X385247619Y-268492857D01*
X385247619Y-268740476D01*
X385309524Y-268864286D01*
X385371429Y-268926190D01*
X385495238Y-268988095D01*
X385742857Y-268988095D01*
X385866667Y-268926190D01*
X385928571Y-268864286D01*
X385990476Y-268740476D01*
X385990476Y-268492857D01*
X385928571Y-268369048D01*
X385866667Y-268307143D01*
X385742857Y-268245238D01*
D10*
D11*
X10000000Y-60000000D02*
X12000000Y-60000000D01*
D10*
D11*
X10000000Y-110000000D02*
X12000000Y-110000000D01*
D10*
D11*
X10000000Y-160000000D02*
X12000000Y-160000000D01*
D10*
D11*
X10000000Y-210000000D02*
X12000000Y-210000000D01*
D10*
D11*
X10000000Y-260000000D02*
X12000000Y-260000000D01*
D10*
D11*
X10690476Y-35216667D02*
X11309524Y-35216667D01*
X10566667Y-35588095D02*
X11000000Y-34288095D01*
X11433333Y-35588095D01*
D10*
D11*
X11092857Y-84907143D02*
X11278571Y-84969048D01*
X11340476Y-85030952D01*
X11402381Y-85154762D01*
X11402381Y-85340476D01*
X11340476Y-85464286D01*
X11278571Y-85526190D01*
X11154762Y-85588095D01*
X10659524Y-85588095D01*
X10659524Y-84288095D01*
X11092857Y-84288095D01*
X11216667Y-84350000D01*
X11278571Y-84411905D01*
X11340476Y-84535714D01*
X11340476Y-84659524D01*
X11278571Y-84783333D01*
X11216667Y-84845238D01*
X11092857Y-84907143D01*
X10659524Y-84907143D01*
D10*
D11*
X11402381Y-135464286D02*
X11340476Y-135526190D01*
X11154762Y-135588095D01*
X11030952Y-135588095D01*
X10845238Y-135526190D01*
X10721429Y-135402381D01*
X10659524Y-135278571D01*
X10597619Y-135030952D01*
X10597619Y-134845238D01*
X10659524Y-134597619D01*
X10721429Y-134473810D01*
X10845238Y-134350000D01*
X11030952Y-134288095D01*
X11154762Y-134288095D01*
X11340476Y-134350000D01*
X11402381Y-134411905D01*
D10*
D11*
X10659524Y-185588095D02*
X10659524Y-184288095D01*
X10969048Y-184288095D01*
X11154762Y-184350000D01*
X11278571Y-184473810D01*
X11340476Y-184597619D01*
X11402381Y-184845238D01*
X11402381Y-185030952D01*
X11340476Y-185278571D01*
X11278571Y-185402381D01*
X11154762Y-185526190D01*
X10969048Y-185588095D01*
X10659524Y-185588095D01*
D10*
D11*
X10721429Y-234907143D02*
X11154762Y-234907143D01*
X11340476Y-235588095D02*
X10721429Y-235588095D01*
X10721429Y-234288095D01*
X11340476Y-234288095D01*
D10*
D11*
X421800000Y-60000000D02*
X419800000Y-60000000D01*
D10*
D11*
X421800000Y-110000000D02*
X419800000Y-110000000D01*
D10*
D11*
X421800000Y-160000000D02*
X419800000Y-160000000D01*
D10*
D11*
X421800000Y-210000000D02*
X419800000Y-210000000D01*
D10*
D11*
X421800000Y-260000000D02*
X419800000Y-260000000D01*
D10*
D11*
X420490476Y-35216667D02*
X421109524Y-35216667D01*
X420366667Y-35588095D02*
X420800000Y-34288095D01*
X421233333Y-35588095D01*
D10*
D11*
X420892857Y-84907143D02*
X421078571Y-84969048D01*
X421140476Y-85030952D01*
X421202381Y-85154762D01*
X421202381Y-85340476D01*
X421140476Y-85464286D01*
X421078571Y-85526190D01*
X420954762Y-85588095D01*
X420459524Y-85588095D01*
X420459524Y-84288095D01*
X420892857Y-84288095D01*
X421016667Y-84350000D01*
X421078571Y-84411905D01*
X421140476Y-84535714D01*
X421140476Y-84659524D01*
X421078571Y-84783333D01*
X421016667Y-84845238D01*
X420892857Y-84907143D01*
X420459524Y-84907143D01*
D10*
D11*
X421202381Y-135464286D02*
X421140476Y-135526190D01*
X420954762Y-135588095D01*
X420830952Y-135588095D01*
X420645238Y-135526190D01*
X420521429Y-135402381D01*
X420459524Y-135278571D01*
X420397619Y-135030952D01*
X420397619Y-134845238D01*
X420459524Y-134597619D01*
X420521429Y-134473810D01*
X420645238Y-134350000D01*
X420830952Y-134288095D01*
X420954762Y-134288095D01*
X421140476Y-134350000D01*
X421202381Y-134411905D01*
D10*
D11*
X420459524Y-185588095D02*
X420459524Y-184288095D01*
X420769048Y-184288095D01*
X420954762Y-184350000D01*
X421078571Y-184473810D01*
X421140476Y-184597619D01*
X421202381Y-184845238D01*
X421202381Y-185030952D01*
X421140476Y-185278571D01*
X421078571Y-185402381D01*
X420954762Y-185526190D01*
X420769048Y-185588095D01*
X420459524Y-185588095D01*
D10*
D11*
X420521429Y-234907143D02*
X420954762Y-234907143D01*
X421140476Y-235588095D02*
X420521429Y-235588095D01*
X420521429Y-234288095D01*
X421140476Y-234288095D01*
D10*
D11*
X335157143Y-263178571D02*
X335157143Y-261678571D01*
X335514286Y-261678571D01*
X335728571Y-261750000D01*
X335871429Y-261892857D01*
X335942857Y-262035714D01*
X336014286Y-262321429D01*
X336014286Y-262535714D01*
X335942857Y-262821429D01*
X335871429Y-262964286D01*
X335728571Y-263107143D01*
X335514286Y-263178571D01*
X335157143Y-263178571D01*
X337300000Y-263178571D02*
X337300000Y-262392857D01*
X337228571Y-262250000D01*
X337085714Y-262178571D01*
X336800000Y-262178571D01*
X336657143Y-262250000D01*
X337300000Y-263107143D02*
X337157143Y-263178571D01*
X336800000Y-263178571D01*
X336657143Y-263107143D01*
X336585714Y-262964286D01*
X336585714Y-262821429D01*
X336657143Y-262678571D01*
X336800000Y-262607143D01*
X337157143Y-262607143D01*
X337300000Y-262535714D01*
X337800000Y-262178571D02*
X338371429Y-262178571D01*
X338014286Y-261678571D02*
X338014286Y-262964286D01*
X338085714Y-263107143D01*
X338228572Y-263178571D01*
X338371429Y-263178571D01*
X339442857Y-263107143D02*
X339300000Y-263178571D01*
X339014286Y-263178571D01*
X338871429Y-263107143D01*
X338800000Y-262964286D01*
X338800000Y-262392857D01*
X338871429Y-262250000D01*
X339014286Y-262178571D01*
X339300000Y-262178571D01*
X339442857Y-262250000D01*
X339514286Y-262392857D01*
X339514286Y-262535714D01*
X338800000Y-262678571D01*
X340157143Y-263035714D02*
X340228571Y-263107143D01*
X340157143Y-263178571D01*
X340085714Y-263107143D01*
X340157143Y-263035714D01*
X340157143Y-263178571D01*
X340157143Y-262250000D02*
X340228571Y-262321429D01*
X340157143Y-262392857D01*
X340085714Y-262321429D01*
X340157143Y-262250000D01*
X340157143Y-262392857D01*
D10*
D11*
X311800000Y-263900000D02*
X419800000Y-263900000D01*
D10*
D11*
X313157143Y-265978571D02*
X313157143Y-264478571D01*
X314014286Y-265978571D02*
X313371429Y-265121429D01*
X314014286Y-264478571D02*
X313157143Y-265335714D01*
X314657143Y-265978571D02*
X314657143Y-264978571D01*
X314657143Y-264478571D02*
X314585714Y-264550000D01*
X314657143Y-264621429D01*
X314728571Y-264550000D01*
X314657143Y-264478571D01*
X314657143Y-264621429D01*
X316228572Y-265835714D02*
X316157143Y-265907143D01*
X315942857Y-265978571D01*
X315800000Y-265978571D01*
X315585715Y-265907143D01*
X315442857Y-265764286D01*
X315371429Y-265621429D01*
X315300000Y-265335714D01*
X315300000Y-265121429D01*
X315371429Y-264835714D01*
X315442857Y-264692857D01*
X315585715Y-264550000D01*
X315800000Y-264478571D01*
X315942857Y-264478571D01*
X316157143Y-264550000D01*
X316228572Y-264621429D01*
X317514286Y-265978571D02*
X317514286Y-265192857D01*
X317442857Y-265050000D01*
X317300000Y-264978571D01*
X317014286Y-264978571D01*
X316871429Y-265050000D01*
X317514286Y-265907143D02*
X317371429Y-265978571D01*
X317014286Y-265978571D01*
X316871429Y-265907143D01*
X316800000Y-265764286D01*
X316800000Y-265621429D01*
X316871429Y-265478571D01*
X317014286Y-265407143D01*
X317371429Y-265407143D01*
X317514286Y-265335714D01*
X318871429Y-265978571D02*
X318871429Y-264478571D01*
X318871429Y-265907143D02*
X318728572Y-265978571D01*
X318442858Y-265978571D01*
X318300000Y-265907143D01*
X318228572Y-265835714D01*
X318157143Y-265692857D01*
X318157143Y-265264286D01*
X318228572Y-265121429D01*
X318300000Y-265050000D01*
X318442858Y-264978571D01*
X318728572Y-264978571D01*
X318871429Y-265050000D01*
X320728572Y-265192857D02*
X321228572Y-265192857D01*
X321442858Y-265978571D02*
X320728572Y-265978571D01*
X320728572Y-264478571D01*
X321442858Y-264478571D01*
X322085715Y-265835714D02*
X322157143Y-265907143D01*
X322085715Y-265978571D01*
X322014286Y-265907143D01*
X322085715Y-265835714D01*
X322085715Y-265978571D01*
X322800001Y-265978571D02*
X322800001Y-264478571D01*
X323157144Y-264478571D01*
X323371429Y-264550000D01*
X323514287Y-264692857D01*
X323585715Y-264835714D01*
X323657144Y-265121429D01*
X323657144Y-265335714D01*
X323585715Y-265621429D01*
X323514287Y-265764286D01*
X323371429Y-265907143D01*
X323157144Y-265978571D01*
X322800001Y-265978571D01*
X324300001Y-265835714D02*
X324371429Y-265907143D01*
X324300001Y-265978571D01*
X324228572Y-265907143D01*
X324300001Y-265835714D01*
X324300001Y-265978571D01*
X324942858Y-265550000D02*
X325657144Y-265550000D01*
X324800001Y-265978571D02*
X325300001Y-264478571D01*
X325800001Y-265978571D01*
X326300001Y-265835714D02*
X326371429Y-265907143D01*
X326300001Y-265978571D01*
X326228572Y-265907143D01*
X326300001Y-265835714D01*
X326300001Y-265978571D01*
X329300001Y-265978571D02*
X329300001Y-264478571D01*
X329442858Y-265407143D02*
X329871429Y-265978571D01*
X329871429Y-264978571D02*
X329300001Y-265550000D01*
X330514287Y-265978571D02*
X330514287Y-264978571D01*
X330514287Y-264478571D02*
X330442858Y-264550000D01*
X330514287Y-264621429D01*
X330585715Y-264550000D01*
X330514287Y-264478571D01*
X330514287Y-264621429D01*
X331871430Y-265907143D02*
X331728573Y-265978571D01*
X331442859Y-265978571D01*
X331300001Y-265907143D01*
X331228573Y-265835714D01*
X331157144Y-265692857D01*
X331157144Y-265264286D01*
X331228573Y-265121429D01*
X331300001Y-265050000D01*
X331442859Y-264978571D01*
X331728573Y-264978571D01*
X331871430Y-265050000D01*
X333157144Y-265978571D02*
X333157144Y-265192857D01*
X333085715Y-265050000D01*
X332942858Y-264978571D01*
X332657144Y-264978571D01*
X332514287Y-265050000D01*
X333157144Y-265907143D02*
X333014287Y-265978571D01*
X332657144Y-265978571D01*
X332514287Y-265907143D01*
X332442858Y-265764286D01*
X332442858Y-265621429D01*
X332514287Y-265478571D01*
X332657144Y-265407143D01*
X333014287Y-265407143D01*
X333157144Y-265335714D01*
X334514287Y-265978571D02*
X334514287Y-264478571D01*
X334514287Y-265907143D02*
X334371430Y-265978571D01*
X334085716Y-265978571D01*
X333942858Y-265907143D01*
X333871430Y-265835714D01*
X333800001Y-265692857D01*
X333800001Y-265264286D01*
X333871430Y-265121429D01*
X333942858Y-265050000D01*
X334085716Y-264978571D01*
X334371430Y-264978571D01*
X334514287Y-265050000D01*
X337014287Y-264978571D02*
X337014287Y-265978571D01*
X336657144Y-264407143D02*
X336300001Y-265478571D01*
X337228573Y-265478571D01*
X337800001Y-265835714D02*
X337871429Y-265907143D01*
X337800001Y-265978571D01*
X337728572Y-265907143D01*
X337800001Y-265835714D01*
X337800001Y-265978571D01*
X338800001Y-264478571D02*
X338942858Y-264478571D01*
X339085715Y-264550000D01*
X339157144Y-264621429D01*
X339228573Y-264764286D01*
X339300001Y-265050000D01*
X339300001Y-265407143D01*
X339228573Y-265692857D01*
X339157144Y-265835714D01*
X339085715Y-265907143D01*
X338942858Y-265978571D01*
X338800001Y-265978571D01*
X338657144Y-265907143D01*
X338585715Y-265835714D01*
X338514287Y-265692857D01*
X338442858Y-265407143D01*
X338442858Y-265050000D01*
X338514287Y-264764286D01*
X338585715Y-264621429D01*
X338657144Y-264550000D01*
X338800001Y-264478571D01*
X339942858Y-265835714D02*
X340014286Y-265907143D01*
X339942858Y-265978571D01*
X339871429Y-265907143D01*
X339942858Y-265835714D01*
X339942858Y-265978571D01*
X341300001Y-264478571D02*
X341014287Y-264478571D01*
X340871430Y-264550000D01*
X340800001Y-264621429D01*
X340657144Y-264835714D01*
X340585715Y-265121429D01*
X340585715Y-265692857D01*
X340657144Y-265835714D01*
X340728572Y-265907143D01*
X340871430Y-265978571D01*
X341157144Y-265978571D01*
X341300001Y-265907143D01*
X341371430Y-265835714D01*
X341442858Y-265692857D01*
X341442858Y-265335714D01*
X341371430Y-265192857D01*
X341300001Y-265121429D01*
X341157144Y-265050000D01*
X340871430Y-265050000D01*
X340728572Y-265121429D01*
X340657144Y-265192857D01*
X340585715Y-265335714D01*
D10*
D11*
X311800000Y-260900000D02*
X419800000Y-260900000D01*
D10*
D12*
X399014286Y-263178571D02*
X398514286Y-262464286D01*
X398157143Y-263178571D02*
X398157143Y-261678571D01*
X398728571Y-261678571D01*
X398871429Y-261750000D01*
X398942857Y-261821429D01*
X399014286Y-261964286D01*
X399014286Y-262178571D01*
X398942857Y-262321429D01*
X398871429Y-262392857D01*
X398728571Y-262464286D01*
X398157143Y-262464286D01*
X400228571Y-263107143D02*
X400085714Y-263178571D01*
X399800000Y-263178571D01*
X399657143Y-263107143D01*
X399585714Y-262964286D01*
X399585714Y-262392857D01*
X399657143Y-262250000D01*
X399800000Y-262178571D01*
X400085714Y-262178571D01*
X400228571Y-262250000D01*
X400300000Y-262392857D01*
X400300000Y-262535714D01*
X399585714Y-262678571D01*
X400800000Y-262178571D02*
X401157143Y-263178571D01*
X401514285Y-262178571D01*
X402085714Y-263035714D02*
X402157142Y-263107143D01*
X402085714Y-263178571D01*
X402014285Y-263107143D01*
X402085714Y-263035714D01*
X402085714Y-263178571D01*
X402085714Y-262250000D02*
X402157142Y-262321429D01*
X402085714Y-262392857D01*
X402014285Y-262321429D01*
X402085714Y-262250000D01*
X402085714Y-262392857D01*
D10*
D11*
X313085714Y-263107143D02*
X313300000Y-263178571D01*
X313657143Y-263178571D01*
X313800000Y-263107143D01*
X313871429Y-263035714D01*
X313942857Y-262892857D01*
X313942857Y-262750000D01*
X313871429Y-262607143D01*
X313800000Y-262535714D01*
X313657143Y-262464286D01*
X313371429Y-262392857D01*
X313228571Y-262321429D01*
X313157143Y-262250000D01*
X313085714Y-262107143D01*
X313085714Y-261964286D01*
X313157143Y-261821429D01*
X313228571Y-261750000D01*
X313371429Y-261678571D01*
X313728571Y-261678571D01*
X313942857Y-261750000D01*
X314585714Y-263178571D02*
X314585714Y-262178571D01*
X314585714Y-261678571D02*
X314514285Y-261750000D01*
X314585714Y-261821429D01*
X314657142Y-261750000D01*
X314585714Y-261678571D01*
X314585714Y-261821429D01*
X315157143Y-262178571D02*
X315942857Y-262178571D01*
X315157143Y-263178571D01*
X315942857Y-263178571D01*
X317085714Y-263107143D02*
X316942857Y-263178571D01*
X316657143Y-263178571D01*
X316514286Y-263107143D01*
X316442857Y-262964286D01*
X316442857Y-262392857D01*
X316514286Y-262250000D01*
X316657143Y-262178571D01*
X316942857Y-262178571D01*
X317085714Y-262250000D01*
X317157143Y-262392857D01*
X317157143Y-262535714D01*
X316442857Y-262678571D01*
X317800000Y-263035714D02*
X317871428Y-263107143D01*
X317800000Y-263178571D01*
X317728571Y-263107143D01*
X317800000Y-263035714D01*
X317800000Y-263178571D01*
X317800000Y-262250000D02*
X317871428Y-262321429D01*
X317800000Y-262392857D01*
X317728571Y-262321429D01*
X317800000Y-262250000D01*
X317800000Y-262392857D01*
X320157143Y-262392857D02*
X320371429Y-262464286D01*
X320442857Y-262535714D01*
X320514286Y-262678571D01*
X320514286Y-262892857D01*
X320442857Y-263035714D01*
X320371429Y-263107143D01*
X320228571Y-263178571D01*
X319657143Y-263178571D01*
X319657143Y-261678571D01*
X320157143Y-261678571D01*
X320300000Y-261750000D01*
X320371429Y-261821429D01*
X320442857Y-261964286D01*
X320442857Y-262107143D01*
X320371429Y-262250000D01*
X320300000Y-262321429D01*
X320157143Y-262392857D01*
X319657143Y-262392857D01*
D10*
D11*
X398157143Y-265978571D02*
X398157143Y-264478571D01*
X399514286Y-265978571D02*
X399514286Y-264478571D01*
X399514286Y-265907143D02*
X399371429Y-265978571D01*
X399085715Y-265978571D01*
X398942857Y-265907143D01*
X398871429Y-265835714D01*
X398800000Y-265692857D01*
X398800000Y-265264286D01*
X398871429Y-265121429D01*
X398942857Y-265050000D01*
X399085715Y-264978571D01*
X399371429Y-264978571D01*
X399514286Y-265050000D01*
X400228572Y-265835714D02*
X400300000Y-265907143D01*
X400228572Y-265978571D01*
X400157143Y-265907143D01*
X400228572Y-265835714D01*
X400228572Y-265978571D01*
X400228572Y-265050000D02*
X400300000Y-265121429D01*
X400228572Y-265192857D01*
X400157143Y-265121429D01*
X400228572Y-265050000D01*
X400228572Y-265192857D01*
X402871429Y-265978571D02*
X402014286Y-265978571D01*
X402442858Y-265978571D02*
X402442858Y-264478571D01*
X402300001Y-264692857D01*
X402157143Y-264835714D01*
X402014286Y-264907143D01*
X404585714Y-264407143D02*
X403300000Y-266335714D01*
X405871429Y-265978571D02*
X405014286Y-265978571D01*
X405442858Y-265978571D02*
X405442858Y-264478571D01*
X405300001Y-264692857D01*
X405157143Y-264835714D01*
X405014286Y-264907143D01*
D10*
D11*
X311800000Y-256900000D02*
X419800000Y-256900000D01*
D10*
D13*
X313252381Y-257604762D02*
X314395238Y-257604762D01*
X313573810Y-259604762D02*
X313823810Y-257604762D01*
X314811905Y-259604762D02*
X314978571Y-258271429D01*
X315061905Y-257604762D02*
X314954762Y-257700000D01*
X315038095Y-257795238D01*
X315145239Y-257700000D01*
X315061905Y-257604762D01*
X315038095Y-257795238D01*
X315645238Y-258271429D02*
X316407143Y-258271429D01*
X316014286Y-257604762D02*
X315800000Y-259319048D01*
X315871430Y-259509524D01*
X316050001Y-259604762D01*
X316240477Y-259604762D01*
X317192858Y-259604762D02*
X317014287Y-259509524D01*
X316942857Y-259319048D01*
X317157143Y-257604762D01*
X318728572Y-259509524D02*
X318526191Y-259604762D01*
X318145239Y-259604762D01*
X317966667Y-259509524D01*
X317895238Y-259319048D01*
X317990476Y-258557143D01*
X318109524Y-258366667D01*
X318311905Y-258271429D01*
X318692857Y-258271429D01*
X318871429Y-258366667D01*
X318942857Y-258557143D01*
X318919048Y-258747619D01*
X317942857Y-258938095D01*
X319692857Y-259414286D02*
X319776192Y-259509524D01*
X319669048Y-259604762D01*
X319585715Y-259509524D01*
X319692857Y-259414286D01*
X319669048Y-259604762D01*
X319823810Y-258366667D02*
X319907144Y-258461905D01*
X319800000Y-258557143D01*
X319716667Y-258461905D01*
X319823810Y-258366667D01*
X319800000Y-258557143D01*
D10*
D11*
X313657143Y-254992857D02*
X313157143Y-254992857D01*
X313157143Y-255778571D02*
X313157143Y-254278571D01*
X313871429Y-254278571D01*
X314442857Y-255778571D02*
X314442857Y-254778571D01*
X314442857Y-254278571D02*
X314371428Y-254350000D01*
X314442857Y-254421429D01*
X314514285Y-254350000D01*
X314442857Y-254278571D01*
X314442857Y-254421429D01*
X315371429Y-255778571D02*
X315228571Y-255707143D01*
X315157143Y-255564286D01*
X315157143Y-254278571D01*
X316514285Y-255707143D02*
X316371428Y-255778571D01*
X316085714Y-255778571D01*
X315942857Y-255707143D01*
X315871428Y-255564286D01*
X315871428Y-254992857D01*
X315942857Y-254850000D01*
X316085714Y-254778571D01*
X316371428Y-254778571D01*
X316514285Y-254850000D01*
X316585714Y-254992857D01*
X316585714Y-255135714D01*
X315871428Y-255278571D01*
X317228571Y-255635714D02*
X317299999Y-255707143D01*
X317228571Y-255778571D01*
X317157142Y-255707143D01*
X317228571Y-255635714D01*
X317228571Y-255778571D01*
X317228571Y-254850000D02*
X317299999Y-254921429D01*
X317228571Y-254992857D01*
X317157142Y-254921429D01*
X317228571Y-254850000D01*
X317228571Y-254992857D01*
X319371428Y-254278571D02*
X319657142Y-254278571D01*
X319800000Y-254350000D01*
X319942857Y-254492857D01*
X320014285Y-254778571D01*
X320014285Y-255278571D01*
X319942857Y-255564286D01*
X319800000Y-255707143D01*
X319657142Y-255778571D01*
X319371428Y-255778571D01*
X319228571Y-255707143D01*
X319085714Y-255564286D01*
X319014285Y-255278571D01*
X319014285Y-254778571D01*
X319085714Y-254492857D01*
X319228571Y-254350000D01*
X319371428Y-254278571D01*
X320442857Y-254278571D02*
X320942857Y-255778571D01*
X321442857Y-254278571D01*
X321942857Y-254992857D02*
X322442857Y-254992857D01*
X322657143Y-255778571D02*
X321942857Y-255778571D01*
X321942857Y-254278571D01*
X322657143Y-254278571D01*
X323300000Y-255778571D02*
X323300000Y-254278571D01*
X324157143Y-255778571D01*
X324157143Y-254278571D01*
X324514286Y-255921429D02*
X325657143Y-255921429D01*
X325942857Y-255707143D02*
X326157143Y-255778571D01*
X326514286Y-255778571D01*
X326657143Y-255707143D01*
X326728572Y-255635714D01*
X326800000Y-255492857D01*
X326800000Y-255350000D01*
X326728572Y-255207143D01*
X326657143Y-255135714D01*
X326514286Y-255064286D01*
X326228572Y-254992857D01*
X326085714Y-254921429D01*
X326014286Y-254850000D01*
X325942857Y-254707143D01*
X325942857Y-254564286D01*
X326014286Y-254421429D01*
X326085714Y-254350000D01*
X326228572Y-254278571D01*
X326585714Y-254278571D01*
X326800000Y-254350000D01*
X327300000Y-254278571D02*
X327657143Y-255778571D01*
X327942857Y-254707143D01*
X328228571Y-255778571D01*
X328585714Y-254278571D01*
X329157143Y-255778571D02*
X329157143Y-254278571D01*
X329657143Y-254278571D02*
X330514286Y-254278571D01*
X330085715Y-255778571D02*
X330085715Y-254278571D01*
X331871429Y-255635714D02*
X331800000Y-255707143D01*
X331585714Y-255778571D01*
X331442857Y-255778571D01*
X331228572Y-255707143D01*
X331085714Y-255564286D01*
X331014286Y-255421429D01*
X330942857Y-255135714D01*
X330942857Y-254921429D01*
X331014286Y-254635714D01*
X331085714Y-254492857D01*
X331228572Y-254350000D01*
X331442857Y-254278571D01*
X331585714Y-254278571D01*
X331800000Y-254350000D01*
X331871429Y-254421429D01*
X332514286Y-255778571D02*
X332514286Y-254278571D01*
X332514286Y-254992857D02*
X333371429Y-254992857D01*
X333371429Y-255778571D02*
X333371429Y-254278571D01*
X334085715Y-255635714D02*
X334157143Y-255707143D01*
X334085715Y-255778571D01*
X334014286Y-255707143D01*
X334085715Y-255635714D01*
X334085715Y-255778571D01*
X334800001Y-255778571D02*
X334800001Y-254278571D01*
X334942858Y-255207143D02*
X335371429Y-255778571D01*
X335371429Y-254778571D02*
X334800001Y-255350000D01*
X336014287Y-255778571D02*
X336014287Y-254778571D01*
X336014287Y-254278571D02*
X335942858Y-254350000D01*
X336014287Y-254421429D01*
X336085715Y-254350000D01*
X336014287Y-254278571D01*
X336014287Y-254421429D01*
X337371430Y-255707143D02*
X337228573Y-255778571D01*
X336942859Y-255778571D01*
X336800001Y-255707143D01*
X336728573Y-255635714D01*
X336657144Y-255492857D01*
X336657144Y-255064286D01*
X336728573Y-254921429D01*
X336800001Y-254850000D01*
X336942859Y-254778571D01*
X337228573Y-254778571D01*
X337371430Y-254850000D01*
X338657144Y-255778571D02*
X338657144Y-254992857D01*
X338585715Y-254850000D01*
X338442858Y-254778571D01*
X338157144Y-254778571D01*
X338014287Y-254850000D01*
X338657144Y-255707143D02*
X338514287Y-255778571D01*
X338157144Y-255778571D01*
X338014287Y-255707143D01*
X337942858Y-255564286D01*
X337942858Y-255421429D01*
X338014287Y-255278571D01*
X338157144Y-255207143D01*
X338514287Y-255207143D01*
X338657144Y-255135714D01*
X340014287Y-255778571D02*
X340014287Y-254278571D01*
X340014287Y-255707143D02*
X339871430Y-255778571D01*
X339585716Y-255778571D01*
X339442858Y-255707143D01*
X339371430Y-255635714D01*
X339300001Y-255492857D01*
X339300001Y-255064286D01*
X339371430Y-254921429D01*
X339442858Y-254850000D01*
X339585716Y-254778571D01*
X339871430Y-254778571D01*
X340014287Y-254850000D01*
X340371430Y-255921429D02*
X341514287Y-255921429D01*
X341871430Y-254778571D02*
X341871430Y-256278571D01*
X341871430Y-254850000D02*
X342014287Y-254778571D01*
X342300001Y-254778571D01*
X342442858Y-254850000D01*
X342514287Y-254921429D01*
X342585716Y-255064286D01*
X342585716Y-255492857D01*
X342514287Y-255635714D01*
X342442858Y-255707143D01*
X342300001Y-255778571D01*
X342014287Y-255778571D01*
X341871430Y-255707143D01*
X343871430Y-255707143D02*
X343728573Y-255778571D01*
X343442859Y-255778571D01*
X343300001Y-255707143D01*
X343228573Y-255635714D01*
X343157144Y-255492857D01*
X343157144Y-255064286D01*
X343228573Y-254921429D01*
X343300001Y-254850000D01*
X343442859Y-254778571D01*
X343728573Y-254778571D01*
X343871430Y-254850000D01*
X344514287Y-255778571D02*
X344514287Y-254278571D01*
X344514287Y-254850000D02*
X344657144Y-254778571D01*
X344942858Y-254778571D01*
X345085715Y-254850000D01*
X345157144Y-254921429D01*
X345228573Y-255064286D01*
X345228573Y-255492857D01*
X345157144Y-255635714D01*
X345085715Y-255707143D01*
X344942858Y-255778571D01*
X344657144Y-255778571D01*
X344514287Y-255707143D01*
D10*
D11*
X311800000Y-250900000D02*
X419800000Y-250900000D01*
D10*
D11*
X313085714Y-253007143D02*
X313300000Y-253078571D01*
X313657143Y-253078571D01*
X313800000Y-253007143D01*
X313871429Y-252935714D01*
X313942857Y-252792857D01*
X313942857Y-252650000D01*
X313871429Y-252507143D01*
X313800000Y-252435714D01*
X313657143Y-252364286D01*
X313371429Y-252292857D01*
X313228571Y-252221429D01*
X313157143Y-252150000D01*
X313085714Y-252007143D01*
X313085714Y-251864286D01*
X313157143Y-251721429D01*
X313228571Y-251650000D01*
X313371429Y-251578571D01*
X313728571Y-251578571D01*
X313942857Y-251650000D01*
X314585714Y-253078571D02*
X314585714Y-251578571D01*
X315228571Y-253078571D02*
X315228571Y-252292857D01*
X315157142Y-252150000D01*
X315014285Y-252078571D01*
X314800000Y-252078571D01*
X314657142Y-252150000D01*
X314585714Y-252221429D01*
X316514285Y-253007143D02*
X316371428Y-253078571D01*
X316085714Y-253078571D01*
X315942857Y-253007143D01*
X315871428Y-252864286D01*
X315871428Y-252292857D01*
X315942857Y-252150000D01*
X316085714Y-252078571D01*
X316371428Y-252078571D01*
X316514285Y-252150000D01*
X316585714Y-252292857D01*
X316585714Y-252435714D01*
X315871428Y-252578571D01*
X317799999Y-253007143D02*
X317657142Y-253078571D01*
X317371428Y-253078571D01*
X317228571Y-253007143D01*
X317157142Y-252864286D01*
X317157142Y-252292857D01*
X317228571Y-252150000D01*
X317371428Y-252078571D01*
X317657142Y-252078571D01*
X317799999Y-252150000D01*
X317871428Y-252292857D01*
X317871428Y-252435714D01*
X317157142Y-252578571D01*
X318299999Y-252078571D02*
X318871428Y-252078571D01*
X318514285Y-251578571D02*
X318514285Y-252864286D01*
X318585713Y-253007143D01*
X318728571Y-253078571D01*
X318871428Y-253078571D01*
X319371428Y-252935714D02*
X319442856Y-253007143D01*
X319371428Y-253078571D01*
X319299999Y-253007143D01*
X319371428Y-252935714D01*
X319371428Y-253078571D01*
X319371428Y-252150000D02*
X319442856Y-252221429D01*
X319371428Y-252292857D01*
X319299999Y-252221429D01*
X319371428Y-252150000D01*
X319371428Y-252292857D01*
D10*
D11*
X331800000Y-260900000D02*
X331800000Y-263900000D01*
D10*
D11*
X395800000Y-260900000D02*
X395800000Y-267400000D01*
D14*
X30090000Y-64524000D02*
X396122000Y-64524000D01*
X307990000Y-73202000D02*
X307990000Y-110002000D01*
X370990000Y-73202000D02*
X307990000Y-73202000D01*
X370990000Y-110002000D02*
X370990000Y-73202000D01*
X307990000Y-110002000D02*
X370990000Y-110002000D01*
X36490000Y-109934000D02*
X36490000Y-72534000D01*
X237090000Y-109934000D02*
X36490000Y-109934000D01*
X237090000Y-72534000D02*
X237090000Y-109934000D01*
X36490000Y-72534000D02*
X237090000Y-72534000D01*
X30090000Y-154024000D02*
X41122000Y-154024000D01*
X30090000Y-154024000D02*
X30090000Y-64524000D01*
X396122000Y-154024000D02*
X41122000Y-154024000D01*
X396122000Y-64524000D02*
X396122000Y-154024000D01*
D15*
X290560000Y-66848000D03*
D16*
X288020000Y-66848000D03*
X285480000Y-66848000D03*
X282940000Y-66848000D03*
X280400000Y-66848000D03*
X277860000Y-66848000D03*
X275320000Y-66848000D03*
X272780000Y-66848000D03*
X270240000Y-66848000D03*
X267700000Y-66848000D03*
X265160000Y-66848000D03*
X262620000Y-66848000D03*
X260080000Y-66848000D03*
X257540000Y-66848000D03*
X255000000Y-66848000D03*
X252460000Y-66848000D03*
X249920000Y-66848000D03*
D17*
X43654000Y-136296000D03*
X58274000Y-136296000D03*
X43654000Y-121296000D03*
X58274000Y-121296000D03*
X73654000Y-136296000D03*
X88274000Y-136296000D03*
X73654000Y-121296000D03*
X88274000Y-121296000D03*
X94654000Y-121296000D03*
X109274000Y-121296000D03*
X94654000Y-136296000D03*
X109274000Y-136296000D03*
X115654000Y-121296000D03*
X130274000Y-121296000D03*
X115654000Y-136296000D03*
X130274000Y-136296000D03*
X143654000Y-128796000D03*
X158274000Y-128796000D03*
X163654000Y-128796000D03*
X178274000Y-128796000D03*
X186654000Y-128796000D03*
X201274000Y-128796000D03*
X216654000Y-121296000D03*
X231274000Y-121296000D03*
X216654000Y-137296000D03*
X231274000Y-137296000D03*
X246654000Y-134796000D03*
X261274000Y-134796000D03*
X246654000Y-117296000D03*
X261274000Y-117296000D03*
X246634000Y-99926000D03*
X261254000Y-99926000D03*
X246634000Y-82426000D03*
X261254000Y-82426000D03*
X266654000Y-134796000D03*
X281274000Y-134796000D03*
X266654000Y-117296000D03*
X281274000Y-117296000D03*
X266654000Y-99796000D03*
X281274000Y-99796000D03*
X266654000Y-82296000D03*
X281274000Y-82296000D03*
X286654000Y-99796000D03*
X301274000Y-99796000D03*
X286654000Y-134796000D03*
X301274000Y-134796000D03*
X286654000Y-117296000D03*
X301274000Y-117296000D03*
X286654000Y-82296000D03*
X301274000Y-82296000D03*
X319654000Y-137296000D03*
X334274000Y-137296000D03*
X342154000Y-137296000D03*
X356774000Y-137296000D03*
X378680000Y-133194000D03*
X393300000Y-133194000D03*
X378154000Y-115296000D03*
X392774000Y-115296000D03*
X378154000Y-80296000D03*
X392774000Y-80296000D03*
X327154000Y-124296000D03*
X350274000Y-124546000D03*
D18*
X306848000Y-68658000D03*
X307048000Y-73958000D03*
X287148000Y-90358000D03*
X277548000Y-90358000D03*
X374540000Y-83412000D03*
X378096000Y-82396000D03*
X305048000Y-90758000D03*
X299864000Y-90778000D03*
X239248000Y-114058000D03*
X239498000Y-110808000D03*
X266648000Y-90758000D03*
X260048000Y-90658000D03*
X170070000Y-115217000D03*
X165048000Y-112058000D03*
X300548000Y-92958000D03*
X303748000Y-92658000D03*
X300448000Y-74658000D03*
X295348000Y-74858000D03*
X286540000Y-77832000D03*
X285386000Y-71474000D03*
X263948000Y-107358000D03*
X263948000Y-110358000D03*
X264448000Y-115458000D03*
X184248000Y-127308000D03*
X114498000Y-145808000D03*
X114444000Y-148944000D03*
X143908000Y-140816000D03*
X143654000Y-137768000D03*
X212524000Y-137296000D03*
X209694000Y-140054000D03*
X184294000Y-130148000D03*
X264304000Y-118972000D03*
X264304000Y-133196000D03*
X264812000Y-136752000D03*
X278998000Y-107558000D03*
X286748000Y-107558000D03*
X284370000Y-78332000D03*
X284116000Y-71474000D03*
X284748000Y-99358000D03*
X270148000Y-110258000D03*
X142130000Y-137768000D03*
X141876000Y-140816000D03*
X244448000Y-119058000D03*
X247794000Y-121766000D03*
X285248000Y-109858000D03*
X282846000Y-78332000D03*
X282848000Y-71458000D03*
X137248000Y-130558000D03*
X137498000Y-126558000D03*
X137748000Y-110558000D03*
X58998000Y-116308000D03*
X58998000Y-112058000D03*
X137748000Y-115308000D03*
X112498000Y-148808000D03*
X112998000Y-140058000D03*
X372254000Y-107542000D03*
X372254000Y-73252000D03*
X372354000Y-70066000D03*
X372254000Y-124814000D03*
X372254000Y-120496000D03*
X372254000Y-112368000D03*
X378848000Y-143458000D03*
X378858000Y-147674000D03*
X74058000Y-146404000D03*
X73550000Y-142086000D03*
X139590000Y-151484000D03*
X139590000Y-137768000D03*
X309848000Y-118972000D03*
X309848000Y-115924000D03*
X286748000Y-111358000D03*
X281448000Y-111658000D03*
X244648000Y-90358000D03*
X244748000Y-96558000D03*
X260885000Y-78420900D03*
X262948000Y-76558000D03*
X170324000Y-118972000D03*
X166498000Y-119058000D03*
D19*
X306848000Y-73758000D02*
X306848000Y-68658000D01*
X307048000Y-73958000D02*
X306848000Y-73758000D01*
X277548000Y-90358000D02*
X287148000Y-90358000D01*
X239498000Y-113808000D02*
X239248000Y-114058000D01*
X239498000Y-110808000D02*
X239498000Y-113808000D01*
X299864000Y-90778000D02*
X305048000Y-90758000D01*
X375556000Y-82396000D02*
X378096000Y-82396000D01*
X374540000Y-83412000D02*
X375556000Y-82396000D01*
X260048000Y-90658000D02*
X266648000Y-90758000D01*
X170070000Y-114146000D02*
X170070000Y-115217000D01*
X169054000Y-113130000D02*
X170070000Y-114146000D01*
X165048000Y-112058000D02*
X169054000Y-113130000D01*
D10*
X88274000Y-121296000D02*
X88328500Y-121242000D01*
X286508000Y-82149600D02*
X286654000Y-82296000D01*
D19*
X300848000Y-92658000D02*
X303748000Y-92658000D01*
X300548000Y-92958000D02*
X300848000Y-92658000D01*
X300248000Y-74858000D02*
X295348000Y-74858000D01*
X300448000Y-74658000D02*
X300248000Y-74858000D01*
X285386000Y-76678000D02*
X286540000Y-77832000D01*
X285386000Y-71474000D02*
X285386000Y-76678000D01*
X263948000Y-110358000D02*
X263948000Y-107358000D01*
X264304000Y-115602000D02*
X264448000Y-115458000D01*
X264304000Y-118972000D02*
X264304000Y-115602000D01*
X184294000Y-127354000D02*
X184248000Y-127308000D01*
X184294000Y-130148000D02*
X184294000Y-127354000D01*
X114698000Y-148690000D02*
X114498000Y-145808000D01*
X114444000Y-148944000D02*
X114698000Y-148690000D01*
X143908000Y-138022000D02*
X143908000Y-140816000D01*
X143654000Y-137768000D02*
X143908000Y-138022000D01*
X209766000Y-140054000D02*
X212524000Y-137296000D01*
X209694000Y-140054000D02*
X209766000Y-140054000D01*
X264812000Y-133704000D02*
X264812000Y-136752000D01*
X264304000Y-133196000D02*
X264812000Y-133704000D01*
X286748000Y-107587000D02*
X286748000Y-107558000D01*
X278994000Y-107633000D02*
X286748000Y-107587000D01*
X278994000Y-107554000D02*
X278994000Y-107633000D01*
X278998000Y-107558000D02*
X278994000Y-107554000D01*
D10*
X261448000Y-100120000D02*
X261254000Y-99926000D01*
D19*
X141876000Y-140816000D02*
X142130000Y-140562000D01*
X142130000Y-140562000D02*
X142130000Y-137768000D01*
X284116000Y-78078000D02*
X284116000Y-71474000D01*
X284370000Y-78332000D02*
X284116000Y-78078000D01*
X270348000Y-110058000D02*
X270148000Y-110258000D01*
X285248000Y-109858000D02*
X270348000Y-110058000D01*
X247286000Y-121766000D02*
X247794000Y-121766000D01*
X244448000Y-119058000D02*
X247286000Y-121766000D01*
D10*
X350274000Y-124546000D02*
X350414000Y-124406000D01*
X88274000Y-136296000D02*
X88448600Y-136471000D01*
X261361000Y-117209000D02*
X261274000Y-117296000D01*
X301338000Y-117232000D02*
X301274000Y-117296000D01*
D19*
X282846000Y-78332000D02*
X282848000Y-71458000D01*
X137248000Y-126808000D02*
X137248000Y-130558000D01*
X137498000Y-126558000D02*
X137248000Y-126808000D01*
X58998000Y-116308000D02*
X58998000Y-112058000D01*
X137748000Y-115308000D02*
X137748000Y-110558000D01*
D10*
X278676000Y-65124000D02*
X280400000Y-66848000D01*
X256684000Y-65124000D02*
X278676000Y-65124000D01*
X255000000Y-66808000D02*
X256684000Y-65124000D01*
X255000000Y-66848000D02*
X255000000Y-66808000D01*
X393300000Y-133194000D02*
X393475000Y-133369000D01*
X201274000Y-128796000D02*
X201463000Y-128985000D01*
X130274000Y-136296000D02*
X130380000Y-136190000D01*
X58274000Y-121296000D02*
X58502600Y-121525000D01*
X58502600Y-136067000D02*
X58274000Y-136296000D01*
X261448000Y-134970000D02*
X261274000Y-134796000D01*
X334448000Y-137470000D02*
X334274000Y-137296000D01*
D19*
X112498000Y-140558000D02*
X112498000Y-148808000D01*
X112998000Y-140058000D02*
X112498000Y-140558000D01*
X372254000Y-73252000D02*
X372354000Y-70066000D01*
X372254000Y-124814000D02*
X372254000Y-120496000D01*
X372254000Y-112368000D02*
X372254000Y-107542000D01*
X378848000Y-143458000D02*
X378858000Y-147674000D01*
X73550000Y-145896000D02*
X73550000Y-142086000D01*
X74058000Y-146404000D02*
X73550000Y-145896000D01*
X109274000Y-136296000D02*
X109328000Y-136242000D01*
X139590000Y-137768000D02*
X139590000Y-151484000D01*
D10*
X392988000Y-115082000D02*
X392774000Y-115296000D01*
X392774000Y-80296000D02*
X392988000Y-80509900D01*
X392774000Y-115296000D02*
X392968000Y-115490000D01*
D19*
X309848000Y-115924000D02*
X309848000Y-118972000D01*
D10*
X301493000Y-99577000D02*
X301274000Y-99796000D01*
D19*
X286448000Y-111658000D02*
X286748000Y-111358000D01*
X281448000Y-111658000D02*
X286448000Y-111658000D01*
D10*
X301337000Y-134733000D02*
X301274000Y-134796000D01*
X281467000Y-99603000D02*
X281274000Y-99796000D01*
X281274000Y-82296000D02*
X281467000Y-82489000D01*
X281361000Y-82208800D02*
X281274000Y-82296000D01*
D19*
X244648000Y-90358000D02*
X244748000Y-96558000D01*
X262748000Y-76558000D02*
X262948000Y-76558000D01*
X260885000Y-78420900D02*
X262748000Y-76558000D01*
D10*
X281467000Y-134603000D02*
X281274000Y-134796000D01*
X281274000Y-117296000D02*
X281467000Y-117489000D01*
X261254000Y-82426000D02*
X261328000Y-82351500D01*
X231448000Y-121470000D02*
X231274000Y-121296000D01*
X231274000Y-137296000D02*
X231448000Y-137122000D01*
D19*
X166498000Y-119058000D02*
X170324000Y-118972000D01*
D10*
X178274000Y-128796000D02*
X178454000Y-128976000D01*
M02*
