<?xml version="1.0" standalone="no"?>
 <!DOCTYPE svg PUBLIC "-//W3C//DTD SVG 1.1//EN" 
 "http://www.w3.org/Graphics/SVG/1.1/DTD/svg11.dtd"> 
<svg xmlns="http://www.w3.org/2000/svg" version="1.1" 
    width="43.18cm" height="27.94cm" viewBox="0 0 170000 110000 ">
<title>SVG Picture created as OVEN_SWITCH-F.SilkS.svg date 2017/04/14 12:33:29 </title>
  <desc>Picture generated by PCBNEW </desc>
<g style="fill:#000000; fill-opacity:1;stroke:#000000; stroke-opacity:1;
stroke-linecap:round; stroke-linejoin:round; "
 transform="translate(0 0) scale(1 1)">
</g>
<g style="fill:#000000; fill-opacity:0.0; 
stroke:#000000; stroke-width:-0.000393701; stroke-opacity:1; 
stroke-linecap:round; stroke-linejoin:round;">
</g>
<g style="fill:#000000; fill-opacity:0.0; 
stroke:#000000; stroke-width:39.3701; stroke-opacity:1; 
stroke-linecap:round; stroke-linejoin:round;">
</g>
<g style="fill:#000000; fill-opacity:0.0; 
stroke:#000000; stroke-width:59.0551; stroke-opacity:1; 
stroke-linecap:round; stroke-linejoin:round;">
<rect x="122756" y="92677.2" width="42519.7" height="12598.4" rx="0" />
</g>
<g style="fill:#000000; fill-opacity:0.0; 
stroke:#000000; stroke-width:39.3701; stroke-opacity:1; 
stroke-linecap:round; stroke-linejoin:round;">
</g>
<g style="fill:#000000; fill-opacity:0.0; 
stroke:#000000; stroke-width:59.0551; stroke-opacity:1; 
stroke-linecap:round; stroke-linejoin:round;">
<rect x="3937.01" y="3937.01" width="162126" height="102126" rx="0" />
</g>
<g style="fill:#000000; fill-opacity:0.0; 
stroke:#000000; stroke-width:39.3701; stroke-opacity:1; 
stroke-linecap:round; stroke-linejoin:round;">
</g>
<g style="fill:#000000; fill-opacity:0.0; 
stroke:#000000; stroke-width:59.0551; stroke-opacity:1; 
stroke-linecap:round; stroke-linejoin:round;">
<rect x="4724.41" y="4724.41" width="160551" height="100551" rx="0" />
</g>
<g style="fill:#000000; fill-opacity:0.0; 
stroke:#000000; stroke-width:39.3701; stroke-opacity:1; 
stroke-linecap:round; stroke-linejoin:round;">
</g>
<g style="fill:#000000; fill-opacity:0.0; 
stroke:#000000; stroke-width:59.0551; stroke-opacity:1; 
stroke-linecap:round; stroke-linejoin:round;">
<path d="M23622 4724
L23622 3937
" />
</g>
<g style="fill:#000000; fill-opacity:0.0; 
stroke:#000000; stroke-width:39.3701; stroke-opacity:1; 
stroke-linecap:round; stroke-linejoin:round;">
</g>
<g style="fill:#000000; fill-opacity:0.0; 
stroke:#000000; stroke-width:59.0551; stroke-opacity:1; 
stroke-linecap:round; stroke-linejoin:round;">
<path d="M43307 4724
L43307 3937
" />
</g>
<g style="fill:#000000; fill-opacity:0.0; 
stroke:#000000; stroke-width:39.3701; stroke-opacity:1; 
stroke-linecap:round; stroke-linejoin:round;">
</g>
<g style="fill:#000000; fill-opacity:0.0; 
stroke:#000000; stroke-width:59.0551; stroke-opacity:1; 
stroke-linecap:round; stroke-linejoin:round;">
<path d="M62992 4724
L62992 3937
" />
</g>
<g style="fill:#000000; fill-opacity:0.0; 
stroke:#000000; stroke-width:39.3701; stroke-opacity:1; 
stroke-linecap:round; stroke-linejoin:round;">
</g>
<g style="fill:#000000; fill-opacity:0.0; 
stroke:#000000; stroke-width:59.0551; stroke-opacity:1; 
stroke-linecap:round; stroke-linejoin:round;">
<path d="M82677 4724
L82677 3937
" />
</g>
<g style="fill:#000000; fill-opacity:0.0; 
stroke:#000000; stroke-width:39.3701; stroke-opacity:1; 
stroke-linecap:round; stroke-linejoin:round;">
</g>
<g style="fill:#000000; fill-opacity:0.0; 
stroke:#000000; stroke-width:59.0551; stroke-opacity:1; 
stroke-linecap:round; stroke-linejoin:round;">
<path d="M102362 4724
L102362 3937
" />
</g>
<g style="fill:#000000; fill-opacity:0.0; 
stroke:#000000; stroke-width:39.3701; stroke-opacity:1; 
stroke-linecap:round; stroke-linejoin:round;">
</g>
<g style="fill:#000000; fill-opacity:0.0; 
stroke:#000000; stroke-width:59.0551; stroke-opacity:1; 
stroke-linecap:round; stroke-linejoin:round;">
<path d="M122047 4724
L122047 3937
" />
</g>
<g style="fill:#000000; fill-opacity:0.0; 
stroke:#000000; stroke-width:39.3701; stroke-opacity:1; 
stroke-linecap:round; stroke-linejoin:round;">
</g>
<g style="fill:#000000; fill-opacity:0.0; 
stroke:#000000; stroke-width:59.0551; stroke-opacity:1; 
stroke-linecap:round; stroke-linejoin:round;">
<path d="M141732 4724
L141732 3937
" />
</g>
<g style="fill:#000000; fill-opacity:0.0; 
stroke:#000000; stroke-width:39.3701; stroke-opacity:1; 
stroke-linecap:round; stroke-linejoin:round;">
</g>
<g style="fill:#000000; fill-opacity:0.0; 
stroke:#000000; stroke-width:59.0551; stroke-opacity:1; 
stroke-linecap:round; stroke-linejoin:round;">
<path d="M161417 4724
L161417 3937
" />
</g>
<g style="fill:#000000; fill-opacity:0.0; 
stroke:#000000; stroke-width:39.3701; stroke-opacity:1; 
stroke-linecap:round; stroke-linejoin:round;">
</g>
<g style="fill:#000000; fill-opacity:0.0; 
stroke:#000000; stroke-width:59.0551; stroke-opacity:1; 
stroke-linecap:round; stroke-linejoin:round;">
<path d="M14169 4562
L13877 4562
" />
<path d="M14023 4562
L14023 4050
L13974 4123
L13925 4172
L13877 4196
" />
</g>
<g style="fill:#000000; fill-opacity:0.0; 
stroke:#000000; stroke-width:39.3701; stroke-opacity:1; 
stroke-linecap:round; stroke-linejoin:round;">
</g>
<g style="fill:#000000; fill-opacity:0.0; 
stroke:#000000; stroke-width:59.0551; stroke-opacity:1; 
stroke-linecap:round; stroke-linejoin:round;">
<path d="M33562 4099
L33586 4074
L33635 4050
L33757 4050
L33805 4074
L33830 4099
L33854 4147
L33854 4196
L33830 4269
L33537 4562
L33854 4562
" />
</g>
<g style="fill:#000000; fill-opacity:0.0; 
stroke:#000000; stroke-width:39.3701; stroke-opacity:1; 
stroke-linecap:round; stroke-linejoin:round;">
</g>
<g style="fill:#000000; fill-opacity:0.0; 
stroke:#000000; stroke-width:59.0551; stroke-opacity:1; 
stroke-linecap:round; stroke-linejoin:round;">
<path d="M53222 4050
L53539 4050
L53368 4245
L53442 4245
L53490 4269
L53515 4294
L53539 4342
L53539 4464
L53515 4513
L53490 4537
L53442 4562
L53295 4562
L53247 4537
L53222 4513
" />
</g>
<g style="fill:#000000; fill-opacity:0.0; 
stroke:#000000; stroke-width:39.3701; stroke-opacity:1; 
stroke-linecap:round; stroke-linejoin:round;">
</g>
<g style="fill:#000000; fill-opacity:0.0; 
stroke:#000000; stroke-width:59.0551; stroke-opacity:1; 
stroke-linecap:round; stroke-linejoin:round;">
<path d="M73175 4221
L73175 4562
" />
<path d="M73053 4026
L72932 4391
L73248 4391
" />
</g>
<g style="fill:#000000; fill-opacity:0.0; 
stroke:#000000; stroke-width:39.3701; stroke-opacity:1; 
stroke-linecap:round; stroke-linejoin:round;">
</g>
<g style="fill:#000000; fill-opacity:0.0; 
stroke:#000000; stroke-width:59.0551; stroke-opacity:1; 
stroke-linecap:round; stroke-linejoin:round;">
<path d="M92885 4050
L92641 4050
L92617 4294
L92641 4269
L92690 4245
L92812 4245
L92860 4269
L92885 4294
L92909 4342
L92909 4464
L92885 4513
L92860 4537
L92812 4562
L92690 4562
L92641 4537
L92617 4513
" />
</g>
<g style="fill:#000000; fill-opacity:0.0; 
stroke:#000000; stroke-width:39.3701; stroke-opacity:1; 
stroke-linecap:round; stroke-linejoin:round;">
</g>
<g style="fill:#000000; fill-opacity:0.0; 
stroke:#000000; stroke-width:59.0551; stroke-opacity:1; 
stroke-linecap:round; stroke-linejoin:round;">
<path d="M112545 4050
L112448 4050
L112399 4074
L112375 4099
L112326 4172
L112302 4269
L112302 4464
L112326 4513
L112350 4537
L112399 4562
L112497 4562
L112545 4537
L112570 4513
L112594 4464
L112594 4342
L112570 4294
L112545 4269
L112497 4245
L112399 4245
L112350 4269
L112326 4294
L112302 4342
" />
</g>
<g style="fill:#000000; fill-opacity:0.0; 
stroke:#000000; stroke-width:39.3701; stroke-opacity:1; 
stroke-linecap:round; stroke-linejoin:round;">
</g>
<g style="fill:#000000; fill-opacity:0.0; 
stroke:#000000; stroke-width:59.0551; stroke-opacity:1; 
stroke-linecap:round; stroke-linejoin:round;">
<path d="M131962 4050
L132304 4050
L132084 4562
" />
</g>
<g style="fill:#000000; fill-opacity:0.0; 
stroke:#000000; stroke-width:39.3701; stroke-opacity:1; 
stroke-linecap:round; stroke-linejoin:round;">
</g>
<g style="fill:#000000; fill-opacity:0.0; 
stroke:#000000; stroke-width:59.0551; stroke-opacity:1; 
stroke-linecap:round; stroke-linejoin:round;">
<path d="M151769 4269
L151721 4245
L151696 4221
L151672 4172
L151672 4147
L151696 4099
L151721 4074
L151769 4050
L151867 4050
L151916 4074
L151940 4099
L151964 4147
L151964 4172
L151940 4221
L151916 4245
L151867 4269
L151769 4269
L151721 4294
L151696 4318
L151672 4367
L151672 4464
L151696 4513
L151721 4537
L151769 4562
L151867 4562
L151916 4537
L151940 4513
L151964 4464
L151964 4367
L151940 4318
L151916 4294
L151867 4269
" />
</g>
<g style="fill:#000000; fill-opacity:0.0; 
stroke:#000000; stroke-width:39.3701; stroke-opacity:1; 
stroke-linecap:round; stroke-linejoin:round;">
</g>
<g style="fill:#000000; fill-opacity:0.0; 
stroke:#000000; stroke-width:59.0551; stroke-opacity:1; 
stroke-linecap:round; stroke-linejoin:round;">
<path d="M23622 105275
L23622 106062
" />
</g>
<g style="fill:#000000; fill-opacity:0.0; 
stroke:#000000; stroke-width:39.3701; stroke-opacity:1; 
stroke-linecap:round; stroke-linejoin:round;">
</g>
<g style="fill:#000000; fill-opacity:0.0; 
stroke:#000000; stroke-width:59.0551; stroke-opacity:1; 
stroke-linecap:round; stroke-linejoin:round;">
<path d="M43307 105275
L43307 106062
" />
</g>
<g style="fill:#000000; fill-opacity:0.0; 
stroke:#000000; stroke-width:39.3701; stroke-opacity:1; 
stroke-linecap:round; stroke-linejoin:round;">
</g>
<g style="fill:#000000; fill-opacity:0.0; 
stroke:#000000; stroke-width:59.0551; stroke-opacity:1; 
stroke-linecap:round; stroke-linejoin:round;">
<path d="M62992 105275
L62992 106062
" />
</g>
<g style="fill:#000000; fill-opacity:0.0; 
stroke:#000000; stroke-width:39.3701; stroke-opacity:1; 
stroke-linecap:round; stroke-linejoin:round;">
</g>
<g style="fill:#000000; fill-opacity:0.0; 
stroke:#000000; stroke-width:59.0551; stroke-opacity:1; 
stroke-linecap:round; stroke-linejoin:round;">
<path d="M82677 105275
L82677 106062
" />
</g>
<g style="fill:#000000; fill-opacity:0.0; 
stroke:#000000; stroke-width:39.3701; stroke-opacity:1; 
stroke-linecap:round; stroke-linejoin:round;">
</g>
<g style="fill:#000000; fill-opacity:0.0; 
stroke:#000000; stroke-width:59.0551; stroke-opacity:1; 
stroke-linecap:round; stroke-linejoin:round;">
<path d="M102362 105275
L102362 106062
" />
</g>
<g style="fill:#000000; fill-opacity:0.0; 
stroke:#000000; stroke-width:39.3701; stroke-opacity:1; 
stroke-linecap:round; stroke-linejoin:round;">
</g>
<g style="fill:#000000; fill-opacity:0.0; 
stroke:#000000; stroke-width:59.0551; stroke-opacity:1; 
stroke-linecap:round; stroke-linejoin:round;">
<path d="M122047 105275
L122047 106062
" />
</g>
<g style="fill:#000000; fill-opacity:0.0; 
stroke:#000000; stroke-width:39.3701; stroke-opacity:1; 
stroke-linecap:round; stroke-linejoin:round;">
</g>
<g style="fill:#000000; fill-opacity:0.0; 
stroke:#000000; stroke-width:59.0551; stroke-opacity:1; 
stroke-linecap:round; stroke-linejoin:round;">
<path d="M141732 105275
L141732 106062
" />
</g>
<g style="fill:#000000; fill-opacity:0.0; 
stroke:#000000; stroke-width:39.3701; stroke-opacity:1; 
stroke-linecap:round; stroke-linejoin:round;">
</g>
<g style="fill:#000000; fill-opacity:0.0; 
stroke:#000000; stroke-width:59.0551; stroke-opacity:1; 
stroke-linecap:round; stroke-linejoin:round;">
<path d="M161417 105275
L161417 106062
" />
</g>
<g style="fill:#000000; fill-opacity:0.0; 
stroke:#000000; stroke-width:39.3701; stroke-opacity:1; 
stroke-linecap:round; stroke-linejoin:round;">
</g>
<g style="fill:#000000; fill-opacity:0.0; 
stroke:#000000; stroke-width:59.0551; stroke-opacity:1; 
stroke-linecap:round; stroke-linejoin:round;">
<path d="M14169 105900
L13877 105900
" />
<path d="M14023 105900
L14023 105389
L13974 105462
L13925 105510
L13877 105535
" />
</g>
<g style="fill:#000000; fill-opacity:0.0; 
stroke:#000000; stroke-width:39.3701; stroke-opacity:1; 
stroke-linecap:round; stroke-linejoin:round;">
</g>
<g style="fill:#000000; fill-opacity:0.0; 
stroke:#000000; stroke-width:59.0551; stroke-opacity:1; 
stroke-linecap:round; stroke-linejoin:round;">
<path d="M33562 105437
L33586 105413
L33635 105389
L33757 105389
L33805 105413
L33830 105437
L33854 105486
L33854 105535
L33830 105608
L33537 105900
L33854 105900
" />
</g>
<g style="fill:#000000; fill-opacity:0.0; 
stroke:#000000; stroke-width:39.3701; stroke-opacity:1; 
stroke-linecap:round; stroke-linejoin:round;">
</g>
<g style="fill:#000000; fill-opacity:0.0; 
stroke:#000000; stroke-width:59.0551; stroke-opacity:1; 
stroke-linecap:round; stroke-linejoin:round;">
<path d="M53222 105389
L53539 105389
L53368 105583
L53442 105583
L53490 105608
L53515 105632
L53539 105681
L53539 105803
L53515 105852
L53490 105876
L53442 105900
L53295 105900
L53247 105876
L53222 105852
" />
</g>
<g style="fill:#000000; fill-opacity:0.0; 
stroke:#000000; stroke-width:39.3701; stroke-opacity:1; 
stroke-linecap:round; stroke-linejoin:round;">
</g>
<g style="fill:#000000; fill-opacity:0.0; 
stroke:#000000; stroke-width:59.0551; stroke-opacity:1; 
stroke-linecap:round; stroke-linejoin:round;">
<path d="M73175 105559
L73175 105900
" />
<path d="M73053 105364
L72932 105730
L73248 105730
" />
</g>
<g style="fill:#000000; fill-opacity:0.0; 
stroke:#000000; stroke-width:39.3701; stroke-opacity:1; 
stroke-linecap:round; stroke-linejoin:round;">
</g>
<g style="fill:#000000; fill-opacity:0.0; 
stroke:#000000; stroke-width:59.0551; stroke-opacity:1; 
stroke-linecap:round; stroke-linejoin:round;">
<path d="M92885 105389
L92641 105389
L92617 105632
L92641 105608
L92690 105583
L92812 105583
L92860 105608
L92885 105632
L92909 105681
L92909 105803
L92885 105852
L92860 105876
L92812 105900
L92690 105900
L92641 105876
L92617 105852
" />
</g>
<g style="fill:#000000; fill-opacity:0.0; 
stroke:#000000; stroke-width:39.3701; stroke-opacity:1; 
stroke-linecap:round; stroke-linejoin:round;">
</g>
<g style="fill:#000000; fill-opacity:0.0; 
stroke:#000000; stroke-width:59.0551; stroke-opacity:1; 
stroke-linecap:round; stroke-linejoin:round;">
<path d="M112545 105389
L112448 105389
L112399 105413
L112375 105437
L112326 105510
L112302 105608
L112302 105803
L112326 105852
L112350 105876
L112399 105900
L112497 105900
L112545 105876
L112570 105852
L112594 105803
L112594 105681
L112570 105632
L112545 105608
L112497 105583
L112399 105583
L112350 105608
L112326 105632
L112302 105681
" />
</g>
<g style="fill:#000000; fill-opacity:0.0; 
stroke:#000000; stroke-width:39.3701; stroke-opacity:1; 
stroke-linecap:round; stroke-linejoin:round;">
</g>
<g style="fill:#000000; fill-opacity:0.0; 
stroke:#000000; stroke-width:59.0551; stroke-opacity:1; 
stroke-linecap:round; stroke-linejoin:round;">
<path d="M131962 105389
L132304 105389
L132084 105900
" />
</g>
<g style="fill:#000000; fill-opacity:0.0; 
stroke:#000000; stroke-width:39.3701; stroke-opacity:1; 
stroke-linecap:round; stroke-linejoin:round;">
</g>
<g style="fill:#000000; fill-opacity:0.0; 
stroke:#000000; stroke-width:59.0551; stroke-opacity:1; 
stroke-linecap:round; stroke-linejoin:round;">
<path d="M151769 105608
L151721 105583
L151696 105559
L151672 105510
L151672 105486
L151696 105437
L151721 105413
L151769 105389
L151867 105389
L151916 105413
L151940 105437
L151964 105486
L151964 105510
L151940 105559
L151916 105583
L151867 105608
L151769 105608
L151721 105632
L151696 105657
L151672 105705
L151672 105803
L151696 105852
L151721 105876
L151769 105900
L151867 105900
L151916 105876
L151940 105852
L151964 105803
L151964 105705
L151940 105657
L151916 105632
L151867 105608
" />
</g>
<g style="fill:#000000; fill-opacity:0.0; 
stroke:#000000; stroke-width:39.3701; stroke-opacity:1; 
stroke-linecap:round; stroke-linejoin:round;">
</g>
<g style="fill:#000000; fill-opacity:0.0; 
stroke:#000000; stroke-width:59.0551; stroke-opacity:1; 
stroke-linecap:round; stroke-linejoin:round;">
<path d="M3937 23622
L4724 23622
" />
</g>
<g style="fill:#000000; fill-opacity:0.0; 
stroke:#000000; stroke-width:39.3701; stroke-opacity:1; 
stroke-linecap:round; stroke-linejoin:round;">
</g>
<g style="fill:#000000; fill-opacity:0.0; 
stroke:#000000; stroke-width:59.0551; stroke-opacity:1; 
stroke-linecap:round; stroke-linejoin:round;">
<path d="M3937 43307
L4724 43307
" />
</g>
<g style="fill:#000000; fill-opacity:0.0; 
stroke:#000000; stroke-width:39.3701; stroke-opacity:1; 
stroke-linecap:round; stroke-linejoin:round;">
</g>
<g style="fill:#000000; fill-opacity:0.0; 
stroke:#000000; stroke-width:59.0551; stroke-opacity:1; 
stroke-linecap:round; stroke-linejoin:round;">
<path d="M3937 62992
L4724 62992
" />
</g>
<g style="fill:#000000; fill-opacity:0.0; 
stroke:#000000; stroke-width:39.3701; stroke-opacity:1; 
stroke-linecap:round; stroke-linejoin:round;">
</g>
<g style="fill:#000000; fill-opacity:0.0; 
stroke:#000000; stroke-width:59.0551; stroke-opacity:1; 
stroke-linecap:round; stroke-linejoin:round;">
<path d="M3937 82677
L4724 82677
" />
</g>
<g style="fill:#000000; fill-opacity:0.0; 
stroke:#000000; stroke-width:39.3701; stroke-opacity:1; 
stroke-linecap:round; stroke-linejoin:round;">
</g>
<g style="fill:#000000; fill-opacity:0.0; 
stroke:#000000; stroke-width:59.0551; stroke-opacity:1; 
stroke-linecap:round; stroke-linejoin:round;">
<path d="M3937 102362
L4724 102362
" />
</g>
<g style="fill:#000000; fill-opacity:0.0; 
stroke:#000000; stroke-width:39.3701; stroke-opacity:1; 
stroke-linecap:round; stroke-linejoin:round;">
</g>
<g style="fill:#000000; fill-opacity:0.0; 
stroke:#000000; stroke-width:59.0551; stroke-opacity:1; 
stroke-linecap:round; stroke-linejoin:round;">
<path d="M4208 13864
L4452 13864
" />
<path d="M4160 14011
L4330 13499
L4501 14011
" />
</g>
<g style="fill:#000000; fill-opacity:0.0; 
stroke:#000000; stroke-width:39.3701; stroke-opacity:1; 
stroke-linecap:round; stroke-linejoin:round;">
</g>
<g style="fill:#000000; fill-opacity:0.0; 
stroke:#000000; stroke-width:59.0551; stroke-opacity:1; 
stroke-linecap:round; stroke-linejoin:round;">
<path d="M4367 33428
L4440 33452
L4464 33476
L4489 33525
L4489 33598
L4464 33647
L4440 33671
L4391 33696
L4196 33696
L4196 33184
L4367 33184
L4416 33208
L4440 33233
L4464 33281
L4464 33330
L4440 33379
L4416 33403
L4367 33428
L4196 33428
" />
</g>
<g style="fill:#000000; fill-opacity:0.0; 
stroke:#000000; stroke-width:39.3701; stroke-opacity:1; 
stroke-linecap:round; stroke-linejoin:round;">
</g>
<g style="fill:#000000; fill-opacity:0.0; 
stroke:#000000; stroke-width:59.0551; stroke-opacity:1; 
stroke-linecap:round; stroke-linejoin:round;">
<path d="M4489 53332
L4464 53356
L4391 53381
L4342 53381
L4269 53356
L4221 53308
L4196 53259
L4172 53161
L4172 53088
L4196 52991
L4221 52942
L4269 52893
L4342 52869
L4391 52869
L4464 52893
L4489 52918
" />
</g>
<g style="fill:#000000; fill-opacity:0.0; 
stroke:#000000; stroke-width:39.3701; stroke-opacity:1; 
stroke-linecap:round; stroke-linejoin:round;">
</g>
<g style="fill:#000000; fill-opacity:0.0; 
stroke:#000000; stroke-width:59.0551; stroke-opacity:1; 
stroke-linecap:round; stroke-linejoin:round;">
<path d="M4196 73066
L4196 72554
L4318 72554
L4391 72578
L4440 72627
L4464 72676
L4489 72773
L4489 72846
L4464 72944
L4440 72993
L4391 73041
L4318 73066
L4196 73066
" />
</g>
<g style="fill:#000000; fill-opacity:0.0; 
stroke:#000000; stroke-width:39.3701; stroke-opacity:1; 
stroke-linecap:round; stroke-linejoin:round;">
</g>
<g style="fill:#000000; fill-opacity:0.0; 
stroke:#000000; stroke-width:59.0551; stroke-opacity:1; 
stroke-linecap:round; stroke-linejoin:round;">
<path d="M4221 92483
L4391 92483
" />
<path d="M4464 92751
L4221 92751
L4221 92239
L4464 92239
" />
</g>
<g style="fill:#000000; fill-opacity:0.0; 
stroke:#000000; stroke-width:39.3701; stroke-opacity:1; 
stroke-linecap:round; stroke-linejoin:round;">
</g>
<g style="fill:#000000; fill-opacity:0.0; 
stroke:#000000; stroke-width:59.0551; stroke-opacity:1; 
stroke-linecap:round; stroke-linejoin:round;">
<path d="M166062 23622
L165275 23622
" />
</g>
<g style="fill:#000000; fill-opacity:0.0; 
stroke:#000000; stroke-width:39.3701; stroke-opacity:1; 
stroke-linecap:round; stroke-linejoin:round;">
</g>
<g style="fill:#000000; fill-opacity:0.0; 
stroke:#000000; stroke-width:59.0551; stroke-opacity:1; 
stroke-linecap:round; stroke-linejoin:round;">
<path d="M166062 43307
L165275 43307
" />
</g>
<g style="fill:#000000; fill-opacity:0.0; 
stroke:#000000; stroke-width:39.3701; stroke-opacity:1; 
stroke-linecap:round; stroke-linejoin:round;">
</g>
<g style="fill:#000000; fill-opacity:0.0; 
stroke:#000000; stroke-width:59.0551; stroke-opacity:1; 
stroke-linecap:round; stroke-linejoin:round;">
<path d="M166062 62992
L165275 62992
" />
</g>
<g style="fill:#000000; fill-opacity:0.0; 
stroke:#000000; stroke-width:39.3701; stroke-opacity:1; 
stroke-linecap:round; stroke-linejoin:round;">
</g>
<g style="fill:#000000; fill-opacity:0.0; 
stroke:#000000; stroke-width:59.0551; stroke-opacity:1; 
stroke-linecap:round; stroke-linejoin:round;">
<path d="M166062 82677
L165275 82677
" />
</g>
<g style="fill:#000000; fill-opacity:0.0; 
stroke:#000000; stroke-width:39.3701; stroke-opacity:1; 
stroke-linecap:round; stroke-linejoin:round;">
</g>
<g style="fill:#000000; fill-opacity:0.0; 
stroke:#000000; stroke-width:59.0551; stroke-opacity:1; 
stroke-linecap:round; stroke-linejoin:round;">
<path d="M166062 102362
L165275 102362
" />
</g>
<g style="fill:#000000; fill-opacity:0.0; 
stroke:#000000; stroke-width:39.3701; stroke-opacity:1; 
stroke-linecap:round; stroke-linejoin:round;">
</g>
<g style="fill:#000000; fill-opacity:0.0; 
stroke:#000000; stroke-width:59.0551; stroke-opacity:1; 
stroke-linecap:round; stroke-linejoin:round;">
<path d="M165547 13864
L165791 13864
" />
<path d="M165498 14011
L165669 13499
L165839 14011
" />
</g>
<g style="fill:#000000; fill-opacity:0.0; 
stroke:#000000; stroke-width:39.3701; stroke-opacity:1; 
stroke-linecap:round; stroke-linejoin:round;">
</g>
<g style="fill:#000000; fill-opacity:0.0; 
stroke:#000000; stroke-width:59.0551; stroke-opacity:1; 
stroke-linecap:round; stroke-linejoin:round;">
<path d="M165705 33428
L165778 33452
L165803 33476
L165827 33525
L165827 33598
L165803 33647
L165778 33671
L165730 33696
L165535 33696
L165535 33184
L165705 33184
L165754 33208
L165778 33233
L165803 33281
L165803 33330
L165778 33379
L165754 33403
L165705 33428
L165535 33428
" />
</g>
<g style="fill:#000000; fill-opacity:0.0; 
stroke:#000000; stroke-width:39.3701; stroke-opacity:1; 
stroke-linecap:round; stroke-linejoin:round;">
</g>
<g style="fill:#000000; fill-opacity:0.0; 
stroke:#000000; stroke-width:59.0551; stroke-opacity:1; 
stroke-linecap:round; stroke-linejoin:round;">
<path d="M165827 53332
L165803 53356
L165730 53381
L165681 53381
L165608 53356
L165559 53308
L165535 53259
L165510 53161
L165510 53088
L165535 52991
L165559 52942
L165608 52893
L165681 52869
L165730 52869
L165803 52893
L165827 52918
" />
</g>
<g style="fill:#000000; fill-opacity:0.0; 
stroke:#000000; stroke-width:39.3701; stroke-opacity:1; 
stroke-linecap:round; stroke-linejoin:round;">
</g>
<g style="fill:#000000; fill-opacity:0.0; 
stroke:#000000; stroke-width:59.0551; stroke-opacity:1; 
stroke-linecap:round; stroke-linejoin:round;">
<path d="M165535 73066
L165535 72554
L165657 72554
L165730 72578
L165778 72627
L165803 72676
L165827 72773
L165827 72846
L165803 72944
L165778 72993
L165730 73041
L165657 73066
L165535 73066
" />
</g>
<g style="fill:#000000; fill-opacity:0.0; 
stroke:#000000; stroke-width:39.3701; stroke-opacity:1; 
stroke-linecap:round; stroke-linejoin:round;">
</g>
<g style="fill:#000000; fill-opacity:0.0; 
stroke:#000000; stroke-width:59.0551; stroke-opacity:1; 
stroke-linecap:round; stroke-linejoin:round;">
<path d="M165559 92483
L165730 92483
" />
<path d="M165803 92751
L165559 92751
L165559 92239
L165803 92239
" />
</g>
<g style="fill:#000000; fill-opacity:0.0; 
stroke:#000000; stroke-width:39.3701; stroke-opacity:1; 
stroke-linecap:round; stroke-linejoin:round;">
</g>
<g style="fill:#000000; fill-opacity:0.0; 
stroke:#000000; stroke-width:59.0551; stroke-opacity:1; 
stroke-linecap:round; stroke-linejoin:round;">
<path d="M131951 103613
L131951 103023
L132092 103023
L132176 103051
L132232 103107
L132260 103163
L132289 103276
L132289 103360
L132260 103473
L132232 103529
L132176 103585
L132092 103613
L131951 103613
" />
<path d="M132795 103613
L132795 103304
L132767 103248
L132710 103219
L132598 103219
L132542 103248
" />
<path d="M132795 103585
L132739 103613
L132598 103613
L132542 103585
L132514 103529
L132514 103473
L132542 103416
L132598 103388
L132739 103388
L132795 103360
" />
<path d="M132992 103219
L133217 103219
" />
<path d="M133076 103023
L133076 103529
L133104 103585
L133160 103613
L133217 103613
" />
<path d="M133638 103585
L133582 103613
L133470 103613
L133413 103585
L133385 103529
L133385 103304
L133413 103248
L133470 103219
L133582 103219
L133638 103248
L133667 103304
L133667 103360
L133385 103416
" />
<path d="M133920 103557
L133948 103585
L133920 103613
L133892 103585
L133920 103557
L133920 103613
" />
<path d="M133920 103248
L133948 103276
L133920 103304
L133892 103276
L133920 103248
L133920 103304
" />
</g>
<g style="fill:#000000; fill-opacity:0.0; 
stroke:#000000; stroke-width:39.3701; stroke-opacity:1; 
stroke-linecap:round; stroke-linejoin:round;">
</g>
<g style="fill:#000000; fill-opacity:0.0; 
stroke:#000000; stroke-width:59.0551; stroke-opacity:1; 
stroke-linecap:round; stroke-linejoin:round;">
<path d="M122755 103897
L165275 103897
" />
</g>
<g style="fill:#000000; fill-opacity:0.0; 
stroke:#000000; stroke-width:39.3701; stroke-opacity:1; 
stroke-linecap:round; stroke-linejoin:round;">
</g>
<g style="fill:#000000; fill-opacity:0.0; 
stroke:#000000; stroke-width:59.0551; stroke-opacity:1; 
stroke-linecap:round; stroke-linejoin:round;">
<path d="M123290 104715
L123290 104125
" />
<path d="M123627 104715
L123374 104378
" />
<path d="M123627 104125
L123290 104462
" />
<path d="M123880 104715
L123880 104322
" />
<path d="M123880 104125
L123852 104153
L123880 104181
L123908 104153
L123880 104125
L123880 104181
" />
<path d="M124499 104659
L124471 104687
L124386 104715
L124330 104715
L124246 104687
L124190 104631
L124161 104575
L124133 104462
L124133 104378
L124161 104266
L124190 104209
L124246 104153
L124330 104125
L124386 104125
L124471 104153
L124499 104181
" />
<path d="M125005 104715
L125005 104406
L124977 104350
L124921 104322
L124808 104322
L124752 104350
" />
<path d="M125005 104687
L124949 104715
L124808 104715
L124752 104687
L124724 104631
L124724 104575
L124752 104519
L124808 104491
L124949 104491
L125005 104462
" />
<path d="M125539 104715
L125539 104125
" />
<path d="M125539 104687
L125483 104715
L125371 104715
L125314 104687
L125286 104659
L125258 104603
L125258 104434
L125286 104378
L125314 104350
L125371 104322
L125483 104322
L125539 104350
" />
<path d="M126271 104406
L126467 104406
" />
<path d="M126552 104715
L126271 104715
L126271 104125
L126552 104125
" />
<path d="M126805 104659
L126833 104687
L126805 104715
L126777 104687
L126805 104659
L126805 104715
" />
<path d="M127086 104715
L127086 104125
L127227 104125
L127311 104153
L127367 104209
L127395 104266
L127424 104378
L127424 104462
L127395 104575
L127367 104631
L127311 104687
L127227 104715
L127086 104715
" />
<path d="M127677 104659
L127705 104687
L127677 104715
L127649 104687
L127677 104659
L127677 104715
" />
<path d="M127930 104547
L128211 104547
" />
<path d="M127874 104715
L128070 104125
L128267 104715
" />
<path d="M128464 104659
L128492 104687
L128464 104715
L128436 104687
L128464 104659
L128464 104715
" />
<path d="M129645 104715
L129645 104125
" />
<path d="M129701 104491
L129870 104715
" />
<path d="M129870 104322
L129645 104547
" />
<path d="M130123 104715
L130123 104322
" />
<path d="M130123 104125
L130095 104153
L130123 104181
L130151 104153
L130123 104125
L130123 104181
" />
<path d="M130658 104687
L130601 104715
L130489 104715
L130433 104687
L130404 104659
L130376 104603
L130376 104434
L130404 104378
L130433 104350
L130489 104322
L130601 104322
L130658 104350
" />
<path d="M131164 104715
L131164 104406
L131136 104350
L131079 104322
L130967 104322
L130911 104350
" />
<path d="M131164 104687
L131107 104715
L130967 104715
L130911 104687
L130883 104631
L130883 104575
L130911 104519
L130967 104491
L131107 104491
L131164 104462
" />
<path d="M131698 104715
L131698 104125
" />
<path d="M131698 104687
L131642 104715
L131529 104715
L131473 104687
L131445 104659
L131417 104603
L131417 104434
L131445 104378
L131473 104350
L131529 104322
L131642 104322
L131698 104350
" />
<path d="M132682 104322
L132682 104715
" />
<path d="M132542 104097
L132401 104519
L132767 104519
" />
<path d="M132992 104659
L133020 104687
L132992 104715
L132964 104687
L132992 104659
L132992 104715
" />
<path d="M133385 104125
L133442 104125
L133498 104153
L133526 104181
L133554 104237
L133582 104350
L133582 104491
L133554 104603
L133526 104659
L133498 104687
L133442 104715
L133385 104715
L133329 104687
L133301 104659
L133273 104603
L133245 104491
L133245 104350
L133273 104237
L133301 104181
L133329 104153
L133385 104125
" />
<path d="M133835 104659
L133863 104687
L133835 104715
L133807 104687
L133835 104659
L133835 104715
" />
<path d="M134370 104125
L134257 104125
L134201 104153
L134173 104181
L134116 104266
L134088 104378
L134088 104603
L134116 104659
L134145 104687
L134201 104715
L134313 104715
L134370 104687
L134398 104659
L134426 104603
L134426 104462
L134398 104406
L134370 104378
L134313 104350
L134201 104350
L134145 104378
L134116 104406
L134088 104462
" />
</g>
<g style="fill:#000000; fill-opacity:0.0; 
stroke:#000000; stroke-width:39.3701; stroke-opacity:1; 
stroke-linecap:round; stroke-linejoin:round;">
</g>
<g style="fill:#000000; fill-opacity:0.0; 
stroke:#000000; stroke-width:59.0551; stroke-opacity:1; 
stroke-linecap:round; stroke-linejoin:round;">
<path d="M122755 102716
L165275 102716
" />
</g>
<g style="fill:#000000; fill-opacity:0.0; 
stroke:#000000; stroke-width:39.3701; stroke-opacity:1; 
stroke-linecap:round; stroke-linejoin:round;">
</g>
<g style="fill:#000000; fill-opacity:0.0; 
stroke:#000000; stroke-width:118.11; stroke-opacity:1; 
stroke-linecap:round; stroke-linejoin:round;">
<path d="M157092 103613
L156895 103332
" />
<path d="M156754 103613
L156754 103023
L156979 103023
L157035 103051
L157064 103079
L157092 103135
L157092 103219
L157064 103276
L157035 103304
L156979 103332
L156754 103332
" />
<path d="M157570 103585
L157514 103613
L157401 103613
L157345 103585
L157317 103529
L157317 103304
L157345 103248
L157401 103219
L157514 103219
L157570 103248
L157598 103304
L157598 103360
L157317 103416
" />
<path d="M157795 103219
L157935 103613
L158076 103219
" />
<path d="M158301 103557
L158329 103585
L158301 103613
L158273 103585
L158301 103557
L158301 103613
" />
<path d="M158301 103248
L158329 103276
L158301 103304
L158273 103276
L158301 103248
L158301 103304
" />
</g>
<g style="fill:#000000; fill-opacity:0.0; 
stroke:#000000; stroke-width:39.3701; stroke-opacity:1; 
stroke-linecap:round; stroke-linejoin:round;">
</g>
<g style="fill:#000000; fill-opacity:0.0; 
stroke:#000000; stroke-width:59.0551; stroke-opacity:1; 
stroke-linecap:round; stroke-linejoin:round;">
<path d="M123262 103585
L123346 103613
L123487 103613
L123543 103585
L123571 103557
L123599 103501
L123599 103444
L123571 103388
L123543 103360
L123487 103332
L123374 103304
L123318 103276
L123290 103248
L123262 103191
L123262 103135
L123290 103079
L123318 103051
L123374 103023
L123515 103023
L123599 103051
" />
<path d="M123852 103613
L123852 103219
" />
<path d="M123852 103023
L123824 103051
L123852 103079
L123880 103051
L123852 103023
L123852 103079
" />
<path d="M124077 103219
L124386 103219
L124077 103613
L124386 103613
" />
<path d="M124836 103585
L124780 103613
L124668 103613
L124611 103585
L124583 103529
L124583 103304
L124611 103248
L124668 103219
L124780 103219
L124836 103248
L124865 103304
L124865 103360
L124583 103416
" />
<path d="M125118 103557
L125146 103585
L125118 103613
L125089 103585
L125118 103557
L125118 103613
" />
<path d="M125118 103248
L125146 103276
L125118 103304
L125089 103276
L125118 103248
L125118 103304
" />
<path d="M126046 103304
L126130 103332
L126158 103360
L126186 103416
L126186 103501
L126158 103557
L126130 103585
L126074 103613
L125849 103613
L125849 103023
L126046 103023
L126102 103051
L126130 103079
L126158 103135
L126158 103191
L126130 103248
L126102 103276
L126046 103304
L125849 103304
" />
</g>
<g style="fill:#000000; fill-opacity:0.0; 
stroke:#000000; stroke-width:39.3701; stroke-opacity:1; 
stroke-linecap:round; stroke-linejoin:round;">
</g>
<g style="fill:#000000; fill-opacity:0.0; 
stroke:#000000; stroke-width:59.0551; stroke-opacity:1; 
stroke-linecap:round; stroke-linejoin:round;">
<path d="M156754 104715
L156754 104125
" />
<path d="M157289 104715
L157289 104125
" />
<path d="M157289 104687
L157232 104715
L157120 104715
L157064 104687
L157035 104659
L157007 104603
L157007 104434
L157035 104378
L157064 104350
L157120 104322
L157232 104322
L157289 104350
" />
<path d="M157570 104659
L157598 104687
L157570 104715
L157542 104687
L157570 104659
L157570 104715
" />
<path d="M157570 104350
L157598 104378
L157570 104406
L157542 104378
L157570 104350
L157570 104406
" />
<path d="M158610 104715
L158273 104715
" />
<path d="M158442 104715
L158442 104125
L158385 104209
L158329 104266
L158273 104294
" />
<path d="M159285 104097
L158779 104856
" />
<path d="M159791 104715
L159454 104715
" />
<path d="M159623 104715
L159623 104125
L159566 104209
L159510 104266
L159454 104294
" />
</g>
<g style="fill:#000000; fill-opacity:0.0; 
stroke:#000000; stroke-width:39.3701; stroke-opacity:1; 
stroke-linecap:round; stroke-linejoin:round;">
</g>
<g style="fill:#000000; fill-opacity:0.0; 
stroke:#000000; stroke-width:59.0551; stroke-opacity:1; 
stroke-linecap:round; stroke-linejoin:round;">
<path d="M122755 101141
L165275 101141
" />
</g>
<g style="fill:#000000; fill-opacity:0.0; 
stroke:#000000; stroke-width:39.3701; stroke-opacity:1; 
stroke-linecap:round; stroke-linejoin:round;">
</g>
<g style="fill:#000000; fill-opacity:0.0; 
stroke:#000000; stroke-width:157.48; stroke-opacity:1; 
stroke-linecap:round; stroke-linejoin:round;">
<path d="M123327 101419
L123777 101419
" />
<path d="M123454 102206
L123552 101419
" />
<path d="M123941 102206
L124007 101681
" />
<path d="M124040 101419
L123997 101456
L124030 101494
L124072 101456
L124040 101419
L124030 101494
" />
<path d="M124269 101681
L124569 101681
" />
<path d="M124415 101419
L124330 102094
L124358 102169
L124429 102206
L124504 102206
" />
<path d="M124879 102206
L124808 102169
L124780 102094
L124865 101419
" />
<path d="M125483 102169
L125404 102206
L125254 102206
L125183 102169
L125155 102094
L125193 101794
L125239 101719
L125319 101681
L125469 101681
L125539 101719
L125568 101794
L125558 101869
L125174 101944
" />
<path d="M125863 102131
L125896 102169
L125853 102206
L125821 102169
L125863 102131
L125853 102206
" />
<path d="M125914 101719
L125947 101756
L125905 101794
L125872 101756
L125914 101719
L125905 101794
" />
</g>
<g style="fill:#000000; fill-opacity:0.0; 
stroke:#000000; stroke-width:39.3701; stroke-opacity:1; 
stroke-linecap:round; stroke-linejoin:round;">
</g>
<g style="fill:#000000; fill-opacity:0.0; 
stroke:#000000; stroke-width:59.0551; stroke-opacity:1; 
stroke-linecap:round; stroke-linejoin:round;">
<path d="M123487 100390
L123290 100390
" />
<path d="M123290 100700
L123290 100109
L123571 100109
" />
<path d="M123796 100700
L123796 100306
" />
<path d="M123796 100109
L123768 100137
L123796 100165
L123824 100137
L123796 100109
L123796 100165
" />
<path d="M124161 100700
L124105 100672
L124077 100615
L124077 100109
" />
<path d="M124611 100672
L124555 100700
L124443 100700
L124386 100672
L124358 100615
L124358 100390
L124386 100334
L124443 100306
L124555 100306
L124611 100334
L124640 100390
L124640 100447
L124358 100503
" />
<path d="M124893 100643
L124921 100672
L124893 100700
L124865 100672
L124893 100643
L124893 100700
" />
<path d="M124893 100334
L124921 100362
L124893 100390
L124865 100362
L124893 100334
L124893 100390
" />
<path d="M125736 100109
L125849 100109
L125905 100137
L125961 100194
L125989 100306
L125989 100503
L125961 100615
L125905 100672
L125849 100700
L125736 100700
L125680 100672
L125624 100615
L125596 100503
L125596 100306
L125624 100194
L125680 100137
L125736 100109
" />
<path d="M126158 100109
L126355 100700
L126552 100109
" />
<path d="M126749 100390
L126946 100390
" />
<path d="M127030 100700
L126749 100700
L126749 100109
L127030 100109
" />
<path d="M127283 100700
L127283 100109
L127620 100700
L127620 100109
" />
<path d="M127761 100756
L128211 100756
" />
<path d="M128323 100672
L128408 100700
L128548 100700
L128605 100672
L128633 100643
L128661 100587
L128661 100531
L128633 100475
L128605 100447
L128548 100419
L128436 100390
L128380 100362
L128352 100334
L128323 100278
L128323 100222
L128352 100165
L128380 100137
L128436 100109
L128577 100109
L128661 100137
" />
<path d="M128858 100109
L128998 100700
L129111 100278
L129223 100700
L129364 100109
" />
<path d="M129589 100700
L129589 100109
" />
<path d="M129786 100109
L130123 100109
" />
<path d="M129955 100700
L129955 100109
" />
<path d="M130658 100643
L130629 100672
L130545 100700
L130489 100700
L130404 100672
L130348 100615
L130320 100559
L130292 100447
L130292 100362
L130320 100250
L130348 100194
L130404 100137
L130489 100109
L130545 100109
L130629 100137
L130658 100165
" />
<path d="M130911 100700
L130911 100109
" />
<path d="M130911 100390
L131248 100390
" />
<path d="M131248 100700
L131248 100109
" />
<path d="M131529 100643
L131557 100672
L131529 100700
L131501 100672
L131529 100643
L131529 100700
" />
<path d="M131811 100700
L131811 100109
" />
<path d="M131867 100475
L132035 100700
" />
<path d="M132035 100306
L131811 100531
" />
<path d="M132289 100700
L132289 100306
" />
<path d="M132289 100109
L132260 100137
L132289 100165
L132317 100137
L132289 100109
L132289 100165
" />
<path d="M132823 100672
L132767 100700
L132654 100700
L132598 100672
L132570 100643
L132542 100587
L132542 100419
L132570 100362
L132598 100334
L132654 100306
L132767 100306
L132823 100334
" />
<path d="M133329 100700
L133329 100390
L133301 100334
L133245 100306
L133132 100306
L133076 100334
" />
<path d="M133329 100672
L133273 100700
L133132 100700
L133076 100672
L133048 100615
L133048 100559
L133076 100503
L133132 100475
L133273 100475
L133329 100447
" />
<path d="M133863 100700
L133863 100109
" />
<path d="M133863 100672
L133807 100700
L133695 100700
L133638 100672
L133610 100643
L133582 100587
L133582 100419
L133610 100362
L133638 100334
L133695 100306
L133807 100306
L133863 100334
" />
<path d="M134004 100756
L134454 100756
" />
<path d="M134595 100306
L134595 100897
" />
<path d="M134595 100334
L134651 100306
L134763 100306
L134820 100334
L134848 100362
L134876 100419
L134876 100587
L134848 100643
L134820 100672
L134763 100700
L134651 100700
L134595 100672
" />
<path d="M135382 100672
L135326 100700
L135213 100700
L135157 100672
L135129 100643
L135101 100587
L135101 100419
L135129 100362
L135157 100334
L135213 100306
L135326 100306
L135382 100334
" />
<path d="M135635 100700
L135635 100109
" />
<path d="M135635 100334
L135691 100306
L135804 100306
L135860 100334
L135888 100362
L135916 100419
L135916 100587
L135888 100643
L135860 100672
L135804 100700
L135691 100700
L135635 100672
" />
</g>
<g style="fill:#000000; fill-opacity:0.0; 
stroke:#000000; stroke-width:39.3701; stroke-opacity:1; 
stroke-linecap:round; stroke-linejoin:round;">
</g>
<g style="fill:#000000; fill-opacity:0.0; 
stroke:#000000; stroke-width:59.0551; stroke-opacity:1; 
stroke-linecap:round; stroke-linejoin:round;">
<path d="M122755 98779
L165275 98779
" />
</g>
<g style="fill:#000000; fill-opacity:0.0; 
stroke:#000000; stroke-width:39.3701; stroke-opacity:1; 
stroke-linecap:round; stroke-linejoin:round;">
</g>
<g style="fill:#000000; fill-opacity:0.0; 
stroke:#000000; stroke-width:59.0551; stroke-opacity:1; 
stroke-linecap:round; stroke-linejoin:round;">
<path d="M123262 99609
L123346 99637
L123487 99637
L123543 99609
L123571 99580
L123599 99524
L123599 99468
L123571 99412
L123543 99384
L123487 99356
L123374 99327
L123318 99299
L123290 99271
L123262 99215
L123262 99159
L123290 99102
L123318 99074
L123374 99046
L123515 99046
L123599 99074
" />
<path d="M123852 99637
L123852 99046
" />
<path d="M124105 99637
L124105 99327
L124077 99271
L124021 99243
L123937 99243
L123880 99271
L123852 99299
" />
<path d="M124611 99609
L124555 99637
L124443 99637
L124386 99609
L124358 99552
L124358 99327
L124386 99271
L124443 99243
L124555 99243
L124611 99271
L124640 99327
L124640 99384
L124358 99440
" />
<path d="M125118 99609
L125061 99637
L124949 99637
L124893 99609
L124865 99552
L124865 99327
L124893 99271
L124949 99243
L125061 99243
L125118 99271
L125146 99327
L125146 99384
L124865 99440
" />
<path d="M125314 99243
L125539 99243
" />
<path d="M125399 99046
L125399 99552
L125427 99609
L125483 99637
L125539 99637
" />
<path d="M125736 99580
L125764 99609
L125736 99637
L125708 99609
L125736 99580
L125736 99637
" />
<path d="M125736 99271
L125764 99299
L125736 99327
L125708 99299
L125736 99271
L125736 99327
" />
</g>
<g style="fill:#000000; fill-opacity:0.0; 
stroke:#000000; stroke-width:39.3701; stroke-opacity:1; 
stroke-linecap:round; stroke-linejoin:round;">
</g>
<g style="fill:#000000; fill-opacity:0.0; 
stroke:#000000; stroke-width:59.0551; stroke-opacity:1; 
stroke-linecap:round; stroke-linejoin:round;">
<path d="M130629 102716
L130629 103897
" />
</g>
<g style="fill:#000000; fill-opacity:0.0; 
stroke:#000000; stroke-width:39.3701; stroke-opacity:1; 
stroke-linecap:round; stroke-linejoin:round;">
</g>
<g style="fill:#000000; fill-opacity:0.0; 
stroke:#000000; stroke-width:59.0551; stroke-opacity:1; 
stroke-linecap:round; stroke-linejoin:round;">
<path d="M155826 102716
L155826 105275
" />
</g>
<g style="fill:#C2C200; fill-opacity:0.0; 
stroke:#C2C200; stroke-width:59.0551; stroke-opacity:1; 
stroke-linecap:round; stroke-linejoin:round;">
</g>
<g style="fill:#C2C200; fill-opacity:0.0; 
stroke:#C2C200; stroke-width:39.3701; stroke-opacity:1; 
stroke-linecap:round; stroke-linejoin:round;">
<path d="M11846 25403
L155953 25403
" />
<path d="M121255 28819
L121255 43307
" />
<path d="M146059 28819
L121255 28819
" />
<path d="M146059 43307
L146059 28819
" />
<path d="M121255 43307
L146059 43307
" />
<path d="M14366 43281
L14366 28556
" />
<path d="M93342 43281
L14366 43281
" />
<path d="M93342 28556
L93342 43281
" />
<path d="M14366 28556
L93342 28556
" />
<path d="M11846 60639
L16189 60639
" />
<path d="M11846 60639
L11846 25403
" />
<path d="M155953 60639
L16189 60639
" />
<path d="M155953 25403
L155953 60639
" />
</g>
<g style="fill:#C2C200; fill-opacity:0.0; 
stroke:#C2C200; stroke-width:59.0551; stroke-opacity:1; 
stroke-linecap:round; stroke-linejoin:round;">
<path d="M115071 28148
L115353 28148
L115409 28166
L115446 28204
L115465 28260
L115465 28298
" />
<path d="M115465 27754
L115465 27979
" />
<path d="M115465 27866
L115071 27866
L115128 27904
L115165 27941
L115184 27979
" />
<path d="M19417 57319
L19473 57337
L19567 57337
L19605 57319
L19623 57300
L19642 57262
L19642 57225
L19623 57187
L19605 57169
L19567 57150
L19492 57131
L19455 57112
L19436 57094
L19417 57056
L19417 57019
L19436 56981
L19455 56962
L19492 56944
L19586 56944
L19642 56962
" />
<path d="M19773 56944
L19867 57337
L19942 57056
L20017 57337
L20111 56944
" />
<path d="M20467 57337
L20242 57337
" />
<path d="M20354 57337
L20354 56944
L20317 57000
L20279 57037
L20242 57056
" />
<path d="M19417 51413
L19473 51432
L19567 51432
L19605 51413
L19623 51394
L19642 51357
L19642 51319
L19623 51282
L19605 51263
L19567 51244
L19492 51226
L19455 51207
L19436 51188
L19417 51151
L19417 51113
L19436 51076
L19455 51057
L19492 51038
L19586 51038
L19642 51057
" />
<path d="M19773 51038
L19867 51432
L19942 51151
L20017 51432
L20111 51038
" />
<path d="M20242 51076
L20261 51057
L20298 51038
L20392 51038
L20429 51057
L20448 51076
L20467 51113
L20467 51151
L20448 51207
L20223 51432
L20467 51432
" />
<path d="M31228 57319
L31284 57337
L31378 57337
L31416 57319
L31434 57300
L31453 57262
L31453 57225
L31434 57187
L31416 57169
L31378 57150
L31303 57131
L31266 57112
L31247 57094
L31228 57056
L31228 57019
L31247 56981
L31266 56962
L31303 56944
L31397 56944
L31453 56962
" />
<path d="M31584 56944
L31678 57337
L31753 57056
L31828 57337
L31922 56944
" />
<path d="M32034 56944
L32278 56944
L32147 57094
L32203 57094
L32240 57112
L32259 57131
L32278 57169
L32278 57262
L32259 57300
L32240 57319
L32203 57337
L32091 57337
L32053 57319
L32034 57300
" />
<path d="M31228 51413
L31284 51432
L31378 51432
L31416 51413
L31434 51394
L31453 51357
L31453 51319
L31434 51282
L31416 51263
L31378 51244
L31303 51226
L31266 51207
L31247 51188
L31228 51151
L31228 51113
L31247 51076
L31266 51057
L31303 51038
L31397 51038
L31453 51057
" />
<path d="M31584 51038
L31678 51432
L31753 51151
L31828 51432
L31922 51038
" />
<path d="M32240 51169
L32240 51432
" />
<path d="M32147 51019
L32053 51301
L32297 51301
" />
<path d="M39496 51413
L39552 51432
L39646 51432
L39683 51413
L39702 51394
L39721 51357
L39721 51319
L39702 51282
L39683 51263
L39646 51244
L39571 51226
L39533 51207
L39515 51188
L39496 51151
L39496 51113
L39515 51076
L39533 51057
L39571 51038
L39665 51038
L39721 51057
" />
<path d="M39852 51038
L39946 51432
L40021 51151
L40096 51432
L40189 51038
" />
<path d="M40527 51038
L40339 51038
L40321 51226
L40339 51207
L40377 51188
L40471 51188
L40508 51207
L40527 51226
L40546 51263
L40546 51357
L40527 51394
L40508 51413
L40471 51432
L40377 51432
L40339 51413
L40321 51394
" />
<path d="M39496 57319
L39552 57337
L39646 57337
L39683 57319
L39702 57300
L39721 57262
L39721 57225
L39702 57187
L39683 57169
L39646 57150
L39571 57131
L39533 57112
L39515 57094
L39496 57056
L39496 57019
L39515 56981
L39533 56962
L39571 56944
L39665 56944
L39721 56962
" />
<path d="M39852 56944
L39946 57337
L40021 57056
L40096 57337
L40189 56944
" />
<path d="M40508 56944
L40433 56944
L40396 56962
L40377 56981
L40339 57037
L40321 57112
L40321 57262
L40339 57300
L40358 57319
L40396 57337
L40471 57337
L40508 57319
L40527 57300
L40546 57262
L40546 57169
L40527 57131
L40508 57112
L40471 57094
L40396 57094
L40358 57112
L40339 57131
L40321 57169
" />
<path d="M47764 51413
L47820 51432
L47914 51432
L47951 51413
L47970 51394
L47989 51357
L47989 51319
L47970 51282
L47951 51263
L47914 51244
L47839 51226
L47801 51207
L47782 51188
L47764 51151
L47764 51113
L47782 51076
L47801 51057
L47839 51038
L47932 51038
L47989 51057
" />
<path d="M48120 51038
L48213 51432
L48288 51151
L48363 51432
L48457 51038
" />
<path d="M48570 51038
L48832 51038
L48663 51432
" />
<path d="M47764 57319
L47820 57337
L47914 57337
L47951 57319
L47970 57300
L47989 57262
L47989 57225
L47970 57187
L47951 57169
L47914 57150
L47839 57131
L47801 57112
L47782 57094
L47764 57056
L47764 57019
L47782 56981
L47801 56962
L47839 56944
L47932 56944
L47989 56962
" />
<path d="M48120 56944
L48213 57337
L48288 57056
L48363 57337
L48457 56944
" />
<path d="M48663 57112
L48626 57094
L48607 57075
L48588 57037
L48588 57019
L48607 56981
L48626 56962
L48663 56944
L48738 56944
L48776 56962
L48795 56981
L48813 57019
L48813 57037
L48795 57075
L48776 57094
L48738 57112
L48663 57112
L48626 57131
L48607 57150
L48588 57187
L48588 57262
L48607 57300
L48626 57319
L48663 57337
L48738 57337
L48776 57319
L48795 57300
L48813 57262
L48813 57187
L48795 57150
L48776 57131
L48738 57112
" />
<path d="M58787 54366
L58843 54385
L58937 54385
L58975 54366
L58993 54347
L59012 54310
L59012 54272
L58993 54235
L58975 54216
L58937 54197
L58862 54178
L58825 54160
L58806 54141
L58787 54103
L58787 54066
L58806 54028
L58825 54010
L58862 53991
L58956 53991
L59012 54010
" />
<path d="M59143 53991
L59237 54385
L59312 54103
L59387 54385
L59481 53991
" />
<path d="M59650 54385
L59725 54385
L59762 54366
L59781 54347
L59818 54291
L59837 54216
L59837 54066
L59818 54028
L59800 54010
L59762 53991
L59687 53991
L59650 54010
L59631 54028
L59612 54066
L59612 54160
L59631 54197
L59650 54216
L59687 54235
L59762 54235
L59800 54216
L59818 54197
L59837 54160
" />
<path d="M66474 54366
L66530 54385
L66624 54385
L66661 54366
L66680 54347
L66699 54310
L66699 54272
L66680 54235
L66661 54216
L66624 54197
L66549 54178
L66511 54160
L66492 54141
L66474 54103
L66474 54066
L66492 54028
L66511 54010
L66549 53991
L66642 53991
L66699 54010
" />
<path d="M66830 53991
L66924 54385
L66999 54103
L67074 54385
L67167 53991
" />
<path d="M67524 54385
L67299 54385
" />
<path d="M67411 54385
L67411 53991
L67374 54047
L67336 54085
L67299 54103
" />
<path d="M67767 53991
L67805 53991
L67842 54010
L67861 54028
L67880 54066
L67899 54141
L67899 54235
L67880 54310
L67861 54347
L67842 54366
L67805 54385
L67767 54385
L67730 54366
L67711 54347
L67692 54310
L67674 54235
L67674 54141
L67692 54066
L67711 54028
L67730 54010
L67767 53991
" />
<path d="M75529 54366
L75585 54385
L75679 54385
L75716 54366
L75735 54347
L75754 54310
L75754 54272
L75735 54235
L75716 54216
L75679 54197
L75604 54178
L75566 54160
L75548 54141
L75529 54103
L75529 54066
L75548 54028
L75566 54010
L75604 53991
L75698 53991
L75754 54010
" />
<path d="M75885 53991
L75979 54385
L76054 54103
L76129 54385
L76222 53991
" />
<path d="M76579 54385
L76354 54385
" />
<path d="M76466 54385
L76466 53991
L76429 54047
L76391 54085
L76354 54103
" />
<path d="M76954 54385
L76729 54385
" />
<path d="M76841 54385
L76841 53991
L76804 54047
L76766 54085
L76729 54103
" />
<path d="M87340 51413
L87396 51432
L87490 51432
L87527 51413
L87546 51394
L87565 51357
L87565 51319
L87546 51282
L87527 51263
L87490 51244
L87415 51226
L87377 51207
L87359 51188
L87340 51151
L87340 51113
L87359 51076
L87377 51057
L87415 51038
L87509 51038
L87565 51057
" />
<path d="M87696 51038
L87790 51432
L87865 51151
L87940 51432
L88034 51038
" />
<path d="M88390 51432
L88165 51432
" />
<path d="M88277 51432
L88277 51038
L88240 51094
L88202 51132
L88165 51151
" />
<path d="M88540 51076
L88558 51057
L88596 51038
L88690 51038
L88727 51057
L88746 51076
L88765 51113
L88765 51151
L88746 51207
L88521 51432
L88765 51432
" />
<path d="M87340 57712
L87396 57731
L87490 57731
L87527 57712
L87546 57694
L87565 57656
L87565 57619
L87546 57581
L87527 57562
L87490 57544
L87415 57525
L87377 57506
L87359 57487
L87340 57450
L87340 57412
L87359 57375
L87377 57356
L87415 57337
L87509 57337
L87565 57356
" />
<path d="M87696 57337
L87790 57731
L87865 57450
L87940 57731
L88034 57337
" />
<path d="M88390 57731
L88165 57731
" />
<path d="M88277 57731
L88277 57337
L88240 57394
L88202 57431
L88165 57450
" />
<path d="M88521 57337
L88765 57337
L88633 57487
L88690 57487
L88727 57506
L88746 57525
L88765 57562
L88765 57656
L88746 57694
L88727 57712
L88690 57731
L88577 57731
L88540 57712
L88521 57694
" />
<path d="M99151 56728
L99207 56747
L99301 56747
L99338 56728
L99357 56709
L99376 56672
L99376 56634
L99357 56597
L99338 56578
L99301 56559
L99226 56541
L99188 56522
L99170 56503
L99151 56466
L99151 56428
L99170 56391
L99188 56372
L99226 56353
L99320 56353
L99376 56372
" />
<path d="M99507 56353
L99601 56747
L99676 56466
L99751 56747
L99845 56353
" />
<path d="M100201 56747
L99976 56747
" />
<path d="M100088 56747
L100088 56353
L100051 56409
L100013 56447
L99976 56466
" />
<path d="M100538 56484
L100538 56747
" />
<path d="M100444 56334
L100351 56616
L100594 56616
" />
<path d="M99151 49838
L99207 49857
L99301 49857
L99338 49838
L99357 49820
L99376 49782
L99376 49745
L99357 49707
L99338 49688
L99301 49670
L99226 49651
L99188 49632
L99170 49613
L99151 49576
L99151 49538
L99170 49501
L99188 49482
L99226 49463
L99320 49463
L99376 49482
" />
<path d="M99507 49463
L99601 49857
L99676 49576
L99751 49857
L99845 49463
" />
<path d="M100201 49857
L99976 49857
" />
<path d="M100088 49857
L100088 49463
L100051 49520
L100013 49557
L99976 49576
" />
<path d="M100557 49463
L100369 49463
L100351 49651
L100369 49632
L100407 49613
L100501 49613
L100538 49632
L100557 49651
L100576 49688
L100576 49782
L100557 49820
L100538 49838
L100501 49857
L100407 49857
L100369 49838
L100351 49820
" />
<path d="M99143 43000
L99199 43019
L99293 43019
L99330 43000
L99349 42981
L99368 42944
L99368 42906
L99349 42869
L99330 42850
L99293 42831
L99218 42812
L99180 42794
L99162 42775
L99143 42737
L99143 42700
L99162 42662
L99180 42644
L99218 42625
L99312 42625
L99368 42644
" />
<path d="M99499 42625
L99593 43019
L99668 42737
L99743 43019
L99837 42625
" />
<path d="M100193 43019
L99968 43019
" />
<path d="M100080 43019
L100080 42625
L100043 42681
L100005 42719
L99968 42737
" />
<path d="M100530 42625
L100455 42625
L100418 42644
L100399 42662
L100362 42719
L100343 42794
L100343 42944
L100362 42981
L100380 43000
L100418 43019
L100493 43019
L100530 43000
L100549 42981
L100568 42944
L100568 42850
L100549 42812
L100530 42794
L100493 42775
L100418 42775
L100380 42794
L100362 42812
L100343 42850
" />
<path d="M99143 36110
L99199 36129
L99293 36129
L99330 36110
L99349 36091
L99368 36054
L99368 36016
L99349 35979
L99330 35960
L99293 35941
L99218 35923
L99180 35904
L99162 35885
L99143 35848
L99143 35810
L99162 35773
L99180 35754
L99218 35735
L99312 35735
L99368 35754
" />
<path d="M99499 35735
L99593 36129
L99668 35848
L99743 36129
L99837 35735
" />
<path d="M100193 36129
L99968 36129
" />
<path d="M100080 36129
L100080 35735
L100043 35791
L100005 35829
L99968 35848
" />
<path d="M100324 35735
L100587 35735
L100418 36129
" />
<path d="M107025 56728
L107081 56747
L107175 56747
L107212 56728
L107231 56709
L107250 56672
L107250 56634
L107231 56597
L107212 56578
L107175 56559
L107100 56541
L107062 56522
L107044 56503
L107025 56466
L107025 56428
L107044 56391
L107062 56372
L107100 56353
L107194 56353
L107250 56372
" />
<path d="M107381 56353
L107475 56747
L107550 56466
L107625 56747
L107719 56353
" />
<path d="M108075 56747
L107850 56747
" />
<path d="M107962 56747
L107962 56353
L107925 56409
L107887 56447
L107850 56466
" />
<path d="M108300 56522
L108262 56503
L108243 56484
L108225 56447
L108225 56428
L108243 56391
L108262 56372
L108300 56353
L108375 56353
L108412 56372
L108431 56391
L108450 56428
L108450 56447
L108431 56484
L108412 56503
L108375 56522
L108300 56522
L108262 56541
L108243 56559
L108225 56597
L108225 56672
L108243 56709
L108262 56728
L108300 56747
L108375 56747
L108412 56728
L108431 56709
L108450 56672
L108450 56597
L108431 56559
L108412 56541
L108375 56522
" />
<path d="M107025 49838
L107081 49857
L107175 49857
L107212 49838
L107231 49820
L107250 49782
L107250 49745
L107231 49707
L107212 49688
L107175 49670
L107100 49651
L107062 49632
L107044 49613
L107025 49576
L107025 49538
L107044 49501
L107062 49482
L107100 49463
L107194 49463
L107250 49482
" />
<path d="M107381 49463
L107475 49857
L107550 49576
L107625 49857
L107719 49463
" />
<path d="M108075 49857
L107850 49857
" />
<path d="M107962 49857
L107962 49463
L107925 49520
L107887 49557
L107850 49576
" />
<path d="M108262 49857
L108337 49857
L108375 49838
L108393 49820
L108431 49763
L108450 49688
L108450 49538
L108431 49501
L108412 49482
L108375 49463
L108300 49463
L108262 49482
L108243 49501
L108225 49538
L108225 49632
L108243 49670
L108262 49688
L108300 49707
L108375 49707
L108412 49688
L108431 49670
L108450 49632
" />
<path d="M107025 42949
L107081 42967
L107175 42967
L107212 42949
L107231 42930
L107250 42892
L107250 42855
L107231 42817
L107212 42799
L107175 42780
L107100 42761
L107062 42742
L107044 42724
L107025 42686
L107025 42649
L107044 42611
L107062 42592
L107100 42574
L107194 42574
L107250 42592
" />
<path d="M107381 42574
L107475 42967
L107550 42686
L107625 42967
L107719 42574
" />
<path d="M107850 42611
L107869 42592
L107906 42574
L108000 42574
L108037 42592
L108056 42611
L108075 42649
L108075 42686
L108056 42742
L107831 42967
L108075 42967
" />
<path d="M108318 42574
L108356 42574
L108393 42592
L108412 42611
L108431 42649
L108450 42724
L108450 42817
L108431 42892
L108412 42930
L108393 42949
L108356 42967
L108318 42967
L108281 42949
L108262 42930
L108243 42892
L108225 42817
L108225 42724
L108243 42649
L108262 42611
L108281 42592
L108318 42574
" />
<path d="M107025 36059
L107081 36078
L107175 36078
L107212 36059
L107231 36040
L107250 36003
L107250 35965
L107231 35928
L107212 35909
L107175 35890
L107100 35871
L107062 35853
L107044 35834
L107025 35796
L107025 35759
L107044 35721
L107062 35703
L107100 35684
L107194 35684
L107250 35703
" />
<path d="M107381 35684
L107475 36078
L107550 35796
L107625 36078
L107719 35684
" />
<path d="M107850 35721
L107869 35703
L107906 35684
L108000 35684
L108037 35703
L108056 35721
L108075 35759
L108075 35796
L108056 35853
L107831 36078
L108075 36078
" />
<path d="M108450 36078
L108225 36078
" />
<path d="M108337 36078
L108337 35684
L108300 35740
L108262 35778
L108225 35796
" />
<path d="M114899 42949
L114955 42967
L115049 42967
L115086 42949
L115105 42930
L115124 42892
L115124 42855
L115105 42817
L115086 42799
L115049 42780
L114974 42761
L114936 42742
L114918 42724
L114899 42686
L114899 42649
L114918 42611
L114936 42592
L114974 42574
L115068 42574
L115124 42592
" />
<path d="M115255 42574
L115349 42967
L115424 42686
L115499 42967
L115593 42574
" />
<path d="M115724 42611
L115743 42592
L115780 42574
L115874 42574
L115911 42592
L115930 42611
L115949 42649
L115949 42686
L115930 42742
L115705 42967
L115949 42967
" />
<path d="M116099 42611
L116117 42592
L116155 42574
L116249 42574
L116286 42592
L116305 42611
L116324 42649
L116324 42686
L116305 42742
L116080 42967
L116324 42967
" />
<path d="M114899 56728
L114955 56747
L115049 56747
L115086 56728
L115105 56709
L115124 56672
L115124 56634
L115105 56597
L115086 56578
L115049 56559
L114974 56541
L114936 56522
L114918 56503
L114899 56466
L114899 56428
L114918 56391
L114936 56372
L114974 56353
L115068 56353
L115124 56372
" />
<path d="M115255 56353
L115349 56747
L115424 56466
L115499 56747
L115593 56353
" />
<path d="M115724 56391
L115743 56372
L115780 56353
L115874 56353
L115911 56372
L115930 56391
L115949 56428
L115949 56466
L115930 56522
L115705 56747
L115949 56747
" />
<path d="M116080 56353
L116324 56353
L116192 56503
L116249 56503
L116286 56522
L116305 56541
L116324 56578
L116324 56672
L116305 56709
L116286 56728
L116249 56747
L116136 56747
L116099 56728
L116080 56709
" />
<path d="M114899 49838
L114955 49857
L115049 49857
L115086 49838
L115105 49820
L115124 49782
L115124 49745
L115105 49707
L115086 49688
L115049 49670
L114974 49651
L114936 49632
L114918 49613
L114899 49576
L114899 49538
L114918 49501
L114936 49482
L114974 49463
L115068 49463
L115124 49482
" />
<path d="M115255 49463
L115349 49857
L115424 49576
L115499 49857
L115593 49463
" />
<path d="M115724 49501
L115743 49482
L115780 49463
L115874 49463
L115911 49482
L115930 49501
L115949 49538
L115949 49576
L115930 49632
L115705 49857
L115949 49857
" />
<path d="M116286 49595
L116286 49857
" />
<path d="M116192 49445
L116099 49726
L116342 49726
" />
<path d="M114899 36059
L114955 36078
L115049 36078
L115086 36059
L115105 36040
L115124 36003
L115124 35965
L115105 35928
L115086 35909
L115049 35890
L114974 35871
L114936 35853
L114918 35834
L114899 35796
L114899 35759
L114918 35721
L114936 35703
L114974 35684
L115068 35684
L115124 35703
" />
<path d="M115255 35684
L115349 36078
L115424 35796
L115499 36078
L115593 35684
" />
<path d="M115724 35721
L115743 35703
L115780 35684
L115874 35684
L115911 35703
L115930 35721
L115949 35759
L115949 35796
L115930 35853
L115705 36078
L115949 36078
" />
<path d="M116305 35684
L116117 35684
L116099 35871
L116117 35853
L116155 35834
L116249 35834
L116286 35853
L116305 35871
L116324 35909
L116324 36003
L116305 36040
L116286 36059
L116249 36078
L116155 36078
L116117 36059
L116099 36040
" />
<path d="M127891 57712
L127947 57731
L128041 57731
L128079 57712
L128097 57694
L128116 57656
L128116 57619
L128097 57581
L128079 57562
L128041 57544
L127966 57525
L127929 57506
L127910 57487
L127891 57450
L127891 57412
L127910 57375
L127929 57356
L127966 57337
L128060 57337
L128116 57356
" />
<path d="M128247 57337
L128341 57731
L128416 57450
L128491 57731
L128585 57337
" />
<path d="M128716 57375
L128735 57356
L128772 57337
L128866 57337
L128903 57356
L128922 57375
L128941 57412
L128941 57450
L128922 57506
L128697 57731
L128941 57731
" />
<path d="M129278 57337
L129203 57337
L129166 57356
L129147 57375
L129110 57431
L129091 57506
L129091 57656
L129110 57694
L129128 57712
L129166 57731
L129241 57731
L129278 57712
L129297 57694
L129316 57656
L129316 57562
L129297 57525
L129278 57506
L129241 57487
L129166 57487
L129128 57506
L129110 57525
L129091 57562
" />
<path d="M136749 57712
L136806 57731
L136899 57731
L136937 57712
L136956 57694
L136974 57656
L136974 57619
L136956 57581
L136937 57562
L136899 57544
L136824 57525
L136787 57506
L136768 57487
L136749 57450
L136749 57412
L136768 57375
L136787 57356
L136824 57337
L136918 57337
L136974 57356
" />
<path d="M137105 57337
L137199 57731
L137274 57450
L137349 57731
L137443 57337
" />
<path d="M137574 57375
L137593 57356
L137630 57337
L137724 57337
L137762 57356
L137780 57375
L137799 57412
L137799 57450
L137780 57506
L137555 57731
L137799 57731
" />
<path d="M138024 57506
L137987 57487
L137968 57469
L137949 57431
L137949 57412
L137968 57375
L137987 57356
L138024 57337
L138099 57337
L138137 57356
L138155 57375
L138174 57412
L138174 57431
L138155 57469
L138137 57487
L138099 57506
L138024 57506
L137987 57525
L137968 57544
L137949 57581
L137949 57656
L137968 57694
L137987 57712
L138024 57731
L138099 57731
L138137 57712
L138155 57694
L138174 57656
L138174 57581
L138155 57544
L138137 57525
L138099 57506
" />
<path d="M151130 56097
L151186 56116
L151280 56116
L151317 56097
L151336 56079
L151355 56041
L151355 56004
L151336 55966
L151317 55947
L151280 55929
L151205 55910
L151167 55891
L151148 55872
L151130 55835
L151130 55797
L151148 55760
L151167 55741
L151205 55722
L151298 55722
L151355 55741
" />
<path d="M151486 55722
L151580 56116
L151655 55835
L151730 56116
L151823 55722
" />
<path d="M151955 55760
L151973 55741
L152011 55722
L152104 55722
L152142 55741
L152161 55760
L152179 55797
L152179 55835
L152161 55891
L151936 56116
L152179 56116
" />
<path d="M152367 56116
L152442 56116
L152479 56097
L152498 56079
L152536 56022
L152554 55947
L152554 55797
L152536 55760
L152517 55741
L152479 55722
L152404 55722
L152367 55741
L152348 55760
L152329 55797
L152329 55891
L152348 55929
L152367 55947
L152404 55966
L152479 55966
L152517 55947
L152536 55929
L152554 55891
" />
<path d="M150923 49051
L150979 49070
L151073 49070
L151110 49051
L151129 49032
L151147 48995
L151147 48957
L151129 48920
L151110 48901
L151073 48882
L150998 48864
L150960 48845
L150941 48826
L150923 48789
L150923 48751
L150941 48714
L150960 48695
L150998 48676
L151091 48676
L151147 48695
" />
<path d="M151279 48676
L151372 49070
L151447 48789
L151522 49070
L151616 48676
" />
<path d="M151729 48676
L151972 48676
L151841 48826
L151897 48826
L151935 48845
L151954 48864
L151972 48901
L151972 48995
L151954 49032
L151935 49051
L151897 49070
L151785 49070
L151747 49051
L151729 49032
" />
<path d="M152216 48676
L152254 48676
L152291 48695
L152310 48714
L152329 48751
L152347 48826
L152347 48920
L152329 48995
L152310 49032
L152291 49051
L152254 49070
L152216 49070
L152179 49051
L152160 49032
L152141 48995
L152122 48920
L152122 48826
L152141 48751
L152160 48714
L152179 48695
L152216 48676
" />
<path d="M150923 35271
L150979 35290
L151073 35290
L151110 35271
L151129 35253
L151147 35215
L151147 35178
L151129 35140
L151110 35121
L151073 35103
L150998 35084
L150960 35065
L150941 35046
L150923 35009
L150923 34971
L150941 34934
L150960 34915
L150998 34897
L151091 34897
L151147 34915
" />
<path d="M151279 34897
L151372 35290
L151447 35009
L151522 35290
L151616 34897
" />
<path d="M151729 34897
L151972 34897
L151841 35046
L151897 35046
L151935 35065
L151954 35084
L151972 35121
L151972 35215
L151954 35253
L151935 35271
L151897 35290
L151785 35290
L151747 35271
L151729 35253
" />
<path d="M152347 35290
L152122 35290
" />
<path d="M152235 35290
L152235 34897
L152197 34953
L152160 34990
L152122 35009
" />
<path d="M130056 52594
L130113 52613
L130206 52613
L130244 52594
L130263 52576
L130281 52538
L130281 52501
L130263 52463
L130244 52444
L130206 52426
L130131 52407
L130094 52388
L130075 52369
L130056 52332
L130056 52294
L130075 52257
L130094 52238
L130131 52219
L130225 52219
L130281 52238
" />
<path d="M130413 52219
L130506 52613
L130581 52332
L130656 52613
L130750 52219
" />
<path d="M130881 52257
L130900 52238
L130938 52219
L131031 52219
L131069 52238
L131088 52257
L131106 52294
L131106 52332
L131088 52388
L130863 52613
L131106 52613
" />
<path d="M131237 52219
L131500 52219
L131331 52613
" />
</g>
<g style="fill:#008484; fill-opacity:0.0; 
stroke:#008484; stroke-width:59.0551; stroke-opacity:1; 
stroke-linecap:round; stroke-linejoin:round;">
</g>
<g style="fill:#008484; fill-opacity:0.0; 
stroke:#008484; stroke-width:47.2441; stroke-opacity:1; 
stroke-linecap:round; stroke-linejoin:round;">
<path d="M114917 26845
L113893 26845
" />
<path d="M113893 26845
L113893 27877
" />
<path d="M113893 27877
L114917 27877
" />
<path d="M114917 27877
L114917 26845
" />
<path d="M114543 27877
L114244 27877
" />
<path d="M114244 27877
L114244 30239
" />
<path d="M114244 30239
L114543 30239
" />
<path d="M114543 30239
L114543 27877
" />
<path d="M114543 26676
L114543 26845
" />
<path d="M114244 26676
L114244 26845
" />
<path d="M114496 27877
L114496 30239
" />
<path d="M114448 27877
L114448 30239
" />
<path d="M114401 27877
L114401 30239
" />
<path d="M114354 27877
L114354 30239
" />
<path d="M114307 27877
L114307 30239
" />
<path d="M114259 27877
L114259 30239
" />
<path d="M113893 26845
L112893 26845
" />
<path d="M112893 26845
L112893 27877
" />
<path d="M112893 27877
L113893 27877
" />
<path d="M113893 27877
L113893 26845
" />
<path d="M113543 27877
L113244 27877
" />
<path d="M113244 27877
L113244 30239
" />
<path d="M113244 30239
L113543 30239
" />
<path d="M113543 30239
L113543 27877
" />
<path d="M113543 26676
L113543 26845
" />
<path d="M113244 26676
L113244 26845
" />
<path d="M112893 26845
L111893 26845
" />
<path d="M111893 26845
L111893 27877
" />
<path d="M111893 27877
L112893 27877
" />
<path d="M112893 27877
L112893 26845
" />
<path d="M112543 27877
L112244 27877
" />
<path d="M112244 27877
L112244 30239
" />
<path d="M112244 30239
L112543 30239
" />
<path d="M112543 30239
L112543 27877
" />
<path d="M112543 26676
L112543 26845
" />
<path d="M112244 26676
L112244 26845
" />
<path d="M111893 26845
L110893 26845
" />
<path d="M110893 26845
L110893 27877
" />
<path d="M110893 27877
L111893 27877
" />
<path d="M111893 27877
L111893 26845
" />
<path d="M111543 27877
L111244 27877
" />
<path d="M111244 27877
L111244 30239
" />
<path d="M111244 30239
L111543 30239
" />
<path d="M111543 30239
L111543 27877
" />
<path d="M111543 26676
L111543 26845
" />
<path d="M111244 26676
L111244 26845
" />
<path d="M110893 26845
L109893 26845
" />
<path d="M109893 26845
L109893 27877
" />
<path d="M109893 27877
L110893 27877
" />
<path d="M110893 27877
L110893 26845
" />
<path d="M110543 27877
L110244 27877
" />
<path d="M110244 27877
L110244 30239
" />
<path d="M110244 30239
L110543 30239
" />
<path d="M110543 30239
L110543 27877
" />
<path d="M110543 26676
L110543 26845
" />
<path d="M110244 26676
L110244 26845
" />
<path d="M109893 26845
L108893 26845
" />
<path d="M108893 26845
L108893 27877
" />
<path d="M108893 27877
L109893 27877
" />
<path d="M109893 27877
L109893 26845
" />
<path d="M109543 27877
L109244 27877
" />
<path d="M109244 27877
L109244 30239
" />
<path d="M109244 30239
L109543 30239
" />
<path d="M109543 30239
L109543 27877
" />
<path d="M109543 26676
L109543 26845
" />
<path d="M109244 26676
L109244 26845
" />
<path d="M108893 26845
L107893 26845
" />
<path d="M107893 26845
L107893 27877
" />
<path d="M107893 27877
L108893 27877
" />
<path d="M108893 27877
L108893 26845
" />
<path d="M108543 27877
L108244 27877
" />
<path d="M108244 27877
L108244 30239
" />
<path d="M108244 30239
L108543 30239
" />
<path d="M108543 30239
L108543 27877
" />
<path d="M108543 26676
L108543 26845
" />
<path d="M108244 26676
L108244 26845
" />
<path d="M107893 26845
L106893 26845
" />
<path d="M106893 26845
L106893 27877
" />
<path d="M106893 27877
L107893 27877
" />
<path d="M107893 27877
L107893 26845
" />
<path d="M107543 27877
L107244 27877
" />
<path d="M107244 27877
L107244 30239
" />
<path d="M107244 30239
L107543 30239
" />
<path d="M107543 30239
L107543 27877
" />
<path d="M107543 26676
L107543 26845
" />
<path d="M107244 26676
L107244 26845
" />
<path d="M106893 26845
L105893 26845
" />
<path d="M105893 26845
L105893 27877
" />
<path d="M105893 27877
L106893 27877
" />
<path d="M106893 27877
L106893 26845
" />
<path d="M106543 27877
L106244 27877
" />
<path d="M106244 27877
L106244 30239
" />
<path d="M106244 30239
L106543 30239
" />
<path d="M106543 30239
L106543 27877
" />
<path d="M106543 26676
L106543 26845
" />
<path d="M106244 26676
L106244 26845
" />
<path d="M105893 26845
L104893 26845
" />
<path d="M104893 26845
L104893 27877
" />
<path d="M104893 27877
L105893 27877
" />
<path d="M105893 27877
L105893 26845
" />
<path d="M105543 27877
L105244 27877
" />
<path d="M105244 27877
L105244 30239
" />
<path d="M105244 30239
L105543 30239
" />
<path d="M105543 30239
L105543 27877
" />
<path d="M105543 26676
L105543 26845
" />
<path d="M105244 26676
L105244 26845
" />
<path d="M104893 26845
L103893 26845
" />
<path d="M103893 26845
L103893 27877
" />
<path d="M103893 27877
L104893 27877
" />
<path d="M104893 27877
L104893 26845
" />
<path d="M104543 27877
L104244 27877
" />
<path d="M104244 27877
L104244 30239
" />
<path d="M104244 30239
L104543 30239
" />
<path d="M104543 30239
L104543 27877
" />
<path d="M104543 26676
L104543 26845
" />
<path d="M104244 26676
L104244 26845
" />
<path d="M103893 26845
L102893 26845
" />
<path d="M102893 26845
L102893 27877
" />
<path d="M102893 27877
L103893 27877
" />
<path d="M103893 27877
L103893 26845
" />
<path d="M103543 27877
L103244 27877
" />
<path d="M103244 27877
L103244 30239
" />
<path d="M103244 30239
L103543 30239
" />
<path d="M103543 30239
L103543 27877
" />
<path d="M103543 26676
L103543 26845
" />
<path d="M103244 26676
L103244 26845
" />
<path d="M102893 26845
L101893 26845
" />
<path d="M101893 26845
L101893 27877
" />
<path d="M101893 27877
L102893 27877
" />
<path d="M102893 27877
L102893 26845
" />
<path d="M102543 27877
L102244 27877
" />
<path d="M102244 27877
L102244 30239
" />
<path d="M102244 30239
L102543 30239
" />
<path d="M102543 30239
L102543 27877
" />
<path d="M102543 26676
L102543 26845
" />
<path d="M102244 26676
L102244 26845
" />
<path d="M101893 26845
L100893 26845
" />
<path d="M100893 26845
L100893 27877
" />
<path d="M100893 27877
L101893 27877
" />
<path d="M101893 27877
L101893 26845
" />
<path d="M101543 27877
L101244 27877
" />
<path d="M101244 27877
L101244 30239
" />
<path d="M101244 30239
L101543 30239
" />
<path d="M101543 30239
L101543 27877
" />
<path d="M101543 26676
L101543 26845
" />
<path d="M101244 26676
L101244 26845
" />
<path d="M100893 26845
L99893 26845
" />
<path d="M99893 26845
L99893 27877
" />
<path d="M99893 27877
L100893 27877
" />
<path d="M100893 27877
L100893 26845
" />
<path d="M100543 27877
L100244 27877
" />
<path d="M100244 27877
L100244 30239
" />
<path d="M100244 30239
L100543 30239
" />
<path d="M100543 30239
L100543 27877
" />
<path d="M100543 26676
L100543 26845
" />
<path d="M100244 26676
L100244 26845
" />
<path d="M99893 26845
L98893 26845
" />
<path d="M98893 26845
L98893 27877
" />
<path d="M98893 27877
L99893 27877
" />
<path d="M99893 27877
L99893 26845
" />
<path d="M99543 27877
L99244 27877
" />
<path d="M99244 27877
L99244 30239
" />
<path d="M99244 30239
L99543 30239
" />
<path d="M99543 30239
L99543 27877
" />
<path d="M99543 26676
L99543 26845
" />
<path d="M99244 26676
L99244 26845
" />
<path d="M98893 26845
L97870 26845
" />
<path d="M97870 26845
L97870 27877
" />
<path d="M97870 27877
L98893 27877
" />
<path d="M98893 27877
L98893 26845
" />
<path d="M98543 27877
L98244 27877
" />
<path d="M98244 27877
L98244 30239
" />
<path d="M98244 30239
L98543 30239
" />
<path d="M98543 30239
L98543 27877
" />
<path d="M98543 26676
L98543 26845
" />
<path d="M98244 26676
L98244 26845
" />
<path d="M114393 25818
L114893 25818
" />
<path d="M114893 25818
L114893 26318
" />
</g> 
</svg>
