M48
;DRILL file {KiCad 4.0.6} date 04/10/17 22:41:58
;FORMAT={-:-/ absolute / inch / decimal}
FMAT,2
INCH,TZ
T1C0.016
T2C0.030
T3C0.039
%
G90
G05
M72
T1
X2.3228Y-4.4117
X2.3228Y-4.5791
X2.8957Y-5.5939
X2.9157Y-5.7639
X4.4291Y-5.8586
X4.4487Y-5.5141
X4.5057Y-5.8639
X4.5078Y-5.7405
X5.4035Y-5.1401
X5.4133Y-4.9826
X5.4231Y-4.3527
X5.4231Y-4.5397
X5.4957Y-5.4239
X5.4957Y-5.9639
X5.5857Y-5.5439
X5.5957Y-5.4239
X5.6557Y-5.4239
X5.6657Y-5.5439
X6.498Y-4.4117
X6.555Y-4.6873
X6.6957Y-4.5361
X6.7057Y-4.6839
X7.2539Y-5.0121
X7.2557Y-5.1239
X8.2557Y-5.5139
X8.3671Y-5.4054
X9.4192Y-4.4905
X9.4291Y-4.3625
X9.6239Y-4.6873
X9.6318Y-3.5574
X9.6357Y-3.8015
X9.7557Y-4.7939
X10.2381Y-3.5692
X10.2711Y-3.0874
X10.3523Y-3.0141
X10.3917Y-4.2267
X10.3917Y-4.3448
X10.4057Y-4.6839
X10.4057Y-5.2439
X10.4113Y-4.5456
X10.4257Y-5.3839
X10.498Y-3.5731
X10.6357Y-4.3409
X10.9271Y-3.5574
X10.9842Y-4.2346
X11.0806Y-4.396
X11.1357Y-3.0839
X11.1357Y-2.8133
X11.1857Y-2.8139
X11.1957Y-3.0839
X11.2106Y-3.9117
X11.2302Y-4.3251
X11.2357Y-2.8139
X11.2811Y-3.0643
X11.2893Y-4.2346
X11.2893Y-4.3842
X11.305Y-3.5574
X11.6279Y-2.9472
X11.8057Y-3.5739
X11.8287Y-2.9393
X11.8326Y-3.6598
X11.9586Y-3.648
X12.0098Y-3.5731
X12.0806Y-2.7031
X12.0885Y-2.9117
X12.1987Y-4.5639
X12.1987Y-4.6839
X14.6557Y-2.8839
X14.6557Y-4.2339
X14.6557Y-4.4239
X14.6557Y-4.7439
X14.6557Y-4.9139
X14.6596Y-2.7585
X14.7457Y-3.2839
X14.8857Y-3.2439
X14.9153Y-5.648
X14.9157Y-5.8139
T2
X1.7187Y-4.7754
X1.7187Y-5.366
X2.2943Y-4.7754
X2.2943Y-5.366
X2.8998Y-4.7754
X2.8998Y-5.366
X3.4754Y-4.7754
X3.4754Y-5.366
X3.7265Y-4.7754
X3.7265Y-5.366
X4.3021Y-4.7754
X4.3021Y-5.366
X4.5533Y-4.7754
X4.5533Y-5.366
X5.1289Y-4.7754
X5.1289Y-5.366
X5.6557Y-5.0707
X6.2313Y-5.0707
X6.4431Y-5.0707
X7.0187Y-5.0707
X7.3486Y-5.0707
X7.9242Y-5.0707
X8.5297Y-4.7754
X8.5297Y-5.4054
X9.1053Y-4.7754
X9.1053Y-5.4054
X9.71Y-3.2451
X9.71Y-3.9341
X9.7108Y-4.618
X9.7108Y-5.3069
X10.2856Y-3.2451
X10.2856Y-3.9341
X10.2864Y-4.618
X10.2864Y-5.3069
X10.4982Y-3.24
X10.4982Y-3.929
X10.4982Y-4.618
X10.4982Y-5.3069
X11.0738Y-3.24
X11.0738Y-3.929
X11.0738Y-4.618
X11.0738Y-5.3069
X11.2856Y-3.24
X11.2856Y-3.929
X11.2856Y-4.618
X11.2856Y-5.3069
X11.8612Y-3.24
X11.8612Y-3.929
X11.8612Y-4.618
X11.8612Y-5.3069
X12.5848Y-5.4054
X12.8801Y-4.8935
X13.1604Y-5.4054
X13.4706Y-5.4054
X13.7903Y-4.9034
X14.0462Y-5.4054
X14.888Y-3.1613
X14.888Y-4.5392
X14.9087Y-5.2439
X15.4635Y-3.1613
X15.4635Y-4.5392
X15.4843Y-5.2439
T3
X9.8394Y-2.6318
X9.9394Y-2.6318
X10.0394Y-2.6318
X10.1394Y-2.6318
X10.2394Y-2.6318
X10.3394Y-2.6318
X10.4394Y-2.6318
X10.5394Y-2.6318
X10.6394Y-2.6318
X10.7394Y-2.6318
X10.8394Y-2.6318
X10.9394Y-2.6318
X11.0394Y-2.6318
X11.1394Y-2.6318
X11.2394Y-2.6318
X11.3394Y-2.6318
X11.4394Y-2.6318
T0
M30
