G04 #@! TF.FileFunction,Legend,Top*
%FSLAX46Y46*%
G04 Gerber Fmt 4.6, Leading zero omitted, Abs format (unit mm)*
G04 Created by KiCad (PCBNEW 4.0.6) date 04/10/17 12:01:18*
%MOMM*%
%LPD*%
G01*
G04 APERTURE LIST*
%ADD10C,0.500000*%
%ADD11C,0.150000*%
%ADD12C,0.300000*%
%ADD13C,0.400000*%
%ADD14C,0.100000*%
%ADD15C,0.120000*%
G04 APERTURE END LIST*
D10*
D11*
X311800000Y-235400000D02*
X311800000Y-267400000D01*
X419800000Y-267400000D01*
X419800000Y-235400000D01*
X311800000Y-235400000D01*
D10*
D11*
X10000000Y-10000000D02*
X10000000Y-269400000D01*
X421800000Y-269400000D01*
X421800000Y-10000000D01*
X10000000Y-10000000D01*
D10*
D11*
X12000000Y-12000000D02*
X12000000Y-267400000D01*
X419800000Y-267400000D01*
X419800000Y-12000000D01*
X12000000Y-12000000D01*
D10*
D11*
X60000000Y-12000000D02*
X60000000Y-10000000D01*
D10*
D11*
X110000000Y-12000000D02*
X110000000Y-10000000D01*
D10*
D11*
X160000000Y-12000000D02*
X160000000Y-10000000D01*
D10*
D11*
X210000000Y-12000000D02*
X210000000Y-10000000D01*
D10*
D11*
X260000000Y-12000000D02*
X260000000Y-10000000D01*
D10*
D11*
X310000000Y-12000000D02*
X310000000Y-10000000D01*
D10*
D11*
X360000000Y-12000000D02*
X360000000Y-10000000D01*
D10*
D11*
X410000000Y-12000000D02*
X410000000Y-10000000D01*
D10*
D11*
X35990476Y-11588095D02*
X35247619Y-11588095D01*
X35619048Y-11588095D02*
X35619048Y-10288095D01*
X35495238Y-10473810D01*
X35371429Y-10597619D01*
X35247619Y-10659524D01*
D10*
D11*
X85247619Y-10411905D02*
X85309524Y-10350000D01*
X85433333Y-10288095D01*
X85742857Y-10288095D01*
X85866667Y-10350000D01*
X85928571Y-10411905D01*
X85990476Y-10535714D01*
X85990476Y-10659524D01*
X85928571Y-10845238D01*
X85185714Y-11588095D01*
X85990476Y-11588095D01*
D10*
D11*
X135185714Y-10288095D02*
X135990476Y-10288095D01*
X135557143Y-10783333D01*
X135742857Y-10783333D01*
X135866667Y-10845238D01*
X135928571Y-10907143D01*
X135990476Y-11030952D01*
X135990476Y-11340476D01*
X135928571Y-11464286D01*
X135866667Y-11526190D01*
X135742857Y-11588095D01*
X135371429Y-11588095D01*
X135247619Y-11526190D01*
X135185714Y-11464286D01*
D10*
D11*
X185866667Y-10721429D02*
X185866667Y-11588095D01*
X185557143Y-10226190D02*
X185247619Y-11154762D01*
X186052381Y-11154762D01*
D10*
D11*
X235928571Y-10288095D02*
X235309524Y-10288095D01*
X235247619Y-10907143D01*
X235309524Y-10845238D01*
X235433333Y-10783333D01*
X235742857Y-10783333D01*
X235866667Y-10845238D01*
X235928571Y-10907143D01*
X235990476Y-11030952D01*
X235990476Y-11340476D01*
X235928571Y-11464286D01*
X235866667Y-11526190D01*
X235742857Y-11588095D01*
X235433333Y-11588095D01*
X235309524Y-11526190D01*
X235247619Y-11464286D01*
D10*
D11*
X285866667Y-10288095D02*
X285619048Y-10288095D01*
X285495238Y-10350000D01*
X285433333Y-10411905D01*
X285309524Y-10597619D01*
X285247619Y-10845238D01*
X285247619Y-11340476D01*
X285309524Y-11464286D01*
X285371429Y-11526190D01*
X285495238Y-11588095D01*
X285742857Y-11588095D01*
X285866667Y-11526190D01*
X285928571Y-11464286D01*
X285990476Y-11340476D01*
X285990476Y-11030952D01*
X285928571Y-10907143D01*
X285866667Y-10845238D01*
X285742857Y-10783333D01*
X285495238Y-10783333D01*
X285371429Y-10845238D01*
X285309524Y-10907143D01*
X285247619Y-11030952D01*
D10*
D11*
X335185714Y-10288095D02*
X336052381Y-10288095D01*
X335495238Y-11588095D01*
D10*
D11*
X385495238Y-10845238D02*
X385371429Y-10783333D01*
X385309524Y-10721429D01*
X385247619Y-10597619D01*
X385247619Y-10535714D01*
X385309524Y-10411905D01*
X385371429Y-10350000D01*
X385495238Y-10288095D01*
X385742857Y-10288095D01*
X385866667Y-10350000D01*
X385928571Y-10411905D01*
X385990476Y-10535714D01*
X385990476Y-10597619D01*
X385928571Y-10721429D01*
X385866667Y-10783333D01*
X385742857Y-10845238D01*
X385495238Y-10845238D01*
X385371429Y-10907143D01*
X385309524Y-10969048D01*
X385247619Y-11092857D01*
X385247619Y-11340476D01*
X385309524Y-11464286D01*
X385371429Y-11526190D01*
X385495238Y-11588095D01*
X385742857Y-11588095D01*
X385866667Y-11526190D01*
X385928571Y-11464286D01*
X385990476Y-11340476D01*
X385990476Y-11092857D01*
X385928571Y-10969048D01*
X385866667Y-10907143D01*
X385742857Y-10845238D01*
D10*
D11*
X60000000Y-267400000D02*
X60000000Y-269400000D01*
D10*
D11*
X110000000Y-267400000D02*
X110000000Y-269400000D01*
D10*
D11*
X160000000Y-267400000D02*
X160000000Y-269400000D01*
D10*
D11*
X210000000Y-267400000D02*
X210000000Y-269400000D01*
D10*
D11*
X260000000Y-267400000D02*
X260000000Y-269400000D01*
D10*
D11*
X310000000Y-267400000D02*
X310000000Y-269400000D01*
D10*
D11*
X360000000Y-267400000D02*
X360000000Y-269400000D01*
D10*
D11*
X410000000Y-267400000D02*
X410000000Y-269400000D01*
D10*
D11*
X35990476Y-268988095D02*
X35247619Y-268988095D01*
X35619048Y-268988095D02*
X35619048Y-267688095D01*
X35495238Y-267873810D01*
X35371429Y-267997619D01*
X35247619Y-268059524D01*
D10*
D11*
X85247619Y-267811905D02*
X85309524Y-267750000D01*
X85433333Y-267688095D01*
X85742857Y-267688095D01*
X85866667Y-267750000D01*
X85928571Y-267811905D01*
X85990476Y-267935714D01*
X85990476Y-268059524D01*
X85928571Y-268245238D01*
X85185714Y-268988095D01*
X85990476Y-268988095D01*
D10*
D11*
X135185714Y-267688095D02*
X135990476Y-267688095D01*
X135557143Y-268183333D01*
X135742857Y-268183333D01*
X135866667Y-268245238D01*
X135928571Y-268307143D01*
X135990476Y-268430952D01*
X135990476Y-268740476D01*
X135928571Y-268864286D01*
X135866667Y-268926190D01*
X135742857Y-268988095D01*
X135371429Y-268988095D01*
X135247619Y-268926190D01*
X135185714Y-268864286D01*
D10*
D11*
X185866667Y-268121429D02*
X185866667Y-268988095D01*
X185557143Y-267626190D02*
X185247619Y-268554762D01*
X186052381Y-268554762D01*
D10*
D11*
X235928571Y-267688095D02*
X235309524Y-267688095D01*
X235247619Y-268307143D01*
X235309524Y-268245238D01*
X235433333Y-268183333D01*
X235742857Y-268183333D01*
X235866667Y-268245238D01*
X235928571Y-268307143D01*
X235990476Y-268430952D01*
X235990476Y-268740476D01*
X235928571Y-268864286D01*
X235866667Y-268926190D01*
X235742857Y-268988095D01*
X235433333Y-268988095D01*
X235309524Y-268926190D01*
X235247619Y-268864286D01*
D10*
D11*
X285866667Y-267688095D02*
X285619048Y-267688095D01*
X285495238Y-267750000D01*
X285433333Y-267811905D01*
X285309524Y-267997619D01*
X285247619Y-268245238D01*
X285247619Y-268740476D01*
X285309524Y-268864286D01*
X285371429Y-268926190D01*
X285495238Y-268988095D01*
X285742857Y-268988095D01*
X285866667Y-268926190D01*
X285928571Y-268864286D01*
X285990476Y-268740476D01*
X285990476Y-268430952D01*
X285928571Y-268307143D01*
X285866667Y-268245238D01*
X285742857Y-268183333D01*
X285495238Y-268183333D01*
X285371429Y-268245238D01*
X285309524Y-268307143D01*
X285247619Y-268430952D01*
D10*
D11*
X335185714Y-267688095D02*
X336052381Y-267688095D01*
X335495238Y-268988095D01*
D10*
D11*
X385495238Y-268245238D02*
X385371429Y-268183333D01*
X385309524Y-268121429D01*
X385247619Y-267997619D01*
X385247619Y-267935714D01*
X385309524Y-267811905D01*
X385371429Y-267750000D01*
X385495238Y-267688095D01*
X385742857Y-267688095D01*
X385866667Y-267750000D01*
X385928571Y-267811905D01*
X385990476Y-267935714D01*
X385990476Y-267997619D01*
X385928571Y-268121429D01*
X385866667Y-268183333D01*
X385742857Y-268245238D01*
X385495238Y-268245238D01*
X385371429Y-268307143D01*
X385309524Y-268369048D01*
X385247619Y-268492857D01*
X385247619Y-268740476D01*
X385309524Y-268864286D01*
X385371429Y-268926190D01*
X385495238Y-268988095D01*
X385742857Y-268988095D01*
X385866667Y-268926190D01*
X385928571Y-268864286D01*
X385990476Y-268740476D01*
X385990476Y-268492857D01*
X385928571Y-268369048D01*
X385866667Y-268307143D01*
X385742857Y-268245238D01*
D10*
D11*
X10000000Y-60000000D02*
X12000000Y-60000000D01*
D10*
D11*
X10000000Y-110000000D02*
X12000000Y-110000000D01*
D10*
D11*
X10000000Y-160000000D02*
X12000000Y-160000000D01*
D10*
D11*
X10000000Y-210000000D02*
X12000000Y-210000000D01*
D10*
D11*
X10000000Y-260000000D02*
X12000000Y-260000000D01*
D10*
D11*
X10690476Y-35216667D02*
X11309524Y-35216667D01*
X10566667Y-35588095D02*
X11000000Y-34288095D01*
X11433333Y-35588095D01*
D10*
D11*
X11092857Y-84907143D02*
X11278571Y-84969048D01*
X11340476Y-85030952D01*
X11402381Y-85154762D01*
X11402381Y-85340476D01*
X11340476Y-85464286D01*
X11278571Y-85526190D01*
X11154762Y-85588095D01*
X10659524Y-85588095D01*
X10659524Y-84288095D01*
X11092857Y-84288095D01*
X11216667Y-84350000D01*
X11278571Y-84411905D01*
X11340476Y-84535714D01*
X11340476Y-84659524D01*
X11278571Y-84783333D01*
X11216667Y-84845238D01*
X11092857Y-84907143D01*
X10659524Y-84907143D01*
D10*
D11*
X11402381Y-135464286D02*
X11340476Y-135526190D01*
X11154762Y-135588095D01*
X11030952Y-135588095D01*
X10845238Y-135526190D01*
X10721429Y-135402381D01*
X10659524Y-135278571D01*
X10597619Y-135030952D01*
X10597619Y-134845238D01*
X10659524Y-134597619D01*
X10721429Y-134473810D01*
X10845238Y-134350000D01*
X11030952Y-134288095D01*
X11154762Y-134288095D01*
X11340476Y-134350000D01*
X11402381Y-134411905D01*
D10*
D11*
X10659524Y-185588095D02*
X10659524Y-184288095D01*
X10969048Y-184288095D01*
X11154762Y-184350000D01*
X11278571Y-184473810D01*
X11340476Y-184597619D01*
X11402381Y-184845238D01*
X11402381Y-185030952D01*
X11340476Y-185278571D01*
X11278571Y-185402381D01*
X11154762Y-185526190D01*
X10969048Y-185588095D01*
X10659524Y-185588095D01*
D10*
D11*
X10721429Y-234907143D02*
X11154762Y-234907143D01*
X11340476Y-235588095D02*
X10721429Y-235588095D01*
X10721429Y-234288095D01*
X11340476Y-234288095D01*
D10*
D11*
X421800000Y-60000000D02*
X419800000Y-60000000D01*
D10*
D11*
X421800000Y-110000000D02*
X419800000Y-110000000D01*
D10*
D11*
X421800000Y-160000000D02*
X419800000Y-160000000D01*
D10*
D11*
X421800000Y-210000000D02*
X419800000Y-210000000D01*
D10*
D11*
X421800000Y-260000000D02*
X419800000Y-260000000D01*
D10*
D11*
X420490476Y-35216667D02*
X421109524Y-35216667D01*
X420366667Y-35588095D02*
X420800000Y-34288095D01*
X421233333Y-35588095D01*
D10*
D11*
X420892857Y-84907143D02*
X421078571Y-84969048D01*
X421140476Y-85030952D01*
X421202381Y-85154762D01*
X421202381Y-85340476D01*
X421140476Y-85464286D01*
X421078571Y-85526190D01*
X420954762Y-85588095D01*
X420459524Y-85588095D01*
X420459524Y-84288095D01*
X420892857Y-84288095D01*
X421016667Y-84350000D01*
X421078571Y-84411905D01*
X421140476Y-84535714D01*
X421140476Y-84659524D01*
X421078571Y-84783333D01*
X421016667Y-84845238D01*
X420892857Y-84907143D01*
X420459524Y-84907143D01*
D10*
D11*
X421202381Y-135464286D02*
X421140476Y-135526190D01*
X420954762Y-135588095D01*
X420830952Y-135588095D01*
X420645238Y-135526190D01*
X420521429Y-135402381D01*
X420459524Y-135278571D01*
X420397619Y-135030952D01*
X420397619Y-134845238D01*
X420459524Y-134597619D01*
X420521429Y-134473810D01*
X420645238Y-134350000D01*
X420830952Y-134288095D01*
X420954762Y-134288095D01*
X421140476Y-134350000D01*
X421202381Y-134411905D01*
D10*
D11*
X420459524Y-185588095D02*
X420459524Y-184288095D01*
X420769048Y-184288095D01*
X420954762Y-184350000D01*
X421078571Y-184473810D01*
X421140476Y-184597619D01*
X421202381Y-184845238D01*
X421202381Y-185030952D01*
X421140476Y-185278571D01*
X421078571Y-185402381D01*
X420954762Y-185526190D01*
X420769048Y-185588095D01*
X420459524Y-185588095D01*
D10*
D11*
X420521429Y-234907143D02*
X420954762Y-234907143D01*
X421140476Y-235588095D02*
X420521429Y-235588095D01*
X420521429Y-234288095D01*
X421140476Y-234288095D01*
D10*
D11*
X335157143Y-263178571D02*
X335157143Y-261678571D01*
X335514286Y-261678571D01*
X335728571Y-261750000D01*
X335871429Y-261892857D01*
X335942857Y-262035714D01*
X336014286Y-262321429D01*
X336014286Y-262535714D01*
X335942857Y-262821429D01*
X335871429Y-262964286D01*
X335728571Y-263107143D01*
X335514286Y-263178571D01*
X335157143Y-263178571D01*
X337300000Y-263178571D02*
X337300000Y-262392857D01*
X337228571Y-262250000D01*
X337085714Y-262178571D01*
X336800000Y-262178571D01*
X336657143Y-262250000D01*
X337300000Y-263107143D02*
X337157143Y-263178571D01*
X336800000Y-263178571D01*
X336657143Y-263107143D01*
X336585714Y-262964286D01*
X336585714Y-262821429D01*
X336657143Y-262678571D01*
X336800000Y-262607143D01*
X337157143Y-262607143D01*
X337300000Y-262535714D01*
X337800000Y-262178571D02*
X338371429Y-262178571D01*
X338014286Y-261678571D02*
X338014286Y-262964286D01*
X338085714Y-263107143D01*
X338228572Y-263178571D01*
X338371429Y-263178571D01*
X339442857Y-263107143D02*
X339300000Y-263178571D01*
X339014286Y-263178571D01*
X338871429Y-263107143D01*
X338800000Y-262964286D01*
X338800000Y-262392857D01*
X338871429Y-262250000D01*
X339014286Y-262178571D01*
X339300000Y-262178571D01*
X339442857Y-262250000D01*
X339514286Y-262392857D01*
X339514286Y-262535714D01*
X338800000Y-262678571D01*
X340157143Y-263035714D02*
X340228571Y-263107143D01*
X340157143Y-263178571D01*
X340085714Y-263107143D01*
X340157143Y-263035714D01*
X340157143Y-263178571D01*
X340157143Y-262250000D02*
X340228571Y-262321429D01*
X340157143Y-262392857D01*
X340085714Y-262321429D01*
X340157143Y-262250000D01*
X340157143Y-262392857D01*
D10*
D11*
X311800000Y-263900000D02*
X419800000Y-263900000D01*
D10*
D11*
X313157143Y-265978571D02*
X313157143Y-264478571D01*
X314014286Y-265978571D02*
X313371429Y-265121429D01*
X314014286Y-264478571D02*
X313157143Y-265335714D01*
X314657143Y-265978571D02*
X314657143Y-264978571D01*
X314657143Y-264478571D02*
X314585714Y-264550000D01*
X314657143Y-264621429D01*
X314728571Y-264550000D01*
X314657143Y-264478571D01*
X314657143Y-264621429D01*
X316228572Y-265835714D02*
X316157143Y-265907143D01*
X315942857Y-265978571D01*
X315800000Y-265978571D01*
X315585715Y-265907143D01*
X315442857Y-265764286D01*
X315371429Y-265621429D01*
X315300000Y-265335714D01*
X315300000Y-265121429D01*
X315371429Y-264835714D01*
X315442857Y-264692857D01*
X315585715Y-264550000D01*
X315800000Y-264478571D01*
X315942857Y-264478571D01*
X316157143Y-264550000D01*
X316228572Y-264621429D01*
X317514286Y-265978571D02*
X317514286Y-265192857D01*
X317442857Y-265050000D01*
X317300000Y-264978571D01*
X317014286Y-264978571D01*
X316871429Y-265050000D01*
X317514286Y-265907143D02*
X317371429Y-265978571D01*
X317014286Y-265978571D01*
X316871429Y-265907143D01*
X316800000Y-265764286D01*
X316800000Y-265621429D01*
X316871429Y-265478571D01*
X317014286Y-265407143D01*
X317371429Y-265407143D01*
X317514286Y-265335714D01*
X318871429Y-265978571D02*
X318871429Y-264478571D01*
X318871429Y-265907143D02*
X318728572Y-265978571D01*
X318442858Y-265978571D01*
X318300000Y-265907143D01*
X318228572Y-265835714D01*
X318157143Y-265692857D01*
X318157143Y-265264286D01*
X318228572Y-265121429D01*
X318300000Y-265050000D01*
X318442858Y-264978571D01*
X318728572Y-264978571D01*
X318871429Y-265050000D01*
X320728572Y-265192857D02*
X321228572Y-265192857D01*
X321442858Y-265978571D02*
X320728572Y-265978571D01*
X320728572Y-264478571D01*
X321442858Y-264478571D01*
X322085715Y-265835714D02*
X322157143Y-265907143D01*
X322085715Y-265978571D01*
X322014286Y-265907143D01*
X322085715Y-265835714D01*
X322085715Y-265978571D01*
X322800001Y-265978571D02*
X322800001Y-264478571D01*
X323157144Y-264478571D01*
X323371429Y-264550000D01*
X323514287Y-264692857D01*
X323585715Y-264835714D01*
X323657144Y-265121429D01*
X323657144Y-265335714D01*
X323585715Y-265621429D01*
X323514287Y-265764286D01*
X323371429Y-265907143D01*
X323157144Y-265978571D01*
X322800001Y-265978571D01*
X324300001Y-265835714D02*
X324371429Y-265907143D01*
X324300001Y-265978571D01*
X324228572Y-265907143D01*
X324300001Y-265835714D01*
X324300001Y-265978571D01*
X324942858Y-265550000D02*
X325657144Y-265550000D01*
X324800001Y-265978571D02*
X325300001Y-264478571D01*
X325800001Y-265978571D01*
X326300001Y-265835714D02*
X326371429Y-265907143D01*
X326300001Y-265978571D01*
X326228572Y-265907143D01*
X326300001Y-265835714D01*
X326300001Y-265978571D01*
X329300001Y-265978571D02*
X329300001Y-264478571D01*
X329442858Y-265407143D02*
X329871429Y-265978571D01*
X329871429Y-264978571D02*
X329300001Y-265550000D01*
X330514287Y-265978571D02*
X330514287Y-264978571D01*
X330514287Y-264478571D02*
X330442858Y-264550000D01*
X330514287Y-264621429D01*
X330585715Y-264550000D01*
X330514287Y-264478571D01*
X330514287Y-264621429D01*
X331871430Y-265907143D02*
X331728573Y-265978571D01*
X331442859Y-265978571D01*
X331300001Y-265907143D01*
X331228573Y-265835714D01*
X331157144Y-265692857D01*
X331157144Y-265264286D01*
X331228573Y-265121429D01*
X331300001Y-265050000D01*
X331442859Y-264978571D01*
X331728573Y-264978571D01*
X331871430Y-265050000D01*
X333157144Y-265978571D02*
X333157144Y-265192857D01*
X333085715Y-265050000D01*
X332942858Y-264978571D01*
X332657144Y-264978571D01*
X332514287Y-265050000D01*
X333157144Y-265907143D02*
X333014287Y-265978571D01*
X332657144Y-265978571D01*
X332514287Y-265907143D01*
X332442858Y-265764286D01*
X332442858Y-265621429D01*
X332514287Y-265478571D01*
X332657144Y-265407143D01*
X333014287Y-265407143D01*
X333157144Y-265335714D01*
X334514287Y-265978571D02*
X334514287Y-264478571D01*
X334514287Y-265907143D02*
X334371430Y-265978571D01*
X334085716Y-265978571D01*
X333942858Y-265907143D01*
X333871430Y-265835714D01*
X333800001Y-265692857D01*
X333800001Y-265264286D01*
X333871430Y-265121429D01*
X333942858Y-265050000D01*
X334085716Y-264978571D01*
X334371430Y-264978571D01*
X334514287Y-265050000D01*
X337014287Y-264978571D02*
X337014287Y-265978571D01*
X336657144Y-264407143D02*
X336300001Y-265478571D01*
X337228573Y-265478571D01*
X337800001Y-265835714D02*
X337871429Y-265907143D01*
X337800001Y-265978571D01*
X337728572Y-265907143D01*
X337800001Y-265835714D01*
X337800001Y-265978571D01*
X338800001Y-264478571D02*
X338942858Y-264478571D01*
X339085715Y-264550000D01*
X339157144Y-264621429D01*
X339228573Y-264764286D01*
X339300001Y-265050000D01*
X339300001Y-265407143D01*
X339228573Y-265692857D01*
X339157144Y-265835714D01*
X339085715Y-265907143D01*
X338942858Y-265978571D01*
X338800001Y-265978571D01*
X338657144Y-265907143D01*
X338585715Y-265835714D01*
X338514287Y-265692857D01*
X338442858Y-265407143D01*
X338442858Y-265050000D01*
X338514287Y-264764286D01*
X338585715Y-264621429D01*
X338657144Y-264550000D01*
X338800001Y-264478571D01*
X339942858Y-265835714D02*
X340014286Y-265907143D01*
X339942858Y-265978571D01*
X339871429Y-265907143D01*
X339942858Y-265835714D01*
X339942858Y-265978571D01*
X341300001Y-264478571D02*
X341014287Y-264478571D01*
X340871430Y-264550000D01*
X340800001Y-264621429D01*
X340657144Y-264835714D01*
X340585715Y-265121429D01*
X340585715Y-265692857D01*
X340657144Y-265835714D01*
X340728572Y-265907143D01*
X340871430Y-265978571D01*
X341157144Y-265978571D01*
X341300001Y-265907143D01*
X341371430Y-265835714D01*
X341442858Y-265692857D01*
X341442858Y-265335714D01*
X341371430Y-265192857D01*
X341300001Y-265121429D01*
X341157144Y-265050000D01*
X340871430Y-265050000D01*
X340728572Y-265121429D01*
X340657144Y-265192857D01*
X340585715Y-265335714D01*
D10*
D11*
X311800000Y-260900000D02*
X419800000Y-260900000D01*
D10*
D12*
X399014286Y-263178571D02*
X398514286Y-262464286D01*
X398157143Y-263178571D02*
X398157143Y-261678571D01*
X398728571Y-261678571D01*
X398871429Y-261750000D01*
X398942857Y-261821429D01*
X399014286Y-261964286D01*
X399014286Y-262178571D01*
X398942857Y-262321429D01*
X398871429Y-262392857D01*
X398728571Y-262464286D01*
X398157143Y-262464286D01*
X400228571Y-263107143D02*
X400085714Y-263178571D01*
X399800000Y-263178571D01*
X399657143Y-263107143D01*
X399585714Y-262964286D01*
X399585714Y-262392857D01*
X399657143Y-262250000D01*
X399800000Y-262178571D01*
X400085714Y-262178571D01*
X400228571Y-262250000D01*
X400300000Y-262392857D01*
X400300000Y-262535714D01*
X399585714Y-262678571D01*
X400800000Y-262178571D02*
X401157143Y-263178571D01*
X401514285Y-262178571D01*
X402085714Y-263035714D02*
X402157142Y-263107143D01*
X402085714Y-263178571D01*
X402014285Y-263107143D01*
X402085714Y-263035714D01*
X402085714Y-263178571D01*
X402085714Y-262250000D02*
X402157142Y-262321429D01*
X402085714Y-262392857D01*
X402014285Y-262321429D01*
X402085714Y-262250000D01*
X402085714Y-262392857D01*
D10*
D11*
X313085714Y-263107143D02*
X313300000Y-263178571D01*
X313657143Y-263178571D01*
X313800000Y-263107143D01*
X313871429Y-263035714D01*
X313942857Y-262892857D01*
X313942857Y-262750000D01*
X313871429Y-262607143D01*
X313800000Y-262535714D01*
X313657143Y-262464286D01*
X313371429Y-262392857D01*
X313228571Y-262321429D01*
X313157143Y-262250000D01*
X313085714Y-262107143D01*
X313085714Y-261964286D01*
X313157143Y-261821429D01*
X313228571Y-261750000D01*
X313371429Y-261678571D01*
X313728571Y-261678571D01*
X313942857Y-261750000D01*
X314585714Y-263178571D02*
X314585714Y-262178571D01*
X314585714Y-261678571D02*
X314514285Y-261750000D01*
X314585714Y-261821429D01*
X314657142Y-261750000D01*
X314585714Y-261678571D01*
X314585714Y-261821429D01*
X315157143Y-262178571D02*
X315942857Y-262178571D01*
X315157143Y-263178571D01*
X315942857Y-263178571D01*
X317085714Y-263107143D02*
X316942857Y-263178571D01*
X316657143Y-263178571D01*
X316514286Y-263107143D01*
X316442857Y-262964286D01*
X316442857Y-262392857D01*
X316514286Y-262250000D01*
X316657143Y-262178571D01*
X316942857Y-262178571D01*
X317085714Y-262250000D01*
X317157143Y-262392857D01*
X317157143Y-262535714D01*
X316442857Y-262678571D01*
X317800000Y-263035714D02*
X317871428Y-263107143D01*
X317800000Y-263178571D01*
X317728571Y-263107143D01*
X317800000Y-263035714D01*
X317800000Y-263178571D01*
X317800000Y-262250000D02*
X317871428Y-262321429D01*
X317800000Y-262392857D01*
X317728571Y-262321429D01*
X317800000Y-262250000D01*
X317800000Y-262392857D01*
X320157143Y-262392857D02*
X320371429Y-262464286D01*
X320442857Y-262535714D01*
X320514286Y-262678571D01*
X320514286Y-262892857D01*
X320442857Y-263035714D01*
X320371429Y-263107143D01*
X320228571Y-263178571D01*
X319657143Y-263178571D01*
X319657143Y-261678571D01*
X320157143Y-261678571D01*
X320300000Y-261750000D01*
X320371429Y-261821429D01*
X320442857Y-261964286D01*
X320442857Y-262107143D01*
X320371429Y-262250000D01*
X320300000Y-262321429D01*
X320157143Y-262392857D01*
X319657143Y-262392857D01*
D10*
D11*
X398157143Y-265978571D02*
X398157143Y-264478571D01*
X399514286Y-265978571D02*
X399514286Y-264478571D01*
X399514286Y-265907143D02*
X399371429Y-265978571D01*
X399085715Y-265978571D01*
X398942857Y-265907143D01*
X398871429Y-265835714D01*
X398800000Y-265692857D01*
X398800000Y-265264286D01*
X398871429Y-265121429D01*
X398942857Y-265050000D01*
X399085715Y-264978571D01*
X399371429Y-264978571D01*
X399514286Y-265050000D01*
X400228572Y-265835714D02*
X400300000Y-265907143D01*
X400228572Y-265978571D01*
X400157143Y-265907143D01*
X400228572Y-265835714D01*
X400228572Y-265978571D01*
X400228572Y-265050000D02*
X400300000Y-265121429D01*
X400228572Y-265192857D01*
X400157143Y-265121429D01*
X400228572Y-265050000D01*
X400228572Y-265192857D01*
X402871429Y-265978571D02*
X402014286Y-265978571D01*
X402442858Y-265978571D02*
X402442858Y-264478571D01*
X402300001Y-264692857D01*
X402157143Y-264835714D01*
X402014286Y-264907143D01*
X404585714Y-264407143D02*
X403300000Y-266335714D01*
X405871429Y-265978571D02*
X405014286Y-265978571D01*
X405442858Y-265978571D02*
X405442858Y-264478571D01*
X405300001Y-264692857D01*
X405157143Y-264835714D01*
X405014286Y-264907143D01*
D10*
D11*
X311800000Y-256900000D02*
X419800000Y-256900000D01*
D10*
D13*
X313252381Y-257604762D02*
X314395238Y-257604762D01*
X313573810Y-259604762D02*
X313823810Y-257604762D01*
X314811905Y-259604762D02*
X314978571Y-258271429D01*
X315061905Y-257604762D02*
X314954762Y-257700000D01*
X315038095Y-257795238D01*
X315145239Y-257700000D01*
X315061905Y-257604762D01*
X315038095Y-257795238D01*
X315645238Y-258271429D02*
X316407143Y-258271429D01*
X316014286Y-257604762D02*
X315800000Y-259319048D01*
X315871430Y-259509524D01*
X316050001Y-259604762D01*
X316240477Y-259604762D01*
X317192858Y-259604762D02*
X317014287Y-259509524D01*
X316942857Y-259319048D01*
X317157143Y-257604762D01*
X318728572Y-259509524D02*
X318526191Y-259604762D01*
X318145239Y-259604762D01*
X317966667Y-259509524D01*
X317895238Y-259319048D01*
X317990476Y-258557143D01*
X318109524Y-258366667D01*
X318311905Y-258271429D01*
X318692857Y-258271429D01*
X318871429Y-258366667D01*
X318942857Y-258557143D01*
X318919048Y-258747619D01*
X317942857Y-258938095D01*
X319692857Y-259414286D02*
X319776192Y-259509524D01*
X319669048Y-259604762D01*
X319585715Y-259509524D01*
X319692857Y-259414286D01*
X319669048Y-259604762D01*
X319823810Y-258366667D02*
X319907144Y-258461905D01*
X319800000Y-258557143D01*
X319716667Y-258461905D01*
X319823810Y-258366667D01*
X319800000Y-258557143D01*
D10*
D11*
X313657143Y-254992857D02*
X313157143Y-254992857D01*
X313157143Y-255778571D02*
X313157143Y-254278571D01*
X313871429Y-254278571D01*
X314442857Y-255778571D02*
X314442857Y-254778571D01*
X314442857Y-254278571D02*
X314371428Y-254350000D01*
X314442857Y-254421429D01*
X314514285Y-254350000D01*
X314442857Y-254278571D01*
X314442857Y-254421429D01*
X315371429Y-255778571D02*
X315228571Y-255707143D01*
X315157143Y-255564286D01*
X315157143Y-254278571D01*
X316514285Y-255707143D02*
X316371428Y-255778571D01*
X316085714Y-255778571D01*
X315942857Y-255707143D01*
X315871428Y-255564286D01*
X315871428Y-254992857D01*
X315942857Y-254850000D01*
X316085714Y-254778571D01*
X316371428Y-254778571D01*
X316514285Y-254850000D01*
X316585714Y-254992857D01*
X316585714Y-255135714D01*
X315871428Y-255278571D01*
X317228571Y-255635714D02*
X317299999Y-255707143D01*
X317228571Y-255778571D01*
X317157142Y-255707143D01*
X317228571Y-255635714D01*
X317228571Y-255778571D01*
X317228571Y-254850000D02*
X317299999Y-254921429D01*
X317228571Y-254992857D01*
X317157142Y-254921429D01*
X317228571Y-254850000D01*
X317228571Y-254992857D01*
X319371428Y-254278571D02*
X319657142Y-254278571D01*
X319800000Y-254350000D01*
X319942857Y-254492857D01*
X320014285Y-254778571D01*
X320014285Y-255278571D01*
X319942857Y-255564286D01*
X319800000Y-255707143D01*
X319657142Y-255778571D01*
X319371428Y-255778571D01*
X319228571Y-255707143D01*
X319085714Y-255564286D01*
X319014285Y-255278571D01*
X319014285Y-254778571D01*
X319085714Y-254492857D01*
X319228571Y-254350000D01*
X319371428Y-254278571D01*
X320442857Y-254278571D02*
X320942857Y-255778571D01*
X321442857Y-254278571D01*
X321942857Y-254992857D02*
X322442857Y-254992857D01*
X322657143Y-255778571D02*
X321942857Y-255778571D01*
X321942857Y-254278571D01*
X322657143Y-254278571D01*
X323300000Y-255778571D02*
X323300000Y-254278571D01*
X324157143Y-255778571D01*
X324157143Y-254278571D01*
X324514286Y-255921429D02*
X325657143Y-255921429D01*
X325942857Y-255707143D02*
X326157143Y-255778571D01*
X326514286Y-255778571D01*
X326657143Y-255707143D01*
X326728572Y-255635714D01*
X326800000Y-255492857D01*
X326800000Y-255350000D01*
X326728572Y-255207143D01*
X326657143Y-255135714D01*
X326514286Y-255064286D01*
X326228572Y-254992857D01*
X326085714Y-254921429D01*
X326014286Y-254850000D01*
X325942857Y-254707143D01*
X325942857Y-254564286D01*
X326014286Y-254421429D01*
X326085714Y-254350000D01*
X326228572Y-254278571D01*
X326585714Y-254278571D01*
X326800000Y-254350000D01*
X327300000Y-254278571D02*
X327657143Y-255778571D01*
X327942857Y-254707143D01*
X328228571Y-255778571D01*
X328585714Y-254278571D01*
X329157143Y-255778571D02*
X329157143Y-254278571D01*
X329657143Y-254278571D02*
X330514286Y-254278571D01*
X330085715Y-255778571D02*
X330085715Y-254278571D01*
X331871429Y-255635714D02*
X331800000Y-255707143D01*
X331585714Y-255778571D01*
X331442857Y-255778571D01*
X331228572Y-255707143D01*
X331085714Y-255564286D01*
X331014286Y-255421429D01*
X330942857Y-255135714D01*
X330942857Y-254921429D01*
X331014286Y-254635714D01*
X331085714Y-254492857D01*
X331228572Y-254350000D01*
X331442857Y-254278571D01*
X331585714Y-254278571D01*
X331800000Y-254350000D01*
X331871429Y-254421429D01*
X332514286Y-255778571D02*
X332514286Y-254278571D01*
X332514286Y-254992857D02*
X333371429Y-254992857D01*
X333371429Y-255778571D02*
X333371429Y-254278571D01*
X334085715Y-255635714D02*
X334157143Y-255707143D01*
X334085715Y-255778571D01*
X334014286Y-255707143D01*
X334085715Y-255635714D01*
X334085715Y-255778571D01*
X334800001Y-255778571D02*
X334800001Y-254278571D01*
X334942858Y-255207143D02*
X335371429Y-255778571D01*
X335371429Y-254778571D02*
X334800001Y-255350000D01*
X336014287Y-255778571D02*
X336014287Y-254778571D01*
X336014287Y-254278571D02*
X335942858Y-254350000D01*
X336014287Y-254421429D01*
X336085715Y-254350000D01*
X336014287Y-254278571D01*
X336014287Y-254421429D01*
X337371430Y-255707143D02*
X337228573Y-255778571D01*
X336942859Y-255778571D01*
X336800001Y-255707143D01*
X336728573Y-255635714D01*
X336657144Y-255492857D01*
X336657144Y-255064286D01*
X336728573Y-254921429D01*
X336800001Y-254850000D01*
X336942859Y-254778571D01*
X337228573Y-254778571D01*
X337371430Y-254850000D01*
X338657144Y-255778571D02*
X338657144Y-254992857D01*
X338585715Y-254850000D01*
X338442858Y-254778571D01*
X338157144Y-254778571D01*
X338014287Y-254850000D01*
X338657144Y-255707143D02*
X338514287Y-255778571D01*
X338157144Y-255778571D01*
X338014287Y-255707143D01*
X337942858Y-255564286D01*
X337942858Y-255421429D01*
X338014287Y-255278571D01*
X338157144Y-255207143D01*
X338514287Y-255207143D01*
X338657144Y-255135714D01*
X340014287Y-255778571D02*
X340014287Y-254278571D01*
X340014287Y-255707143D02*
X339871430Y-255778571D01*
X339585716Y-255778571D01*
X339442858Y-255707143D01*
X339371430Y-255635714D01*
X339300001Y-255492857D01*
X339300001Y-255064286D01*
X339371430Y-254921429D01*
X339442858Y-254850000D01*
X339585716Y-254778571D01*
X339871430Y-254778571D01*
X340014287Y-254850000D01*
X340371430Y-255921429D02*
X341514287Y-255921429D01*
X341871430Y-254778571D02*
X341871430Y-256278571D01*
X341871430Y-254850000D02*
X342014287Y-254778571D01*
X342300001Y-254778571D01*
X342442858Y-254850000D01*
X342514287Y-254921429D01*
X342585716Y-255064286D01*
X342585716Y-255492857D01*
X342514287Y-255635714D01*
X342442858Y-255707143D01*
X342300001Y-255778571D01*
X342014287Y-255778571D01*
X341871430Y-255707143D01*
X343871430Y-255707143D02*
X343728573Y-255778571D01*
X343442859Y-255778571D01*
X343300001Y-255707143D01*
X343228573Y-255635714D01*
X343157144Y-255492857D01*
X343157144Y-255064286D01*
X343228573Y-254921429D01*
X343300001Y-254850000D01*
X343442859Y-254778571D01*
X343728573Y-254778571D01*
X343871430Y-254850000D01*
X344514287Y-255778571D02*
X344514287Y-254278571D01*
X344514287Y-254850000D02*
X344657144Y-254778571D01*
X344942858Y-254778571D01*
X345085715Y-254850000D01*
X345157144Y-254921429D01*
X345228573Y-255064286D01*
X345228573Y-255492857D01*
X345157144Y-255635714D01*
X345085715Y-255707143D01*
X344942858Y-255778571D01*
X344657144Y-255778571D01*
X344514287Y-255707143D01*
D10*
D11*
X311800000Y-250900000D02*
X419800000Y-250900000D01*
D10*
D11*
X313085714Y-253007143D02*
X313300000Y-253078571D01*
X313657143Y-253078571D01*
X313800000Y-253007143D01*
X313871429Y-252935714D01*
X313942857Y-252792857D01*
X313942857Y-252650000D01*
X313871429Y-252507143D01*
X313800000Y-252435714D01*
X313657143Y-252364286D01*
X313371429Y-252292857D01*
X313228571Y-252221429D01*
X313157143Y-252150000D01*
X313085714Y-252007143D01*
X313085714Y-251864286D01*
X313157143Y-251721429D01*
X313228571Y-251650000D01*
X313371429Y-251578571D01*
X313728571Y-251578571D01*
X313942857Y-251650000D01*
X314585714Y-253078571D02*
X314585714Y-251578571D01*
X315228571Y-253078571D02*
X315228571Y-252292857D01*
X315157142Y-252150000D01*
X315014285Y-252078571D01*
X314800000Y-252078571D01*
X314657142Y-252150000D01*
X314585714Y-252221429D01*
X316514285Y-253007143D02*
X316371428Y-253078571D01*
X316085714Y-253078571D01*
X315942857Y-253007143D01*
X315871428Y-252864286D01*
X315871428Y-252292857D01*
X315942857Y-252150000D01*
X316085714Y-252078571D01*
X316371428Y-252078571D01*
X316514285Y-252150000D01*
X316585714Y-252292857D01*
X316585714Y-252435714D01*
X315871428Y-252578571D01*
X317799999Y-253007143D02*
X317657142Y-253078571D01*
X317371428Y-253078571D01*
X317228571Y-253007143D01*
X317157142Y-252864286D01*
X317157142Y-252292857D01*
X317228571Y-252150000D01*
X317371428Y-252078571D01*
X317657142Y-252078571D01*
X317799999Y-252150000D01*
X317871428Y-252292857D01*
X317871428Y-252435714D01*
X317157142Y-252578571D01*
X318299999Y-252078571D02*
X318871428Y-252078571D01*
X318514285Y-251578571D02*
X318514285Y-252864286D01*
X318585713Y-253007143D01*
X318728571Y-253078571D01*
X318871428Y-253078571D01*
X319371428Y-252935714D02*
X319442856Y-253007143D01*
X319371428Y-253078571D01*
X319299999Y-253007143D01*
X319371428Y-252935714D01*
X319371428Y-253078571D01*
X319371428Y-252150000D02*
X319442856Y-252221429D01*
X319371428Y-252292857D01*
X319299999Y-252221429D01*
X319371428Y-252150000D01*
X319371428Y-252292857D01*
D10*
D11*
X331800000Y-260900000D02*
X331800000Y-263900000D01*
D10*
D11*
X395800000Y-260900000D02*
X395800000Y-267400000D01*
D14*
X30090000Y-64524000D02*
X396122000Y-64524000D01*
X307990000Y-73202000D02*
X307990000Y-110002000D01*
X370990000Y-73202000D02*
X307990000Y-73202000D01*
X370990000Y-110002000D02*
X370990000Y-73202000D01*
X307990000Y-110002000D02*
X370990000Y-110002000D01*
X36490000Y-109934000D02*
X36490000Y-72534000D01*
X237090000Y-109934000D02*
X36490000Y-109934000D01*
X237090000Y-72534000D02*
X237090000Y-109934000D01*
X36490000Y-72534000D02*
X237090000Y-72534000D01*
X30090000Y-154024000D02*
X41122000Y-154024000D01*
X30090000Y-154024000D02*
X30090000Y-64524000D01*
X396122000Y-154024000D02*
X41122000Y-154024000D01*
X396122000Y-64524000D02*
X396122000Y-154024000D01*
D15*
X291890000Y-68188000D02*
X289290000Y-68188000D01*
X289290000Y-68188000D02*
X289290000Y-70808000D01*
X289290000Y-70808000D02*
X291890000Y-70808000D01*
X291890000Y-70808000D02*
X291890000Y-68188000D01*
X290940000Y-70808000D02*
X290180000Y-70808000D01*
X290180000Y-70808000D02*
X290180000Y-76808000D01*
X290180000Y-76808000D02*
X290940000Y-76808000D01*
X290940000Y-76808000D02*
X290940000Y-70808000D01*
X290940000Y-67758000D02*
X290940000Y-68188000D01*
X290180000Y-67758000D02*
X290180000Y-68188000D01*
X290820000Y-70808000D02*
X290820000Y-76808000D01*
X290700000Y-70808000D02*
X290700000Y-76808000D01*
X290580000Y-70808000D02*
X290580000Y-76808000D01*
X290460000Y-70808000D02*
X290460000Y-76808000D01*
X290340000Y-70808000D02*
X290340000Y-76808000D01*
X290220000Y-70808000D02*
X290220000Y-76808000D01*
X289290000Y-68188000D02*
X286750000Y-68188000D01*
X286750000Y-68188000D02*
X286750000Y-70808000D01*
X286750000Y-70808000D02*
X289290000Y-70808000D01*
X289290000Y-70808000D02*
X289290000Y-68188000D01*
X288400000Y-70808000D02*
X287640000Y-70808000D01*
X287640000Y-70808000D02*
X287640000Y-76808000D01*
X287640000Y-76808000D02*
X288400000Y-76808000D01*
X288400000Y-76808000D02*
X288400000Y-70808000D01*
X288400000Y-67758000D02*
X288400000Y-68188000D01*
X287640000Y-67758000D02*
X287640000Y-68188000D01*
X286750000Y-68188000D02*
X284210000Y-68188000D01*
X284210000Y-68188000D02*
X284210000Y-70808000D01*
X284210000Y-70808000D02*
X286750000Y-70808000D01*
X286750000Y-70808000D02*
X286750000Y-68188000D01*
X285860000Y-70808000D02*
X285100000Y-70808000D01*
X285100000Y-70808000D02*
X285100000Y-76808000D01*
X285100000Y-76808000D02*
X285860000Y-76808000D01*
X285860000Y-76808000D02*
X285860000Y-70808000D01*
X285860000Y-67758000D02*
X285860000Y-68188000D01*
X285100000Y-67758000D02*
X285100000Y-68188000D01*
X284210000Y-68188000D02*
X281670000Y-68188000D01*
X281670000Y-68188000D02*
X281670000Y-70808000D01*
X281670000Y-70808000D02*
X284210000Y-70808000D01*
X284210000Y-70808000D02*
X284210000Y-68188000D01*
X283320000Y-70808000D02*
X282560000Y-70808000D01*
X282560000Y-70808000D02*
X282560000Y-76808000D01*
X282560000Y-76808000D02*
X283320000Y-76808000D01*
X283320000Y-76808000D02*
X283320000Y-70808000D01*
X283320000Y-67758000D02*
X283320000Y-68188000D01*
X282560000Y-67758000D02*
X282560000Y-68188000D01*
X281670000Y-68188000D02*
X279130000Y-68188000D01*
X279130000Y-68188000D02*
X279130000Y-70808000D01*
X279130000Y-70808000D02*
X281670000Y-70808000D01*
X281670000Y-70808000D02*
X281670000Y-68188000D01*
X280780000Y-70808000D02*
X280020000Y-70808000D01*
X280020000Y-70808000D02*
X280020000Y-76808000D01*
X280020000Y-76808000D02*
X280780000Y-76808000D01*
X280780000Y-76808000D02*
X280780000Y-70808000D01*
X280780000Y-67758000D02*
X280780000Y-68188000D01*
X280020000Y-67758000D02*
X280020000Y-68188000D01*
X279130000Y-68188000D02*
X276590000Y-68188000D01*
X276590000Y-68188000D02*
X276590000Y-70808000D01*
X276590000Y-70808000D02*
X279130000Y-70808000D01*
X279130000Y-70808000D02*
X279130000Y-68188000D01*
X278240000Y-70808000D02*
X277480000Y-70808000D01*
X277480000Y-70808000D02*
X277480000Y-76808000D01*
X277480000Y-76808000D02*
X278240000Y-76808000D01*
X278240000Y-76808000D02*
X278240000Y-70808000D01*
X278240000Y-67758000D02*
X278240000Y-68188000D01*
X277480000Y-67758000D02*
X277480000Y-68188000D01*
X276590000Y-68188000D02*
X274050000Y-68188000D01*
X274050000Y-68188000D02*
X274050000Y-70808000D01*
X274050000Y-70808000D02*
X276590000Y-70808000D01*
X276590000Y-70808000D02*
X276590000Y-68188000D01*
X275700000Y-70808000D02*
X274940000Y-70808000D01*
X274940000Y-70808000D02*
X274940000Y-76808000D01*
X274940000Y-76808000D02*
X275700000Y-76808000D01*
X275700000Y-76808000D02*
X275700000Y-70808000D01*
X275700000Y-67758000D02*
X275700000Y-68188000D01*
X274940000Y-67758000D02*
X274940000Y-68188000D01*
X274050000Y-68188000D02*
X271510000Y-68188000D01*
X271510000Y-68188000D02*
X271510000Y-70808000D01*
X271510000Y-70808000D02*
X274050000Y-70808000D01*
X274050000Y-70808000D02*
X274050000Y-68188000D01*
X273160000Y-70808000D02*
X272400000Y-70808000D01*
X272400000Y-70808000D02*
X272400000Y-76808000D01*
X272400000Y-76808000D02*
X273160000Y-76808000D01*
X273160000Y-76808000D02*
X273160000Y-70808000D01*
X273160000Y-67758000D02*
X273160000Y-68188000D01*
X272400000Y-67758000D02*
X272400000Y-68188000D01*
X271510000Y-68188000D02*
X268970000Y-68188000D01*
X268970000Y-68188000D02*
X268970000Y-70808000D01*
X268970000Y-70808000D02*
X271510000Y-70808000D01*
X271510000Y-70808000D02*
X271510000Y-68188000D01*
X270620000Y-70808000D02*
X269860000Y-70808000D01*
X269860000Y-70808000D02*
X269860000Y-76808000D01*
X269860000Y-76808000D02*
X270620000Y-76808000D01*
X270620000Y-76808000D02*
X270620000Y-70808000D01*
X270620000Y-67758000D02*
X270620000Y-68188000D01*
X269860000Y-67758000D02*
X269860000Y-68188000D01*
X268970000Y-68188000D02*
X266430000Y-68188000D01*
X266430000Y-68188000D02*
X266430000Y-70808000D01*
X266430000Y-70808000D02*
X268970000Y-70808000D01*
X268970000Y-70808000D02*
X268970000Y-68188000D01*
X268080000Y-70808000D02*
X267320000Y-70808000D01*
X267320000Y-70808000D02*
X267320000Y-76808000D01*
X267320000Y-76808000D02*
X268080000Y-76808000D01*
X268080000Y-76808000D02*
X268080000Y-70808000D01*
X268080000Y-67758000D02*
X268080000Y-68188000D01*
X267320000Y-67758000D02*
X267320000Y-68188000D01*
X266430000Y-68188000D02*
X263890000Y-68188000D01*
X263890000Y-68188000D02*
X263890000Y-70808000D01*
X263890000Y-70808000D02*
X266430000Y-70808000D01*
X266430000Y-70808000D02*
X266430000Y-68188000D01*
X265540000Y-70808000D02*
X264780000Y-70808000D01*
X264780000Y-70808000D02*
X264780000Y-76808000D01*
X264780000Y-76808000D02*
X265540000Y-76808000D01*
X265540000Y-76808000D02*
X265540000Y-70808000D01*
X265540000Y-67758000D02*
X265540000Y-68188000D01*
X264780000Y-67758000D02*
X264780000Y-68188000D01*
X263890000Y-68188000D02*
X261350000Y-68188000D01*
X261350000Y-68188000D02*
X261350000Y-70808000D01*
X261350000Y-70808000D02*
X263890000Y-70808000D01*
X263890000Y-70808000D02*
X263890000Y-68188000D01*
X263000000Y-70808000D02*
X262240000Y-70808000D01*
X262240000Y-70808000D02*
X262240000Y-76808000D01*
X262240000Y-76808000D02*
X263000000Y-76808000D01*
X263000000Y-76808000D02*
X263000000Y-70808000D01*
X263000000Y-67758000D02*
X263000000Y-68188000D01*
X262240000Y-67758000D02*
X262240000Y-68188000D01*
X261350000Y-68188000D02*
X258810000Y-68188000D01*
X258810000Y-68188000D02*
X258810000Y-70808000D01*
X258810000Y-70808000D02*
X261350000Y-70808000D01*
X261350000Y-70808000D02*
X261350000Y-68188000D01*
X260460000Y-70808000D02*
X259700000Y-70808000D01*
X259700000Y-70808000D02*
X259700000Y-76808000D01*
X259700000Y-76808000D02*
X260460000Y-76808000D01*
X260460000Y-76808000D02*
X260460000Y-70808000D01*
X260460000Y-67758000D02*
X260460000Y-68188000D01*
X259700000Y-67758000D02*
X259700000Y-68188000D01*
X258810000Y-68188000D02*
X256270000Y-68188000D01*
X256270000Y-68188000D02*
X256270000Y-70808000D01*
X256270000Y-70808000D02*
X258810000Y-70808000D01*
X258810000Y-70808000D02*
X258810000Y-68188000D01*
X257920000Y-70808000D02*
X257160000Y-70808000D01*
X257160000Y-70808000D02*
X257160000Y-76808000D01*
X257160000Y-76808000D02*
X257920000Y-76808000D01*
X257920000Y-76808000D02*
X257920000Y-70808000D01*
X257920000Y-67758000D02*
X257920000Y-68188000D01*
X257160000Y-67758000D02*
X257160000Y-68188000D01*
X256270000Y-68188000D02*
X253730000Y-68188000D01*
X253730000Y-68188000D02*
X253730000Y-70808000D01*
X253730000Y-70808000D02*
X256270000Y-70808000D01*
X256270000Y-70808000D02*
X256270000Y-68188000D01*
X255380000Y-70808000D02*
X254620000Y-70808000D01*
X254620000Y-70808000D02*
X254620000Y-76808000D01*
X254620000Y-76808000D02*
X255380000Y-76808000D01*
X255380000Y-76808000D02*
X255380000Y-70808000D01*
X255380000Y-67758000D02*
X255380000Y-68188000D01*
X254620000Y-67758000D02*
X254620000Y-68188000D01*
X253730000Y-68188000D02*
X251190000Y-68188000D01*
X251190000Y-68188000D02*
X251190000Y-70808000D01*
X251190000Y-70808000D02*
X253730000Y-70808000D01*
X253730000Y-70808000D02*
X253730000Y-68188000D01*
X252840000Y-70808000D02*
X252080000Y-70808000D01*
X252080000Y-70808000D02*
X252080000Y-76808000D01*
X252080000Y-76808000D02*
X252840000Y-76808000D01*
X252840000Y-76808000D02*
X252840000Y-70808000D01*
X252840000Y-67758000D02*
X252840000Y-68188000D01*
X252080000Y-67758000D02*
X252080000Y-68188000D01*
X251190000Y-68188000D02*
X248590000Y-68188000D01*
X248590000Y-68188000D02*
X248590000Y-70808000D01*
X248590000Y-70808000D02*
X251190000Y-70808000D01*
X251190000Y-70808000D02*
X251190000Y-68188000D01*
X250300000Y-70808000D02*
X249540000Y-70808000D01*
X249540000Y-70808000D02*
X249540000Y-76808000D01*
X249540000Y-76808000D02*
X250300000Y-76808000D01*
X250300000Y-76808000D02*
X250300000Y-70808000D01*
X250300000Y-67758000D02*
X250300000Y-68188000D01*
X249540000Y-67758000D02*
X249540000Y-68188000D01*
X290560000Y-65578000D02*
X291830000Y-65578000D01*
X291830000Y-65578000D02*
X291830000Y-66848000D01*
D11*
X292282381Y-71496333D02*
X292996667Y-71496333D01*
X293139524Y-71543953D01*
X293234762Y-71639191D01*
X293282381Y-71782048D01*
X293282381Y-71877286D01*
X293282381Y-70496333D02*
X293282381Y-71067762D01*
X293282381Y-70782048D02*
X292282381Y-70782048D01*
X292425238Y-70877286D01*
X292520476Y-70972524D01*
X292568095Y-71067762D01*
X49320667Y-145590762D02*
X49463524Y-145638381D01*
X49701620Y-145638381D01*
X49796858Y-145590762D01*
X49844477Y-145543143D01*
X49892096Y-145447905D01*
X49892096Y-145352667D01*
X49844477Y-145257429D01*
X49796858Y-145209810D01*
X49701620Y-145162190D01*
X49511143Y-145114571D01*
X49415905Y-145066952D01*
X49368286Y-145019333D01*
X49320667Y-144924095D01*
X49320667Y-144828857D01*
X49368286Y-144733619D01*
X49415905Y-144686000D01*
X49511143Y-144638381D01*
X49749239Y-144638381D01*
X49892096Y-144686000D01*
X50225429Y-144638381D02*
X50463524Y-145638381D01*
X50654001Y-144924095D01*
X50844477Y-145638381D01*
X51082572Y-144638381D01*
X51987334Y-145638381D02*
X51415905Y-145638381D01*
X51701619Y-145638381D02*
X51701619Y-144638381D01*
X51606381Y-144781238D01*
X51511143Y-144876476D01*
X51415905Y-144924095D01*
X49320667Y-130590762D02*
X49463524Y-130638381D01*
X49701620Y-130638381D01*
X49796858Y-130590762D01*
X49844477Y-130543143D01*
X49892096Y-130447905D01*
X49892096Y-130352667D01*
X49844477Y-130257429D01*
X49796858Y-130209810D01*
X49701620Y-130162190D01*
X49511143Y-130114571D01*
X49415905Y-130066952D01*
X49368286Y-130019333D01*
X49320667Y-129924095D01*
X49320667Y-129828857D01*
X49368286Y-129733619D01*
X49415905Y-129686000D01*
X49511143Y-129638381D01*
X49749239Y-129638381D01*
X49892096Y-129686000D01*
X50225429Y-129638381D02*
X50463524Y-130638381D01*
X50654001Y-129924095D01*
X50844477Y-130638381D01*
X51082572Y-129638381D01*
X51415905Y-129733619D02*
X51463524Y-129686000D01*
X51558762Y-129638381D01*
X51796858Y-129638381D01*
X51892096Y-129686000D01*
X51939715Y-129733619D01*
X51987334Y-129828857D01*
X51987334Y-129924095D01*
X51939715Y-130066952D01*
X51368286Y-130638381D01*
X51987334Y-130638381D01*
X79320667Y-145590762D02*
X79463524Y-145638381D01*
X79701620Y-145638381D01*
X79796858Y-145590762D01*
X79844477Y-145543143D01*
X79892096Y-145447905D01*
X79892096Y-145352667D01*
X79844477Y-145257429D01*
X79796858Y-145209810D01*
X79701620Y-145162190D01*
X79511143Y-145114571D01*
X79415905Y-145066952D01*
X79368286Y-145019333D01*
X79320667Y-144924095D01*
X79320667Y-144828857D01*
X79368286Y-144733619D01*
X79415905Y-144686000D01*
X79511143Y-144638381D01*
X79749239Y-144638381D01*
X79892096Y-144686000D01*
X80225429Y-144638381D02*
X80463524Y-145638381D01*
X80654001Y-144924095D01*
X80844477Y-145638381D01*
X81082572Y-144638381D01*
X81368286Y-144638381D02*
X81987334Y-144638381D01*
X81654000Y-145019333D01*
X81796858Y-145019333D01*
X81892096Y-145066952D01*
X81939715Y-145114571D01*
X81987334Y-145209810D01*
X81987334Y-145447905D01*
X81939715Y-145543143D01*
X81892096Y-145590762D01*
X81796858Y-145638381D01*
X81511143Y-145638381D01*
X81415905Y-145590762D01*
X81368286Y-145543143D01*
X79320667Y-130590762D02*
X79463524Y-130638381D01*
X79701620Y-130638381D01*
X79796858Y-130590762D01*
X79844477Y-130543143D01*
X79892096Y-130447905D01*
X79892096Y-130352667D01*
X79844477Y-130257429D01*
X79796858Y-130209810D01*
X79701620Y-130162190D01*
X79511143Y-130114571D01*
X79415905Y-130066952D01*
X79368286Y-130019333D01*
X79320667Y-129924095D01*
X79320667Y-129828857D01*
X79368286Y-129733619D01*
X79415905Y-129686000D01*
X79511143Y-129638381D01*
X79749239Y-129638381D01*
X79892096Y-129686000D01*
X80225429Y-129638381D02*
X80463524Y-130638381D01*
X80654001Y-129924095D01*
X80844477Y-130638381D01*
X81082572Y-129638381D01*
X81892096Y-129971714D02*
X81892096Y-130638381D01*
X81654000Y-129590762D02*
X81415905Y-130305048D01*
X82034953Y-130305048D01*
X100320667Y-130590762D02*
X100463524Y-130638381D01*
X100701620Y-130638381D01*
X100796858Y-130590762D01*
X100844477Y-130543143D01*
X100892096Y-130447905D01*
X100892096Y-130352667D01*
X100844477Y-130257429D01*
X100796858Y-130209810D01*
X100701620Y-130162190D01*
X100511143Y-130114571D01*
X100415905Y-130066952D01*
X100368286Y-130019333D01*
X100320667Y-129924095D01*
X100320667Y-129828857D01*
X100368286Y-129733619D01*
X100415905Y-129686000D01*
X100511143Y-129638381D01*
X100749239Y-129638381D01*
X100892096Y-129686000D01*
X101225429Y-129638381D02*
X101463524Y-130638381D01*
X101654001Y-129924095D01*
X101844477Y-130638381D01*
X102082572Y-129638381D01*
X102939715Y-129638381D02*
X102463524Y-129638381D01*
X102415905Y-130114571D01*
X102463524Y-130066952D01*
X102558762Y-130019333D01*
X102796858Y-130019333D01*
X102892096Y-130066952D01*
X102939715Y-130114571D01*
X102987334Y-130209810D01*
X102987334Y-130447905D01*
X102939715Y-130543143D01*
X102892096Y-130590762D01*
X102796858Y-130638381D01*
X102558762Y-130638381D01*
X102463524Y-130590762D01*
X102415905Y-130543143D01*
X100320667Y-145590762D02*
X100463524Y-145638381D01*
X100701620Y-145638381D01*
X100796858Y-145590762D01*
X100844477Y-145543143D01*
X100892096Y-145447905D01*
X100892096Y-145352667D01*
X100844477Y-145257429D01*
X100796858Y-145209810D01*
X100701620Y-145162190D01*
X100511143Y-145114571D01*
X100415905Y-145066952D01*
X100368286Y-145019333D01*
X100320667Y-144924095D01*
X100320667Y-144828857D01*
X100368286Y-144733619D01*
X100415905Y-144686000D01*
X100511143Y-144638381D01*
X100749239Y-144638381D01*
X100892096Y-144686000D01*
X101225429Y-144638381D02*
X101463524Y-145638381D01*
X101654001Y-144924095D01*
X101844477Y-145638381D01*
X102082572Y-144638381D01*
X102892096Y-144638381D02*
X102701619Y-144638381D01*
X102606381Y-144686000D01*
X102558762Y-144733619D01*
X102463524Y-144876476D01*
X102415905Y-145066952D01*
X102415905Y-145447905D01*
X102463524Y-145543143D01*
X102511143Y-145590762D01*
X102606381Y-145638381D01*
X102796858Y-145638381D01*
X102892096Y-145590762D01*
X102939715Y-145543143D01*
X102987334Y-145447905D01*
X102987334Y-145209810D01*
X102939715Y-145114571D01*
X102892096Y-145066952D01*
X102796858Y-145019333D01*
X102606381Y-145019333D01*
X102511143Y-145066952D01*
X102463524Y-145114571D01*
X102415905Y-145209810D01*
X121320667Y-130590762D02*
X121463524Y-130638381D01*
X121701620Y-130638381D01*
X121796858Y-130590762D01*
X121844477Y-130543143D01*
X121892096Y-130447905D01*
X121892096Y-130352667D01*
X121844477Y-130257429D01*
X121796858Y-130209810D01*
X121701620Y-130162190D01*
X121511143Y-130114571D01*
X121415905Y-130066952D01*
X121368286Y-130019333D01*
X121320667Y-129924095D01*
X121320667Y-129828857D01*
X121368286Y-129733619D01*
X121415905Y-129686000D01*
X121511143Y-129638381D01*
X121749239Y-129638381D01*
X121892096Y-129686000D01*
X122225429Y-129638381D02*
X122463524Y-130638381D01*
X122654001Y-129924095D01*
X122844477Y-130638381D01*
X123082572Y-129638381D01*
X123368286Y-129638381D02*
X124034953Y-129638381D01*
X123606381Y-130638381D01*
X121320667Y-145590762D02*
X121463524Y-145638381D01*
X121701620Y-145638381D01*
X121796858Y-145590762D01*
X121844477Y-145543143D01*
X121892096Y-145447905D01*
X121892096Y-145352667D01*
X121844477Y-145257429D01*
X121796858Y-145209810D01*
X121701620Y-145162190D01*
X121511143Y-145114571D01*
X121415905Y-145066952D01*
X121368286Y-145019333D01*
X121320667Y-144924095D01*
X121320667Y-144828857D01*
X121368286Y-144733619D01*
X121415905Y-144686000D01*
X121511143Y-144638381D01*
X121749239Y-144638381D01*
X121892096Y-144686000D01*
X122225429Y-144638381D02*
X122463524Y-145638381D01*
X122654001Y-144924095D01*
X122844477Y-145638381D01*
X123082572Y-144638381D01*
X123606381Y-145066952D02*
X123511143Y-145019333D01*
X123463524Y-144971714D01*
X123415905Y-144876476D01*
X123415905Y-144828857D01*
X123463524Y-144733619D01*
X123511143Y-144686000D01*
X123606381Y-144638381D01*
X123796858Y-144638381D01*
X123892096Y-144686000D01*
X123939715Y-144733619D01*
X123987334Y-144828857D01*
X123987334Y-144876476D01*
X123939715Y-144971714D01*
X123892096Y-145019333D01*
X123796858Y-145066952D01*
X123606381Y-145066952D01*
X123511143Y-145114571D01*
X123463524Y-145162190D01*
X123415905Y-145257429D01*
X123415905Y-145447905D01*
X123463524Y-145543143D01*
X123511143Y-145590762D01*
X123606381Y-145638381D01*
X123796858Y-145638381D01*
X123892096Y-145590762D01*
X123939715Y-145543143D01*
X123987334Y-145447905D01*
X123987334Y-145257429D01*
X123939715Y-145162190D01*
X123892096Y-145114571D01*
X123796858Y-145066952D01*
X149320667Y-138090762D02*
X149463524Y-138138381D01*
X149701620Y-138138381D01*
X149796858Y-138090762D01*
X149844477Y-138043143D01*
X149892096Y-137947905D01*
X149892096Y-137852667D01*
X149844477Y-137757429D01*
X149796858Y-137709810D01*
X149701620Y-137662190D01*
X149511143Y-137614571D01*
X149415905Y-137566952D01*
X149368286Y-137519333D01*
X149320667Y-137424095D01*
X149320667Y-137328857D01*
X149368286Y-137233619D01*
X149415905Y-137186000D01*
X149511143Y-137138381D01*
X149749239Y-137138381D01*
X149892096Y-137186000D01*
X150225429Y-137138381D02*
X150463524Y-138138381D01*
X150654001Y-137424095D01*
X150844477Y-138138381D01*
X151082572Y-137138381D01*
X151511143Y-138138381D02*
X151701619Y-138138381D01*
X151796858Y-138090762D01*
X151844477Y-138043143D01*
X151939715Y-137900286D01*
X151987334Y-137709810D01*
X151987334Y-137328857D01*
X151939715Y-137233619D01*
X151892096Y-137186000D01*
X151796858Y-137138381D01*
X151606381Y-137138381D01*
X151511143Y-137186000D01*
X151463524Y-137233619D01*
X151415905Y-137328857D01*
X151415905Y-137566952D01*
X151463524Y-137662190D01*
X151511143Y-137709810D01*
X151606381Y-137757429D01*
X151796858Y-137757429D01*
X151892096Y-137709810D01*
X151939715Y-137662190D01*
X151987334Y-137566952D01*
X168844476Y-138090762D02*
X168987333Y-138138381D01*
X169225429Y-138138381D01*
X169320667Y-138090762D01*
X169368286Y-138043143D01*
X169415905Y-137947905D01*
X169415905Y-137852667D01*
X169368286Y-137757429D01*
X169320667Y-137709810D01*
X169225429Y-137662190D01*
X169034952Y-137614571D01*
X168939714Y-137566952D01*
X168892095Y-137519333D01*
X168844476Y-137424095D01*
X168844476Y-137328857D01*
X168892095Y-137233619D01*
X168939714Y-137186000D01*
X169034952Y-137138381D01*
X169273048Y-137138381D01*
X169415905Y-137186000D01*
X169749238Y-137138381D02*
X169987333Y-138138381D01*
X170177810Y-137424095D01*
X170368286Y-138138381D01*
X170606381Y-137138381D01*
X171511143Y-138138381D02*
X170939714Y-138138381D01*
X171225428Y-138138381D02*
X171225428Y-137138381D01*
X171130190Y-137281238D01*
X171034952Y-137376476D01*
X170939714Y-137424095D01*
X172130190Y-137138381D02*
X172225429Y-137138381D01*
X172320667Y-137186000D01*
X172368286Y-137233619D01*
X172415905Y-137328857D01*
X172463524Y-137519333D01*
X172463524Y-137757429D01*
X172415905Y-137947905D01*
X172368286Y-138043143D01*
X172320667Y-138090762D01*
X172225429Y-138138381D01*
X172130190Y-138138381D01*
X172034952Y-138090762D01*
X171987333Y-138043143D01*
X171939714Y-137947905D01*
X171892095Y-137757429D01*
X171892095Y-137519333D01*
X171939714Y-137328857D01*
X171987333Y-137233619D01*
X172034952Y-137186000D01*
X172130190Y-137138381D01*
X191844476Y-138090762D02*
X191987333Y-138138381D01*
X192225429Y-138138381D01*
X192320667Y-138090762D01*
X192368286Y-138043143D01*
X192415905Y-137947905D01*
X192415905Y-137852667D01*
X192368286Y-137757429D01*
X192320667Y-137709810D01*
X192225429Y-137662190D01*
X192034952Y-137614571D01*
X191939714Y-137566952D01*
X191892095Y-137519333D01*
X191844476Y-137424095D01*
X191844476Y-137328857D01*
X191892095Y-137233619D01*
X191939714Y-137186000D01*
X192034952Y-137138381D01*
X192273048Y-137138381D01*
X192415905Y-137186000D01*
X192749238Y-137138381D02*
X192987333Y-138138381D01*
X193177810Y-137424095D01*
X193368286Y-138138381D01*
X193606381Y-137138381D01*
X194511143Y-138138381D02*
X193939714Y-138138381D01*
X194225428Y-138138381D02*
X194225428Y-137138381D01*
X194130190Y-137281238D01*
X194034952Y-137376476D01*
X193939714Y-137424095D01*
X195463524Y-138138381D02*
X194892095Y-138138381D01*
X195177809Y-138138381D02*
X195177809Y-137138381D01*
X195082571Y-137281238D01*
X194987333Y-137376476D01*
X194892095Y-137424095D01*
X221844476Y-130590762D02*
X221987333Y-130638381D01*
X222225429Y-130638381D01*
X222320667Y-130590762D01*
X222368286Y-130543143D01*
X222415905Y-130447905D01*
X222415905Y-130352667D01*
X222368286Y-130257429D01*
X222320667Y-130209810D01*
X222225429Y-130162190D01*
X222034952Y-130114571D01*
X221939714Y-130066952D01*
X221892095Y-130019333D01*
X221844476Y-129924095D01*
X221844476Y-129828857D01*
X221892095Y-129733619D01*
X221939714Y-129686000D01*
X222034952Y-129638381D01*
X222273048Y-129638381D01*
X222415905Y-129686000D01*
X222749238Y-129638381D02*
X222987333Y-130638381D01*
X223177810Y-129924095D01*
X223368286Y-130638381D01*
X223606381Y-129638381D01*
X224511143Y-130638381D02*
X223939714Y-130638381D01*
X224225428Y-130638381D02*
X224225428Y-129638381D01*
X224130190Y-129781238D01*
X224034952Y-129876476D01*
X223939714Y-129924095D01*
X224892095Y-129733619D02*
X224939714Y-129686000D01*
X225034952Y-129638381D01*
X225273048Y-129638381D01*
X225368286Y-129686000D01*
X225415905Y-129733619D01*
X225463524Y-129828857D01*
X225463524Y-129924095D01*
X225415905Y-130066952D01*
X224844476Y-130638381D01*
X225463524Y-130638381D01*
X221844476Y-146590762D02*
X221987333Y-146638381D01*
X222225429Y-146638381D01*
X222320667Y-146590762D01*
X222368286Y-146543143D01*
X222415905Y-146447905D01*
X222415905Y-146352667D01*
X222368286Y-146257429D01*
X222320667Y-146209810D01*
X222225429Y-146162190D01*
X222034952Y-146114571D01*
X221939714Y-146066952D01*
X221892095Y-146019333D01*
X221844476Y-145924095D01*
X221844476Y-145828857D01*
X221892095Y-145733619D01*
X221939714Y-145686000D01*
X222034952Y-145638381D01*
X222273048Y-145638381D01*
X222415905Y-145686000D01*
X222749238Y-145638381D02*
X222987333Y-146638381D01*
X223177810Y-145924095D01*
X223368286Y-146638381D01*
X223606381Y-145638381D01*
X224511143Y-146638381D02*
X223939714Y-146638381D01*
X224225428Y-146638381D02*
X224225428Y-145638381D01*
X224130190Y-145781238D01*
X224034952Y-145876476D01*
X223939714Y-145924095D01*
X224844476Y-145638381D02*
X225463524Y-145638381D01*
X225130190Y-146019333D01*
X225273048Y-146019333D01*
X225368286Y-146066952D01*
X225415905Y-146114571D01*
X225463524Y-146209810D01*
X225463524Y-146447905D01*
X225415905Y-146543143D01*
X225368286Y-146590762D01*
X225273048Y-146638381D01*
X224987333Y-146638381D01*
X224892095Y-146590762D01*
X224844476Y-146543143D01*
X251844476Y-144090762D02*
X251987333Y-144138381D01*
X252225429Y-144138381D01*
X252320667Y-144090762D01*
X252368286Y-144043143D01*
X252415905Y-143947905D01*
X252415905Y-143852667D01*
X252368286Y-143757429D01*
X252320667Y-143709810D01*
X252225429Y-143662190D01*
X252034952Y-143614571D01*
X251939714Y-143566952D01*
X251892095Y-143519333D01*
X251844476Y-143424095D01*
X251844476Y-143328857D01*
X251892095Y-143233619D01*
X251939714Y-143186000D01*
X252034952Y-143138381D01*
X252273048Y-143138381D01*
X252415905Y-143186000D01*
X252749238Y-143138381D02*
X252987333Y-144138381D01*
X253177810Y-143424095D01*
X253368286Y-144138381D01*
X253606381Y-143138381D01*
X254511143Y-144138381D02*
X253939714Y-144138381D01*
X254225428Y-144138381D02*
X254225428Y-143138381D01*
X254130190Y-143281238D01*
X254034952Y-143376476D01*
X253939714Y-143424095D01*
X255368286Y-143471714D02*
X255368286Y-144138381D01*
X255130190Y-143090762D02*
X254892095Y-143805048D01*
X255511143Y-143805048D01*
X251844476Y-126590762D02*
X251987333Y-126638381D01*
X252225429Y-126638381D01*
X252320667Y-126590762D01*
X252368286Y-126543143D01*
X252415905Y-126447905D01*
X252415905Y-126352667D01*
X252368286Y-126257429D01*
X252320667Y-126209810D01*
X252225429Y-126162190D01*
X252034952Y-126114571D01*
X251939714Y-126066952D01*
X251892095Y-126019333D01*
X251844476Y-125924095D01*
X251844476Y-125828857D01*
X251892095Y-125733619D01*
X251939714Y-125686000D01*
X252034952Y-125638381D01*
X252273048Y-125638381D01*
X252415905Y-125686000D01*
X252749238Y-125638381D02*
X252987333Y-126638381D01*
X253177810Y-125924095D01*
X253368286Y-126638381D01*
X253606381Y-125638381D01*
X254511143Y-126638381D02*
X253939714Y-126638381D01*
X254225428Y-126638381D02*
X254225428Y-125638381D01*
X254130190Y-125781238D01*
X254034952Y-125876476D01*
X253939714Y-125924095D01*
X255415905Y-125638381D02*
X254939714Y-125638381D01*
X254892095Y-126114571D01*
X254939714Y-126066952D01*
X255034952Y-126019333D01*
X255273048Y-126019333D01*
X255368286Y-126066952D01*
X255415905Y-126114571D01*
X255463524Y-126209810D01*
X255463524Y-126447905D01*
X255415905Y-126543143D01*
X255368286Y-126590762D01*
X255273048Y-126638381D01*
X255034952Y-126638381D01*
X254939714Y-126590762D01*
X254892095Y-126543143D01*
X251824476Y-109220762D02*
X251967333Y-109268381D01*
X252205429Y-109268381D01*
X252300667Y-109220762D01*
X252348286Y-109173143D01*
X252395905Y-109077905D01*
X252395905Y-108982667D01*
X252348286Y-108887429D01*
X252300667Y-108839810D01*
X252205429Y-108792190D01*
X252014952Y-108744571D01*
X251919714Y-108696952D01*
X251872095Y-108649333D01*
X251824476Y-108554095D01*
X251824476Y-108458857D01*
X251872095Y-108363619D01*
X251919714Y-108316000D01*
X252014952Y-108268381D01*
X252253048Y-108268381D01*
X252395905Y-108316000D01*
X252729238Y-108268381D02*
X252967333Y-109268381D01*
X253157810Y-108554095D01*
X253348286Y-109268381D01*
X253586381Y-108268381D01*
X254491143Y-109268381D02*
X253919714Y-109268381D01*
X254205428Y-109268381D02*
X254205428Y-108268381D01*
X254110190Y-108411238D01*
X254014952Y-108506476D01*
X253919714Y-108554095D01*
X255348286Y-108268381D02*
X255157809Y-108268381D01*
X255062571Y-108316000D01*
X255014952Y-108363619D01*
X254919714Y-108506476D01*
X254872095Y-108696952D01*
X254872095Y-109077905D01*
X254919714Y-109173143D01*
X254967333Y-109220762D01*
X255062571Y-109268381D01*
X255253048Y-109268381D01*
X255348286Y-109220762D01*
X255395905Y-109173143D01*
X255443524Y-109077905D01*
X255443524Y-108839810D01*
X255395905Y-108744571D01*
X255348286Y-108696952D01*
X255253048Y-108649333D01*
X255062571Y-108649333D01*
X254967333Y-108696952D01*
X254919714Y-108744571D01*
X254872095Y-108839810D01*
X251824476Y-91720762D02*
X251967333Y-91768381D01*
X252205429Y-91768381D01*
X252300667Y-91720762D01*
X252348286Y-91673143D01*
X252395905Y-91577905D01*
X252395905Y-91482667D01*
X252348286Y-91387429D01*
X252300667Y-91339810D01*
X252205429Y-91292190D01*
X252014952Y-91244571D01*
X251919714Y-91196952D01*
X251872095Y-91149333D01*
X251824476Y-91054095D01*
X251824476Y-90958857D01*
X251872095Y-90863619D01*
X251919714Y-90816000D01*
X252014952Y-90768381D01*
X252253048Y-90768381D01*
X252395905Y-90816000D01*
X252729238Y-90768381D02*
X252967333Y-91768381D01*
X253157810Y-91054095D01*
X253348286Y-91768381D01*
X253586381Y-90768381D01*
X254491143Y-91768381D02*
X253919714Y-91768381D01*
X254205428Y-91768381D02*
X254205428Y-90768381D01*
X254110190Y-90911238D01*
X254014952Y-91006476D01*
X253919714Y-91054095D01*
X254824476Y-90768381D02*
X255491143Y-90768381D01*
X255062571Y-91768381D01*
X271844476Y-144090762D02*
X271987333Y-144138381D01*
X272225429Y-144138381D01*
X272320667Y-144090762D01*
X272368286Y-144043143D01*
X272415905Y-143947905D01*
X272415905Y-143852667D01*
X272368286Y-143757429D01*
X272320667Y-143709810D01*
X272225429Y-143662190D01*
X272034952Y-143614571D01*
X271939714Y-143566952D01*
X271892095Y-143519333D01*
X271844476Y-143424095D01*
X271844476Y-143328857D01*
X271892095Y-143233619D01*
X271939714Y-143186000D01*
X272034952Y-143138381D01*
X272273048Y-143138381D01*
X272415905Y-143186000D01*
X272749238Y-143138381D02*
X272987333Y-144138381D01*
X273177810Y-143424095D01*
X273368286Y-144138381D01*
X273606381Y-143138381D01*
X274511143Y-144138381D02*
X273939714Y-144138381D01*
X274225428Y-144138381D02*
X274225428Y-143138381D01*
X274130190Y-143281238D01*
X274034952Y-143376476D01*
X273939714Y-143424095D01*
X275082571Y-143566952D02*
X274987333Y-143519333D01*
X274939714Y-143471714D01*
X274892095Y-143376476D01*
X274892095Y-143328857D01*
X274939714Y-143233619D01*
X274987333Y-143186000D01*
X275082571Y-143138381D01*
X275273048Y-143138381D01*
X275368286Y-143186000D01*
X275415905Y-143233619D01*
X275463524Y-143328857D01*
X275463524Y-143376476D01*
X275415905Y-143471714D01*
X275368286Y-143519333D01*
X275273048Y-143566952D01*
X275082571Y-143566952D01*
X274987333Y-143614571D01*
X274939714Y-143662190D01*
X274892095Y-143757429D01*
X274892095Y-143947905D01*
X274939714Y-144043143D01*
X274987333Y-144090762D01*
X275082571Y-144138381D01*
X275273048Y-144138381D01*
X275368286Y-144090762D01*
X275415905Y-144043143D01*
X275463524Y-143947905D01*
X275463524Y-143757429D01*
X275415905Y-143662190D01*
X275368286Y-143614571D01*
X275273048Y-143566952D01*
X271844476Y-126590762D02*
X271987333Y-126638381D01*
X272225429Y-126638381D01*
X272320667Y-126590762D01*
X272368286Y-126543143D01*
X272415905Y-126447905D01*
X272415905Y-126352667D01*
X272368286Y-126257429D01*
X272320667Y-126209810D01*
X272225429Y-126162190D01*
X272034952Y-126114571D01*
X271939714Y-126066952D01*
X271892095Y-126019333D01*
X271844476Y-125924095D01*
X271844476Y-125828857D01*
X271892095Y-125733619D01*
X271939714Y-125686000D01*
X272034952Y-125638381D01*
X272273048Y-125638381D01*
X272415905Y-125686000D01*
X272749238Y-125638381D02*
X272987333Y-126638381D01*
X273177810Y-125924095D01*
X273368286Y-126638381D01*
X273606381Y-125638381D01*
X274511143Y-126638381D02*
X273939714Y-126638381D01*
X274225428Y-126638381D02*
X274225428Y-125638381D01*
X274130190Y-125781238D01*
X274034952Y-125876476D01*
X273939714Y-125924095D01*
X274987333Y-126638381D02*
X275177809Y-126638381D01*
X275273048Y-126590762D01*
X275320667Y-126543143D01*
X275415905Y-126400286D01*
X275463524Y-126209810D01*
X275463524Y-125828857D01*
X275415905Y-125733619D01*
X275368286Y-125686000D01*
X275273048Y-125638381D01*
X275082571Y-125638381D01*
X274987333Y-125686000D01*
X274939714Y-125733619D01*
X274892095Y-125828857D01*
X274892095Y-126066952D01*
X274939714Y-126162190D01*
X274987333Y-126209810D01*
X275082571Y-126257429D01*
X275273048Y-126257429D01*
X275368286Y-126209810D01*
X275415905Y-126162190D01*
X275463524Y-126066952D01*
X271844476Y-109090762D02*
X271987333Y-109138381D01*
X272225429Y-109138381D01*
X272320667Y-109090762D01*
X272368286Y-109043143D01*
X272415905Y-108947905D01*
X272415905Y-108852667D01*
X272368286Y-108757429D01*
X272320667Y-108709810D01*
X272225429Y-108662190D01*
X272034952Y-108614571D01*
X271939714Y-108566952D01*
X271892095Y-108519333D01*
X271844476Y-108424095D01*
X271844476Y-108328857D01*
X271892095Y-108233619D01*
X271939714Y-108186000D01*
X272034952Y-108138381D01*
X272273048Y-108138381D01*
X272415905Y-108186000D01*
X272749238Y-108138381D02*
X272987333Y-109138381D01*
X273177810Y-108424095D01*
X273368286Y-109138381D01*
X273606381Y-108138381D01*
X273939714Y-108233619D02*
X273987333Y-108186000D01*
X274082571Y-108138381D01*
X274320667Y-108138381D01*
X274415905Y-108186000D01*
X274463524Y-108233619D01*
X274511143Y-108328857D01*
X274511143Y-108424095D01*
X274463524Y-108566952D01*
X273892095Y-109138381D01*
X274511143Y-109138381D01*
X275130190Y-108138381D02*
X275225429Y-108138381D01*
X275320667Y-108186000D01*
X275368286Y-108233619D01*
X275415905Y-108328857D01*
X275463524Y-108519333D01*
X275463524Y-108757429D01*
X275415905Y-108947905D01*
X275368286Y-109043143D01*
X275320667Y-109090762D01*
X275225429Y-109138381D01*
X275130190Y-109138381D01*
X275034952Y-109090762D01*
X274987333Y-109043143D01*
X274939714Y-108947905D01*
X274892095Y-108757429D01*
X274892095Y-108519333D01*
X274939714Y-108328857D01*
X274987333Y-108233619D01*
X275034952Y-108186000D01*
X275130190Y-108138381D01*
X271844476Y-91590762D02*
X271987333Y-91638381D01*
X272225429Y-91638381D01*
X272320667Y-91590762D01*
X272368286Y-91543143D01*
X272415905Y-91447905D01*
X272415905Y-91352667D01*
X272368286Y-91257429D01*
X272320667Y-91209810D01*
X272225429Y-91162190D01*
X272034952Y-91114571D01*
X271939714Y-91066952D01*
X271892095Y-91019333D01*
X271844476Y-90924095D01*
X271844476Y-90828857D01*
X271892095Y-90733619D01*
X271939714Y-90686000D01*
X272034952Y-90638381D01*
X272273048Y-90638381D01*
X272415905Y-90686000D01*
X272749238Y-90638381D02*
X272987333Y-91638381D01*
X273177810Y-90924095D01*
X273368286Y-91638381D01*
X273606381Y-90638381D01*
X273939714Y-90733619D02*
X273987333Y-90686000D01*
X274082571Y-90638381D01*
X274320667Y-90638381D01*
X274415905Y-90686000D01*
X274463524Y-90733619D01*
X274511143Y-90828857D01*
X274511143Y-90924095D01*
X274463524Y-91066952D01*
X273892095Y-91638381D01*
X274511143Y-91638381D01*
X275463524Y-91638381D02*
X274892095Y-91638381D01*
X275177809Y-91638381D02*
X275177809Y-90638381D01*
X275082571Y-90781238D01*
X274987333Y-90876476D01*
X274892095Y-90924095D01*
X291844476Y-109090762D02*
X291987333Y-109138381D01*
X292225429Y-109138381D01*
X292320667Y-109090762D01*
X292368286Y-109043143D01*
X292415905Y-108947905D01*
X292415905Y-108852667D01*
X292368286Y-108757429D01*
X292320667Y-108709810D01*
X292225429Y-108662190D01*
X292034952Y-108614571D01*
X291939714Y-108566952D01*
X291892095Y-108519333D01*
X291844476Y-108424095D01*
X291844476Y-108328857D01*
X291892095Y-108233619D01*
X291939714Y-108186000D01*
X292034952Y-108138381D01*
X292273048Y-108138381D01*
X292415905Y-108186000D01*
X292749238Y-108138381D02*
X292987333Y-109138381D01*
X293177810Y-108424095D01*
X293368286Y-109138381D01*
X293606381Y-108138381D01*
X293939714Y-108233619D02*
X293987333Y-108186000D01*
X294082571Y-108138381D01*
X294320667Y-108138381D01*
X294415905Y-108186000D01*
X294463524Y-108233619D01*
X294511143Y-108328857D01*
X294511143Y-108424095D01*
X294463524Y-108566952D01*
X293892095Y-109138381D01*
X294511143Y-109138381D01*
X294892095Y-108233619D02*
X294939714Y-108186000D01*
X295034952Y-108138381D01*
X295273048Y-108138381D01*
X295368286Y-108186000D01*
X295415905Y-108233619D01*
X295463524Y-108328857D01*
X295463524Y-108424095D01*
X295415905Y-108566952D01*
X294844476Y-109138381D01*
X295463524Y-109138381D01*
X291844476Y-144090762D02*
X291987333Y-144138381D01*
X292225429Y-144138381D01*
X292320667Y-144090762D01*
X292368286Y-144043143D01*
X292415905Y-143947905D01*
X292415905Y-143852667D01*
X292368286Y-143757429D01*
X292320667Y-143709810D01*
X292225429Y-143662190D01*
X292034952Y-143614571D01*
X291939714Y-143566952D01*
X291892095Y-143519333D01*
X291844476Y-143424095D01*
X291844476Y-143328857D01*
X291892095Y-143233619D01*
X291939714Y-143186000D01*
X292034952Y-143138381D01*
X292273048Y-143138381D01*
X292415905Y-143186000D01*
X292749238Y-143138381D02*
X292987333Y-144138381D01*
X293177810Y-143424095D01*
X293368286Y-144138381D01*
X293606381Y-143138381D01*
X293939714Y-143233619D02*
X293987333Y-143186000D01*
X294082571Y-143138381D01*
X294320667Y-143138381D01*
X294415905Y-143186000D01*
X294463524Y-143233619D01*
X294511143Y-143328857D01*
X294511143Y-143424095D01*
X294463524Y-143566952D01*
X293892095Y-144138381D01*
X294511143Y-144138381D01*
X294844476Y-143138381D02*
X295463524Y-143138381D01*
X295130190Y-143519333D01*
X295273048Y-143519333D01*
X295368286Y-143566952D01*
X295415905Y-143614571D01*
X295463524Y-143709810D01*
X295463524Y-143947905D01*
X295415905Y-144043143D01*
X295368286Y-144090762D01*
X295273048Y-144138381D01*
X294987333Y-144138381D01*
X294892095Y-144090762D01*
X294844476Y-144043143D01*
X291844476Y-126590762D02*
X291987333Y-126638381D01*
X292225429Y-126638381D01*
X292320667Y-126590762D01*
X292368286Y-126543143D01*
X292415905Y-126447905D01*
X292415905Y-126352667D01*
X292368286Y-126257429D01*
X292320667Y-126209810D01*
X292225429Y-126162190D01*
X292034952Y-126114571D01*
X291939714Y-126066952D01*
X291892095Y-126019333D01*
X291844476Y-125924095D01*
X291844476Y-125828857D01*
X291892095Y-125733619D01*
X291939714Y-125686000D01*
X292034952Y-125638381D01*
X292273048Y-125638381D01*
X292415905Y-125686000D01*
X292749238Y-125638381D02*
X292987333Y-126638381D01*
X293177810Y-125924095D01*
X293368286Y-126638381D01*
X293606381Y-125638381D01*
X293939714Y-125733619D02*
X293987333Y-125686000D01*
X294082571Y-125638381D01*
X294320667Y-125638381D01*
X294415905Y-125686000D01*
X294463524Y-125733619D01*
X294511143Y-125828857D01*
X294511143Y-125924095D01*
X294463524Y-126066952D01*
X293892095Y-126638381D01*
X294511143Y-126638381D01*
X295368286Y-125971714D02*
X295368286Y-126638381D01*
X295130190Y-125590762D02*
X294892095Y-126305048D01*
X295511143Y-126305048D01*
X291844476Y-91590762D02*
X291987333Y-91638381D01*
X292225429Y-91638381D01*
X292320667Y-91590762D01*
X292368286Y-91543143D01*
X292415905Y-91447905D01*
X292415905Y-91352667D01*
X292368286Y-91257429D01*
X292320667Y-91209810D01*
X292225429Y-91162190D01*
X292034952Y-91114571D01*
X291939714Y-91066952D01*
X291892095Y-91019333D01*
X291844476Y-90924095D01*
X291844476Y-90828857D01*
X291892095Y-90733619D01*
X291939714Y-90686000D01*
X292034952Y-90638381D01*
X292273048Y-90638381D01*
X292415905Y-90686000D01*
X292749238Y-90638381D02*
X292987333Y-91638381D01*
X293177810Y-90924095D01*
X293368286Y-91638381D01*
X293606381Y-90638381D01*
X293939714Y-90733619D02*
X293987333Y-90686000D01*
X294082571Y-90638381D01*
X294320667Y-90638381D01*
X294415905Y-90686000D01*
X294463524Y-90733619D01*
X294511143Y-90828857D01*
X294511143Y-90924095D01*
X294463524Y-91066952D01*
X293892095Y-91638381D01*
X294511143Y-91638381D01*
X295415905Y-90638381D02*
X294939714Y-90638381D01*
X294892095Y-91114571D01*
X294939714Y-91066952D01*
X295034952Y-91019333D01*
X295273048Y-91019333D01*
X295368286Y-91066952D01*
X295415905Y-91114571D01*
X295463524Y-91209810D01*
X295463524Y-91447905D01*
X295415905Y-91543143D01*
X295368286Y-91590762D01*
X295273048Y-91638381D01*
X295034952Y-91638381D01*
X294939714Y-91590762D01*
X294892095Y-91543143D01*
X324844476Y-146590762D02*
X324987333Y-146638381D01*
X325225429Y-146638381D01*
X325320667Y-146590762D01*
X325368286Y-146543143D01*
X325415905Y-146447905D01*
X325415905Y-146352667D01*
X325368286Y-146257429D01*
X325320667Y-146209810D01*
X325225429Y-146162190D01*
X325034952Y-146114571D01*
X324939714Y-146066952D01*
X324892095Y-146019333D01*
X324844476Y-145924095D01*
X324844476Y-145828857D01*
X324892095Y-145733619D01*
X324939714Y-145686000D01*
X325034952Y-145638381D01*
X325273048Y-145638381D01*
X325415905Y-145686000D01*
X325749238Y-145638381D02*
X325987333Y-146638381D01*
X326177810Y-145924095D01*
X326368286Y-146638381D01*
X326606381Y-145638381D01*
X326939714Y-145733619D02*
X326987333Y-145686000D01*
X327082571Y-145638381D01*
X327320667Y-145638381D01*
X327415905Y-145686000D01*
X327463524Y-145733619D01*
X327511143Y-145828857D01*
X327511143Y-145924095D01*
X327463524Y-146066952D01*
X326892095Y-146638381D01*
X327511143Y-146638381D01*
X328368286Y-145638381D02*
X328177809Y-145638381D01*
X328082571Y-145686000D01*
X328034952Y-145733619D01*
X327939714Y-145876476D01*
X327892095Y-146066952D01*
X327892095Y-146447905D01*
X327939714Y-146543143D01*
X327987333Y-146590762D01*
X328082571Y-146638381D01*
X328273048Y-146638381D01*
X328368286Y-146590762D01*
X328415905Y-146543143D01*
X328463524Y-146447905D01*
X328463524Y-146209810D01*
X328415905Y-146114571D01*
X328368286Y-146066952D01*
X328273048Y-146019333D01*
X328082571Y-146019333D01*
X327987333Y-146066952D01*
X327939714Y-146114571D01*
X327892095Y-146209810D01*
X347344476Y-146590762D02*
X347487333Y-146638381D01*
X347725429Y-146638381D01*
X347820667Y-146590762D01*
X347868286Y-146543143D01*
X347915905Y-146447905D01*
X347915905Y-146352667D01*
X347868286Y-146257429D01*
X347820667Y-146209810D01*
X347725429Y-146162190D01*
X347534952Y-146114571D01*
X347439714Y-146066952D01*
X347392095Y-146019333D01*
X347344476Y-145924095D01*
X347344476Y-145828857D01*
X347392095Y-145733619D01*
X347439714Y-145686000D01*
X347534952Y-145638381D01*
X347773048Y-145638381D01*
X347915905Y-145686000D01*
X348249238Y-145638381D02*
X348487333Y-146638381D01*
X348677810Y-145924095D01*
X348868286Y-146638381D01*
X349106381Y-145638381D01*
X349439714Y-145733619D02*
X349487333Y-145686000D01*
X349582571Y-145638381D01*
X349820667Y-145638381D01*
X349915905Y-145686000D01*
X349963524Y-145733619D01*
X350011143Y-145828857D01*
X350011143Y-145924095D01*
X349963524Y-146066952D01*
X349392095Y-146638381D01*
X350011143Y-146638381D01*
X350582571Y-146066952D02*
X350487333Y-146019333D01*
X350439714Y-145971714D01*
X350392095Y-145876476D01*
X350392095Y-145828857D01*
X350439714Y-145733619D01*
X350487333Y-145686000D01*
X350582571Y-145638381D01*
X350773048Y-145638381D01*
X350868286Y-145686000D01*
X350915905Y-145733619D01*
X350963524Y-145828857D01*
X350963524Y-145876476D01*
X350915905Y-145971714D01*
X350868286Y-146019333D01*
X350773048Y-146066952D01*
X350582571Y-146066952D01*
X350487333Y-146114571D01*
X350439714Y-146162190D01*
X350392095Y-146257429D01*
X350392095Y-146447905D01*
X350439714Y-146543143D01*
X350487333Y-146590762D01*
X350582571Y-146638381D01*
X350773048Y-146638381D01*
X350868286Y-146590762D01*
X350915905Y-146543143D01*
X350963524Y-146447905D01*
X350963524Y-146257429D01*
X350915905Y-146162190D01*
X350868286Y-146114571D01*
X350773048Y-146066952D01*
X383870476Y-142488762D02*
X384013333Y-142536381D01*
X384251429Y-142536381D01*
X384346667Y-142488762D01*
X384394286Y-142441143D01*
X384441905Y-142345905D01*
X384441905Y-142250667D01*
X384394286Y-142155429D01*
X384346667Y-142107810D01*
X384251429Y-142060190D01*
X384060952Y-142012571D01*
X383965714Y-141964952D01*
X383918095Y-141917333D01*
X383870476Y-141822095D01*
X383870476Y-141726857D01*
X383918095Y-141631619D01*
X383965714Y-141584000D01*
X384060952Y-141536381D01*
X384299048Y-141536381D01*
X384441905Y-141584000D01*
X384775238Y-141536381D02*
X385013333Y-142536381D01*
X385203810Y-141822095D01*
X385394286Y-142536381D01*
X385632381Y-141536381D01*
X385965714Y-141631619D02*
X386013333Y-141584000D01*
X386108571Y-141536381D01*
X386346667Y-141536381D01*
X386441905Y-141584000D01*
X386489524Y-141631619D01*
X386537143Y-141726857D01*
X386537143Y-141822095D01*
X386489524Y-141964952D01*
X385918095Y-142536381D01*
X386537143Y-142536381D01*
X387013333Y-142536381D02*
X387203809Y-142536381D01*
X387299048Y-142488762D01*
X387346667Y-142441143D01*
X387441905Y-142298286D01*
X387489524Y-142107810D01*
X387489524Y-141726857D01*
X387441905Y-141631619D01*
X387394286Y-141584000D01*
X387299048Y-141536381D01*
X387108571Y-141536381D01*
X387013333Y-141584000D01*
X386965714Y-141631619D01*
X386918095Y-141726857D01*
X386918095Y-141964952D01*
X386965714Y-142060190D01*
X387013333Y-142107810D01*
X387108571Y-142155429D01*
X387299048Y-142155429D01*
X387394286Y-142107810D01*
X387441905Y-142060190D01*
X387489524Y-141964952D01*
X383344476Y-124590762D02*
X383487333Y-124638381D01*
X383725429Y-124638381D01*
X383820667Y-124590762D01*
X383868286Y-124543143D01*
X383915905Y-124447905D01*
X383915905Y-124352667D01*
X383868286Y-124257429D01*
X383820667Y-124209810D01*
X383725429Y-124162190D01*
X383534952Y-124114571D01*
X383439714Y-124066952D01*
X383392095Y-124019333D01*
X383344476Y-123924095D01*
X383344476Y-123828857D01*
X383392095Y-123733619D01*
X383439714Y-123686000D01*
X383534952Y-123638381D01*
X383773048Y-123638381D01*
X383915905Y-123686000D01*
X384249238Y-123638381D02*
X384487333Y-124638381D01*
X384677810Y-123924095D01*
X384868286Y-124638381D01*
X385106381Y-123638381D01*
X385392095Y-123638381D02*
X386011143Y-123638381D01*
X385677809Y-124019333D01*
X385820667Y-124019333D01*
X385915905Y-124066952D01*
X385963524Y-124114571D01*
X386011143Y-124209810D01*
X386011143Y-124447905D01*
X385963524Y-124543143D01*
X385915905Y-124590762D01*
X385820667Y-124638381D01*
X385534952Y-124638381D01*
X385439714Y-124590762D01*
X385392095Y-124543143D01*
X386630190Y-123638381D02*
X386725429Y-123638381D01*
X386820667Y-123686000D01*
X386868286Y-123733619D01*
X386915905Y-123828857D01*
X386963524Y-124019333D01*
X386963524Y-124257429D01*
X386915905Y-124447905D01*
X386868286Y-124543143D01*
X386820667Y-124590762D01*
X386725429Y-124638381D01*
X386630190Y-124638381D01*
X386534952Y-124590762D01*
X386487333Y-124543143D01*
X386439714Y-124447905D01*
X386392095Y-124257429D01*
X386392095Y-124019333D01*
X386439714Y-123828857D01*
X386487333Y-123733619D01*
X386534952Y-123686000D01*
X386630190Y-123638381D01*
X383344476Y-89590762D02*
X383487333Y-89638381D01*
X383725429Y-89638381D01*
X383820667Y-89590762D01*
X383868286Y-89543143D01*
X383915905Y-89447905D01*
X383915905Y-89352667D01*
X383868286Y-89257429D01*
X383820667Y-89209810D01*
X383725429Y-89162190D01*
X383534952Y-89114571D01*
X383439714Y-89066952D01*
X383392095Y-89019333D01*
X383344476Y-88924095D01*
X383344476Y-88828857D01*
X383392095Y-88733619D01*
X383439714Y-88686000D01*
X383534952Y-88638381D01*
X383773048Y-88638381D01*
X383915905Y-88686000D01*
X384249238Y-88638381D02*
X384487333Y-89638381D01*
X384677810Y-88924095D01*
X384868286Y-89638381D01*
X385106381Y-88638381D01*
X385392095Y-88638381D02*
X386011143Y-88638381D01*
X385677809Y-89019333D01*
X385820667Y-89019333D01*
X385915905Y-89066952D01*
X385963524Y-89114571D01*
X386011143Y-89209810D01*
X386011143Y-89447905D01*
X385963524Y-89543143D01*
X385915905Y-89590762D01*
X385820667Y-89638381D01*
X385534952Y-89638381D01*
X385439714Y-89590762D01*
X385392095Y-89543143D01*
X386963524Y-89638381D02*
X386392095Y-89638381D01*
X386677809Y-89638381D02*
X386677809Y-88638381D01*
X386582571Y-88781238D01*
X386487333Y-88876476D01*
X386392095Y-88924095D01*
X330344476Y-133590762D02*
X330487333Y-133638381D01*
X330725429Y-133638381D01*
X330820667Y-133590762D01*
X330868286Y-133543143D01*
X330915905Y-133447905D01*
X330915905Y-133352667D01*
X330868286Y-133257429D01*
X330820667Y-133209810D01*
X330725429Y-133162190D01*
X330534952Y-133114571D01*
X330439714Y-133066952D01*
X330392095Y-133019333D01*
X330344476Y-132924095D01*
X330344476Y-132828857D01*
X330392095Y-132733619D01*
X330439714Y-132686000D01*
X330534952Y-132638381D01*
X330773048Y-132638381D01*
X330915905Y-132686000D01*
X331249238Y-132638381D02*
X331487333Y-133638381D01*
X331677810Y-132924095D01*
X331868286Y-133638381D01*
X332106381Y-132638381D01*
X332439714Y-132733619D02*
X332487333Y-132686000D01*
X332582571Y-132638381D01*
X332820667Y-132638381D01*
X332915905Y-132686000D01*
X332963524Y-132733619D01*
X333011143Y-132828857D01*
X333011143Y-132924095D01*
X332963524Y-133066952D01*
X332392095Y-133638381D01*
X333011143Y-133638381D01*
X333344476Y-132638381D02*
X334011143Y-132638381D01*
X333582571Y-133638381D01*
M02*
