<?xml version="1.0" standalone="no"?>
 <!DOCTYPE svg PUBLIC "-//W3C//DTD SVG 1.1//EN" 
 "http://www.w3.org/Graphics/SVG/1.1/DTD/svg11.dtd"> 
<svg xmlns="http://www.w3.org/2000/svg" version="1.1" 
    width="43.18cm" height="27.94cm" viewBox="0 0 170000 110000 ">
<title>SVG Picture created as OVEN_SWITCH-B.SilkS.svg date 2017/04/14 12:33:29 </title>
  <desc>Picture generated by PCBNEW </desc>
<g style="fill:#000000; fill-opacity:1;stroke:#000000; stroke-opacity:1;
stroke-linecap:round; stroke-linejoin:round; "
 transform="translate(0 0) scale(1 1)">
</g>
<g style="fill:#000000; fill-opacity:0.0; 
stroke:#000000; stroke-width:-0.000393701; stroke-opacity:1; 
stroke-linecap:round; stroke-linejoin:round;">
</g>
<g style="fill:#000000; fill-opacity:0.0; 
stroke:#000000; stroke-width:39.3701; stroke-opacity:1; 
stroke-linecap:round; stroke-linejoin:round;">
</g>
<g style="fill:#000000; fill-opacity:0.0; 
stroke:#000000; stroke-width:59.0551; stroke-opacity:1; 
stroke-linecap:round; stroke-linejoin:round;">
<rect x="122756" y="92677.2" width="42519.7" height="12598.4" rx="0" />
</g>
<g style="fill:#000000; fill-opacity:0.0; 
stroke:#000000; stroke-width:39.3701; stroke-opacity:1; 
stroke-linecap:round; stroke-linejoin:round;">
</g>
<g style="fill:#000000; fill-opacity:0.0; 
stroke:#000000; stroke-width:59.0551; stroke-opacity:1; 
stroke-linecap:round; stroke-linejoin:round;">
<rect x="3937.01" y="3937.01" width="162126" height="102126" rx="0" />
</g>
<g style="fill:#000000; fill-opacity:0.0; 
stroke:#000000; stroke-width:39.3701; stroke-opacity:1; 
stroke-linecap:round; stroke-linejoin:round;">
</g>
<g style="fill:#000000; fill-opacity:0.0; 
stroke:#000000; stroke-width:59.0551; stroke-opacity:1; 
stroke-linecap:round; stroke-linejoin:round;">
<rect x="4724.41" y="4724.41" width="160551" height="100551" rx="0" />
</g>
<g style="fill:#000000; fill-opacity:0.0; 
stroke:#000000; stroke-width:39.3701; stroke-opacity:1; 
stroke-linecap:round; stroke-linejoin:round;">
</g>
<g style="fill:#000000; fill-opacity:0.0; 
stroke:#000000; stroke-width:59.0551; stroke-opacity:1; 
stroke-linecap:round; stroke-linejoin:round;">
<path d="M23622 4724
L23622 3937
" />
</g>
<g style="fill:#000000; fill-opacity:0.0; 
stroke:#000000; stroke-width:39.3701; stroke-opacity:1; 
stroke-linecap:round; stroke-linejoin:round;">
</g>
<g style="fill:#000000; fill-opacity:0.0; 
stroke:#000000; stroke-width:59.0551; stroke-opacity:1; 
stroke-linecap:round; stroke-linejoin:round;">
<path d="M43307 4724
L43307 3937
" />
</g>
<g style="fill:#000000; fill-opacity:0.0; 
stroke:#000000; stroke-width:39.3701; stroke-opacity:1; 
stroke-linecap:round; stroke-linejoin:round;">
</g>
<g style="fill:#000000; fill-opacity:0.0; 
stroke:#000000; stroke-width:59.0551; stroke-opacity:1; 
stroke-linecap:round; stroke-linejoin:round;">
<path d="M62992 4724
L62992 3937
" />
</g>
<g style="fill:#000000; fill-opacity:0.0; 
stroke:#000000; stroke-width:39.3701; stroke-opacity:1; 
stroke-linecap:round; stroke-linejoin:round;">
</g>
<g style="fill:#000000; fill-opacity:0.0; 
stroke:#000000; stroke-width:59.0551; stroke-opacity:1; 
stroke-linecap:round; stroke-linejoin:round;">
<path d="M82677 4724
L82677 3937
" />
</g>
<g style="fill:#000000; fill-opacity:0.0; 
stroke:#000000; stroke-width:39.3701; stroke-opacity:1; 
stroke-linecap:round; stroke-linejoin:round;">
</g>
<g style="fill:#000000; fill-opacity:0.0; 
stroke:#000000; stroke-width:59.0551; stroke-opacity:1; 
stroke-linecap:round; stroke-linejoin:round;">
<path d="M102362 4724
L102362 3937
" />
</g>
<g style="fill:#000000; fill-opacity:0.0; 
stroke:#000000; stroke-width:39.3701; stroke-opacity:1; 
stroke-linecap:round; stroke-linejoin:round;">
</g>
<g style="fill:#000000; fill-opacity:0.0; 
stroke:#000000; stroke-width:59.0551; stroke-opacity:1; 
stroke-linecap:round; stroke-linejoin:round;">
<path d="M122047 4724
L122047 3937
" />
</g>
<g style="fill:#000000; fill-opacity:0.0; 
stroke:#000000; stroke-width:39.3701; stroke-opacity:1; 
stroke-linecap:round; stroke-linejoin:round;">
</g>
<g style="fill:#000000; fill-opacity:0.0; 
stroke:#000000; stroke-width:59.0551; stroke-opacity:1; 
stroke-linecap:round; stroke-linejoin:round;">
<path d="M141732 4724
L141732 3937
" />
</g>
<g style="fill:#000000; fill-opacity:0.0; 
stroke:#000000; stroke-width:39.3701; stroke-opacity:1; 
stroke-linecap:round; stroke-linejoin:round;">
</g>
<g style="fill:#000000; fill-opacity:0.0; 
stroke:#000000; stroke-width:59.0551; stroke-opacity:1; 
stroke-linecap:round; stroke-linejoin:round;">
<path d="M161417 4724
L161417 3937
" />
</g>
<g style="fill:#000000; fill-opacity:0.0; 
stroke:#000000; stroke-width:39.3701; stroke-opacity:1; 
stroke-linecap:round; stroke-linejoin:round;">
</g>
<g style="fill:#000000; fill-opacity:0.0; 
stroke:#000000; stroke-width:59.0551; stroke-opacity:1; 
stroke-linecap:round; stroke-linejoin:round;">
<path d="M14169 4562
L13877 4562
" />
<path d="M14023 4562
L14023 4050
L13974 4123
L13925 4172
L13877 4196
" />
</g>
<g style="fill:#000000; fill-opacity:0.0; 
stroke:#000000; stroke-width:39.3701; stroke-opacity:1; 
stroke-linecap:round; stroke-linejoin:round;">
</g>
<g style="fill:#000000; fill-opacity:0.0; 
stroke:#000000; stroke-width:59.0551; stroke-opacity:1; 
stroke-linecap:round; stroke-linejoin:round;">
<path d="M33562 4099
L33586 4074
L33635 4050
L33757 4050
L33805 4074
L33830 4099
L33854 4147
L33854 4196
L33830 4269
L33537 4562
L33854 4562
" />
</g>
<g style="fill:#000000; fill-opacity:0.0; 
stroke:#000000; stroke-width:39.3701; stroke-opacity:1; 
stroke-linecap:round; stroke-linejoin:round;">
</g>
<g style="fill:#000000; fill-opacity:0.0; 
stroke:#000000; stroke-width:59.0551; stroke-opacity:1; 
stroke-linecap:round; stroke-linejoin:round;">
<path d="M53222 4050
L53539 4050
L53368 4245
L53442 4245
L53490 4269
L53515 4294
L53539 4342
L53539 4464
L53515 4513
L53490 4537
L53442 4562
L53295 4562
L53247 4537
L53222 4513
" />
</g>
<g style="fill:#000000; fill-opacity:0.0; 
stroke:#000000; stroke-width:39.3701; stroke-opacity:1; 
stroke-linecap:round; stroke-linejoin:round;">
</g>
<g style="fill:#000000; fill-opacity:0.0; 
stroke:#000000; stroke-width:59.0551; stroke-opacity:1; 
stroke-linecap:round; stroke-linejoin:round;">
<path d="M73175 4221
L73175 4562
" />
<path d="M73053 4026
L72932 4391
L73248 4391
" />
</g>
<g style="fill:#000000; fill-opacity:0.0; 
stroke:#000000; stroke-width:39.3701; stroke-opacity:1; 
stroke-linecap:round; stroke-linejoin:round;">
</g>
<g style="fill:#000000; fill-opacity:0.0; 
stroke:#000000; stroke-width:59.0551; stroke-opacity:1; 
stroke-linecap:round; stroke-linejoin:round;">
<path d="M92885 4050
L92641 4050
L92617 4294
L92641 4269
L92690 4245
L92812 4245
L92860 4269
L92885 4294
L92909 4342
L92909 4464
L92885 4513
L92860 4537
L92812 4562
L92690 4562
L92641 4537
L92617 4513
" />
</g>
<g style="fill:#000000; fill-opacity:0.0; 
stroke:#000000; stroke-width:39.3701; stroke-opacity:1; 
stroke-linecap:round; stroke-linejoin:round;">
</g>
<g style="fill:#000000; fill-opacity:0.0; 
stroke:#000000; stroke-width:59.0551; stroke-opacity:1; 
stroke-linecap:round; stroke-linejoin:round;">
<path d="M112545 4050
L112448 4050
L112399 4074
L112375 4099
L112326 4172
L112302 4269
L112302 4464
L112326 4513
L112350 4537
L112399 4562
L112497 4562
L112545 4537
L112570 4513
L112594 4464
L112594 4342
L112570 4294
L112545 4269
L112497 4245
L112399 4245
L112350 4269
L112326 4294
L112302 4342
" />
</g>
<g style="fill:#000000; fill-opacity:0.0; 
stroke:#000000; stroke-width:39.3701; stroke-opacity:1; 
stroke-linecap:round; stroke-linejoin:round;">
</g>
<g style="fill:#000000; fill-opacity:0.0; 
stroke:#000000; stroke-width:59.0551; stroke-opacity:1; 
stroke-linecap:round; stroke-linejoin:round;">
<path d="M131962 4050
L132304 4050
L132084 4562
" />
</g>
<g style="fill:#000000; fill-opacity:0.0; 
stroke:#000000; stroke-width:39.3701; stroke-opacity:1; 
stroke-linecap:round; stroke-linejoin:round;">
</g>
<g style="fill:#000000; fill-opacity:0.0; 
stroke:#000000; stroke-width:59.0551; stroke-opacity:1; 
stroke-linecap:round; stroke-linejoin:round;">
<path d="M151769 4269
L151721 4245
L151696 4221
L151672 4172
L151672 4147
L151696 4099
L151721 4074
L151769 4050
L151867 4050
L151916 4074
L151940 4099
L151964 4147
L151964 4172
L151940 4221
L151916 4245
L151867 4269
L151769 4269
L151721 4294
L151696 4318
L151672 4367
L151672 4464
L151696 4513
L151721 4537
L151769 4562
L151867 4562
L151916 4537
L151940 4513
L151964 4464
L151964 4367
L151940 4318
L151916 4294
L151867 4269
" />
</g>
<g style="fill:#000000; fill-opacity:0.0; 
stroke:#000000; stroke-width:39.3701; stroke-opacity:1; 
stroke-linecap:round; stroke-linejoin:round;">
</g>
<g style="fill:#000000; fill-opacity:0.0; 
stroke:#000000; stroke-width:59.0551; stroke-opacity:1; 
stroke-linecap:round; stroke-linejoin:round;">
<path d="M23622 105275
L23622 106062
" />
</g>
<g style="fill:#000000; fill-opacity:0.0; 
stroke:#000000; stroke-width:39.3701; stroke-opacity:1; 
stroke-linecap:round; stroke-linejoin:round;">
</g>
<g style="fill:#000000; fill-opacity:0.0; 
stroke:#000000; stroke-width:59.0551; stroke-opacity:1; 
stroke-linecap:round; stroke-linejoin:round;">
<path d="M43307 105275
L43307 106062
" />
</g>
<g style="fill:#000000; fill-opacity:0.0; 
stroke:#000000; stroke-width:39.3701; stroke-opacity:1; 
stroke-linecap:round; stroke-linejoin:round;">
</g>
<g style="fill:#000000; fill-opacity:0.0; 
stroke:#000000; stroke-width:59.0551; stroke-opacity:1; 
stroke-linecap:round; stroke-linejoin:round;">
<path d="M62992 105275
L62992 106062
" />
</g>
<g style="fill:#000000; fill-opacity:0.0; 
stroke:#000000; stroke-width:39.3701; stroke-opacity:1; 
stroke-linecap:round; stroke-linejoin:round;">
</g>
<g style="fill:#000000; fill-opacity:0.0; 
stroke:#000000; stroke-width:59.0551; stroke-opacity:1; 
stroke-linecap:round; stroke-linejoin:round;">
<path d="M82677 105275
L82677 106062
" />
</g>
<g style="fill:#000000; fill-opacity:0.0; 
stroke:#000000; stroke-width:39.3701; stroke-opacity:1; 
stroke-linecap:round; stroke-linejoin:round;">
</g>
<g style="fill:#000000; fill-opacity:0.0; 
stroke:#000000; stroke-width:59.0551; stroke-opacity:1; 
stroke-linecap:round; stroke-linejoin:round;">
<path d="M102362 105275
L102362 106062
" />
</g>
<g style="fill:#000000; fill-opacity:0.0; 
stroke:#000000; stroke-width:39.3701; stroke-opacity:1; 
stroke-linecap:round; stroke-linejoin:round;">
</g>
<g style="fill:#000000; fill-opacity:0.0; 
stroke:#000000; stroke-width:59.0551; stroke-opacity:1; 
stroke-linecap:round; stroke-linejoin:round;">
<path d="M122047 105275
L122047 106062
" />
</g>
<g style="fill:#000000; fill-opacity:0.0; 
stroke:#000000; stroke-width:39.3701; stroke-opacity:1; 
stroke-linecap:round; stroke-linejoin:round;">
</g>
<g style="fill:#000000; fill-opacity:0.0; 
stroke:#000000; stroke-width:59.0551; stroke-opacity:1; 
stroke-linecap:round; stroke-linejoin:round;">
<path d="M141732 105275
L141732 106062
" />
</g>
<g style="fill:#000000; fill-opacity:0.0; 
stroke:#000000; stroke-width:39.3701; stroke-opacity:1; 
stroke-linecap:round; stroke-linejoin:round;">
</g>
<g style="fill:#000000; fill-opacity:0.0; 
stroke:#000000; stroke-width:59.0551; stroke-opacity:1; 
stroke-linecap:round; stroke-linejoin:round;">
<path d="M161417 105275
L161417 106062
" />
</g>
<g style="fill:#000000; fill-opacity:0.0; 
stroke:#000000; stroke-width:39.3701; stroke-opacity:1; 
stroke-linecap:round; stroke-linejoin:round;">
</g>
<g style="fill:#000000; fill-opacity:0.0; 
stroke:#000000; stroke-width:59.0551; stroke-opacity:1; 
stroke-linecap:round; stroke-linejoin:round;">
<path d="M14169 105900
L13877 105900
" />
<path d="M14023 105900
L14023 105389
L13974 105462
L13925 105510
L13877 105535
" />
</g>
<g style="fill:#000000; fill-opacity:0.0; 
stroke:#000000; stroke-width:39.3701; stroke-opacity:1; 
stroke-linecap:round; stroke-linejoin:round;">
</g>
<g style="fill:#000000; fill-opacity:0.0; 
stroke:#000000; stroke-width:59.0551; stroke-opacity:1; 
stroke-linecap:round; stroke-linejoin:round;">
<path d="M33562 105437
L33586 105413
L33635 105389
L33757 105389
L33805 105413
L33830 105437
L33854 105486
L33854 105535
L33830 105608
L33537 105900
L33854 105900
" />
</g>
<g style="fill:#000000; fill-opacity:0.0; 
stroke:#000000; stroke-width:39.3701; stroke-opacity:1; 
stroke-linecap:round; stroke-linejoin:round;">
</g>
<g style="fill:#000000; fill-opacity:0.0; 
stroke:#000000; stroke-width:59.0551; stroke-opacity:1; 
stroke-linecap:round; stroke-linejoin:round;">
<path d="M53222 105389
L53539 105389
L53368 105583
L53442 105583
L53490 105608
L53515 105632
L53539 105681
L53539 105803
L53515 105852
L53490 105876
L53442 105900
L53295 105900
L53247 105876
L53222 105852
" />
</g>
<g style="fill:#000000; fill-opacity:0.0; 
stroke:#000000; stroke-width:39.3701; stroke-opacity:1; 
stroke-linecap:round; stroke-linejoin:round;">
</g>
<g style="fill:#000000; fill-opacity:0.0; 
stroke:#000000; stroke-width:59.0551; stroke-opacity:1; 
stroke-linecap:round; stroke-linejoin:round;">
<path d="M73175 105559
L73175 105900
" />
<path d="M73053 105364
L72932 105730
L73248 105730
" />
</g>
<g style="fill:#000000; fill-opacity:0.0; 
stroke:#000000; stroke-width:39.3701; stroke-opacity:1; 
stroke-linecap:round; stroke-linejoin:round;">
</g>
<g style="fill:#000000; fill-opacity:0.0; 
stroke:#000000; stroke-width:59.0551; stroke-opacity:1; 
stroke-linecap:round; stroke-linejoin:round;">
<path d="M92885 105389
L92641 105389
L92617 105632
L92641 105608
L92690 105583
L92812 105583
L92860 105608
L92885 105632
L92909 105681
L92909 105803
L92885 105852
L92860 105876
L92812 105900
L92690 105900
L92641 105876
L92617 105852
" />
</g>
<g style="fill:#000000; fill-opacity:0.0; 
stroke:#000000; stroke-width:39.3701; stroke-opacity:1; 
stroke-linecap:round; stroke-linejoin:round;">
</g>
<g style="fill:#000000; fill-opacity:0.0; 
stroke:#000000; stroke-width:59.0551; stroke-opacity:1; 
stroke-linecap:round; stroke-linejoin:round;">
<path d="M112545 105389
L112448 105389
L112399 105413
L112375 105437
L112326 105510
L112302 105608
L112302 105803
L112326 105852
L112350 105876
L112399 105900
L112497 105900
L112545 105876
L112570 105852
L112594 105803
L112594 105681
L112570 105632
L112545 105608
L112497 105583
L112399 105583
L112350 105608
L112326 105632
L112302 105681
" />
</g>
<g style="fill:#000000; fill-opacity:0.0; 
stroke:#000000; stroke-width:39.3701; stroke-opacity:1; 
stroke-linecap:round; stroke-linejoin:round;">
</g>
<g style="fill:#000000; fill-opacity:0.0; 
stroke:#000000; stroke-width:59.0551; stroke-opacity:1; 
stroke-linecap:round; stroke-linejoin:round;">
<path d="M131962 105389
L132304 105389
L132084 105900
" />
</g>
<g style="fill:#000000; fill-opacity:0.0; 
stroke:#000000; stroke-width:39.3701; stroke-opacity:1; 
stroke-linecap:round; stroke-linejoin:round;">
</g>
<g style="fill:#000000; fill-opacity:0.0; 
stroke:#000000; stroke-width:59.0551; stroke-opacity:1; 
stroke-linecap:round; stroke-linejoin:round;">
<path d="M151769 105608
L151721 105583
L151696 105559
L151672 105510
L151672 105486
L151696 105437
L151721 105413
L151769 105389
L151867 105389
L151916 105413
L151940 105437
L151964 105486
L151964 105510
L151940 105559
L151916 105583
L151867 105608
L151769 105608
L151721 105632
L151696 105657
L151672 105705
L151672 105803
L151696 105852
L151721 105876
L151769 105900
L151867 105900
L151916 105876
L151940 105852
L151964 105803
L151964 105705
L151940 105657
L151916 105632
L151867 105608
" />
</g>
<g style="fill:#000000; fill-opacity:0.0; 
stroke:#000000; stroke-width:39.3701; stroke-opacity:1; 
stroke-linecap:round; stroke-linejoin:round;">
</g>
<g style="fill:#000000; fill-opacity:0.0; 
stroke:#000000; stroke-width:59.0551; stroke-opacity:1; 
stroke-linecap:round; stroke-linejoin:round;">
<path d="M3937 23622
L4724 23622
" />
</g>
<g style="fill:#000000; fill-opacity:0.0; 
stroke:#000000; stroke-width:39.3701; stroke-opacity:1; 
stroke-linecap:round; stroke-linejoin:round;">
</g>
<g style="fill:#000000; fill-opacity:0.0; 
stroke:#000000; stroke-width:59.0551; stroke-opacity:1; 
stroke-linecap:round; stroke-linejoin:round;">
<path d="M3937 43307
L4724 43307
" />
</g>
<g style="fill:#000000; fill-opacity:0.0; 
stroke:#000000; stroke-width:39.3701; stroke-opacity:1; 
stroke-linecap:round; stroke-linejoin:round;">
</g>
<g style="fill:#000000; fill-opacity:0.0; 
stroke:#000000; stroke-width:59.0551; stroke-opacity:1; 
stroke-linecap:round; stroke-linejoin:round;">
<path d="M3937 62992
L4724 62992
" />
</g>
<g style="fill:#000000; fill-opacity:0.0; 
stroke:#000000; stroke-width:39.3701; stroke-opacity:1; 
stroke-linecap:round; stroke-linejoin:round;">
</g>
<g style="fill:#000000; fill-opacity:0.0; 
stroke:#000000; stroke-width:59.0551; stroke-opacity:1; 
stroke-linecap:round; stroke-linejoin:round;">
<path d="M3937 82677
L4724 82677
" />
</g>
<g style="fill:#000000; fill-opacity:0.0; 
stroke:#000000; stroke-width:39.3701; stroke-opacity:1; 
stroke-linecap:round; stroke-linejoin:round;">
</g>
<g style="fill:#000000; fill-opacity:0.0; 
stroke:#000000; stroke-width:59.0551; stroke-opacity:1; 
stroke-linecap:round; stroke-linejoin:round;">
<path d="M3937 102362
L4724 102362
" />
</g>
<g style="fill:#000000; fill-opacity:0.0; 
stroke:#000000; stroke-width:39.3701; stroke-opacity:1; 
stroke-linecap:round; stroke-linejoin:round;">
</g>
<g style="fill:#000000; fill-opacity:0.0; 
stroke:#000000; stroke-width:59.0551; stroke-opacity:1; 
stroke-linecap:round; stroke-linejoin:round;">
<path d="M4208 13864
L4452 13864
" />
<path d="M4160 14011
L4330 13499
L4501 14011
" />
</g>
<g style="fill:#000000; fill-opacity:0.0; 
stroke:#000000; stroke-width:39.3701; stroke-opacity:1; 
stroke-linecap:round; stroke-linejoin:round;">
</g>
<g style="fill:#000000; fill-opacity:0.0; 
stroke:#000000; stroke-width:59.0551; stroke-opacity:1; 
stroke-linecap:round; stroke-linejoin:round;">
<path d="M4367 33428
L4440 33452
L4464 33476
L4489 33525
L4489 33598
L4464 33647
L4440 33671
L4391 33696
L4196 33696
L4196 33184
L4367 33184
L4416 33208
L4440 33233
L4464 33281
L4464 33330
L4440 33379
L4416 33403
L4367 33428
L4196 33428
" />
</g>
<g style="fill:#000000; fill-opacity:0.0; 
stroke:#000000; stroke-width:39.3701; stroke-opacity:1; 
stroke-linecap:round; stroke-linejoin:round;">
</g>
<g style="fill:#000000; fill-opacity:0.0; 
stroke:#000000; stroke-width:59.0551; stroke-opacity:1; 
stroke-linecap:round; stroke-linejoin:round;">
<path d="M4489 53332
L4464 53356
L4391 53381
L4342 53381
L4269 53356
L4221 53308
L4196 53259
L4172 53161
L4172 53088
L4196 52991
L4221 52942
L4269 52893
L4342 52869
L4391 52869
L4464 52893
L4489 52918
" />
</g>
<g style="fill:#000000; fill-opacity:0.0; 
stroke:#000000; stroke-width:39.3701; stroke-opacity:1; 
stroke-linecap:round; stroke-linejoin:round;">
</g>
<g style="fill:#000000; fill-opacity:0.0; 
stroke:#000000; stroke-width:59.0551; stroke-opacity:1; 
stroke-linecap:round; stroke-linejoin:round;">
<path d="M4196 73066
L4196 72554
L4318 72554
L4391 72578
L4440 72627
L4464 72676
L4489 72773
L4489 72846
L4464 72944
L4440 72993
L4391 73041
L4318 73066
L4196 73066
" />
</g>
<g style="fill:#000000; fill-opacity:0.0; 
stroke:#000000; stroke-width:39.3701; stroke-opacity:1; 
stroke-linecap:round; stroke-linejoin:round;">
</g>
<g style="fill:#000000; fill-opacity:0.0; 
stroke:#000000; stroke-width:59.0551; stroke-opacity:1; 
stroke-linecap:round; stroke-linejoin:round;">
<path d="M4221 92483
L4391 92483
" />
<path d="M4464 92751
L4221 92751
L4221 92239
L4464 92239
" />
</g>
<g style="fill:#000000; fill-opacity:0.0; 
stroke:#000000; stroke-width:39.3701; stroke-opacity:1; 
stroke-linecap:round; stroke-linejoin:round;">
</g>
<g style="fill:#000000; fill-opacity:0.0; 
stroke:#000000; stroke-width:59.0551; stroke-opacity:1; 
stroke-linecap:round; stroke-linejoin:round;">
<path d="M166062 23622
L165275 23622
" />
</g>
<g style="fill:#000000; fill-opacity:0.0; 
stroke:#000000; stroke-width:39.3701; stroke-opacity:1; 
stroke-linecap:round; stroke-linejoin:round;">
</g>
<g style="fill:#000000; fill-opacity:0.0; 
stroke:#000000; stroke-width:59.0551; stroke-opacity:1; 
stroke-linecap:round; stroke-linejoin:round;">
<path d="M166062 43307
L165275 43307
" />
</g>
<g style="fill:#000000; fill-opacity:0.0; 
stroke:#000000; stroke-width:39.3701; stroke-opacity:1; 
stroke-linecap:round; stroke-linejoin:round;">
</g>
<g style="fill:#000000; fill-opacity:0.0; 
stroke:#000000; stroke-width:59.0551; stroke-opacity:1; 
stroke-linecap:round; stroke-linejoin:round;">
<path d="M166062 62992
L165275 62992
" />
</g>
<g style="fill:#000000; fill-opacity:0.0; 
stroke:#000000; stroke-width:39.3701; stroke-opacity:1; 
stroke-linecap:round; stroke-linejoin:round;">
</g>
<g style="fill:#000000; fill-opacity:0.0; 
stroke:#000000; stroke-width:59.0551; stroke-opacity:1; 
stroke-linecap:round; stroke-linejoin:round;">
<path d="M166062 82677
L165275 82677
" />
</g>
<g style="fill:#000000; fill-opacity:0.0; 
stroke:#000000; stroke-width:39.3701; stroke-opacity:1; 
stroke-linecap:round; stroke-linejoin:round;">
</g>
<g style="fill:#000000; fill-opacity:0.0; 
stroke:#000000; stroke-width:59.0551; stroke-opacity:1; 
stroke-linecap:round; stroke-linejoin:round;">
<path d="M166062 102362
L165275 102362
" />
</g>
<g style="fill:#000000; fill-opacity:0.0; 
stroke:#000000; stroke-width:39.3701; stroke-opacity:1; 
stroke-linecap:round; stroke-linejoin:round;">
</g>
<g style="fill:#000000; fill-opacity:0.0; 
stroke:#000000; stroke-width:59.0551; stroke-opacity:1; 
stroke-linecap:round; stroke-linejoin:round;">
<path d="M165547 13864
L165791 13864
" />
<path d="M165498 14011
L165669 13499
L165839 14011
" />
</g>
<g style="fill:#000000; fill-opacity:0.0; 
stroke:#000000; stroke-width:39.3701; stroke-opacity:1; 
stroke-linecap:round; stroke-linejoin:round;">
</g>
<g style="fill:#000000; fill-opacity:0.0; 
stroke:#000000; stroke-width:59.0551; stroke-opacity:1; 
stroke-linecap:round; stroke-linejoin:round;">
<path d="M165705 33428
L165778 33452
L165803 33476
L165827 33525
L165827 33598
L165803 33647
L165778 33671
L165730 33696
L165535 33696
L165535 33184
L165705 33184
L165754 33208
L165778 33233
L165803 33281
L165803 33330
L165778 33379
L165754 33403
L165705 33428
L165535 33428
" />
</g>
<g style="fill:#000000; fill-opacity:0.0; 
stroke:#000000; stroke-width:39.3701; stroke-opacity:1; 
stroke-linecap:round; stroke-linejoin:round;">
</g>
<g style="fill:#000000; fill-opacity:0.0; 
stroke:#000000; stroke-width:59.0551; stroke-opacity:1; 
stroke-linecap:round; stroke-linejoin:round;">
<path d="M165827 53332
L165803 53356
L165730 53381
L165681 53381
L165608 53356
L165559 53308
L165535 53259
L165510 53161
L165510 53088
L165535 52991
L165559 52942
L165608 52893
L165681 52869
L165730 52869
L165803 52893
L165827 52918
" />
</g>
<g style="fill:#000000; fill-opacity:0.0; 
stroke:#000000; stroke-width:39.3701; stroke-opacity:1; 
stroke-linecap:round; stroke-linejoin:round;">
</g>
<g style="fill:#000000; fill-opacity:0.0; 
stroke:#000000; stroke-width:59.0551; stroke-opacity:1; 
stroke-linecap:round; stroke-linejoin:round;">
<path d="M165535 73066
L165535 72554
L165657 72554
L165730 72578
L165778 72627
L165803 72676
L165827 72773
L165827 72846
L165803 72944
L165778 72993
L165730 73041
L165657 73066
L165535 73066
" />
</g>
<g style="fill:#000000; fill-opacity:0.0; 
stroke:#000000; stroke-width:39.3701; stroke-opacity:1; 
stroke-linecap:round; stroke-linejoin:round;">
</g>
<g style="fill:#000000; fill-opacity:0.0; 
stroke:#000000; stroke-width:59.0551; stroke-opacity:1; 
stroke-linecap:round; stroke-linejoin:round;">
<path d="M165559 92483
L165730 92483
" />
<path d="M165803 92751
L165559 92751
L165559 92239
L165803 92239
" />
</g>
<g style="fill:#000000; fill-opacity:0.0; 
stroke:#000000; stroke-width:39.3701; stroke-opacity:1; 
stroke-linecap:round; stroke-linejoin:round;">
</g>
<g style="fill:#000000; fill-opacity:0.0; 
stroke:#000000; stroke-width:59.0551; stroke-opacity:1; 
stroke-linecap:round; stroke-linejoin:round;">
<path d="M131951 103613
L131951 103023
L132092 103023
L132176 103051
L132232 103107
L132260 103163
L132289 103276
L132289 103360
L132260 103473
L132232 103529
L132176 103585
L132092 103613
L131951 103613
" />
<path d="M132795 103613
L132795 103304
L132767 103248
L132710 103219
L132598 103219
L132542 103248
" />
<path d="M132795 103585
L132739 103613
L132598 103613
L132542 103585
L132514 103529
L132514 103473
L132542 103416
L132598 103388
L132739 103388
L132795 103360
" />
<path d="M132992 103219
L133217 103219
" />
<path d="M133076 103023
L133076 103529
L133104 103585
L133160 103613
L133217 103613
" />
<path d="M133638 103585
L133582 103613
L133470 103613
L133413 103585
L133385 103529
L133385 103304
L133413 103248
L133470 103219
L133582 103219
L133638 103248
L133667 103304
L133667 103360
L133385 103416
" />
<path d="M133920 103557
L133948 103585
L133920 103613
L133892 103585
L133920 103557
L133920 103613
" />
<path d="M133920 103248
L133948 103276
L133920 103304
L133892 103276
L133920 103248
L133920 103304
" />
</g>
<g style="fill:#000000; fill-opacity:0.0; 
stroke:#000000; stroke-width:39.3701; stroke-opacity:1; 
stroke-linecap:round; stroke-linejoin:round;">
</g>
<g style="fill:#000000; fill-opacity:0.0; 
stroke:#000000; stroke-width:59.0551; stroke-opacity:1; 
stroke-linecap:round; stroke-linejoin:round;">
<path d="M122755 103897
L165275 103897
" />
</g>
<g style="fill:#000000; fill-opacity:0.0; 
stroke:#000000; stroke-width:39.3701; stroke-opacity:1; 
stroke-linecap:round; stroke-linejoin:round;">
</g>
<g style="fill:#000000; fill-opacity:0.0; 
stroke:#000000; stroke-width:59.0551; stroke-opacity:1; 
stroke-linecap:round; stroke-linejoin:round;">
<path d="M123290 104715
L123290 104125
" />
<path d="M123627 104715
L123374 104378
" />
<path d="M123627 104125
L123290 104462
" />
<path d="M123880 104715
L123880 104322
" />
<path d="M123880 104125
L123852 104153
L123880 104181
L123908 104153
L123880 104125
L123880 104181
" />
<path d="M124499 104659
L124471 104687
L124386 104715
L124330 104715
L124246 104687
L124190 104631
L124161 104575
L124133 104462
L124133 104378
L124161 104266
L124190 104209
L124246 104153
L124330 104125
L124386 104125
L124471 104153
L124499 104181
" />
<path d="M125005 104715
L125005 104406
L124977 104350
L124921 104322
L124808 104322
L124752 104350
" />
<path d="M125005 104687
L124949 104715
L124808 104715
L124752 104687
L124724 104631
L124724 104575
L124752 104519
L124808 104491
L124949 104491
L125005 104462
" />
<path d="M125539 104715
L125539 104125
" />
<path d="M125539 104687
L125483 104715
L125371 104715
L125314 104687
L125286 104659
L125258 104603
L125258 104434
L125286 104378
L125314 104350
L125371 104322
L125483 104322
L125539 104350
" />
<path d="M126271 104406
L126467 104406
" />
<path d="M126552 104715
L126271 104715
L126271 104125
L126552 104125
" />
<path d="M126805 104659
L126833 104687
L126805 104715
L126777 104687
L126805 104659
L126805 104715
" />
<path d="M127086 104715
L127086 104125
L127227 104125
L127311 104153
L127367 104209
L127395 104266
L127424 104378
L127424 104462
L127395 104575
L127367 104631
L127311 104687
L127227 104715
L127086 104715
" />
<path d="M127677 104659
L127705 104687
L127677 104715
L127649 104687
L127677 104659
L127677 104715
" />
<path d="M127930 104547
L128211 104547
" />
<path d="M127874 104715
L128070 104125
L128267 104715
" />
<path d="M128464 104659
L128492 104687
L128464 104715
L128436 104687
L128464 104659
L128464 104715
" />
<path d="M129645 104715
L129645 104125
" />
<path d="M129701 104491
L129870 104715
" />
<path d="M129870 104322
L129645 104547
" />
<path d="M130123 104715
L130123 104322
" />
<path d="M130123 104125
L130095 104153
L130123 104181
L130151 104153
L130123 104125
L130123 104181
" />
<path d="M130658 104687
L130601 104715
L130489 104715
L130433 104687
L130404 104659
L130376 104603
L130376 104434
L130404 104378
L130433 104350
L130489 104322
L130601 104322
L130658 104350
" />
<path d="M131164 104715
L131164 104406
L131136 104350
L131079 104322
L130967 104322
L130911 104350
" />
<path d="M131164 104687
L131107 104715
L130967 104715
L130911 104687
L130883 104631
L130883 104575
L130911 104519
L130967 104491
L131107 104491
L131164 104462
" />
<path d="M131698 104715
L131698 104125
" />
<path d="M131698 104687
L131642 104715
L131529 104715
L131473 104687
L131445 104659
L131417 104603
L131417 104434
L131445 104378
L131473 104350
L131529 104322
L131642 104322
L131698 104350
" />
<path d="M132682 104322
L132682 104715
" />
<path d="M132542 104097
L132401 104519
L132767 104519
" />
<path d="M132992 104659
L133020 104687
L132992 104715
L132964 104687
L132992 104659
L132992 104715
" />
<path d="M133385 104125
L133442 104125
L133498 104153
L133526 104181
L133554 104237
L133582 104350
L133582 104491
L133554 104603
L133526 104659
L133498 104687
L133442 104715
L133385 104715
L133329 104687
L133301 104659
L133273 104603
L133245 104491
L133245 104350
L133273 104237
L133301 104181
L133329 104153
L133385 104125
" />
<path d="M133835 104659
L133863 104687
L133835 104715
L133807 104687
L133835 104659
L133835 104715
" />
<path d="M134370 104125
L134257 104125
L134201 104153
L134173 104181
L134116 104266
L134088 104378
L134088 104603
L134116 104659
L134145 104687
L134201 104715
L134313 104715
L134370 104687
L134398 104659
L134426 104603
L134426 104462
L134398 104406
L134370 104378
L134313 104350
L134201 104350
L134145 104378
L134116 104406
L134088 104462
" />
</g>
<g style="fill:#000000; fill-opacity:0.0; 
stroke:#000000; stroke-width:39.3701; stroke-opacity:1; 
stroke-linecap:round; stroke-linejoin:round;">
</g>
<g style="fill:#000000; fill-opacity:0.0; 
stroke:#000000; stroke-width:59.0551; stroke-opacity:1; 
stroke-linecap:round; stroke-linejoin:round;">
<path d="M122755 102716
L165275 102716
" />
</g>
<g style="fill:#000000; fill-opacity:0.0; 
stroke:#000000; stroke-width:39.3701; stroke-opacity:1; 
stroke-linecap:round; stroke-linejoin:round;">
</g>
<g style="fill:#000000; fill-opacity:0.0; 
stroke:#000000; stroke-width:118.11; stroke-opacity:1; 
stroke-linecap:round; stroke-linejoin:round;">
<path d="M157092 103613
L156895 103332
" />
<path d="M156754 103613
L156754 103023
L156979 103023
L157035 103051
L157064 103079
L157092 103135
L157092 103219
L157064 103276
L157035 103304
L156979 103332
L156754 103332
" />
<path d="M157570 103585
L157514 103613
L157401 103613
L157345 103585
L157317 103529
L157317 103304
L157345 103248
L157401 103219
L157514 103219
L157570 103248
L157598 103304
L157598 103360
L157317 103416
" />
<path d="M157795 103219
L157935 103613
L158076 103219
" />
<path d="M158301 103557
L158329 103585
L158301 103613
L158273 103585
L158301 103557
L158301 103613
" />
<path d="M158301 103248
L158329 103276
L158301 103304
L158273 103276
L158301 103248
L158301 103304
" />
</g>
<g style="fill:#000000; fill-opacity:0.0; 
stroke:#000000; stroke-width:39.3701; stroke-opacity:1; 
stroke-linecap:round; stroke-linejoin:round;">
</g>
<g style="fill:#000000; fill-opacity:0.0; 
stroke:#000000; stroke-width:59.0551; stroke-opacity:1; 
stroke-linecap:round; stroke-linejoin:round;">
<path d="M123262 103585
L123346 103613
L123487 103613
L123543 103585
L123571 103557
L123599 103501
L123599 103444
L123571 103388
L123543 103360
L123487 103332
L123374 103304
L123318 103276
L123290 103248
L123262 103191
L123262 103135
L123290 103079
L123318 103051
L123374 103023
L123515 103023
L123599 103051
" />
<path d="M123852 103613
L123852 103219
" />
<path d="M123852 103023
L123824 103051
L123852 103079
L123880 103051
L123852 103023
L123852 103079
" />
<path d="M124077 103219
L124386 103219
L124077 103613
L124386 103613
" />
<path d="M124836 103585
L124780 103613
L124668 103613
L124611 103585
L124583 103529
L124583 103304
L124611 103248
L124668 103219
L124780 103219
L124836 103248
L124865 103304
L124865 103360
L124583 103416
" />
<path d="M125118 103557
L125146 103585
L125118 103613
L125089 103585
L125118 103557
L125118 103613
" />
<path d="M125118 103248
L125146 103276
L125118 103304
L125089 103276
L125118 103248
L125118 103304
" />
<path d="M126046 103304
L126130 103332
L126158 103360
L126186 103416
L126186 103501
L126158 103557
L126130 103585
L126074 103613
L125849 103613
L125849 103023
L126046 103023
L126102 103051
L126130 103079
L126158 103135
L126158 103191
L126130 103248
L126102 103276
L126046 103304
L125849 103304
" />
</g>
<g style="fill:#000000; fill-opacity:0.0; 
stroke:#000000; stroke-width:39.3701; stroke-opacity:1; 
stroke-linecap:round; stroke-linejoin:round;">
</g>
<g style="fill:#000000; fill-opacity:0.0; 
stroke:#000000; stroke-width:59.0551; stroke-opacity:1; 
stroke-linecap:round; stroke-linejoin:round;">
<path d="M156754 104715
L156754 104125
" />
<path d="M157289 104715
L157289 104125
" />
<path d="M157289 104687
L157232 104715
L157120 104715
L157064 104687
L157035 104659
L157007 104603
L157007 104434
L157035 104378
L157064 104350
L157120 104322
L157232 104322
L157289 104350
" />
<path d="M157570 104659
L157598 104687
L157570 104715
L157542 104687
L157570 104659
L157570 104715
" />
<path d="M157570 104350
L157598 104378
L157570 104406
L157542 104378
L157570 104350
L157570 104406
" />
<path d="M158610 104715
L158273 104715
" />
<path d="M158442 104715
L158442 104125
L158385 104209
L158329 104266
L158273 104294
" />
<path d="M159285 104097
L158779 104856
" />
<path d="M159791 104715
L159454 104715
" />
<path d="M159623 104715
L159623 104125
L159566 104209
L159510 104266
L159454 104294
" />
</g>
<g style="fill:#000000; fill-opacity:0.0; 
stroke:#000000; stroke-width:39.3701; stroke-opacity:1; 
stroke-linecap:round; stroke-linejoin:round;">
</g>
<g style="fill:#000000; fill-opacity:0.0; 
stroke:#000000; stroke-width:59.0551; stroke-opacity:1; 
stroke-linecap:round; stroke-linejoin:round;">
<path d="M122755 101141
L165275 101141
" />
</g>
<g style="fill:#000000; fill-opacity:0.0; 
stroke:#000000; stroke-width:39.3701; stroke-opacity:1; 
stroke-linecap:round; stroke-linejoin:round;">
</g>
<g style="fill:#000000; fill-opacity:0.0; 
stroke:#000000; stroke-width:157.48; stroke-opacity:1; 
stroke-linecap:round; stroke-linejoin:round;">
<path d="M123327 101419
L123777 101419
" />
<path d="M123454 102206
L123552 101419
" />
<path d="M123941 102206
L124007 101681
" />
<path d="M124040 101419
L123997 101456
L124030 101494
L124072 101456
L124040 101419
L124030 101494
" />
<path d="M124269 101681
L124569 101681
" />
<path d="M124415 101419
L124330 102094
L124358 102169
L124429 102206
L124504 102206
" />
<path d="M124879 102206
L124808 102169
L124780 102094
L124865 101419
" />
<path d="M125483 102169
L125404 102206
L125254 102206
L125183 102169
L125155 102094
L125193 101794
L125239 101719
L125319 101681
L125469 101681
L125539 101719
L125568 101794
L125558 101869
L125174 101944
" />
<path d="M125863 102131
L125896 102169
L125853 102206
L125821 102169
L125863 102131
L125853 102206
" />
<path d="M125914 101719
L125947 101756
L125905 101794
L125872 101756
L125914 101719
L125905 101794
" />
</g>
<g style="fill:#000000; fill-opacity:0.0; 
stroke:#000000; stroke-width:39.3701; stroke-opacity:1; 
stroke-linecap:round; stroke-linejoin:round;">
</g>
<g style="fill:#000000; fill-opacity:0.0; 
stroke:#000000; stroke-width:59.0551; stroke-opacity:1; 
stroke-linecap:round; stroke-linejoin:round;">
<path d="M123487 100390
L123290 100390
" />
<path d="M123290 100700
L123290 100109
L123571 100109
" />
<path d="M123796 100700
L123796 100306
" />
<path d="M123796 100109
L123768 100137
L123796 100165
L123824 100137
L123796 100109
L123796 100165
" />
<path d="M124161 100700
L124105 100672
L124077 100615
L124077 100109
" />
<path d="M124611 100672
L124555 100700
L124443 100700
L124386 100672
L124358 100615
L124358 100390
L124386 100334
L124443 100306
L124555 100306
L124611 100334
L124640 100390
L124640 100447
L124358 100503
" />
<path d="M124893 100643
L124921 100672
L124893 100700
L124865 100672
L124893 100643
L124893 100700
" />
<path d="M124893 100334
L124921 100362
L124893 100390
L124865 100362
L124893 100334
L124893 100390
" />
<path d="M125736 100109
L125849 100109
L125905 100137
L125961 100194
L125989 100306
L125989 100503
L125961 100615
L125905 100672
L125849 100700
L125736 100700
L125680 100672
L125624 100615
L125596 100503
L125596 100306
L125624 100194
L125680 100137
L125736 100109
" />
<path d="M126158 100109
L126355 100700
L126552 100109
" />
<path d="M126749 100390
L126946 100390
" />
<path d="M127030 100700
L126749 100700
L126749 100109
L127030 100109
" />
<path d="M127283 100700
L127283 100109
L127620 100700
L127620 100109
" />
<path d="M127761 100756
L128211 100756
" />
<path d="M128323 100672
L128408 100700
L128548 100700
L128605 100672
L128633 100643
L128661 100587
L128661 100531
L128633 100475
L128605 100447
L128548 100419
L128436 100390
L128380 100362
L128352 100334
L128323 100278
L128323 100222
L128352 100165
L128380 100137
L128436 100109
L128577 100109
L128661 100137
" />
<path d="M128858 100109
L128998 100700
L129111 100278
L129223 100700
L129364 100109
" />
<path d="M129589 100700
L129589 100109
" />
<path d="M129786 100109
L130123 100109
" />
<path d="M129955 100700
L129955 100109
" />
<path d="M130658 100643
L130629 100672
L130545 100700
L130489 100700
L130404 100672
L130348 100615
L130320 100559
L130292 100447
L130292 100362
L130320 100250
L130348 100194
L130404 100137
L130489 100109
L130545 100109
L130629 100137
L130658 100165
" />
<path d="M130911 100700
L130911 100109
" />
<path d="M130911 100390
L131248 100390
" />
<path d="M131248 100700
L131248 100109
" />
<path d="M131529 100643
L131557 100672
L131529 100700
L131501 100672
L131529 100643
L131529 100700
" />
<path d="M131811 100700
L131811 100109
" />
<path d="M131867 100475
L132035 100700
" />
<path d="M132035 100306
L131811 100531
" />
<path d="M132289 100700
L132289 100306
" />
<path d="M132289 100109
L132260 100137
L132289 100165
L132317 100137
L132289 100109
L132289 100165
" />
<path d="M132823 100672
L132767 100700
L132654 100700
L132598 100672
L132570 100643
L132542 100587
L132542 100419
L132570 100362
L132598 100334
L132654 100306
L132767 100306
L132823 100334
" />
<path d="M133329 100700
L133329 100390
L133301 100334
L133245 100306
L133132 100306
L133076 100334
" />
<path d="M133329 100672
L133273 100700
L133132 100700
L133076 100672
L133048 100615
L133048 100559
L133076 100503
L133132 100475
L133273 100475
L133329 100447
" />
<path d="M133863 100700
L133863 100109
" />
<path d="M133863 100672
L133807 100700
L133695 100700
L133638 100672
L133610 100643
L133582 100587
L133582 100419
L133610 100362
L133638 100334
L133695 100306
L133807 100306
L133863 100334
" />
<path d="M134004 100756
L134454 100756
" />
<path d="M134595 100306
L134595 100897
" />
<path d="M134595 100334
L134651 100306
L134763 100306
L134820 100334
L134848 100362
L134876 100419
L134876 100587
L134848 100643
L134820 100672
L134763 100700
L134651 100700
L134595 100672
" />
<path d="M135382 100672
L135326 100700
L135213 100700
L135157 100672
L135129 100643
L135101 100587
L135101 100419
L135129 100362
L135157 100334
L135213 100306
L135326 100306
L135382 100334
" />
<path d="M135635 100700
L135635 100109
" />
<path d="M135635 100334
L135691 100306
L135804 100306
L135860 100334
L135888 100362
L135916 100419
L135916 100587
L135888 100643
L135860 100672
L135804 100700
L135691 100700
L135635 100672
" />
</g>
<g style="fill:#000000; fill-opacity:0.0; 
stroke:#000000; stroke-width:39.3701; stroke-opacity:1; 
stroke-linecap:round; stroke-linejoin:round;">
</g>
<g style="fill:#000000; fill-opacity:0.0; 
stroke:#000000; stroke-width:59.0551; stroke-opacity:1; 
stroke-linecap:round; stroke-linejoin:round;">
<path d="M122755 98779
L165275 98779
" />
</g>
<g style="fill:#000000; fill-opacity:0.0; 
stroke:#000000; stroke-width:39.3701; stroke-opacity:1; 
stroke-linecap:round; stroke-linejoin:round;">
</g>
<g style="fill:#000000; fill-opacity:0.0; 
stroke:#000000; stroke-width:59.0551; stroke-opacity:1; 
stroke-linecap:round; stroke-linejoin:round;">
<path d="M123262 99609
L123346 99637
L123487 99637
L123543 99609
L123571 99580
L123599 99524
L123599 99468
L123571 99412
L123543 99384
L123487 99356
L123374 99327
L123318 99299
L123290 99271
L123262 99215
L123262 99159
L123290 99102
L123318 99074
L123374 99046
L123515 99046
L123599 99074
" />
<path d="M123852 99637
L123852 99046
" />
<path d="M124105 99637
L124105 99327
L124077 99271
L124021 99243
L123937 99243
L123880 99271
L123852 99299
" />
<path d="M124611 99609
L124555 99637
L124443 99637
L124386 99609
L124358 99552
L124358 99327
L124386 99271
L124443 99243
L124555 99243
L124611 99271
L124640 99327
L124640 99384
L124358 99440
" />
<path d="M125118 99609
L125061 99637
L124949 99637
L124893 99609
L124865 99552
L124865 99327
L124893 99271
L124949 99243
L125061 99243
L125118 99271
L125146 99327
L125146 99384
L124865 99440
" />
<path d="M125314 99243
L125539 99243
" />
<path d="M125399 99046
L125399 99552
L125427 99609
L125483 99637
L125539 99637
" />
<path d="M125736 99580
L125764 99609
L125736 99637
L125708 99609
L125736 99580
L125736 99637
" />
<path d="M125736 99271
L125764 99299
L125736 99327
L125708 99299
L125736 99271
L125736 99327
" />
</g>
<g style="fill:#000000; fill-opacity:0.0; 
stroke:#000000; stroke-width:39.3701; stroke-opacity:1; 
stroke-linecap:round; stroke-linejoin:round;">
</g>
<g style="fill:#000000; fill-opacity:0.0; 
stroke:#000000; stroke-width:59.0551; stroke-opacity:1; 
stroke-linecap:round; stroke-linejoin:round;">
<path d="M130629 102716
L130629 103897
" />
</g>
<g style="fill:#000000; fill-opacity:0.0; 
stroke:#000000; stroke-width:39.3701; stroke-opacity:1; 
stroke-linecap:round; stroke-linejoin:round;">
</g>
<g style="fill:#000000; fill-opacity:0.0; 
stroke:#000000; stroke-width:59.0551; stroke-opacity:1; 
stroke-linecap:round; stroke-linejoin:round;">
<path d="M155826 102716
L155826 105275
" />
</g>
<g style="fill:#C2C200; fill-opacity:0.0; 
stroke:#C2C200; stroke-width:59.0551; stroke-opacity:1; 
stroke-linecap:round; stroke-linejoin:round;">
</g>
<g style="fill:#C2C200; fill-opacity:0.0; 
stroke:#C2C200; stroke-width:39.3701; stroke-opacity:1; 
stroke-linecap:round; stroke-linejoin:round;">
<path d="M11846 25403
L155953 25403
" />
<path d="M121255 28819
L121255 43307
" />
<path d="M146059 28819
L121255 28819
" />
<path d="M146059 43307
L146059 28819
" />
<path d="M121255 43307
L146059 43307
" />
<path d="M14366 43281
L14366 28556
" />
<path d="M93342 43281
L14366 43281
" />
<path d="M93342 28556
L93342 43281
" />
<path d="M14366 28556
L93342 28556
" />
<path d="M11846 60639
L16189 60639
" />
<path d="M11846 60639
L11846 25403
" />
<path d="M155953 60639
L16189 60639
" />
<path d="M155953 25403
L155953 60639
" />
</g> 
</svg>
