<?xml version="1.0" encoding="UTF-8" standalone="no"?>
<svg
   xmlns:dc="http://purl.org/dc/elements/1.1/"
   xmlns:cc="http://creativecommons.org/ns#"
   xmlns:rdf="http://www.w3.org/1999/02/22-rdf-syntax-ns#"
   xmlns:svg="http://www.w3.org/2000/svg"
   xmlns="http://www.w3.org/2000/svg"
   xmlns:sodipodi="http://sodipodi.sourceforge.net/DTD/sodipodi-0.dtd"
   xmlns:inkscape="http://www.inkscape.org/namespaces/inkscape"
   height="8.5in"
   version="1.1"
   viewBox="1.7037 -9.4559 14 8.5000003"
   width="14in"
   id="svg5678"
   sodipodi:docname="Right_Connecter_Oven_drill.svg"
   inkscape:version="0.92.0 r15299">
  <metadata
     id="metadata5684">
    <rdf:RDF>
      <cc:Work
         rdf:about="">
        <dc:format>image/svg+xml</dc:format>
        <dc:type
           rdf:resource="http://purl.org/dc/dcmitype/StillImage" />
        <dc:title></dc:title>
      </cc:Work>
    </rdf:RDF>
  </metadata>
  <defs
     id="defs5682" />
  <sodipodi:namedview
     pagecolor="#ffffff"
     bordercolor="#666666"
     borderopacity="1"
     objecttolerance="10"
     gridtolerance="10"
     guidetolerance="10"
     inkscape:pageopacity="0"
     inkscape:pageshadow="2"
     inkscape:window-width="1366"
     inkscape:window-height="745"
     id="namedview5680"
     showgrid="false"
     inkscape:zoom="0.72989695"
     inkscape:cx="694.00703"
     inkscape:cy="110.65153"
     inkscape:window-x="-8"
     inkscape:window-y="-8"
     inkscape:window-maximized="1"
     inkscape:current-layer="svg5678" />
  <path
     d="m 9.9573807,-5.5751161 -9.39e-5,0.00191 -2.808e-4,0.00189 -4.65e-4,0.00186 -6.446e-4,0.0018 -8.182e-4,0.00173 -9.838e-4,0.00164 -0.00114,0.00154 -0.00129,0.00142 -0.00142,0.00129 -0.00154,0.00114 -0.00164,9.838e-4 -0.00173,8.182e-4 -0.0018,6.446e-4 -0.00186,4.65e-4 -0.00189,2.808e-4 -0.00191,9.39e-5 -0.00191,-9.39e-5 -0.00189,-2.808e-4 -0.00186,-4.65e-4 -0.0018,-6.446e-4 -0.00173,-8.182e-4 -0.00164,-9.838e-4 -0.00154,-0.00114 -0.00142,-0.00129 -0.00129,-0.00142 -0.00114,-0.00154 -9.838e-4,-0.00164 -8.182e-4,-0.00173 -6.446e-4,-0.0018 -4.65e-4,-0.00186 -2.808e-4,-0.00189 -9.39e-5,-0.00191 9.39e-5,-0.00191 2.808e-4,-0.00189 4.65e-4,-0.00186 6.446e-4,-0.0018 8.182e-4,-0.00173 9.838e-4,-0.00164 0.00114,-0.00154 0.00129,-0.00142 0.00142,-0.00129 0.00154,-0.00114 0.00164,-9.838e-4 0.00173,-8.182e-4 0.0018,-6.446e-4 0.00186,-4.65e-4 0.00189,-2.808e-4 0.00191,-9.39e-5 0.00191,9.39e-5 0.00189,2.808e-4 0.00186,4.65e-4 0.0018,6.446e-4 0.00173,8.182e-4 0.00164,9.838e-4 0.00154,0.00114 0.00142,0.00129 0.00129,0.00142 0.00114,0.00154 9.838e-4,0.00164 8.182e-4,0.00173 6.446e-4,0.0018 4.65e-4,0.00186 2.808e-4,0.00189 z"
     id="path5624"
     inkscape:connector-curvature="0"
     style="opacity:0.6;fill:#66cc99;fill-rule:evenodd;stroke:#555555;stroke-width:0.1" />
  <path
     d="m 10.057381,-5.5751161 -9.4e-5,0.00191 -2.81e-4,0.00189 -4.65e-4,0.00186 -6.45e-4,0.0018 -8.18e-4,0.00173 -9.84e-4,0.00164 -0.0011,0.00154 -0.0013,0.00142 -0.0014,0.00129 -0.0015,0.00114 -0.0016,9.838e-4 -0.0017,8.182e-4 -0.0018,6.446e-4 -0.0019,4.65e-4 -0.0019,2.808e-4 -0.0019,9.39e-5 -0.0019,-9.39e-5 -0.0019,-2.808e-4 -0.0019,-4.65e-4 -0.0018,-6.446e-4 -0.0017,-8.182e-4 -0.0016,-9.838e-4 -0.0015,-0.00114 -0.0014,-0.00129 -0.0013,-0.00142 -0.0011,-0.00154 -9.83e-4,-0.00164 -8.19e-4,-0.00173 -6.44e-4,-0.0018 -4.65e-4,-0.00186 -2.81e-4,-0.00189 -9.4e-5,-0.00191 9.4e-5,-0.00191 2.81e-4,-0.00189 4.65e-4,-0.00186 6.44e-4,-0.0018 8.19e-4,-0.00173 9.83e-4,-0.00164 0.0011,-0.00154 0.0013,-0.00142 0.0014,-0.00129 0.0015,-0.00114 0.0016,-9.838e-4 0.0017,-8.182e-4 0.0018,-6.446e-4 0.0019,-4.65e-4 0.0019,-2.808e-4 0.0019,-9.39e-5 0.0019,9.39e-5 0.0019,2.808e-4 0.0019,4.65e-4 0.0018,6.446e-4 0.0017,8.182e-4 0.0016,9.838e-4 0.0015,0.00114 0.0014,0.00129 0.0013,0.00142 0.0011,0.00154 9.84e-4,0.00164 8.18e-4,0.00173 6.45e-4,0.0018 4.65e-4,0.00186 2.81e-4,0.00189 z"
     id="path5626"
     inkscape:connector-curvature="0"
     style="opacity:0.6;fill:#66cc99;fill-rule:evenodd;stroke:#555555;stroke-width:0.1" />
  <path
     d="m 10.157381,-5.5751161 -9.4e-5,0.00191 -2.81e-4,0.00189 -4.65e-4,0.00186 -6.44e-4,0.0018 -8.19e-4,0.00173 -9.83e-4,0.00164 -0.0011,0.00154 -0.0013,0.00142 -0.0014,0.00129 -0.0015,0.00114 -0.0016,9.838e-4 -0.0017,8.182e-4 -0.0018,6.446e-4 -0.0019,4.65e-4 -0.0019,2.808e-4 -0.0019,9.39e-5 -0.0019,-9.39e-5 -0.0019,-2.808e-4 -0.0019,-4.65e-4 -0.0018,-6.446e-4 -0.0017,-8.182e-4 -0.0016,-9.838e-4 -0.0015,-0.00114 -0.0014,-0.00129 -0.0013,-0.00142 -0.0011,-0.00154 -9.83e-4,-0.00164 -8.19e-4,-0.00173 -6.44e-4,-0.0018 -4.65e-4,-0.00186 -2.81e-4,-0.00189 -9.4e-5,-0.00191 9.4e-5,-0.00191 2.81e-4,-0.00189 4.65e-4,-0.00186 6.44e-4,-0.0018 8.19e-4,-0.00173 9.83e-4,-0.00164 0.0011,-0.00154 0.0013,-0.00142 0.0014,-0.00129 0.0015,-0.00114 0.0016,-9.838e-4 0.0017,-8.182e-4 0.0018,-6.446e-4 0.0019,-4.65e-4 0.0019,-2.808e-4 0.0019,-9.39e-5 0.0019,9.39e-5 0.0019,2.808e-4 0.0019,4.65e-4 0.0018,6.446e-4 0.0017,8.182e-4 0.0016,9.838e-4 0.0015,0.00114 0.0014,0.00129 0.0013,0.00142 0.0011,0.00154 9.83e-4,0.00164 8.19e-4,0.00173 6.44e-4,0.0018 4.65e-4,0.00186 2.81e-4,0.00189 z"
     id="path5628"
     inkscape:connector-curvature="0"
     style="opacity:0.6;fill:#66cc99;fill-rule:evenodd;stroke:#555555;stroke-width:0.1" />
  <path
     d="m 10.257381,-5.5751161 -9.4e-5,0.00191 -2.81e-4,0.00189 -4.65e-4,0.00186 -6.44e-4,0.0018 -8.19e-4,0.00173 -9.83e-4,0.00164 -0.0011,0.00154 -0.0013,0.00142 -0.0014,0.00129 -0.0015,0.00114 -0.0016,9.838e-4 -0.0017,8.182e-4 -0.0018,6.446e-4 -0.0019,4.65e-4 -0.0019,2.808e-4 -0.0019,9.39e-5 -0.0019,-9.39e-5 -0.0019,-2.808e-4 -0.0019,-4.65e-4 -0.0018,-6.446e-4 -0.0017,-8.182e-4 -0.0016,-9.838e-4 -0.0015,-0.00114 -0.0014,-0.00129 -0.0013,-0.00142 -0.0011,-0.00154 -9.83e-4,-0.00164 -8.19e-4,-0.00173 -6.44e-4,-0.0018 -4.65e-4,-0.00186 -2.81e-4,-0.00189 -9.4e-5,-0.00191 9.4e-5,-0.00191 2.81e-4,-0.00189 4.65e-4,-0.00186 6.44e-4,-0.0018 8.19e-4,-0.00173 9.83e-4,-0.00164 0.0011,-0.00154 0.0013,-0.00142 0.0014,-0.00129 0.0015,-0.00114 0.0016,-9.838e-4 0.0017,-8.182e-4 0.0018,-6.446e-4 0.0019,-4.65e-4 0.0019,-2.808e-4 0.0019,-9.39e-5 0.0019,9.39e-5 0.0019,2.808e-4 0.0019,4.65e-4 0.0018,6.446e-4 0.0017,8.182e-4 0.0016,9.838e-4 0.0015,0.00114 0.0014,0.00129 0.0013,0.00142 0.0011,0.00154 9.83e-4,0.00164 8.19e-4,0.00173 6.44e-4,0.0018 4.65e-4,0.00186 2.81e-4,0.00189 z"
     id="path5630"
     inkscape:connector-curvature="0"
     style="opacity:0.6;fill:#66cc99;fill-rule:evenodd;stroke:#555555;stroke-width:0.1" />
  <path
     d="m 10.357381,-5.5751161 -9.4e-5,0.00191 -2.81e-4,0.00189 -4.65e-4,0.00186 -6.44e-4,0.0018 -8.19e-4,0.00173 -9.83e-4,0.00164 -0.0011,0.00154 -0.0013,0.00142 -0.0014,0.00129 -0.0015,0.00114 -0.0016,9.838e-4 -0.0017,8.182e-4 -0.0018,6.446e-4 -0.0019,4.65e-4 -0.0019,2.808e-4 -0.0019,9.39e-5 -0.0019,-9.39e-5 -0.0019,-2.808e-4 -0.0019,-4.65e-4 -0.0018,-6.446e-4 -0.0017,-8.182e-4 -0.0016,-9.838e-4 -0.0015,-0.00114 -0.0014,-0.00129 -0.0013,-0.00142 -0.0011,-0.00154 -9.83e-4,-0.00164 -8.19e-4,-0.00173 -6.44e-4,-0.0018 -4.65e-4,-0.00186 -2.81e-4,-0.00189 -9.4e-5,-0.00191 9.4e-5,-0.00191 2.81e-4,-0.00189 4.65e-4,-0.00186 6.44e-4,-0.0018 8.19e-4,-0.00173 9.83e-4,-0.00164 0.0011,-0.00154 0.0013,-0.00142 0.0014,-0.00129 0.0015,-0.00114 0.0016,-9.838e-4 0.0017,-8.182e-4 0.0018,-6.446e-4 0.0019,-4.65e-4 0.0019,-2.808e-4 0.0019,-9.39e-5 0.0019,9.39e-5 0.0019,2.808e-4 0.0019,4.65e-4 0.0018,6.446e-4 0.0017,8.182e-4 0.0016,9.838e-4 0.0015,0.00114 0.0014,0.00129 0.0013,0.00142 0.0011,0.00154 9.83e-4,0.00164 8.19e-4,0.00173 6.44e-4,0.0018 4.65e-4,0.00186 2.81e-4,0.00189 z"
     id="path5632"
     inkscape:connector-curvature="0"
     style="opacity:0.6;fill:#66cc99;fill-rule:evenodd;stroke:#555555;stroke-width:0.1" />
  <path
     d="m 10.457381,-5.5751161 -9.4e-5,0.00191 -2.81e-4,0.00189 -4.65e-4,0.00186 -6.44e-4,0.0018 -8.19e-4,0.00173 -9.83e-4,0.00164 -0.0011,0.00154 -0.0013,0.00142 -0.0014,0.00129 -0.0015,0.00114 -0.0016,9.838e-4 -0.0017,8.182e-4 -0.0018,6.446e-4 -0.0019,4.65e-4 -0.0019,2.808e-4 -0.0019,9.39e-5 -0.0019,-9.39e-5 -0.0019,-2.808e-4 -0.0019,-4.65e-4 -0.0018,-6.446e-4 -0.0017,-8.182e-4 -0.0016,-9.838e-4 -0.0015,-0.00114 -0.0014,-0.00129 -0.0013,-0.00142 -0.0011,-0.00154 -9.83e-4,-0.00164 -8.19e-4,-0.00173 -6.44e-4,-0.0018 -4.65e-4,-0.00186 -2.81e-4,-0.00189 -9.4e-5,-0.00191 9.4e-5,-0.00191 2.81e-4,-0.00189 4.65e-4,-0.00186 6.44e-4,-0.0018 8.19e-4,-0.00173 9.83e-4,-0.00164 0.0011,-0.00154 0.0013,-0.00142 0.0014,-0.00129 0.0015,-0.00114 0.0016,-9.838e-4 0.0017,-8.182e-4 0.0018,-6.446e-4 0.0019,-4.65e-4 0.0019,-2.808e-4 0.0019,-9.39e-5 0.0019,9.39e-5 0.0019,2.808e-4 0.0019,4.65e-4 0.0018,6.446e-4 0.0017,8.182e-4 0.0016,9.838e-4 0.0015,0.00114 0.0014,0.00129 0.0013,0.00142 0.0011,0.00154 9.83e-4,0.00164 8.19e-4,0.00173 6.44e-4,0.0018 4.65e-4,0.00186 2.81e-4,0.00189 z"
     id="path5634"
     inkscape:connector-curvature="0"
     style="opacity:0.6;fill:#66cc99;fill-rule:evenodd;stroke:#555555;stroke-width:0.1" />
  <path
     d="m 10.557381,-5.5751161 -9.4e-5,0.00191 -2.81e-4,0.00189 -4.65e-4,0.00186 -6.44e-4,0.0018 -8.19e-4,0.00173 -9.83e-4,0.00164 -0.0011,0.00154 -0.0013,0.00142 -0.0014,0.00129 -0.0015,0.00114 -0.0016,9.838e-4 -0.0017,8.182e-4 -0.0018,6.446e-4 -0.0019,4.65e-4 -0.0019,2.808e-4 -0.0019,9.39e-5 -0.0019,-9.39e-5 -0.0019,-2.808e-4 -0.0019,-4.65e-4 -0.0018,-6.446e-4 -0.0017,-8.182e-4 -0.0016,-9.838e-4 -0.0015,-0.00114 -0.0014,-0.00129 -0.0013,-0.00142 -0.0011,-0.00154 -9.83e-4,-0.00164 -8.19e-4,-0.00173 -6.44e-4,-0.0018 -4.65e-4,-0.00186 -2.81e-4,-0.00189 -9.4e-5,-0.00191 9.4e-5,-0.00191 2.81e-4,-0.00189 4.65e-4,-0.00186 6.44e-4,-0.0018 8.19e-4,-0.00173 9.83e-4,-0.00164 0.0011,-0.00154 0.0013,-0.00142 0.0014,-0.00129 0.0015,-0.00114 0.0016,-9.838e-4 0.0017,-8.182e-4 0.0018,-6.446e-4 0.0019,-4.65e-4 0.0019,-2.808e-4 0.0019,-9.39e-5 0.0019,9.39e-5 0.0019,2.808e-4 0.0019,4.65e-4 0.0018,6.446e-4 0.0017,8.182e-4 0.0016,9.838e-4 0.0015,0.00114 0.0014,0.00129 0.0013,0.00142 0.0011,0.00154 9.83e-4,0.00164 8.19e-4,0.00173 6.44e-4,0.0018 4.65e-4,0.00186 2.81e-4,0.00189 z"
     id="path5636"
     inkscape:connector-curvature="0"
     style="opacity:0.6;fill:#66cc99;fill-rule:evenodd;stroke:#555555;stroke-width:0.1" />
  <path
     d="m 10.657381,-5.5751161 -9.4e-5,0.00191 -2.81e-4,0.00189 -4.65e-4,0.00186 -6.44e-4,0.0018 -8.19e-4,0.00173 -9.83e-4,0.00164 -0.0011,0.00154 -0.0013,0.00142 -0.0014,0.00129 -0.0015,0.00114 -0.0016,9.838e-4 -0.0017,8.182e-4 -0.0018,6.446e-4 -0.0019,4.65e-4 -0.0019,2.808e-4 -0.0019,9.39e-5 -0.0019,-9.39e-5 -0.0019,-2.808e-4 -0.0019,-4.65e-4 -0.0018,-6.446e-4 -0.0017,-8.182e-4 -0.0016,-9.838e-4 -0.0015,-0.00114 -0.0014,-0.00129 -0.0013,-0.00142 -0.0011,-0.00154 -9.83e-4,-0.00164 -8.19e-4,-0.00173 -6.44e-4,-0.0018 -4.65e-4,-0.00186 -2.81e-4,-0.00189 -9.4e-5,-0.00191 9.4e-5,-0.00191 2.81e-4,-0.00189 4.65e-4,-0.00186 6.44e-4,-0.0018 8.19e-4,-0.00173 9.83e-4,-0.00164 0.0011,-0.00154 0.0013,-0.00142 0.0014,-0.00129 0.0015,-0.00114 0.0016,-9.838e-4 0.0017,-8.182e-4 0.0018,-6.446e-4 0.0019,-4.65e-4 0.0019,-2.808e-4 0.0019,-9.39e-5 0.0019,9.39e-5 0.0019,2.808e-4 0.0019,4.65e-4 0.0018,6.446e-4 0.0017,8.182e-4 0.0016,9.838e-4 0.0015,0.00114 0.0014,0.00129 0.0013,0.00142 0.0011,0.00154 9.83e-4,0.00164 8.19e-4,0.00173 6.44e-4,0.0018 4.65e-4,0.00186 2.81e-4,0.00189 z"
     id="path5638"
     inkscape:connector-curvature="0"
     style="opacity:0.6;fill:#66cc99;fill-rule:evenodd;stroke:#555555;stroke-width:0.1" />
  <path
     d="m 10.757381,-5.5751161 -9.4e-5,0.00191 -2.81e-4,0.00189 -4.65e-4,0.00186 -6.44e-4,0.0018 -8.19e-4,0.00173 -9.83e-4,0.00164 -0.0011,0.00154 -0.0013,0.00142 -0.0014,0.00129 -0.0015,0.00114 -0.0016,9.838e-4 -0.0017,8.182e-4 -0.0018,6.446e-4 -0.0019,4.65e-4 -0.0019,2.808e-4 -0.0019,9.39e-5 -0.0019,-9.39e-5 -0.0019,-2.808e-4 -0.0019,-4.65e-4 -0.0018,-6.446e-4 -0.0017,-8.182e-4 -0.0016,-9.838e-4 -0.0015,-0.00114 -0.0014,-0.00129 -0.0013,-0.00142 -0.0011,-0.00154 -9.83e-4,-0.00164 -8.19e-4,-0.00173 -6.44e-4,-0.0018 -4.65e-4,-0.00186 -2.81e-4,-0.00189 -9.4e-5,-0.00191 9.4e-5,-0.00191 2.81e-4,-0.00189 4.65e-4,-0.00186 6.44e-4,-0.0018 8.19e-4,-0.00173 9.83e-4,-0.00164 0.0011,-0.00154 0.0013,-0.00142 0.0014,-0.00129 0.0015,-0.00114 0.0016,-9.838e-4 0.0017,-8.182e-4 0.0018,-6.446e-4 0.0019,-4.65e-4 0.0019,-2.808e-4 0.0019,-9.39e-5 0.0019,9.39e-5 0.0019,2.808e-4 0.0019,4.65e-4 0.0018,6.446e-4 0.0017,8.182e-4 0.0016,9.838e-4 0.0015,0.00114 0.0014,0.00129 0.0013,0.00142 0.0011,0.00154 9.83e-4,0.00164 8.19e-4,0.00173 6.44e-4,0.0018 4.65e-4,0.00186 2.81e-4,0.00189 z"
     id="path5640"
     inkscape:connector-curvature="0"
     style="opacity:0.6;fill:#66cc99;fill-rule:evenodd;stroke:#555555;stroke-width:0.1" />
  <path
     d="m 10.857381,-5.5751161 -9.4e-5,0.00191 -2.81e-4,0.00189 -4.65e-4,0.00186 -6.44e-4,0.0018 -8.19e-4,0.00173 -9.83e-4,0.00164 -0.0011,0.00154 -0.0013,0.00142 -0.0014,0.00129 -0.0015,0.00114 -0.0016,9.838e-4 -0.0017,8.182e-4 -0.0018,6.446e-4 -0.0019,4.65e-4 -0.0019,2.808e-4 -0.0019,9.39e-5 -0.0019,-9.39e-5 -0.0019,-2.808e-4 -0.0019,-4.65e-4 -0.0018,-6.446e-4 -0.0017,-8.182e-4 -0.0016,-9.838e-4 -0.0015,-0.00114 -0.0014,-0.00129 -0.0013,-0.00142 -0.0011,-0.00154 -9.83e-4,-0.00164 -8.19e-4,-0.00173 -6.44e-4,-0.0018 -4.65e-4,-0.00186 -2.81e-4,-0.00189 -9.4e-5,-0.00191 9.4e-5,-0.00191 2.81e-4,-0.00189 4.65e-4,-0.00186 6.44e-4,-0.0018 8.19e-4,-0.00173 9.83e-4,-0.00164 0.0011,-0.00154 0.0013,-0.00142 0.0014,-0.00129 0.0015,-0.00114 0.0016,-9.838e-4 0.0017,-8.182e-4 0.0018,-6.446e-4 0.0019,-4.65e-4 0.0019,-2.808e-4 0.0019,-9.39e-5 0.0019,9.39e-5 0.0019,2.808e-4 0.0019,4.65e-4 0.0018,6.446e-4 0.0017,8.182e-4 0.0016,9.838e-4 0.0015,0.00114 0.0014,0.00129 0.0013,0.00142 0.0011,0.00154 9.83e-4,0.00164 8.19e-4,0.00173 6.44e-4,0.0018 4.65e-4,0.00186 2.81e-4,0.00189 z"
     id="path5642"
     inkscape:connector-curvature="0"
     style="opacity:0.6;fill:#66cc99;fill-rule:evenodd;stroke:#555555;stroke-width:0.1" />
  <path
     d="m 10.957381,-5.5751161 -9.4e-5,0.00191 -2.81e-4,0.00189 -4.65e-4,0.00186 -6.44e-4,0.0018 -8.19e-4,0.00173 -9.83e-4,0.00164 -0.0011,0.00154 -0.0013,0.00142 -0.0014,0.00129 -0.0015,0.00114 -0.0016,9.838e-4 -0.0017,8.182e-4 -0.0018,6.446e-4 -0.0019,4.65e-4 -0.0019,2.808e-4 -0.0019,9.39e-5 -0.0019,-9.39e-5 -0.0019,-2.808e-4 -0.0019,-4.65e-4 -0.0018,-6.446e-4 -0.0017,-8.182e-4 -0.0016,-9.838e-4 -0.0015,-0.00114 -0.0014,-0.00129 -0.0013,-0.00142 -0.0011,-0.00154 -9.83e-4,-0.00164 -8.19e-4,-0.00173 -6.44e-4,-0.0018 -4.65e-4,-0.00186 -2.81e-4,-0.00189 -9.4e-5,-0.00191 9.4e-5,-0.00191 2.81e-4,-0.00189 4.65e-4,-0.00186 6.44e-4,-0.0018 8.19e-4,-0.00173 9.83e-4,-0.00164 0.0011,-0.00154 0.0013,-0.00142 0.0014,-0.00129 0.0015,-0.00114 0.0016,-9.838e-4 0.0017,-8.182e-4 0.0018,-6.446e-4 0.0019,-4.65e-4 0.0019,-2.808e-4 0.0019,-9.39e-5 0.0019,9.39e-5 0.0019,2.808e-4 0.0019,4.65e-4 0.0018,6.446e-4 0.0017,8.182e-4 0.0016,9.838e-4 0.0015,0.00114 0.0014,0.00129 0.0013,0.00142 0.0011,0.00154 9.83e-4,0.00164 8.19e-4,0.00173 6.44e-4,0.0018 4.65e-4,0.00186 2.81e-4,0.00189 z"
     id="path5644"
     inkscape:connector-curvature="0"
     style="opacity:0.6;fill:#66cc99;fill-rule:evenodd;stroke:#555555;stroke-width:0.1" />
  <path
     d="m 11.057381,-5.5751161 -9.4e-5,0.00191 -2.81e-4,0.00189 -4.65e-4,0.00186 -6.44e-4,0.0018 -8.19e-4,0.00173 -9.83e-4,0.00164 -0.0011,0.00154 -0.0013,0.00142 -0.0014,0.00129 -0.0015,0.00114 -0.0016,9.838e-4 -0.0017,8.182e-4 -0.0018,6.446e-4 -0.0019,4.65e-4 -0.0019,2.808e-4 -0.0019,9.39e-5 -0.0019,-9.39e-5 -0.0019,-2.808e-4 -0.0019,-4.65e-4 -0.0018,-6.446e-4 -0.0017,-8.182e-4 -0.0016,-9.838e-4 -0.0015,-0.00114 -0.0014,-0.00129 -0.0013,-0.00142 -0.0011,-0.00154 -9.83e-4,-0.00164 -8.19e-4,-0.00173 -6.44e-4,-0.0018 -4.65e-4,-0.00186 -2.81e-4,-0.00189 -9.4e-5,-0.00191 9.4e-5,-0.00191 2.81e-4,-0.00189 4.65e-4,-0.00186 6.44e-4,-0.0018 8.19e-4,-0.00173 9.83e-4,-0.00164 0.0011,-0.00154 0.0013,-0.00142 0.0014,-0.00129 0.0015,-0.00114 0.0016,-9.838e-4 0.0017,-8.182e-4 0.0018,-6.446e-4 0.0019,-4.65e-4 0.0019,-2.808e-4 0.0019,-9.39e-5 0.0019,9.39e-5 0.0019,2.808e-4 0.0019,4.65e-4 0.0018,6.446e-4 0.0017,8.182e-4 0.0016,9.838e-4 0.0015,0.00114 0.0014,0.00129 0.0013,0.00142 0.0011,0.00154 9.83e-4,0.00164 8.19e-4,0.00173 6.44e-4,0.0018 4.65e-4,0.00186 2.81e-4,0.00189 z"
     id="path5646"
     inkscape:connector-curvature="0"
     style="opacity:0.6;fill:#66cc99;fill-rule:evenodd;stroke:#555555;stroke-width:0.1" />
  <path
     d="m 11.157381,-5.5751161 -9.4e-5,0.00191 -2.81e-4,0.00189 -4.65e-4,0.00186 -6.44e-4,0.0018 -8.19e-4,0.00173 -9.83e-4,0.00164 -0.0011,0.00154 -0.0013,0.00142 -0.0014,0.00129 -0.0015,0.00114 -0.0016,9.838e-4 -0.0017,8.182e-4 -0.0018,6.446e-4 -0.0019,4.65e-4 -0.0019,2.808e-4 -0.0019,9.39e-5 -0.0019,-9.39e-5 -0.0019,-2.808e-4 -0.0019,-4.65e-4 -0.0018,-6.446e-4 -0.0017,-8.182e-4 -0.0016,-9.838e-4 -0.0015,-0.00114 -0.0014,-0.00129 -0.0013,-0.00142 -0.0011,-0.00154 -9.83e-4,-0.00164 -8.19e-4,-0.00173 -6.44e-4,-0.0018 -4.65e-4,-0.00186 -2.81e-4,-0.00189 -9.4e-5,-0.00191 9.4e-5,-0.00191 2.81e-4,-0.00189 4.65e-4,-0.00186 6.44e-4,-0.0018 8.19e-4,-0.00173 9.83e-4,-0.00164 0.0011,-0.00154 0.0013,-0.00142 0.0014,-0.00129 0.0015,-0.00114 0.0016,-9.838e-4 0.0017,-8.182e-4 0.0018,-6.446e-4 0.0019,-4.65e-4 0.0019,-2.808e-4 0.0019,-9.39e-5 0.0019,9.39e-5 0.0019,2.808e-4 0.0019,4.65e-4 0.0018,6.446e-4 0.0017,8.182e-4 0.0016,9.838e-4 0.0015,0.00114 0.0014,0.00129 0.0013,0.00142 0.0011,0.00154 9.83e-4,0.00164 8.19e-4,0.00173 6.44e-4,0.0018 4.65e-4,0.00186 2.81e-4,0.00189 z"
     id="path5648"
     inkscape:connector-curvature="0"
     style="opacity:0.6;fill:#66cc99;fill-rule:evenodd;stroke:#555555;stroke-width:0.1" />
  <path
     d="m 11.257381,-5.5751161 -9.4e-5,0.00191 -2.81e-4,0.00189 -4.65e-4,0.00186 -6.44e-4,0.0018 -8.19e-4,0.00173 -9.83e-4,0.00164 -0.0011,0.00154 -0.0013,0.00142 -0.0014,0.00129 -0.0015,0.00114 -0.0016,9.838e-4 -0.0017,8.182e-4 -0.0018,6.446e-4 -0.0019,4.65e-4 -0.0019,2.808e-4 -0.0019,9.39e-5 -0.0019,-9.39e-5 -0.0019,-2.808e-4 -0.0019,-4.65e-4 -0.0018,-6.446e-4 -0.0017,-8.182e-4 -0.0016,-9.838e-4 -0.0015,-0.00114 -0.0014,-0.00129 -0.0013,-0.00142 -0.0011,-0.00154 -9.83e-4,-0.00164 -8.19e-4,-0.00173 -6.44e-4,-0.0018 -4.65e-4,-0.00186 -2.81e-4,-0.00189 -9.4e-5,-0.00191 9.4e-5,-0.00191 2.81e-4,-0.00189 4.65e-4,-0.00186 6.44e-4,-0.0018 8.19e-4,-0.00173 9.83e-4,-0.00164 0.0011,-0.00154 0.0013,-0.00142 0.0014,-0.00129 0.0015,-0.00114 0.0016,-9.838e-4 0.0017,-8.182e-4 0.0018,-6.446e-4 0.0019,-4.65e-4 0.0019,-2.808e-4 0.0019,-9.39e-5 0.0019,9.39e-5 0.0019,2.808e-4 0.0019,4.65e-4 0.0018,6.446e-4 0.0017,8.182e-4 0.0016,9.838e-4 0.0015,0.00114 0.0014,0.00129 0.0013,0.00142 0.0011,0.00154 9.83e-4,0.00164 8.19e-4,0.00173 6.44e-4,0.0018 4.65e-4,0.00186 2.81e-4,0.00189 z"
     id="path5650"
     inkscape:connector-curvature="0"
     style="opacity:0.6;fill:#66cc99;fill-rule:evenodd;stroke:#555555;stroke-width:0.1" />
  <path
     d="m 11.357381,-5.5751161 -9.4e-5,0.00191 -2.81e-4,0.00189 -4.65e-4,0.00186 -6.44e-4,0.0018 -8.19e-4,0.00173 -9.83e-4,0.00164 -0.0011,0.00154 -0.0013,0.00142 -0.0014,0.00129 -0.0015,0.00114 -0.0016,9.838e-4 -0.0017,8.182e-4 -0.0018,6.446e-4 -0.0019,4.65e-4 -0.0019,2.808e-4 -0.0019,9.39e-5 -0.0019,-9.39e-5 -0.0019,-2.808e-4 -0.0019,-4.65e-4 -0.0018,-6.446e-4 -0.0017,-8.182e-4 -0.0016,-9.838e-4 -0.0015,-0.00114 -0.0014,-0.00129 -0.0013,-0.00142 -0.0011,-0.00154 -9.83e-4,-0.00164 -8.19e-4,-0.00173 -6.44e-4,-0.0018 -4.65e-4,-0.00186 -2.81e-4,-0.00189 -9.4e-5,-0.00191 9.4e-5,-0.00191 2.81e-4,-0.00189 4.65e-4,-0.00186 6.44e-4,-0.0018 8.19e-4,-0.00173 9.83e-4,-0.00164 0.0011,-0.00154 0.0013,-0.00142 0.0014,-0.00129 0.0015,-0.00114 0.0016,-9.838e-4 0.0017,-8.182e-4 0.0018,-6.446e-4 0.0019,-4.65e-4 0.0019,-2.808e-4 0.0019,-9.39e-5 0.0019,9.39e-5 0.0019,2.808e-4 0.0019,4.65e-4 0.0018,6.446e-4 0.0017,8.182e-4 0.0016,9.838e-4 0.0015,0.00114 0.0014,0.00129 0.0013,0.00142 0.0011,0.00154 9.83e-4,0.00164 8.19e-4,0.00173 6.44e-4,0.0018 4.65e-4,0.00186 2.81e-4,0.00189 z"
     id="path5652"
     inkscape:connector-curvature="0"
     style="opacity:0.6;fill:#66cc99;fill-rule:evenodd;stroke:#555555;stroke-width:0.1" />
  <path
     d="m 11.457381,-5.5751161 -9.4e-5,0.00191 -2.81e-4,0.00189 -4.65e-4,0.00186 -6.44e-4,0.0018 -8.19e-4,0.00173 -9.83e-4,0.00164 -0.0011,0.00154 -0.0013,0.00142 -0.0014,0.00129 -0.0015,0.00114 -0.0016,9.838e-4 -0.0017,8.182e-4 -0.0018,6.446e-4 -0.0019,4.65e-4 -0.0019,2.808e-4 -0.0019,9.39e-5 -0.0019,-9.39e-5 -0.0019,-2.808e-4 -0.0019,-4.65e-4 -0.0018,-6.446e-4 -0.0017,-8.182e-4 -0.0016,-9.838e-4 -0.0015,-0.00114 -0.0014,-0.00129 -0.0013,-0.00142 -0.0011,-0.00154 -9.83e-4,-0.00164 -8.19e-4,-0.00173 -6.44e-4,-0.0018 -4.65e-4,-0.00186 -2.81e-4,-0.00189 -9.4e-5,-0.00191 9.4e-5,-0.00191 2.81e-4,-0.00189 4.65e-4,-0.00186 6.44e-4,-0.0018 8.19e-4,-0.00173 9.83e-4,-0.00164 0.0011,-0.00154 0.0013,-0.00142 0.0014,-0.00129 0.0015,-0.00114 0.0016,-9.838e-4 0.0017,-8.182e-4 0.0018,-6.446e-4 0.0019,-4.65e-4 0.0019,-2.808e-4 0.0019,-9.39e-5 0.0019,9.39e-5 0.0019,2.808e-4 0.0019,4.65e-4 0.0018,6.446e-4 0.0017,8.182e-4 0.0016,9.838e-4 0.0015,0.00114 0.0014,0.00129 0.0013,0.00142 0.0011,0.00154 9.83e-4,0.00164 8.19e-4,0.00173 6.44e-4,0.0018 4.65e-4,0.00186 2.81e-4,0.00189 z"
     id="path5654"
     inkscape:connector-curvature="0"
     style="opacity:0.6;fill:#66cc99;fill-rule:evenodd;stroke:#555555;stroke-width:0.1" />
  <path
     d="m 11.557381,-5.5751161 -9.4e-5,0.00191 -2.81e-4,0.00189 -4.65e-4,0.00186 -6.44e-4,0.0018 -8.19e-4,0.00173 -9.83e-4,0.00164 -0.0011,0.00154 -0.0013,0.00142 -0.0014,0.00129 -0.0015,0.00114 -0.0016,9.838e-4 -0.0017,8.182e-4 -0.0018,6.446e-4 -0.0019,4.65e-4 -0.0019,2.808e-4 -0.0019,9.39e-5 -0.0019,-9.39e-5 -0.0019,-2.808e-4 -0.0019,-4.65e-4 -0.0018,-6.446e-4 -0.0017,-8.182e-4 -0.0016,-9.838e-4 -0.0015,-0.00114 -0.0014,-0.00129 -0.0013,-0.00142 -0.0011,-0.00154 -9.83e-4,-0.00164 -8.19e-4,-0.00173 -6.44e-4,-0.0018 -4.65e-4,-0.00186 -2.81e-4,-0.00189 -9.4e-5,-0.00191 9.4e-5,-0.00191 2.81e-4,-0.00189 4.65e-4,-0.00186 6.44e-4,-0.0018 8.19e-4,-0.00173 9.83e-4,-0.00164 0.0011,-0.00154 0.0013,-0.00142 0.0014,-0.00129 0.0015,-0.00114 0.0016,-9.838e-4 0.0017,-8.182e-4 0.0018,-6.446e-4 0.0019,-4.65e-4 0.0019,-2.808e-4 0.0019,-9.39e-5 0.0019,9.39e-5 0.0019,2.808e-4 0.0019,4.65e-4 0.0018,6.446e-4 0.0017,8.182e-4 0.0016,9.838e-4 0.0015,0.00114 0.0014,0.00129 0.0013,0.00142 0.0011,0.00154 9.83e-4,0.00164 8.19e-4,0.00173 6.44e-4,0.0018 4.65e-4,0.00186 2.81e-4,0.00189 z"
     id="path5656"
     inkscape:connector-curvature="0"
     style="opacity:0.6;fill:#66cc99;fill-rule:evenodd;stroke:#555555;stroke-width:0.1" />
</svg>
